<svg width="184" height="184" viewBox="0 0 184 184" fill="none" xmlns="http://www.w3.org/2000/svg">
<g filter="url(#filter0_d)">
<path d="M4 45.3514C4 20.8568 23.8568 1 48.3514 1H135.576C160.07 1 179.927 20.8568 179.927 45.3514V132.576C179.927 157.07 160.07 176.927 135.576 176.927H48.3514C23.8568 176.927 4 157.07 4 132.576V45.3514Z" fill="url(#paint0_linear)"/>
</g>
<path d="M129.167 70.3695C133.586 70.3695 136.673 65.9306 135.229 61.5896C132.66 53.8683 126.598 47.6325 119.093 44.9906C114.881 43.5139 110.558 46.6807 110.558 51.2263C110.558 61.8031 118.885 70.3695 129.167 70.3695Z" fill="#FED854"/>
<path d="M93.9954 144.03H95.5392V142.479V46.5466C95.5392 44.9257 94.88 43.2699 93.6485 42.1282C92.4516 40.8385 90.7776 40.333 89.2512 40.333H89.2251H89.1991C75.7124 40.76 63.171 46.3113 53.7172 55.915L53.7086 55.9237C44.2548 65.6407 39.0422 78.5647 39.0422 92.1248C39.0422 120.64 62.1042 143.812 90.37 144.021H90.3787H93.9954V144.03ZM49.3546 92.1248C49.3546 70.9305 64.7929 53.623 85.2355 50.9737V133.285C65.0704 130.705 49.3546 113.215 49.3546 92.1248Z" fill="#FBFEFD"/>
<path d="M95.5393 118.116V144.031C121.499 143.822 142.795 123.796 144.866 98.2978C145.075 96.3351 143.518 94.6851 141.56 94.6851H118.906C105.988 94.6851 95.5393 105.211 95.5393 118.116Z" fill="#FF624C"/>
<defs>
<filter id="filter0_d" x="0" y="0" width="183.927" height="183.927" filterUnits="userSpaceOnUse" color-interpolation-filters="sRGB">
<feFlood flood-opacity="0" result="BackgroundImageFix"/>
<feColorMatrix in="SourceAlpha" type="matrix" values="0 0 0 0 0 0 0 0 0 0 0 0 0 0 0 0 0 0 127 0"/>
<feOffset dy="3"/>
<feGaussianBlur stdDeviation="2"/>
<feColorMatrix type="matrix" values="0 0 0 0 0.0781875 0 0 0 0 0.371812 0 0 0 0 0.327022 0 0 0 0.4 0"/>
<feBlend mode="normal" in2="BackgroundImageFix" result="effect1_dropShadow"/>
<feBlend mode="normal" in="SourceGraphic" in2="effect1_dropShadow" result="shape"/>
</filter>
<linearGradient id="paint0_linear" x1="91.9636" y1="1" x2="91.9636" y2="176.927" gradientUnits="userSpaceOnUse">
<stop stop-color="#117859"/>
<stop offset="1" stop-color="#095B43"/>
</linearGradient>
</defs>
</svg>
