<svg id="Layer_1" data-name="Layer 1" xmlns="http://www.w3.org/2000/svg" xmlns:xlink="http://www.w3.org/1999/xlink" viewBox="0 0 74 74"><defs><style>.cls-1{fill:url(#linear-gradient);}.cls-2{fill:#fed854;}.cls-3{fill:#fbfefd;}.cls-4{fill:#ff624c;}</style><linearGradient id="linear-gradient" x1="37" y1="81.35" x2="37" y2="7.35" gradientTransform="matrix(1, 0, 0, -1, 0, 81.35)" gradientUnits="userSpaceOnUse"><stop offset="0" stop-color="#117859"/><stop offset="1" stop-color="#095b43"/></linearGradient></defs><path class="cls-1" d="M0,18.66A18.65,18.65,0,0,1,18.66,0H55.34A18.65,18.65,0,0,1,74,18.66V55.34A18.65,18.65,0,0,1,55.34,74H18.66A18.65,18.65,0,0,1,0,55.34Z"/><path class="cls-2" d="M52.65,29.18a2.76,2.76,0,0,0,2.55-3.69,11.17,11.17,0,0,0-6.79-7,2.71,2.71,0,0,0-3.59,2.63A7.94,7.94,0,0,0,52.65,29.18Z"/><path class="cls-3" d="M37.85,60.16h.65v-41a2.55,2.55,0,0,0-.79-1.86,2.51,2.51,0,0,0-1.85-.76h0A21.81,21.81,0,0,0,20.91,23.1h0A21.85,21.85,0,0,0,36.33,60.16h1.52ZM19.08,38.33A17.31,17.31,0,0,1,34.17,21V55.64A17.43,17.43,0,0,1,19.08,38.33Z"/><path class="cls-4" d="M38.5,49.26v10.9A21,21,0,0,0,59.25,40.93a1.37,1.37,0,0,0-1.39-1.52H48.33A9.85,9.85,0,0,0,38.5,49.26Z"/></svg>