<svg xmlns="http://www.w3.org/2000/svg" viewBox="0 0 376 84"><defs><style>.cls-1{fill:#fbfefd;}.cls-2{fill:#dbf0e0;}.cls-3{fill:#ff624c;stroke:#fbfefd;stroke-width:4px;}.cls-4,.cls-5{fill:#60a986;}.cls-5{fill-rule:evenodd;}</style></defs><g id="Livello_2" data-name="Livello 2"><g id="Livello_1-2" data-name="Livello 1"><path class="cls-1" d="M0,16H376V84H0Z"/><path class="cls-2" d="M122.5,67h131a2.5,2.5,0,0,1,2.5,2.5h0a2.5,2.5,0,0,1-2.5,2.5h-131a2.5,2.5,0,0,1-2.5-2.5h0A2.5,2.5,0,0,1,122.5,67Z"/><circle class="cls-3" cx="188" cy="28" r="26"/><path class="cls-4" d="M54.16,59.37a1.74,1.74,0,0,1,1,.62,1.71,1.71,0,0,1,.35,1.12,1.61,1.61,0,0,1-.69,1.4,3.34,3.34,0,0,1-2,.49H49.45V56h3.14a3.07,3.07,0,0,1,1.85.48,1.55,1.55,0,0,1,.66,1.33,1.65,1.65,0,0,1-.26.95A1.55,1.55,0,0,1,54.16,59.37Zm-3.71-2.56v2.24h2a2,2,0,0,0,1.18-.28,1,1,0,0,0,.42-.84.93.93,0,0,0-.42-.83,2,2,0,0,0-1.18-.29Zm2.3,5.38A2.32,2.32,0,0,0,54,61.91a1,1,0,0,0,.43-.88q0-1.17-1.71-1.17h-2.3v2.33Zm8.73-.94H57.76L57,63H56l3.17-7h1l3.18,7h-1Zm-.35-.8L59.62,57l-1.51,3.43Zm6.25,2.63a3.9,3.9,0,0,1-1.9-.46,3.45,3.45,0,0,1-1.32-1.28,3.58,3.58,0,0,1-.48-1.84,3.52,3.52,0,0,1,.48-1.83,3.34,3.34,0,0,1,1.33-1.28,3.91,3.91,0,0,1,1.9-.47,3.82,3.82,0,0,1,1.5.28,3,3,0,0,1,1.16.81l-.65.63a2.62,2.62,0,0,0-2-.83,2.89,2.89,0,0,0-1.41.35,2.56,2.56,0,0,0-1,1,2.74,2.74,0,0,0-.35,1.37A2.77,2.77,0,0,0,65,60.88a2.54,2.54,0,0,0,1,1,2.89,2.89,0,0,0,1.41.35,2.61,2.61,0,0,0,2-.84l.65.63a3.14,3.14,0,0,1-1.17.82A3.82,3.82,0,0,1,67.38,63.08ZM77.5,56v7h-1V59.88h-4V63h-1V56h1v3h4V56Zm7.17,6.13V63H79.59V56h4.94v.87H80.59V59H84.1v.85H80.59v2.26Zm4.72.95a3.9,3.9,0,0,1-1.9-.46,3.45,3.45,0,0,1-1.32-1.28,3.58,3.58,0,0,1-.48-1.84,3.52,3.52,0,0,1,.48-1.83,3.34,3.34,0,0,1,1.33-1.28,3.91,3.91,0,0,1,1.9-.47,3.82,3.82,0,0,1,1.5.28,3,3,0,0,1,1.16.81l-.65.63a2.62,2.62,0,0,0-2-.83,2.89,2.89,0,0,0-1.41.35,2.56,2.56,0,0,0-1,1,2.74,2.74,0,0,0-.35,1.37A2.77,2.77,0,0,0,87,60.88a2.54,2.54,0,0,0,1,1,2.89,2.89,0,0,0,1.41.35,2.61,2.61,0,0,0,2-.84l.65.63a3.14,3.14,0,0,1-1.17.82A3.82,3.82,0,0,1,89.39,63.08Zm8.39-1.83H94.06L93.29,63h-1l3.17-7h1l3.18,7h-1Zm-.35-.8L95.92,57l-1.51,3.43Z"/><path class="cls-4" d="M289.93,59.37a1.74,1.74,0,0,1,1,.62,1.76,1.76,0,0,1,.35,1.12,1.61,1.61,0,0,1-.69,1.4,3.36,3.36,0,0,1-2,.49h-3.34V56h3.14a3.07,3.07,0,0,1,1.85.48,1.55,1.55,0,0,1,.66,1.33,1.65,1.65,0,0,1-.26.95A1.55,1.55,0,0,1,289.93,59.37Zm-3.71-2.56v2.24h2a2,2,0,0,0,1.18-.28,1,1,0,0,0,.42-.84.93.93,0,0,0-.42-.83,2,2,0,0,0-1.18-.29Zm2.3,5.38a2.32,2.32,0,0,0,1.28-.28,1,1,0,0,0,.43-.88q0-1.17-1.71-1.17h-2.3v2.33Zm7.43.89a3.91,3.91,0,0,1-1.91-.46,3.46,3.46,0,0,1-1.34-1.29,3.73,3.73,0,0,1,0-3.66A3.44,3.44,0,0,1,294,56.39a4.1,4.1,0,0,1,3.81,0,3.34,3.34,0,0,1,1.33,1.28,3.52,3.52,0,0,1,.48,1.83,3.58,3.58,0,0,1-.48,1.84,3.41,3.41,0,0,1-1.33,1.28A3.9,3.9,0,0,1,296,63.08Zm0-.89a2.77,2.77,0,0,0,1.38-.35,2.49,2.49,0,0,0,1-1,2.68,2.68,0,0,0,.36-1.38,2.64,2.64,0,0,0-.36-1.37,2.51,2.51,0,0,0-1-1,2.77,2.77,0,0,0-1.38-.35,2.88,2.88,0,0,0-1.4.35,2.61,2.61,0,0,0-1,1,2.74,2.74,0,0,0-.35,1.37,2.77,2.77,0,0,0,.35,1.38,2.58,2.58,0,0,0,1,1A2.88,2.88,0,0,0,296,62.19Zm7.28.89a4.9,4.9,0,0,1-1.53-.24,3.21,3.21,0,0,1-1.15-.64l.37-.78a3,3,0,0,0,1,.59,3.8,3.8,0,0,0,1.29.22,2.38,2.38,0,0,0,1.3-.29.91.91,0,0,0,.43-.79.75.75,0,0,0-.24-.58,1.53,1.53,0,0,0-.58-.35c-.23-.08-.55-.17-1-.27a9.83,9.83,0,0,1-1.28-.38,2.19,2.19,0,0,1-.83-.58,1.58,1.58,0,0,1-.34-1.07,1.86,1.86,0,0,1,.29-1,2.06,2.06,0,0,1,.9-.72,3.61,3.61,0,0,1,1.49-.27,4.59,4.59,0,0,1,1.22.16,3.36,3.36,0,0,1,1,.46l-.33.8a3.43,3.43,0,0,0-.94-.42,3.38,3.38,0,0,0-1-.15,2.14,2.14,0,0,0-1.28.31,1,1,0,0,0-.42.8.78.78,0,0,0,.24.59,1.81,1.81,0,0,0,.59.35,9.64,9.64,0,0,0,1,.26,10.11,10.11,0,0,1,1.27.38,2.16,2.16,0,0,1,.82.58,1.53,1.53,0,0,1,.35,1.05,1.81,1.81,0,0,1-.3,1,2,2,0,0,1-.91.72A3.91,3.91,0,0,1,303.23,63.08Zm7.3,0a3.9,3.9,0,0,1-1.9-.46,3.45,3.45,0,0,1-1.32-1.28,3.58,3.58,0,0,1-.48-1.84,3.52,3.52,0,0,1,.48-1.83,3.34,3.34,0,0,1,1.33-1.28,3.91,3.91,0,0,1,1.9-.47,3.82,3.82,0,0,1,1.5.28,3,3,0,0,1,1.16.81l-.65.63a2.62,2.62,0,0,0-2-.83,2.89,2.89,0,0,0-1.41.35,2.56,2.56,0,0,0-1,1,2.74,2.74,0,0,0-.35,1.37,2.77,2.77,0,0,0,.35,1.38,2.54,2.54,0,0,0,1,1,2.89,2.89,0,0,0,1.41.35,2.61,2.61,0,0,0,2-.84l.65.63a3.14,3.14,0,0,1-1.17.82A3.82,3.82,0,0,1,310.53,63.08Zm7.11,0a3.91,3.91,0,0,1-1.91-.46,3.46,3.46,0,0,1-1.34-1.29,3.73,3.73,0,0,1,0-3.66,3.44,3.44,0,0,1,1.34-1.28,4.1,4.1,0,0,1,3.81,0,3.34,3.34,0,0,1,1.33,1.28,3.52,3.52,0,0,1,.48,1.83,3.58,3.58,0,0,1-.48,1.84,3.41,3.41,0,0,1-1.33,1.28A3.9,3.9,0,0,1,317.64,63.08Zm0-.89a2.77,2.77,0,0,0,1.38-.35,2.49,2.49,0,0,0,1-1,2.68,2.68,0,0,0,.36-1.38,2.64,2.64,0,0,0-.36-1.37,2.51,2.51,0,0,0-1-1,2.77,2.77,0,0,0-1.38-.35,2.88,2.88,0,0,0-1.4.35,2.61,2.61,0,0,0-1,1,2.74,2.74,0,0,0-.35,1.37,2.77,2.77,0,0,0,.35,1.38,2.58,2.58,0,0,0,1,1A2.88,2.88,0,0,0,317.64,62.19Z"/><path class="cls-4" d="M66,37h6a1,1,0,0,0,1-1V28a1,1,0,0,0-1-1H66a1,1,0,0,0-1,1v8a1,1,0,0,0,1,1Zm-1,7a1,1,0,0,0,1,1h6a1,1,0,0,0,1-1V40a1,1,0,0,0-1-1H66a1,1,0,0,0-1,1Zm10,0a1,1,0,0,0,1,1h6a1.05,1.05,0,0,0,.71-.29A1,1,0,0,0,83,44V37a1,1,0,0,0-.29-.71A1.05,1.05,0,0,0,82,36H76a1,1,0,0,0-1,1Zm1-10h6a1.05,1.05,0,0,0,.71-.29A1,1,0,0,0,83,33V28a1,1,0,0,0-.29-.71A1.05,1.05,0,0,0,82,27H76a1,1,0,0,0-1,1v5a1,1,0,0,0,1,1Z"/><path class="cls-4" d="M316.59,32.48A6.65,6.65,0,0,0,315,29.23a6.38,6.38,0,0,0-.52-.52l-4-4a.82.82,0,0,0-1.13,0l-3.83,3.78a7.57,7.57,0,0,0-.9.89,6.84,6.84,0,0,0-1.46,3,6.82,6.82,0,0,0,6.55,8.06,6.81,6.81,0,0,0,7-6.78A5.85,5.85,0,0,0,316.59,32.48Z"/><path class="cls-1" d="M295,32.52a8,8,0,1,1,8,8A8,8,0,0,1,295,32.52Z"/><path class="cls-5" d="M303,27.19a5.34,5.34,0,1,0,5.33,5.33A5.33,5.33,0,0,0,303,27.19Zm0-2.67a8,8,0,1,0,8,8A8,8,0,0,0,303,24.52Z"/><path class="cls-4" d="M295,42.23c0-1.14,0-2.27,0-3.41,0-.43.09-.6.37-.58.52,0,1,0,1.56,0,.26,0,.36.11.36.53q0,3.48,0,7c0,.37-.09.51-.32.5-.54,0-1.08,0-1.61,0-.3,0-.36-.2-.36-.61C295,44.5,295,43.36,295,42.23Z"/><path class="cls-4" d="M301.86,42.23c0-1.14,0-2.27,0-3.41,0-.43.09-.6.37-.58.52,0,1,0,1.56,0,.26,0,.36.11.35.53v7c0,.37-.08.51-.31.5-.54,0-1.08,0-1.61,0-.3,0-.36-.2-.36-.61C301.87,44.5,301.86,43.36,301.86,42.23Z"/><path class="cls-4" d="M308.72,42.23c0-1.14,0-2.27,0-3.41,0-.43.09-.6.38-.58.52,0,1,0,1.56,0,.25,0,.35.11.35.53q0,3.48,0,7c0,.37-.08.51-.32.5-.53,0-1.07,0-1.61,0-.3,0-.36-.2-.35-.61C308.73,44.5,308.72,43.36,308.72,42.23Z"/><path class="cls-4" d="M288.55,31.54l6.61-6.61a1.39,1.39,0,0,1,2,0l6.61,6.61a1.37,1.37,0,0,1,0,2l-6.61,6.62a1.39,1.39,0,0,1-2,0l-6.61-6.62A1.39,1.39,0,0,1,288.55,31.54Z"/></g></g></svg>