<svg xmlns="http://www.w3.org/2000/svg" xmlns:xlink="http://www.w3.org/1999/xlink" viewBox="0 0 160 224"><defs><style>.cls-1{fill:#fbfefd;}.cls-2{fill:url(#Sfumatura_senza_nome);}</style><linearGradient id="Sfumatura_senza_nome" x1="39.62" y1="344.78" x2="117.42" y2="256.55" gradientTransform="matrix(1, 0, 0, -1, 0, 409.89)" gradientUnits="userSpaceOnUse"><stop offset="0" stop-color="#fed854"/><stop offset="1" stop-color="#feba54"/></linearGradient></defs><g id="Livello_2" data-name="Livello 2"><g id="Livello_1-2" data-name="Livello 1"><path class="cls-1" d="M0,16A16,16,0,0,1,16,0H144a16,16,0,0,1,16,16V208a16,16,0,0,1-16,16H50.44a16,16,0,0,1-11.08-4.46L4.92,186.48A16,16,0,0,1,0,174.94Z"/><path class="cls-2" d="M29.31,131.11l30.38,30.41A12.47,12.47,0,0,0,72,164.78l41.56-11.19a12.8,12.8,0,0,0,9.08-9.08l11.17-41.6a13,13,0,0,0-3.26-12.35l-30.5-30.29A12.44,12.44,0,0,0,87.75,57L46.19,68.19a12.82,12.82,0,0,0-9.08,9.09L25.94,118.87A12.74,12.74,0,0,0,29.31,131.11Z"/></g></g></svg>