<svg xmlns="http://www.w3.org/2000/svg" xmlns:xlink="http://www.w3.org/1999/xlink" viewBox="0 0 160 224"><defs><style>.cls-1{fill:#fbfefd;}.cls-2{fill:url(#Sfumatura_senza_nome_4);}</style><linearGradient id="Sfumatura_senza_nome_4" x1="66.36" y1="-248.36" x2="100.69" y2="-167.18" gradientTransform="matrix(1, 0, 0, -1, 0, -102.11)" gradientUnits="userSpaceOnUse"><stop offset="0" stop-color="#47b42e"/><stop offset="1" stop-color="#76ce43"/></linearGradient></defs><g id="Livello_2" data-name="Livello 2"><g id="Livello_1-2" data-name="Livello 1"><path class="cls-1" d="M0,208a16,16,0,0,0,16,16H144a16,16,0,0,0,16-16V16A16,16,0,0,0,144,0H49.88a16,16,0,0,0-11,4.39L5,36.56a16,16,0,0,0-5,11.6Z"/><path class="cls-2" d="M80,168.48A54.48,54.48,0,1,0,25.52,114,54.48,54.48,0,0,0,80,168.48Z"/></g></g></svg>