<svg xmlns="http://www.w3.org/2000/svg" xmlns:xlink="http://www.w3.org/1999/xlink" viewBox="0 0 160 224"><defs><style>.cls-1{fill:#fbfefd;}.cls-2{fill:url(#Sfumatura_senza_nome_2);}</style><linearGradient id="Sfumatura_senza_nome_2" x1="90.98" y1="356.81" x2="74.97" y2="272.34" gradientTransform="matrix(1, 0, 0, -1, 0, 409.89)" gradientUnits="userSpaceOnUse"><stop offset="0" stop-color="#fa6647"/><stop offset="1" stop-color="#f94b3d"/></linearGradient></defs><g id="Livello_2" data-name="Livello 2"><g id="Livello_1-2" data-name="Livello 1"><path class="cls-1" d="M160,16A16,16,0,0,0,144,0H16A16,16,0,0,0,0,16V208a16,16,0,0,0,16,16h93.12a16,16,0,0,0,11-4.39L155,186.49a16,16,0,0,0,5-11.6Z"/><path class="cls-2" d="M72.64,167.94,23.06,118.36a10.38,10.38,0,0,1,0-14.72L72.64,54.06a10.38,10.38,0,0,1,14.72,0l49.58,49.58a10.38,10.38,0,0,1,0,14.72L87.36,167.94A10.38,10.38,0,0,1,72.64,167.94Z"/></g></g></svg>