<svg xmlns="http://www.w3.org/2000/svg" xmlns:xlink="http://www.w3.org/1999/xlink" viewBox="0 0 160 224"><defs><style>.cls-1{fill:#fbfefd;}.cls-2{fill:url(#Sfumatura_senza_nome_3);}</style><linearGradient id="Sfumatura_senza_nome_3" x1="80" y1="-156.11" x2="80" y2="-276.96" gradientTransform="matrix(1, 0, 0, -1, 0, -102.11)" gradientUnits="userSpaceOnUse"><stop offset="0" stop-color="#6de2e9"/><stop offset="1" stop-color="#6dbce9"/></linearGradient></defs><g id="Livello_2" data-name="Livello 2"><g id="Livello_1-2" data-name="Livello 1"><path class="cls-1" d="M160,208a16,16,0,0,1-16,16H16A16,16,0,0,1,0,208V16A16,16,0,0,1,16,0h94.62a16,16,0,0,1,11,4.39L155,36.08a16,16,0,0,1,5,11.61Z"/><path class="cls-2" d="M129.42,114.06A51.15,51.15,0,0,0,117.5,89.54a52.62,52.62,0,0,0-3.85-3.91L84.25,55.72a5.93,5.93,0,0,0-8.35,0L47.82,84.28a51.64,51.64,0,0,0-17.36,29.65,58.22,58.22,0,0,0-.53,15.22c2.52,24.12,24.91,45,48.62,45.68,28.48.81,51.8-22.37,51.8-51.2A46.09,46.09,0,0,0,129.42,114.06Z"/></g></g></svg>