<svg xmlns="http://www.w3.org/2000/svg" viewBox="0 0 376.03 812"><defs><style>.cls-1{fill:#dbf0e0;}.cls-2{fill:#fbfefd;}.cls-3{fill:#272631;}.cls-4{fill:#ffe0d7;stroke-width:4px;}.cls-4,.cls-9{stroke:#fbfefd;}.cls-5,.cls-6{fill:#60a986;}.cls-6{fill-rule:evenodd;}.cls-7{fill:#007c5b;}.cls-8{fill:#434343;}.cls-9{fill:none;}</style></defs><g id="Livello_2" data-name="Livello 2"><g id="Livello_1-2" data-name="Livello 1"><rect class="cls-1" x="0.03" width="376" height="812"/><rect class="cls-2" x="16.03" y="96" width="344" height="64" rx="16"/><path class="cls-3" d="M75.65,136.29A9.81,9.81,0,0,1,71,135.18a8.57,8.57,0,0,1-3.26-3.09,8.72,8.72,0,0,1-1.18-4.49,8.56,8.56,0,0,1,1.18-4.46A8.38,8.38,0,0,1,71,120a10.35,10.35,0,0,1,8.62-.36,7.92,7.92,0,0,1,3,2.21l-2.5,2.3a5.37,5.37,0,0,0-4.22-2,5.61,5.61,0,0,0-2.79.7,4.94,4.94,0,0,0-1.92,1.9,6.1,6.1,0,0,0,0,5.56,5.06,5.06,0,0,0,1.92,1.92,5.71,5.71,0,0,0,2.79.68,5.34,5.34,0,0,0,4.22-2l2.5,2.31a7.86,7.86,0,0,1-3,2.23A9.88,9.88,0,0,1,75.65,136.29Zm15-.1a7.94,7.94,0,0,1-3.68-.84A6.47,6.47,0,0,1,84.45,133a6.94,6.94,0,0,1,0-6.87A6.28,6.28,0,0,1,87,123.76a7.71,7.71,0,0,1,3.68-.86,7.5,7.5,0,0,1,3.64.86,6.15,6.15,0,0,1,2.52,2.35,6.87,6.87,0,0,1,0,6.87,6.33,6.33,0,0,1-2.52,2.37A7.72,7.72,0,0,1,90.65,136.19Zm0-3.07a3.1,3.1,0,0,0,2.35-1,3.67,3.67,0,0,0,.93-2.62A3.57,3.57,0,0,0,93,127a3.08,3.08,0,0,0-2.35-1,3.16,3.16,0,0,0-2.38,1,3.58,3.58,0,0,0-.94,2.59,3.67,3.67,0,0,0,.94,2.62A3.18,3.18,0,0,0,90.65,133.12Zm26.12-10.22a5.16,5.16,0,0,1,3.84,1.44,5.73,5.73,0,0,1,1.44,4.27V136H118.3v-6.82a3.37,3.37,0,0,0-.65-2.28,2.17,2.17,0,0,0-1.8-.76,2.62,2.62,0,0,0-2.08.86,3.59,3.59,0,0,0-.77,2.52V136h-3.75v-6.82c0-2-.81-3-2.44-3a2.61,2.61,0,0,0-2.07.86,3.64,3.64,0,0,0-.77,2.52V136h-3.74V123.09h3.58v1.49a4.68,4.68,0,0,1,1.75-1.25,6,6,0,0,1,2.3-.43,5.4,5.4,0,0,1,2.47.55,4.26,4.26,0,0,1,1.78,1.56,5.37,5.37,0,0,1,2-1.56A6.41,6.41,0,0,1,116.77,122.9Zm21.42,6.69s0,.39-.07,1h-9.77a3.07,3.07,0,0,0,1.25,1.9,4.14,4.14,0,0,0,2.45.69,4.83,4.83,0,0,0,1.77-.29,4.24,4.24,0,0,0,1.47-1l2,2.16a6.67,6.67,0,0,1-5.33,2.09,8.5,8.5,0,0,1-3.86-.84,6.36,6.36,0,0,1-2.6-2.37,6.95,6.95,0,0,1,0-6.84,6.28,6.28,0,0,1,2.47-2.38,7.67,7.67,0,0,1,7-.05,5.84,5.84,0,0,1,2.4,2.35A6.88,6.88,0,0,1,138.19,129.59Zm-6.7-3.86a3.21,3.21,0,0,0-2.13.72,3,3,0,0,0-1.06,2h6.36a3.08,3.08,0,0,0-1-1.95A3.17,3.17,0,0,0,131.49,125.73Zm24.32,9.65a4,4,0,0,1-1.37.62,7,7,0,0,1-1.68.19,5.1,5.1,0,0,1-3.58-1.17,4.55,4.55,0,0,1-1.24-3.46v-5.3h-2v-2.88h2v-3.15h3.74v3.15h3.22v2.88h-3.22v5.25a1.83,1.83,0,0,0,.41,1.27,1.62,1.62,0,0,0,1.2.44,2.41,2.41,0,0,0,1.51-.48Zm2.1-12.29h3.74V136h-3.74Zm1.87-1.8a2.37,2.37,0,0,1-1.68-.6,2,2,0,0,1,0-3,2.37,2.37,0,0,1,1.68-.6,2.4,2.4,0,0,1,1.68.58,1.84,1.84,0,0,1,.65,1.44,2.1,2.1,0,0,1-.65,1.56A2.37,2.37,0,0,1,159.78,121.29Zm16.49,14.9a13.31,13.31,0,0,1-3.15-.38,8.26,8.26,0,0,1-2.44-1l1.24-2.69A8.23,8.23,0,0,0,174,133a8.85,8.85,0,0,0,2.4.34c1.59,0,2.38-.39,2.38-1.18a.84.84,0,0,0-.65-.79,10.17,10.17,0,0,0-2-.41,19,19,0,0,1-2.62-.55,4.11,4.11,0,0,1-1.8-1.1,3.2,3.2,0,0,1-.74-2.26,3.57,3.57,0,0,1,.69-2.16,4.66,4.66,0,0,1,2.07-1.49,8.93,8.93,0,0,1,3.21-.52,11.88,11.88,0,0,1,2.72.31,7.37,7.37,0,0,1,2.25.81l-1.25,2.67a7.42,7.42,0,0,0-3.72-1,3.84,3.84,0,0,0-1.8.33,1,1,0,0,0-.6.87.86.86,0,0,0,.65.84,11.17,11.17,0,0,0,2.07.45,20.71,20.71,0,0,1,2.59.58,3.79,3.79,0,0,1,1.75,1.08,3.08,3.08,0,0,1,.74,2.21,3.38,3.38,0,0,1-.72,2.13,4.6,4.6,0,0,1-2.11,1.47A9.59,9.59,0,0,1,176.27,136.19Zm21-6.6s0,.39-.07,1h-9.77a3.07,3.07,0,0,0,1.25,1.9,4.17,4.17,0,0,0,2.45.69,4.83,4.83,0,0,0,1.77-.29,4.24,4.24,0,0,0,1.47-1l2,2.16a6.67,6.67,0,0,1-5.33,2.09,8.53,8.53,0,0,1-3.86-.84,6.27,6.27,0,0,1-2.59-2.37,6.92,6.92,0,0,1,0-6.84,6.28,6.28,0,0,1,2.47-2.38,7.67,7.67,0,0,1,7-.05,5.84,5.84,0,0,1,2.4,2.35A6.78,6.78,0,0,1,197.32,129.59Zm-6.69-3.86a3.24,3.24,0,0,0-2.14.72,3,3,0,0,0-1.06,2h6.36a3,3,0,0,0-1-1.95A3.16,3.16,0,0,0,190.63,125.73Zm17-2.83a5.29,5.29,0,0,1,3.87,1.44,5.68,5.68,0,0,1,1.49,4.27V136h-3.75v-6.82a3.32,3.32,0,0,0-.67-2.28,2.45,2.45,0,0,0-1.94-.76,3,3,0,0,0-2.26.88,3.6,3.6,0,0,0-.84,2.6V136h-3.74V123.09h3.57v1.51a4.93,4.93,0,0,1,1.85-1.25A6.36,6.36,0,0,1,207.66,122.9Zm17.08,12.48a4,4,0,0,1-1.37.62,7,7,0,0,1-1.68.19,5.1,5.1,0,0,1-3.58-1.17,4.55,4.55,0,0,1-1.25-3.46v-5.3h-2v-2.88h2v-3.15h3.75v3.15h3.21v2.88h-3.21v5.25a1.78,1.78,0,0,0,.41,1.27,1.59,1.59,0,0,0,1.2.44,2.41,2.41,0,0,0,1.51-.48Zm2.1-12.29h3.74V136h-3.74Zm1.87-1.8a2.37,2.37,0,0,1-1.68-.6,2,2,0,0,1,0-3,2.37,2.37,0,0,1,1.68-.6,2.4,2.4,0,0,1,1.68.58,1.84,1.84,0,0,1,.65,1.44,2.1,2.1,0,0,1-.65,1.56A2.37,2.37,0,0,1,228.71,121.29ZM247,136.19a7.87,7.87,0,0,1-3.67-.84,6.33,6.33,0,0,1-2.52-2.37,6.87,6.87,0,0,1,0-6.87,6.15,6.15,0,0,1,2.52-2.35,7.65,7.65,0,0,1,3.67-.86,7.57,7.57,0,0,1,3.65.86,6.28,6.28,0,0,1,2.52,2.35,6.94,6.94,0,0,1,0,6.87,6.47,6.47,0,0,1-2.52,2.37A7.79,7.79,0,0,1,247,136.19Zm0-3.07a3.1,3.1,0,0,0,2.35-1,3.67,3.67,0,0,0,.94-2.62,3.58,3.58,0,0,0-.94-2.59,3.08,3.08,0,0,0-2.35-1,3.17,3.17,0,0,0-2.38,1,3.57,3.57,0,0,0-.93,2.59,3.67,3.67,0,0,0,.93,2.62A3.2,3.2,0,0,0,247,133.12Zm22.9-10v10.75q0,3.56-1.85,5.28a7.63,7.63,0,0,1-5.4,1.73,13.23,13.23,0,0,1-3.55-.46,7.57,7.57,0,0,1-2.78-1.32l1.48-2.69a6.11,6.11,0,0,0,2.07,1.06,8,8,0,0,0,2.49.41,4,4,0,0,0,2.86-.89,3.45,3.45,0,0,0,.94-2.64v-.55a5.26,5.26,0,0,1-4.08,1.61,7,7,0,0,1-3.27-.77,6.4,6.4,0,0,1-2.33-8.74,6,6,0,0,1,2.33-2.18,6.81,6.81,0,0,1,3.27-.79,5.13,5.13,0,0,1,4.27,1.84v-1.65Zm-7.08,9.21a3.4,3.4,0,0,0,2.42-.86,3,3,0,0,0,1-2.3,2.9,2.9,0,0,0-1-2.28,3.33,3.33,0,0,0-2.42-.89,3.44,3.44,0,0,0-2.45.89,2.9,2.9,0,0,0-1,2.28,3,3,0,0,0,1,2.3A3.51,3.51,0,0,0,262.82,132.3Zm23.89-9.21v10.75q0,3.56-1.85,5.28a7.63,7.63,0,0,1-5.4,1.73,13.23,13.23,0,0,1-3.55-.46,7.7,7.7,0,0,1-2.79-1.32l1.49-2.69a6,6,0,0,0,2.06,1.06,8.13,8.13,0,0,0,2.5.41A4,4,0,0,0,282,137a3.45,3.45,0,0,0,.93-2.64v-.55a5.23,5.23,0,0,1-4.08,1.61,7,7,0,0,1-3.26-.77,6.4,6.4,0,0,1-2.33-8.74,5.89,5.89,0,0,1,2.33-2.18,6.8,6.8,0,0,1,3.26-.79,5.12,5.12,0,0,1,4.27,1.84v-1.65Zm-7.08,9.21a3.4,3.4,0,0,0,2.42-.86,3,3,0,0,0,1-2.3,2.9,2.9,0,0,0-1-2.28,3.33,3.33,0,0,0-2.42-.89,3.42,3.42,0,0,0-2.45.89,2.9,2.9,0,0,0-1,2.28,3,3,0,0,0,1,2.3A3.49,3.49,0,0,0,279.63,132.3Zm10.56-9.21h3.74V136h-3.74Zm1.87-1.8a2.37,2.37,0,0,1-1.68-.6,2,2,0,0,1,0-3,2.37,2.37,0,0,1,1.68-.6,2.4,2.4,0,0,1,1.68.58,1.84,1.84,0,0,1,.65,1.44,2.1,2.1,0,0,1-.65,1.56A2.37,2.37,0,0,1,292.06,121.29Zm9.46,8.88a3.71,3.71,0,0,1,.55-2.07,12.31,12.31,0,0,1,1.66-1.8,9.16,9.16,0,0,0,1.15-1.2,1.78,1.78,0,0,0,.39-1.12,1.62,1.62,0,0,0-.72-1.4,3.06,3.06,0,0,0-1.88-.52,4.18,4.18,0,0,0-3.48,1.77l-2.9-1.7a6.73,6.73,0,0,1,2.71-2.38,9.23,9.23,0,0,1,4.08-.84,7.46,7.46,0,0,1,4.42,1.18,3.76,3.76,0,0,1,1.68,3.26,4.08,4.08,0,0,1-.34,1.73,4.35,4.35,0,0,1-.79,1.27,15.14,15.14,0,0,1-1.2,1.18,10.3,10.3,0,0,0-1.3,1.34,2.08,2.08,0,0,0-.4,1.3Zm1.83,6a2.37,2.37,0,0,1-1.66-.62A2.13,2.13,0,0,1,301,134a2,2,0,0,1,.65-1.51,2.49,2.49,0,0,1,3.31,0,2,2,0,0,1,.65,1.51,2.07,2.07,0,0,1-.67,1.56A2.28,2.28,0,0,1,303.35,136.19Z"/><path class="cls-3" d="M164.15,183.18V185h-7.58v-9.8H164V177h-5.15v2.13h4.55v1.76h-4.55v2.27Zm6.23-5.82a3.08,3.08,0,0,1,2.26.84,3.31,3.31,0,0,1,.87,2.49V185h-2.19v-4a2,2,0,0,0-.39-1.33,1.45,1.45,0,0,0-1.13-.44,1.74,1.74,0,0,0-1.32.51,2.09,2.09,0,0,0-.49,1.52V185h-2.18v-7.53h2.08v.88a2.83,2.83,0,0,1,1.08-.73A3.8,3.8,0,0,1,170.38,177.36Zm12.56,3.9s0,.23,0,.59h-5.7a1.84,1.84,0,0,0,.73,1.11,2.43,2.43,0,0,0,1.43.4,2.8,2.8,0,0,0,1-.17,2.51,2.51,0,0,0,.85-.56l1.16,1.26a3.88,3.88,0,0,1-3.11,1.22,4.93,4.93,0,0,1-2.25-.49,3.68,3.68,0,0,1-1.51-1.38,3.77,3.77,0,0,1-.53-2,3.87,3.87,0,0,1,.51-2,3.72,3.72,0,0,1,1.45-1.39,4.15,4.15,0,0,1,2.05-.5,4.2,4.2,0,0,1,2,.47,3.55,3.55,0,0,1,1.4,1.37A4.06,4.06,0,0,1,182.94,181.26ZM179,179a1.89,1.89,0,0,0-1.25.42,1.78,1.78,0,0,0-.61,1.15h3.71a1.79,1.79,0,0,0-.62-1.14A1.83,1.83,0,0,0,179,179Zm7.44-.55a2.51,2.51,0,0,1,1.05-.82,4,4,0,0,1,1.54-.28v2l-.49,0a2,2,0,0,0-1.47.54,2.09,2.09,0,0,0-.53,1.56V185H184.4v-7.53h2.08Zm11.6-1v6.27a4,4,0,0,1-1.08,3.08,4.46,4.46,0,0,1-3.15,1,7.72,7.72,0,0,1-2.07-.27,4.49,4.49,0,0,1-1.63-.77l.87-1.57a3.4,3.4,0,0,0,1.2.62,4.65,4.65,0,0,0,1.46.24,2.35,2.35,0,0,0,1.67-.52,2,2,0,0,0,.54-1.54v-.32a3.07,3.07,0,0,1-2.38.94,4.06,4.06,0,0,1-1.9-.45,3.59,3.59,0,0,1-1.36-1.29,3.88,3.88,0,0,1,0-3.81,3.46,3.46,0,0,1,1.36-1.27,4,4,0,0,1,1.9-.46,3,3,0,0,1,2.49,1.07v-1ZM194,182.84a2,2,0,0,0,1.41-.5,1.76,1.76,0,0,0,.56-1.34,1.71,1.71,0,0,0-.56-1.33,2,2,0,0,0-1.41-.52,2,2,0,0,0-1.43.52A1.67,1.67,0,0,0,192,181a1.72,1.72,0,0,0,.56,1.34A2,2,0,0,0,194,182.84Zm6.16-5.37h2.18V185h-2.18Zm1.09-1.05a1.4,1.4,0,0,1-1-.35,1.19,1.19,0,0,1,0-1.74,1.56,1.56,0,0,1,2,0,1.07,1.07,0,0,1,.38.84,1.24,1.24,0,0,1-.38.91A1.4,1.4,0,0,1,201.2,176.42Zm6.76,8.69a4.68,4.68,0,0,1-2.17-.49,3.78,3.78,0,0,1-1.5-1.38,4.06,4.06,0,0,1,0-4,3.68,3.68,0,0,1,1.5-1.37,4.57,4.57,0,0,1,2.17-.5,4.07,4.07,0,0,1,2.07.5,2.92,2.92,0,0,1,1.3,1.41l-1.69.91a1.85,1.85,0,0,0-1.7-1,1.93,1.93,0,0,0-1.41.56,2.36,2.36,0,0,0,0,3,1.93,1.93,0,0,0,1.41.56,1.82,1.82,0,0,0,1.7-1l1.69.93a3,3,0,0,1-1.3,1.4A4.17,4.17,0,0,1,208,185.11Zm8.12,0a4.56,4.56,0,0,1-2.14-.49,3.69,3.69,0,0,1-1.47-1.38,4,4,0,0,1,0-4,3.6,3.6,0,0,1,1.47-1.37,4.81,4.81,0,0,1,4.27,0,3.73,3.73,0,0,1,1.47,1.37,3.83,3.83,0,0,1-1.47,5.39A4.52,4.52,0,0,1,216.08,185.11Zm0-1.79a1.81,1.81,0,0,0,1.37-.56,2.14,2.14,0,0,0,.55-1.53,2.11,2.11,0,0,0-.55-1.51,1.78,1.78,0,0,0-1.37-.57,1.85,1.85,0,0,0-1.39.57,2.1,2.1,0,0,0-.54,1.51,2.13,2.13,0,0,0,.54,1.53A1.88,1.88,0,0,0,216.08,183.32Z"/><path class="cls-3" d="M170.38,705.17a5.68,5.68,0,0,1-2.71-.65,4.94,4.94,0,0,1-1.91-1.8,5.14,5.14,0,0,1-.68-2.62,5,5,0,0,1,.68-2.6,4.82,4.82,0,0,1,1.91-1.81,6,6,0,0,1,5-.21,4.66,4.66,0,0,1,1.74,1.29L173,698.11a3.14,3.14,0,0,0-2.46-1.15,3.26,3.26,0,0,0-1.63.41,2.91,2.91,0,0,0-1.12,1.11,3.56,3.56,0,0,0,0,3.24,3,3,0,0,0,1.12,1.12,3.36,3.36,0,0,0,1.63.4,3.1,3.1,0,0,0,2.46-1.17l1.46,1.35a4.58,4.58,0,0,1-1.74,1.3A5.73,5.73,0,0,1,170.38,705.17Zm8.41-7.81a3.91,3.91,0,0,1,2.69.84,3.17,3.17,0,0,1,.94,2.5V705h-2v-.94a2.42,2.42,0,0,1-2.29,1.05,3.75,3.75,0,0,1-1.52-.29,2.27,2.27,0,0,1-1-.81,2.09,2.09,0,0,1-.34-1.18,2,2,0,0,1,.79-1.65,4.05,4.05,0,0,1,2.45-.6h1.73a1.39,1.39,0,0,0-.43-1.1,1.91,1.91,0,0,0-1.3-.39,3.72,3.72,0,0,0-1.19.2,3,3,0,0,0-1,.5l-.79-1.52a4.75,4.75,0,0,1,1.47-.68A6.64,6.64,0,0,1,178.79,697.36Zm-.17,6.28a2,2,0,0,0,1-.25,1.47,1.47,0,0,0,.61-.77v-.77h-1.5c-.89,0-1.34.29-1.34.88a.81.81,0,0,0,.32.67A1.56,1.56,0,0,0,178.62,703.64Zm5.77-9h2.19V705h-2.19Zm13.86,2.75a3,3,0,0,1,2.24.84,3.35,3.35,0,0,1,.84,2.49V705h-2.18v-4a2,2,0,0,0-.38-1.33,1.32,1.32,0,0,0-1.05-.44,1.53,1.53,0,0,0-1.22.5,2.12,2.12,0,0,0-.45,1.47V705h-2.18v-4c0-1.18-.48-1.77-1.43-1.77a1.5,1.5,0,0,0-1.2.5,2.12,2.12,0,0,0-.45,1.47V705H188.6v-7.53h2.09v.87a2.77,2.77,0,0,1,1-.73,3.49,3.49,0,0,1,1.35-.25,3.11,3.11,0,0,1,1.44.32,2.45,2.45,0,0,1,1,.91,3.09,3.09,0,0,1,1.17-.91A3.62,3.62,0,0,1,198.25,697.36Zm8.7,7.75a4.59,4.59,0,0,1-2.14-.49,3.92,3.92,0,0,1-1.47-5.39,3.73,3.73,0,0,1,1.47-1.37,4.47,4.47,0,0,1,2.14-.5,4.35,4.35,0,0,1,2.13.5,3.6,3.6,0,0,1,1.47,1.37,4.06,4.06,0,0,1,0,4,3.69,3.69,0,0,1-1.47,1.38A4.46,4.46,0,0,1,207,705.11Zm0-1.79a1.81,1.81,0,0,0,1.37-.56,2.1,2.1,0,0,0,.55-1.53,2,2,0,0,0-.55-1.51,1.78,1.78,0,0,0-1.37-.57,1.82,1.82,0,0,0-1.38.57,2,2,0,0,0-.55,1.51,2.1,2.1,0,0,0,.55,1.53A1.85,1.85,0,0,0,207,703.32Z"/><path class="cls-3" d="M20.53,446.17a8.11,8.11,0,0,1-2.26-.31,5.26,5.26,0,0,1-1.73-.83l.77-1.7a5.7,5.7,0,0,0,3.23,1,2.82,2.82,0,0,0,1.43-.28.89.89,0,0,0,.46-.77.71.71,0,0,0-.28-.58,2,2,0,0,0-.7-.37A10.34,10.34,0,0,0,20.3,442a18.29,18.29,0,0,1-1.83-.53,3,3,0,0,1-1.23-.86,2.3,2.3,0,0,1-.51-1.57,2.78,2.78,0,0,1,.46-1.54,3.12,3.12,0,0,1,1.39-1.1,5.77,5.77,0,0,1,2.28-.41,7.54,7.54,0,0,1,1.84.23,5.11,5.11,0,0,1,1.56.64l-.7,1.72a5.48,5.48,0,0,0-2.71-.77,2.56,2.56,0,0,0-1.42.31A1,1,0,0,0,19,439a.81.81,0,0,0,.51.76,8.54,8.54,0,0,0,1.61.47,16,16,0,0,1,1.84.54,2.92,2.92,0,0,1,1.22.84,2.25,2.25,0,0,1,.51,1.55,2.66,2.66,0,0,1-.47,1.54,3.14,3.14,0,0,1-1.4,1.09A5.77,5.77,0,0,1,20.53,446.17Zm10-7.81a3.75,3.75,0,0,1,1.91.49,3.37,3.37,0,0,1,1.35,1.35,4,4,0,0,1,.49,2,4.12,4.12,0,0,1-.49,2,3.53,3.53,0,0,1-1.35,1.36,3.94,3.94,0,0,1-1.91.47,2.9,2.9,0,0,1-2.27-.91v3.52H26.08V438.47h2.09v.87A2.87,2.87,0,0,1,30.53,438.36Zm-.38,6a1.85,1.85,0,0,0,1.38-.56,2.13,2.13,0,0,0,.54-1.53,2.1,2.1,0,0,0-.54-1.51,2,2,0,0,0-2.76,0,2.09,2.09,0,0,0-.53,1.51,2.13,2.13,0,0,0,.53,1.53A1.85,1.85,0,0,0,30.15,444.32Zm5.6-5.85h2.18V446H35.75Zm1.09-1.05a1.4,1.4,0,0,1-1-.35,1.15,1.15,0,0,1-.38-.87,1.17,1.17,0,0,1,.38-.87,1.56,1.56,0,0,1,2,0,1.07,1.07,0,0,1,.38.84,1.22,1.22,0,0,1-.38.91A1.4,1.4,0,0,1,36.84,437.42Zm6.15.94a3.89,3.89,0,0,1,2.69.84,3.14,3.14,0,0,1,.94,2.5V446h-2v-.94a2.44,2.44,0,0,1-2.3,1.05,3.7,3.7,0,0,1-1.51-.29,2.36,2.36,0,0,1-1-.81,2.16,2.16,0,0,1-.33-1.18,2,2,0,0,1,.78-1.65,4.07,4.07,0,0,1,2.45-.6h1.74a1.39,1.39,0,0,0-.44-1.1,1.89,1.89,0,0,0-1.3-.39,3.76,3.76,0,0,0-1.19.2,3.12,3.12,0,0,0-1,.5l-.78-1.52a4.75,4.75,0,0,1,1.47-.68A6.62,6.62,0,0,1,43,438.36Zm-.16,6.28a1.92,1.92,0,0,0,1-.25,1.44,1.44,0,0,0,.62-.77v-.77h-1.5c-.9,0-1.35.29-1.35.88a.79.79,0,0,0,.33.67A1.51,1.51,0,0,0,42.83,444.64Zm9.49,1.47a4.68,4.68,0,0,1-2.17-.49,3.9,3.9,0,0,1-1.5-5.39,3.75,3.75,0,0,1,1.5-1.37,4.57,4.57,0,0,1,2.17-.5,4.07,4.07,0,0,1,2.07.5,2.92,2.92,0,0,1,1.3,1.41l-1.69.91a1.85,1.85,0,0,0-1.69-1,1.9,1.9,0,0,0-1.42.56,2.36,2.36,0,0,0,0,3.05,1.94,1.94,0,0,0,1.42.56,1.82,1.82,0,0,0,1.69-1l1.69.93a3,3,0,0,1-1.3,1.4A4.17,4.17,0,0,1,52.32,446.11Zm11.91-3.85s0,.23,0,.59h-5.7a1.84,1.84,0,0,0,.73,1.11,2.41,2.41,0,0,0,1.43.4,2.8,2.8,0,0,0,1-.17,2.51,2.51,0,0,0,.85-.56l1.16,1.26a3.88,3.88,0,0,1-3.11,1.22,4.9,4.9,0,0,1-2.25-.49,3.68,3.68,0,0,1-1.51-1.38,3.77,3.77,0,0,1-.53-2,3.87,3.87,0,0,1,.51-2,3.72,3.72,0,0,1,1.45-1.39,4.15,4.15,0,0,1,2.05-.5,4.32,4.32,0,0,1,2,.47,3.55,3.55,0,0,1,1.4,1.37A4.06,4.06,0,0,1,64.23,442.26ZM60.33,440a1.89,1.89,0,0,0-1.25.42,1.78,1.78,0,0,0-.61,1.15h3.71a1.79,1.79,0,0,0-.62-1.14A1.83,1.83,0,0,0,60.33,440ZM73,438.47,69.85,446H67.59l-3.16-7.53h2.25l2.09,5.12,2.16-5.12Zm4.27,7.64a4.6,4.6,0,0,1-2.15-.49,3.92,3.92,0,0,1-1.47-5.39,3.73,3.73,0,0,1,1.47-1.37,4.49,4.49,0,0,1,2.15-.5,4.34,4.34,0,0,1,2.12.5,3.6,3.6,0,0,1,1.47,1.37,4,4,0,0,1,0,4,3.69,3.69,0,0,1-1.47,1.38A4.45,4.45,0,0,1,77.3,446.11Zm0-1.79a1.82,1.82,0,0,0,1.37-.56,2.13,2.13,0,0,0,.54-1.53,2.1,2.1,0,0,0-.54-1.51,1.8,1.8,0,0,0-1.37-.57,1.84,1.84,0,0,0-1.39.57,2.11,2.11,0,0,0-.55,1.51,2.14,2.14,0,0,0,.55,1.53A1.87,1.87,0,0,0,77.3,444.32Zm5.59-8.71h2.18V446H82.89Zm11.59,6.65s0,.23,0,.59H88.74a1.79,1.79,0,0,0,.72,1.11,2.43,2.43,0,0,0,1.43.4,2.8,2.8,0,0,0,1-.17,2.42,2.42,0,0,0,.85-.56l1.16,1.26a3.87,3.87,0,0,1-3.1,1.22,5,5,0,0,1-2.26-.49,3.68,3.68,0,0,1-1.51-1.38,4.05,4.05,0,0,1,0-4,3.63,3.63,0,0,1,1.44-1.39,4.16,4.16,0,0,1,2.06-.5,4.3,4.3,0,0,1,2,.47A3.55,3.55,0,0,1,94,440.2,4.07,4.07,0,0,1,94.48,442.26ZM90.57,440a1.89,1.89,0,0,0-1.25.42,1.78,1.78,0,0,0-.61,1.15h3.71a1.79,1.79,0,0,0-.62-1.14A1.81,1.81,0,0,0,90.57,440Z"/><path class="cls-3" d="M294.79,436.2a5.54,5.54,0,0,1,2.25.43,3.3,3.3,0,0,1,1.48,1.24,3.35,3.35,0,0,1,.52,1.89,3.39,3.39,0,0,1-.52,1.89,3.35,3.35,0,0,1-1.48,1.23,5.54,5.54,0,0,1-2.25.42h-2V446h-2.27v-9.8Zm-.13,5.25a2.45,2.45,0,0,0,1.55-.43,1.55,1.55,0,0,0,.54-1.26,1.51,1.51,0,0,0-.54-1.26,2.33,2.33,0,0,0-1.55-.45h-1.85v3.4Zm5.85-3h2.18V446h-2.18Zm1.09-1.05a1.4,1.4,0,0,1-1-.35,1.15,1.15,0,0,1-.38-.87,1.17,1.17,0,0,1,.38-.87,1.56,1.56,0,0,1,2,0,1.07,1.07,0,0,1,.38.84,1.22,1.22,0,0,1-.38.91A1.4,1.4,0,0,1,301.6,437.42Zm6.16.94a3.88,3.88,0,0,1,2.68.84,3.14,3.14,0,0,1,.94,2.5V446h-2v-.94a2.44,2.44,0,0,1-2.3,1.05,3.7,3.7,0,0,1-1.51-.29,2.36,2.36,0,0,1-1-.81,2.16,2.16,0,0,1-.33-1.18,2,2,0,0,1,.78-1.65,4.07,4.07,0,0,1,2.45-.6h1.74a1.39,1.39,0,0,0-.44-1.1,1.89,1.89,0,0,0-1.3-.39,3.76,3.76,0,0,0-1.19.2,3.12,3.12,0,0,0-1,.5l-.78-1.52a4.75,4.75,0,0,1,1.47-.68A6.64,6.64,0,0,1,307.76,438.36Zm-.17,6.28a1.92,1.92,0,0,0,1-.25,1.44,1.44,0,0,0,.62-.77v-.77h-1.5c-.9,0-1.34.29-1.34.88a.78.78,0,0,0,.32.67A1.53,1.53,0,0,0,307.59,444.64Zm9.49,1.47a4.68,4.68,0,0,1-2.17-.49,3.91,3.91,0,0,1-1.5-1.38,4.06,4.06,0,0,1,0-4,3.81,3.81,0,0,1,1.5-1.37,4.57,4.57,0,0,1,2.17-.5,4.07,4.07,0,0,1,2.07.5,2.92,2.92,0,0,1,1.3,1.41l-1.69.91a1.85,1.85,0,0,0-1.69-1,1.91,1.91,0,0,0-1.42.56,2.36,2.36,0,0,0,0,3.05,2,2,0,0,0,1.42.56,1.82,1.82,0,0,0,1.69-1l1.69.93a3,3,0,0,1-1.3,1.4A4.17,4.17,0,0,1,317.08,446.11ZM329,442.26s0,.23,0,.59h-5.7A1.84,1.84,0,0,0,324,444a2.43,2.43,0,0,0,1.43.4,2.8,2.8,0,0,0,1-.17,2.51,2.51,0,0,0,.85-.56l1.16,1.26a3.88,3.88,0,0,1-3.11,1.22,4.93,4.93,0,0,1-2.25-.49,3.68,3.68,0,0,1-1.51-1.38,3.77,3.77,0,0,1-.53-2,3.87,3.87,0,0,1,.51-2,3.72,3.72,0,0,1,1.45-1.39,4.15,4.15,0,0,1,2.05-.5,4.32,4.32,0,0,1,2,.47,3.55,3.55,0,0,1,1.4,1.37A4.06,4.06,0,0,1,329,442.26Zm-3.9-2.25a1.89,1.89,0,0,0-1.25.42,1.78,1.78,0,0,0-.61,1.15h3.71a1.79,1.79,0,0,0-.62-1.14A1.83,1.83,0,0,0,325.09,440Zm12.7-1.54L334.61,446h-2.25l-3.17-7.53h2.26l2.08,5.12,2.16-5.12Zm4.27,7.64a4.53,4.53,0,0,1-2.14-.49,3.69,3.69,0,0,1-1.47-1.38,4,4,0,0,1,0-4,3.6,3.6,0,0,1,1.47-1.37,4.81,4.81,0,0,1,4.27,0,3.73,3.73,0,0,1,1.47,1.37,3.83,3.83,0,0,1-1.47,5.39A4.52,4.52,0,0,1,342.06,446.11Zm0-1.79a1.81,1.81,0,0,0,1.37-.56,2.14,2.14,0,0,0,.55-1.53,2.11,2.11,0,0,0-.55-1.51,1.78,1.78,0,0,0-1.37-.57,1.85,1.85,0,0,0-1.39.57,2.1,2.1,0,0,0-.54,1.51,2.13,2.13,0,0,0,.54,1.53A1.88,1.88,0,0,0,342.06,444.32Zm5.59-8.71h2.18V446h-2.18Zm11.59,6.65s0,.23-.05.59H353.5a1.79,1.79,0,0,0,.72,1.11,2.43,2.43,0,0,0,1.43.4,2.8,2.8,0,0,0,1-.17,2.42,2.42,0,0,0,.85-.56l1.16,1.26a3.85,3.85,0,0,1-3.1,1.22,5,5,0,0,1-2.26-.49,3.74,3.74,0,0,1-1.51-1.38,3.87,3.87,0,0,1-.53-2,3.78,3.78,0,0,1,.52-2,3.63,3.63,0,0,1,1.44-1.39,4.16,4.16,0,0,1,2.06-.5,4.3,4.3,0,0,1,2,.47,3.48,3.48,0,0,1,1.4,1.37A4.07,4.07,0,0,1,359.24,442.26ZM355.33,440a1.91,1.91,0,0,0-1.25.42,1.78,1.78,0,0,0-.61,1.15h3.71a1.81,1.81,0,0,0-1.85-1.57Z"/><path class="cls-2" d="M0,744H376v68H0Z"/><path class="cls-1" d="M122.53,795h131a2.5,2.5,0,0,1,2.5,2.5h0a2.5,2.5,0,0,1-2.5,2.5h-131a2.5,2.5,0,0,1-2.5-2.5h0A2.5,2.5,0,0,1,122.53,795Z"/><circle class="cls-4" cx="188.03" cy="756" r="30"/><path class="cls-2" d="M178.53,755h18.9a1.5,1.5,0,0,1,1.49,1.5h0a1.49,1.49,0,0,1-1.49,1.49h-18.9a1.5,1.5,0,0,1-1.5-1.49h0A1.5,1.5,0,0,1,178.53,755Z"/><path class="cls-2" d="M187,766.39v-18.9a1.49,1.49,0,0,1,1.49-1.49h0a1.5,1.5,0,0,1,1.5,1.49v18.9a1.5,1.5,0,0,1-1.5,1.5h0A1.5,1.5,0,0,1,187,766.39Z"/><path class="cls-5" d="M54.2,787.37a1.81,1.81,0,0,1,1,.62,1.76,1.76,0,0,1,.35,1.12,1.61,1.61,0,0,1-.69,1.4,3.38,3.38,0,0,1-2,.49H49.49v-7h3.14a3.09,3.09,0,0,1,1.85.48,1.55,1.55,0,0,1,.66,1.33,1.73,1.73,0,0,1-.26,1A1.67,1.67,0,0,1,54.2,787.37Zm-3.71-2.56v2.24h2a2.08,2.08,0,0,0,1.18-.28,1,1,0,0,0,.42-.84.93.93,0,0,0-.42-.83,2.08,2.08,0,0,0-1.18-.29Zm2.3,5.38a2.36,2.36,0,0,0,1.28-.28,1,1,0,0,0,.43-.88q0-1.17-1.71-1.17h-2.3v2.33Zm8.73-.94H57.8L57,791H56l3.17-7h1l3.18,7H62.29Zm-.35-.8L59.66,785l-1.51,3.43Zm6.24,2.63a3.9,3.9,0,0,1-1.9-.46,3.45,3.45,0,0,1-1.32-1.28,3.58,3.58,0,0,1-.48-1.84,3.52,3.52,0,0,1,.48-1.83,3.41,3.41,0,0,1,1.33-1.28,3.91,3.91,0,0,1,1.9-.47,3.82,3.82,0,0,1,1.5.28,3,3,0,0,1,1.16.81l-.65.63a2.6,2.6,0,0,0-2-.83,2.89,2.89,0,0,0-1.41.35,2.56,2.56,0,0,0-1,1,2.74,2.74,0,0,0-.35,1.37,2.77,2.77,0,0,0,.35,1.38,2.54,2.54,0,0,0,1,1,2.89,2.89,0,0,0,1.41.35,2.61,2.61,0,0,0,2-.84l.65.63a3.14,3.14,0,0,1-1.17.82A3.82,3.82,0,0,1,67.41,791.08ZM77.53,784v7h-1v-3.12h-4V791h-1v-7h1v3h4v-3Zm7.17,6.13V791H79.62v-7h4.94v.87H80.62V787h3.51v.85H80.62v2.26Zm4.72,1a3.9,3.9,0,0,1-1.9-.46,3.45,3.45,0,0,1-1.32-1.28,3.58,3.58,0,0,1-.48-1.84,3.52,3.52,0,0,1,.48-1.83,3.41,3.41,0,0,1,1.33-1.28,3.91,3.91,0,0,1,1.9-.47,3.82,3.82,0,0,1,1.5.28,3,3,0,0,1,1.16.81l-.65.63a2.6,2.6,0,0,0-2-.83,2.89,2.89,0,0,0-1.41.35,2.56,2.56,0,0,0-1,1,2.74,2.74,0,0,0-.35,1.37,2.77,2.77,0,0,0,.35,1.38,2.54,2.54,0,0,0,1,1,2.89,2.89,0,0,0,1.41.35,2.61,2.61,0,0,0,2-.84l.65.63a3.14,3.14,0,0,1-1.17.82A3.82,3.82,0,0,1,89.42,791.08Zm8.39-1.83H94.09L93.32,791h-1l3.17-7h1l3.18,7h-1Zm-.35-.8L96,785l-1.51,3.43Z"/><path class="cls-5" d="M290,787.37a1.74,1.74,0,0,1,1,.62,1.71,1.71,0,0,1,.35,1.12,1.61,1.61,0,0,1-.69,1.4,3.34,3.34,0,0,1-2,.49h-3.34v-7h3.14a3.07,3.07,0,0,1,1.85.48,1.55,1.55,0,0,1,.66,1.33,1.65,1.65,0,0,1-.26,1A1.55,1.55,0,0,1,290,787.37Zm-3.71-2.56v2.24h2.05a2,2,0,0,0,1.18-.28,1,1,0,0,0,.42-.84.93.93,0,0,0-.42-.83,2,2,0,0,0-1.18-.29Zm2.3,5.38a2.32,2.32,0,0,0,1.28-.28,1,1,0,0,0,.43-.88q0-1.17-1.71-1.17h-2.3v2.33Zm7.43.89a3.94,3.94,0,0,1-1.91-.46,3.53,3.53,0,0,1-1.34-1.29,3.73,3.73,0,0,1,0-3.66,3.51,3.51,0,0,1,1.34-1.28,3.94,3.94,0,0,1,1.91-.47,3.88,3.88,0,0,1,1.9.47,3.34,3.34,0,0,1,1.33,1.28,3.52,3.52,0,0,1,.48,1.83,3.58,3.58,0,0,1-.48,1.84,3.41,3.41,0,0,1-1.33,1.28A3.87,3.87,0,0,1,296,791.08Zm0-.89a2.72,2.72,0,0,0,1.38-.35,2.42,2.42,0,0,0,1-1,2.68,2.68,0,0,0,.36-1.38,2.64,2.64,0,0,0-.36-1.37,2.45,2.45,0,0,0-1-1,2.72,2.72,0,0,0-1.38-.35,2.88,2.88,0,0,0-1.4.35,2.61,2.61,0,0,0-1,1,2.74,2.74,0,0,0-.35,1.37,2.77,2.77,0,0,0,.35,1.38,2.58,2.58,0,0,0,1,1A2.88,2.88,0,0,0,296,790.19Zm7.28.89a4.9,4.9,0,0,1-1.53-.24,3.21,3.21,0,0,1-1.15-.64l.37-.78a3.15,3.15,0,0,0,1,.59,3.8,3.8,0,0,0,1.29.22,2.38,2.38,0,0,0,1.3-.29.91.91,0,0,0,.43-.79.75.75,0,0,0-.24-.58,1.53,1.53,0,0,0-.58-.35c-.23-.08-.55-.17-1-.27a10.33,10.33,0,0,1-1.28-.38,2.19,2.19,0,0,1-.83-.58,1.58,1.58,0,0,1-.34-1.07,1.86,1.86,0,0,1,.29-1,2.06,2.06,0,0,1,.9-.72,3.64,3.64,0,0,1,1.49-.27,4.59,4.59,0,0,1,1.22.16,3.36,3.36,0,0,1,1,.46l-.33.8a3.3,3.3,0,0,0-.94-.42,3.38,3.38,0,0,0-1-.15,2.16,2.16,0,0,0-1.28.31,1,1,0,0,0-.42.8.78.78,0,0,0,.24.59,1.81,1.81,0,0,0,.59.35,9.64,9.64,0,0,0,1,.26,9.62,9.62,0,0,1,1.27.38,2.16,2.16,0,0,1,.82.58,1.53,1.53,0,0,1,.35,1.05,1.81,1.81,0,0,1-.3,1,2,2,0,0,1-.91.72A3.91,3.91,0,0,1,303.26,791.08Zm7.3,0a3.9,3.9,0,0,1-1.9-.46,3.45,3.45,0,0,1-1.32-1.28,3.58,3.58,0,0,1-.48-1.84,3.52,3.52,0,0,1,.48-1.83,3.41,3.41,0,0,1,1.33-1.28,3.91,3.91,0,0,1,1.9-.47,3.82,3.82,0,0,1,1.5.28,3,3,0,0,1,1.16.81l-.65.63a2.6,2.6,0,0,0-2-.83,2.89,2.89,0,0,0-1.41.35,2.56,2.56,0,0,0-1,1,2.74,2.74,0,0,0-.35,1.37,2.77,2.77,0,0,0,.35,1.38,2.54,2.54,0,0,0,1,1,2.89,2.89,0,0,0,1.41.35,2.61,2.61,0,0,0,2-.84l.65.63a3.14,3.14,0,0,1-1.17.82A3.82,3.82,0,0,1,310.56,791.08Zm7.11,0a3.94,3.94,0,0,1-1.91-.46,3.53,3.53,0,0,1-1.34-1.29,3.73,3.73,0,0,1,0-3.66,3.51,3.51,0,0,1,1.34-1.28,3.94,3.94,0,0,1,1.91-.47,3.88,3.88,0,0,1,1.9.47,3.34,3.34,0,0,1,1.33,1.28,3.52,3.52,0,0,1,.48,1.83,3.58,3.58,0,0,1-.48,1.84,3.41,3.41,0,0,1-1.33,1.28A3.87,3.87,0,0,1,317.67,791.08Zm0-.89a2.72,2.72,0,0,0,1.38-.35,2.42,2.42,0,0,0,1-1,2.68,2.68,0,0,0,.36-1.38,2.64,2.64,0,0,0-.36-1.37,2.45,2.45,0,0,0-1-1,2.72,2.72,0,0,0-1.38-.35,2.88,2.88,0,0,0-1.4.35,2.61,2.61,0,0,0-1,1,2.74,2.74,0,0,0-.35,1.37,2.77,2.77,0,0,0,.35,1.38,2.58,2.58,0,0,0,1,1A2.88,2.88,0,0,0,317.67,790.19Z"/><path class="cls-5" d="M66,765h6a1,1,0,0,0,1-1v-8a1,1,0,0,0-1-1H66a1,1,0,0,0-.7.29,1,1,0,0,0-.3.71v8a1,1,0,0,0,.3.71A1,1,0,0,0,66,765Zm-1,7a1,1,0,0,0,.3.71,1,1,0,0,0,.7.29h6a1,1,0,0,0,1-1v-4a1,1,0,0,0-1-1H66a1,1,0,0,0-.7.29,1,1,0,0,0-.3.71Zm10,0a1,1,0,0,0,.3.71,1,1,0,0,0,.7.29h6a1,1,0,0,0,1-1v-7a1,1,0,0,0-1-1H76a1,1,0,0,0-.7.29,1,1,0,0,0-.3.71Zm1-10h6a1,1,0,0,0,1-1v-5a1,1,0,0,0-1-1H76a1,1,0,0,0-.7.29,1,1,0,0,0-.3.71v5a1,1,0,0,0,.3.71A1,1,0,0,0,76,762Z"/><path class="cls-5" d="M316.62,760.47a6.65,6.65,0,0,0-1.62-3.24c-.17-.18-.35-.36-.53-.52l-4-4a.83.83,0,0,0-1.14,0l-3.82,3.78a6.71,6.71,0,0,0-2.37,3.93,7.46,7.46,0,0,0-.07,2,7.11,7.11,0,0,0,6.62,6,6.82,6.82,0,0,0,7.06-6.78A6,6,0,0,0,316.62,760.47Z"/><path class="cls-2" d="M295,760.52a8,8,0,1,1,8,8A8,8,0,0,1,295,760.52Z"/><path class="cls-6" d="M303,755.19a5.34,5.34,0,1,0,5.34,5.33A5.33,5.33,0,0,0,303,755.19Zm0-2.67a8,8,0,1,0,8,8A8,8,0,0,0,303,752.52Z"/><path class="cls-5" d="M295,770.23c0-1.14,0-2.27,0-3.41,0-.43.09-.6.37-.58.52,0,1.05,0,1.57,0,.25,0,.35.11.35.53q0,3.48,0,7c0,.37-.08.51-.32.5-.54,0-1.07,0-1.61,0-.3,0-.36-.2-.36-.61C295,772.5,295,771.36,295,770.23Z"/><path class="cls-5" d="M301.9,770.23c0-1.14,0-2.27,0-3.41,0-.43.09-.6.37-.58.52,0,1,0,1.57,0,.25,0,.35.11.35.53q0,3.48,0,7c0,.37-.08.51-.32.5-.54,0-1.07,0-1.61,0-.3,0-.36-.2-.36-.61C301.9,772.5,301.9,771.36,301.9,770.23Z"/><path class="cls-5" d="M308.75,770.23c0-1.14,0-2.27,0-3.41,0-.43.08-.6.37-.58.52,0,1,0,1.56,0,.25,0,.35.11.35.53q0,3.48,0,7c0,.37-.08.51-.32.5-.53,0-1.07,0-1.6,0-.3,0-.36-.2-.36-.61C308.76,772.5,308.75,771.36,308.75,770.23Z"/><path class="cls-5" d="M288.58,759.54l6.61-6.61a1.39,1.39,0,0,1,2,0l6.62,6.61a1.39,1.39,0,0,1,0,2l-6.62,6.61a1.37,1.37,0,0,1-2,0l-6.61-6.61A1.39,1.39,0,0,1,288.58,759.54Z"/><path class="cls-7" d="M376,80.38H0V.38H376Z"/><path class="cls-2" d="M317.53,66.76h23.11a1.42,1.42,0,1,0,0-2.83H317.53a1.42,1.42,0,1,0,0,2.83Zm0-7.08h23.11a1.42,1.42,0,1,0,0-2.84H317.53a1.42,1.42,0,1,0,0,2.84Zm-1.44-8.5a1.43,1.43,0,0,0,1.44,1.41h23.11a1.42,1.42,0,1,0,0-2.83H317.53A1.44,1.44,0,0,0,316.09,51.18Z"/><path class="cls-8" d="M94.09.38h187v4a20,20,0,0,1-20,20h-147a20,20,0,0,1-20-20Z"/><path class="cls-2" d="M30.41,15.73a4.23,4.23,0,0,1,3.35,1.35A5.64,5.64,0,0,1,35,21a6.58,6.58,0,0,1-.65,3,4.52,4.52,0,0,1-1.81,1.91,5.43,5.43,0,0,1-2.69.64,6.84,6.84,0,0,1-1.53-.16,4.29,4.29,0,0,1-1.23-.51l.72-1.47a3.6,3.6,0,0,0,2,.51A3.06,3.06,0,0,0,32.14,24,3.84,3.84,0,0,0,33,21.28h0a3,3,0,0,1-1.18.82,4.59,4.59,0,0,1-1.62.27A4.3,4.3,0,0,1,28.33,22a3.06,3.06,0,0,1-1.76-2.83,3.16,3.16,0,0,1,.51-1.79,3.36,3.36,0,0,1,1.38-1.2A4.43,4.43,0,0,1,30.41,15.73Zm.15,5.1a2.24,2.24,0,0,0,1.53-.51,1.62,1.62,0,0,0,.6-1.29,1.57,1.57,0,0,0-.58-1.26,2.3,2.3,0,0,0-1.59-.51,2.2,2.2,0,0,0-1.49.5,1.76,1.76,0,0,0,0,2.59A2.3,2.3,0,0,0,30.56,20.83Zm6.88-.06a1.21,1.21,0,0,1-.87-.34,1.25,1.25,0,0,1,.87-2.15,1.21,1.21,0,0,1,1.23,1.25,1.22,1.22,0,0,1-.36.9A1.21,1.21,0,0,1,37.44,20.77Zm0,5.72a1.25,1.25,0,1,1,0-2.49,1.18,1.18,0,0,1,.87.34,1.19,1.19,0,0,1,.36.9,1.21,1.21,0,0,1-1.23,1.25ZM49.3,24H47.44v2.38H45.55V24H39.79V22.65L45,15.88h2.09l-4.88,6.47h3.44V20.23h1.83v2.12H49.3Zm4.07-8.12v10.5H51.42V17.52H49.2V15.88Z"/><rect class="cls-2" x="288" y="22.38" width="3" height="5" rx="1"/><rect class="cls-2" x="293" y="20.38" width="3" height="7" rx="1"/><rect class="cls-2" x="298" y="18.38" width="3" height="9" rx="1"/><rect class="cls-2" x="303" y="16.38" width="3" height="11" rx="1"/><rect class="cls-9" x="332.5" y="16.88" width="20" height="10" rx="1.5"/><rect class="cls-2" x="334" y="18.58" width="16" height="6.6" rx="2"/><path class="cls-2" d="M355,19.68h-2v4.4h2Z"/><path class="cls-2" d="M319.5,16.14a11.66,11.66,0,0,0-8.3,3.44.25.25,0,0,0,0,.36l1.67,1.66a.25.25,0,0,0,.18.08.27.27,0,0,0,.18-.08,8.87,8.87,0,0,1,12.55,0,.23.23,0,0,0,.17.08.23.23,0,0,0,.18-.08l1.67-1.66a.27.27,0,0,0,0-.36A11.66,11.66,0,0,0,319.5,16.14Z"/><path class="cls-2" d="M319.5,20.56a7.31,7.31,0,0,0-5.18,2.14.31.31,0,0,0-.07.18.29.29,0,0,0,.07.18L316,24.73a.29.29,0,0,0,.18.07.31.31,0,0,0,.18-.07,4.44,4.44,0,0,1,6.3,0,.27.27,0,0,0,.36,0l1.66-1.67a.25.25,0,0,0,0-.36A7.27,7.27,0,0,0,319.5,20.56Z"/><path class="cls-2" d="M319.5,25.24a2.49,2.49,0,0,0-1.8.75.24.24,0,0,0,0,.35L319.32,28a.24.24,0,0,0,.36,0l1.63-1.63a.26.26,0,0,0,0-.35A2.53,2.53,0,0,0,319.5,25.24Z"/><path class="cls-2" d="M141.58,52.78v12.6h-1.93l-7-8.53v8.53h-2.32V52.78h1.93l6.95,8.53V52.78Zm12.46,3v9.61H151.9V64.16a3.69,3.69,0,0,1-1.35,1,4.57,4.57,0,0,1-1.74.34,3.77,3.77,0,0,1-4.14-4.25V55.77h2.25V61a2.87,2.87,0,0,0,.57,1.95,2.21,2.21,0,0,0,1.68.63,2.49,2.49,0,0,0,1.9-.74,3,3,0,0,0,.72-2.16V55.77Zm7.27,9.74a5.47,5.47,0,0,1-2.63-.63,4.6,4.6,0,0,1-1.83-1.75,5,5,0,0,1-.65-2.55,4.88,4.88,0,0,1,.65-2.54,4.6,4.6,0,0,1,1.83-1.75,5.85,5.85,0,0,1,5.28,0A4.49,4.49,0,0,1,165.77,58a4.8,4.8,0,0,1,.67,2.54,4.88,4.88,0,0,1-.67,2.55A4.49,4.49,0,0,1,164,64.88,5.52,5.52,0,0,1,161.31,65.51Zm0-1.93a2.71,2.71,0,0,0,2.05-.83,3.33,3.33,0,0,0,0-4.35,2.95,2.95,0,0,0-4.1,0,3.39,3.39,0,0,0,0,4.35A2.71,2.71,0,0,0,161.31,63.58Zm16-7.81-4.12,9.61h-2.33l-4.12-9.61h2.34l3,7.13,3.08-7.13Zm5.46,9.74a5.47,5.47,0,0,1-2.63-.63,4.6,4.6,0,0,1-1.83-1.75,5,5,0,0,1-.65-2.55,4.88,4.88,0,0,1,.65-2.54,4.6,4.6,0,0,1,1.83-1.75,5.85,5.85,0,0,1,5.28,0A4.49,4.49,0,0,1,187.25,58a4.8,4.8,0,0,1,.67,2.54,4.88,4.88,0,0,1-.67,2.55,4.49,4.49,0,0,1-1.81,1.75A5.52,5.52,0,0,1,182.79,65.51Zm0-1.93a2.71,2.71,0,0,0,2.05-.83,3.33,3.33,0,0,0,0-4.35,2.95,2.95,0,0,0-4.1,0,3.39,3.39,0,0,0,0,4.35A2.71,2.71,0,0,0,182.79,63.58ZM198,65.51a8.38,8.38,0,0,1-2.29-.31,5.69,5.69,0,0,1-1.78-.77l.86-1.71a5.68,5.68,0,0,0,1.55.7,6.68,6.68,0,0,0,1.8.25c1.34,0,2-.35,2-1.06a.71.71,0,0,0-.53-.7,8.61,8.61,0,0,0-1.63-.38,14.72,14.72,0,0,1-2-.41,3.14,3.14,0,0,1-1.29-.81,2.37,2.37,0,0,1-.54-1.64,2.54,2.54,0,0,1,1.13-2.18,5.23,5.23,0,0,1,3.1-.83,8.38,8.38,0,0,1,2,.24,5.34,5.34,0,0,1,1.62.59l-.87,1.71a5.3,5.3,0,0,0-2.75-.72,2.93,2.93,0,0,0-1.51.31.86.86,0,0,0-.51.77.79.79,0,0,0,.54.77,8.78,8.78,0,0,0,1.71.42,13.93,13.93,0,0,1,1.89.41,3,3,0,0,1,1.26.79,2.2,2.2,0,0,1,.54,1.59,2.51,2.51,0,0,1-1.17,2.16A5.5,5.5,0,0,1,198,65.51Zm12.07-.65a2.69,2.69,0,0,1-1,.49,4.62,4.62,0,0,1-1.19.16,3.41,3.41,0,0,1-2.45-.83,3.17,3.17,0,0,1-.86-2.41V57.64H203v-1.8h1.59V53.65h2.25v2.19h2.57v1.8h-2.57v4.57a1.54,1.54,0,0,0,.34,1.08,1.31,1.31,0,0,0,1,.36,2,2,0,0,0,1.26-.39Zm5.52-9.2a4.58,4.58,0,0,1,3.24,1A3.87,3.87,0,0,1,220,59.75v5.63h-2.13V64.21a2.57,2.57,0,0,1-1.19,1,4.54,4.54,0,0,1-1.83.33,4.62,4.62,0,0,1-1.89-.36,3.08,3.08,0,0,1-1.26-1,2.65,2.65,0,0,1-.43-1.49,2.5,2.5,0,0,1,1-2.07,4.77,4.77,0,0,1,3-.79h2.49v-.15a2,2,0,0,0-.62-1.55,2.56,2.56,0,0,0-1.78-.54,5.2,5.2,0,0,0-1.6.26,3.73,3.73,0,0,0-1.31.7l-.89-1.64a5.51,5.51,0,0,1,1.82-.88A7.89,7.89,0,0,1,215.61,55.66Zm-.31,8.21a2.93,2.93,0,0,0,1.5-.38,2.18,2.18,0,0,0,.94-1.11V61.26h-2.33c-1.29,0-1.94.43-1.94,1.28a1.13,1.13,0,0,0,.49,1A2.2,2.2,0,0,0,215.3,63.87Zm13.35,1a2.61,2.61,0,0,1-1,.49,4.56,4.56,0,0,1-1.19.16,3.41,3.41,0,0,1-2.45-.83,3.21,3.21,0,0,1-.86-2.41V57.64h-1.59v-1.8h1.59V53.65h2.25v2.19H228v1.8h-2.57v4.57a1.54,1.54,0,0,0,.34,1.08,1.31,1.31,0,0,0,1,.36,2,2,0,0,0,1.26-.39Zm5.86.65a5.44,5.44,0,0,1-2.63-.63A4.69,4.69,0,0,1,230,63.13a5.06,5.06,0,0,1-.65-2.55A5,5,0,0,1,230,58a4.69,4.69,0,0,1,1.84-1.75,5.83,5.83,0,0,1,5.27,0A4.51,4.51,0,0,1,239,58a4.88,4.88,0,0,1,.66,2.54,5,5,0,0,1-.66,2.55,4.51,4.51,0,0,1-1.82,1.75A5.48,5.48,0,0,1,234.51,65.51Zm0-1.93a2.73,2.73,0,0,0,2.05-.83,3.33,3.33,0,0,0,0-4.35,3,3,0,0,0-4.11,0,3.39,3.39,0,0,0,0,4.35A2.74,2.74,0,0,0,234.51,63.58Z"/></g></g></svg>