<svg width="64" height="64" viewBox="0 0 64 64" fill="none" xmlns="http://www.w3.org/2000/svg">
<circle cx="32" cy="32" r="30" fill="#FF624C" stroke="#FBFEFD" stroke-width="4"/>
<path d="M35.5013 25.667C38.3745 25.667 41.13 26.8084 43.1616 28.84C45.1933 30.8716 46.3346 33.6271 46.3346 36.5003C46.3346 39.3735 45.1933 42.129 43.1616 44.1606C41.13 46.1923 38.3745 47.3337 35.5013 47.3337H29.668V44.0003H35.5013C39.668 44.0003 43.0013 40.667 43.0013 36.5003C43.0013 32.3337 39.668 29.0003 35.5013 29.0003H26.0513L31.1846 34.1503L28.8346 36.5003L19.668 27.3337L28.8346 18.167L31.2013 20.517L26.0513 25.667H35.5013ZM23.0013 44.0003H26.3346V47.3337H23.0013V44.0003Z" fill="#FBFEFD"/>
</svg>
