<svg xmlns="http://www.w3.org/2000/svg" xmlns:xlink="http://www.w3.org/1999/xlink" viewBox="0 0 67.37 22.3"><defs><style>.cls-1{fill:#d7edf9;}.cls-2{fill:#272631;}.cls-3{fill:#fff;}.cls-4{fill:url(#Sfumatura_senza_nome_16);}</style><linearGradient id="Sfumatura_senza_nome_16" x1="9.29" y1="-479.81" x2="9.29" y2="-489.1" gradientTransform="matrix(1, 0, 0, -1, 0, -472.84)" gradientUnits="userSpaceOnUse"><stop offset="0" stop-color="#6de2e9"/><stop offset="1" stop-color="#6dbce9"/></linearGradient></defs><g id="Livello_2" data-name="Livello 2"><g id="Livello_1-2" data-name="Livello 1"><path class="cls-1" d="M11.62,9.29A9.29,9.29,0,0,1,20.91,0H58.08a9.29,9.29,0,0,1,9.29,9.29V13a9.29,9.29,0,0,1-9.29,9.29H20.91A9.29,9.29,0,0,1,11.62,13Z"/><path class="cls-2" d="M31.26,9.88H29.81V9h4v.86H32.32v3.7H31.26Zm3.9.66a1.18,1.18,0,0,1,.49-.39,2,2,0,0,1,.72-.12V11h-.23a.89.89,0,0,0-.68.25.94.94,0,0,0-.25.72v1.66h-1v-3.5h1ZM37,10.08h1v3.5H37Zm.51-.49A.69.69,0,0,1,37,9.43.53.53,0,0,1,36.85,9a.51.51,0,0,1,.17-.4.65.65,0,0,1,.46-.16.68.68,0,0,1,.45.15.51.51,0,0,1,.18.39.58.58,0,0,1-.18.43A.69.69,0,0,1,37.48,9.59Zm2.62,4a3.48,3.48,0,0,1-.85-.11,2.05,2.05,0,0,1-.66-.27l.34-.73a1.93,1.93,0,0,0,.56.25,2.48,2.48,0,0,0,.65.09c.43,0,.65-.1.65-.32s-.06-.17-.18-.21a2.28,2.28,0,0,0-.54-.11c-.29-.05-.52-.1-.71-.15a1.18,1.18,0,0,1-.49-.3.9.9,0,0,1-.2-.61,1,1,0,0,1,.19-.59,1.25,1.25,0,0,1,.56-.4,2.34,2.34,0,0,1,.87-.14,3.11,3.11,0,0,1,.74.08,1.9,1.9,0,0,1,.61.22l-.34.72a2.05,2.05,0,0,0-1-.26,1,1,0,0,0-.49.09.28.28,0,0,0-.16.24.22.22,0,0,0,.18.22,2.44,2.44,0,0,0,.56.13c.28,0,.52.1.7.15a1.12,1.12,0,0,1,.47.3.81.81,0,0,1,.2.6.89.89,0,0,1-.19.57,1.22,1.22,0,0,1-.57.4A2.6,2.6,0,0,1,40.1,13.63Zm4.54-.22a1.26,1.26,0,0,1-.37.17,2.31,2.31,0,0,1-.46.05,1.4,1.4,0,0,1-1-.32,1.26,1.26,0,0,1-.34-.94V10.94H42v-.79h.54V9.3h1v.85h.87v.79h-.87v1.42a.54.54,0,0,0,.11.35.48.48,0,0,0,.32.11.61.61,0,0,0,.41-.13Zm3.89-1.57s0,.1,0,.27H45.86a.84.84,0,0,0,.34.52,1.17,1.17,0,0,0,.66.19,1.42,1.42,0,0,0,.48-.08,1.31,1.31,0,0,0,.4-.26l.54.58a1.8,1.8,0,0,1-1.44.57,2.32,2.32,0,0,1-1.05-.23,1.71,1.71,0,0,1-.95-1.57,1.81,1.81,0,0,1,.24-.93,1.72,1.72,0,0,1,.67-.64,2.1,2.1,0,0,1,1.89,0,1.64,1.64,0,0,1,.65.63A1.9,1.9,0,0,1,48.53,11.84Zm-1.82-1.05a.89.89,0,0,0-.58.2.84.84,0,0,0-.28.53h1.72a.8.8,0,0,0-.29-.53A.84.84,0,0,0,46.71,10.79Z"/><circle class="cls-1" cx="9.29" cy="11.61" r="9.29"/><circle class="cls-3" cx="9.29" cy="11.61" r="7.43"/><path class="cls-4" d="M13.12,11.59a4,4,0,0,0-.93-1.89,2.83,2.83,0,0,0-.3-.3L9.62,7.1A.46.46,0,0,0,9,7.1L6.8,9.3a4.18,4.18,0,0,0-.52.51,4.08,4.08,0,0,0-.83,1.77,4.53,4.53,0,0,0,0,1.17,4.09,4.09,0,0,0,3.77,3.51,3.92,3.92,0,0,0,4-3.94A3.48,3.48,0,0,0,13.12,11.59Z"/></g></g></svg>