<svg xmlns="http://www.w3.org/2000/svg" xmlns:xlink="http://www.w3.org/1999/xlink" viewBox="0 0 67.36 22.3"><defs><style>.cls-1{fill:#d7edf9;}.cls-2{fill:#272631;}.cls-3{fill:#fff;}.cls-4{fill:url(#Sfumatura_senza_nome_14);}</style><linearGradient id="Sfumatura_senza_nome_14" x1="9.29" y1="-246.6" x2="9.29" y2="-255.89" gradientTransform="matrix(1, 0, 0, -1, 0, -239.63)" gradientUnits="userSpaceOnUse"><stop offset="0" stop-color="#6de2e9"/><stop offset="1" stop-color="#6dbce9"/></linearGradient></defs><g id="Livello_2" data-name="Livello 2"><g id="Livello_1-2" data-name="Livello 1"><path class="cls-1" d="M11.61,9.29A9.29,9.29,0,0,1,20.9,0H58.07a9.29,9.29,0,0,1,9.29,9.29V13a9.29,9.29,0,0,1-9.29,9.29H20.9A9.29,9.29,0,0,1,11.61,13Z"/><path class="cls-2" d="M29.5,13.65a4.09,4.09,0,0,1-1.05-.14,2.39,2.39,0,0,1-.8-.39l.35-.79a2.42,2.42,0,0,0,.7.35,2.85,2.85,0,0,0,.81.13,1.37,1.37,0,0,0,.66-.13.42.42,0,0,0,.22-.36.35.35,0,0,0-.13-.27,1,1,0,0,0-.33-.17c-.13-.05-.31-.09-.53-.15a8.17,8.17,0,0,1-.86-.24,1.51,1.51,0,0,1-.57-.4,1.12,1.12,0,0,1-.23-.73A1.26,1.26,0,0,1,28,9.65a1.49,1.49,0,0,1,.65-.52,2.75,2.75,0,0,1,1.06-.19,3.48,3.48,0,0,1,.85.11,2.54,2.54,0,0,1,.73.3l-.33.8a2.52,2.52,0,0,0-1.26-.36,1.3,1.3,0,0,0-.66.14.43.43,0,0,0-.2.38.37.37,0,0,0,.24.35,4,4,0,0,0,.74.22,7.91,7.91,0,0,1,.86.25,1.29,1.29,0,0,1,.56.39,1,1,0,0,1,.24.72,1.25,1.25,0,0,1-.22.72,1.4,1.4,0,0,1-.65.5A2.58,2.58,0,0,1,29.5,13.65Zm4.84-.24a1,1,0,0,1-.37.16,1.76,1.76,0,0,1-.46.06,1.4,1.4,0,0,1-1-.32,1.26,1.26,0,0,1-.34-.94V10.93h-.54v-.78h.54V9.3h1v.85h.87v.78h-.87v1.43a.5.5,0,0,0,.11.34.45.45,0,0,0,.33.12.6.6,0,0,0,.4-.13Zm2-3.39a1.82,1.82,0,0,1,1.25.39A1.49,1.49,0,0,1,38,11.58v2h-1v-.43a1.13,1.13,0,0,1-1.06.49,1.73,1.73,0,0,1-.71-.14,1,1,0,0,1-.44-.38A1,1,0,0,1,35,11.8a1.88,1.88,0,0,1,1.14-.28H37a.66.66,0,0,0-.2-.51.91.91,0,0,0-.61-.18,1.76,1.76,0,0,0-.55.09,1.8,1.8,0,0,0-.46.23l-.36-.7a2.25,2.25,0,0,1,.68-.32A3.32,3.32,0,0,1,36.32,10Zm-.08,2.92a1,1,0,0,0,.46-.11.73.73,0,0,0,.29-.36v-.36h-.7c-.41,0-.62.14-.62.41a.37.37,0,0,0,.15.31A.66.66,0,0,0,36.24,12.94ZM41.05,10a1.45,1.45,0,0,1,1.05.39,1.58,1.58,0,0,1,.4,1.16v2h-1V11.73a.9.9,0,0,0-.18-.62.64.64,0,0,0-.52-.21.83.83,0,0,0-.62.24,1,1,0,0,0-.22.7v1.73h-1V10.08h1v.41a1.24,1.24,0,0,1,.5-.34A1.59,1.59,0,0,1,41.05,10Zm4.1,3.61a2.24,2.24,0,0,1-1-.23,1.83,1.83,0,0,1-.7-.65,1.79,1.79,0,0,1-.24-.93,1.84,1.84,0,0,1,.24-.93,1.78,1.78,0,0,1,.7-.63,2.12,2.12,0,0,1,1-.24,1.85,1.85,0,0,1,1,.24,1.37,1.37,0,0,1,.61.65l-.79.43a.87.87,0,0,0-.79-.48.89.89,0,0,0-.66.26,1.09,1.09,0,0,0,0,1.41.89.89,0,0,0,.66.26.86.86,0,0,0,.79-.48l.79.43a1.37,1.37,0,0,1-.61.65A1.85,1.85,0,0,1,45.15,13.63Zm3.77,0a2.13,2.13,0,0,1-1-.23,1.73,1.73,0,0,1-.69-.65,1.79,1.79,0,0,1-.24-.93,1.84,1.84,0,0,1,.24-.93,1.68,1.68,0,0,1,.69-.63,2.16,2.16,0,0,1,2,0,1.66,1.66,0,0,1,.68.63,1.75,1.75,0,0,1,.25.93,1.77,1.77,0,0,1-.93,1.58A2.13,2.13,0,0,1,48.92,13.63Zm0-.84a.83.83,0,0,0,.64-.26,1.12,1.12,0,0,0,0-1.41.92.92,0,0,0-1.28,0,1.09,1.09,0,0,0,0,1.41A.83.83,0,0,0,48.92,12.79Z"/><circle class="cls-1" cx="9.29" cy="11.61" r="9.29"/><circle class="cls-3" cx="9.29" cy="11.61" r="7.43"/><path class="cls-4" d="M13.12,11.59A3.9,3.9,0,0,0,12.2,9.7l-.3-.3L9.62,7.1A.46.46,0,0,0,9,7.1L6.8,9.3a4.1,4.1,0,0,0-.51.51,4,4,0,0,0-.83,1.77,4.12,4.12,0,0,0,0,1.17,4.07,4.07,0,0,0,3.76,3.51,3.91,3.91,0,0,0,4-3.94A3.48,3.48,0,0,0,13.12,11.59Z"/></g></g></svg>