<svg xmlns="http://www.w3.org/2000/svg" xmlns:xlink="http://www.w3.org/1999/xlink" viewBox="0 0 67.36 22.3"><defs><style>.cls-1{fill:#d7edf9;}.cls-2{fill:#272631;}.cls-3{fill:#fff;}.cls-4{fill:url(#Sfumatura_senza_nome_13);}</style><linearGradient id="Sfumatura_senza_nome_13" x1="9.29" y1="-138.81" x2="9.29" y2="-148.1" gradientTransform="matrix(1, 0, 0, -1, 0, -131.84)" gradientUnits="userSpaceOnUse"><stop offset="0" stop-color="#6de2e9"/><stop offset="1" stop-color="#6dbce9"/></linearGradient></defs><g id="Livello_2" data-name="Livello 2"><g id="Livello_1-2" data-name="Livello 1"><path class="cls-1" d="M11.61,9.29A9.29,9.29,0,0,1,20.9,0H58.07a9.29,9.29,0,0,1,9.29,9.29V13a9.29,9.29,0,0,1-9.29,9.29H20.9A9.29,9.29,0,0,1,11.61,13Z"/><path class="cls-2" d="M27.18,12.6H25.07l-.4,1H23.59l2-4.56h1l2,4.56h-1.1Zm-.33-.8-.72-1.74-.72,1.74ZM31.22,10a1.45,1.45,0,0,1,1.05.39,1.56,1.56,0,0,1,.4,1.16v2h-1V11.73a.9.9,0,0,0-.19-.62A.64.64,0,0,0,31,10.9a.79.79,0,0,0-.61.24,1,1,0,0,0-.23.71v1.73h-1v-3.5h1v.41a1.35,1.35,0,0,1,.5-.34A1.76,1.76,0,0,1,31.22,10Zm4.5,0a1.41,1.41,0,0,1,1,.39,1.56,1.56,0,0,1,.41,1.16v2h-1V11.73a.9.9,0,0,0-.18-.62.66.66,0,0,0-.53-.21.81.81,0,0,0-.61.24,1,1,0,0,0-.23.71v1.73h-1v-3.5h1v.41a1.27,1.27,0,0,1,.5-.34A1.76,1.76,0,0,1,35.72,10Zm4.07,3.61a2.2,2.2,0,0,1-1-.23,1.82,1.82,0,0,1-.68-.64,1.85,1.85,0,0,1-.25-.93,1.8,1.8,0,0,1,.25-.93,1.68,1.68,0,0,1,.68-.64,2.08,2.08,0,0,1,1-.24,2,2,0,0,1,1,.24,1.62,1.62,0,0,1,.68.64,1.71,1.71,0,0,1,.25.93,1.74,1.74,0,0,1-.93,1.57A2.13,2.13,0,0,1,39.79,13.63Zm0-.83a.87.87,0,0,0,.64-.26,1,1,0,0,0,.25-.71,1,1,0,0,0-.25-.71.92.92,0,0,0-1.28,0,1,1,0,0,0-.26.71,1,1,0,0,0,.26.71A.87.87,0,0,0,39.79,12.8Zm2.6-2.72h1v3.5h-1Zm.5-.49a.69.69,0,0,1-.45-.16A.54.54,0,0,1,42.26,9a.52.52,0,0,1,.18-.4.64.64,0,0,1,.45-.16.69.69,0,0,1,.46.15.51.51,0,0,1,.18.39.58.58,0,0,1-.18.43A.69.69,0,0,1,42.89,9.59Zm2.86.43a1.8,1.8,0,0,1,1.25.39,1.49,1.49,0,0,1,.44,1.17v2h-.95v-.44a1.15,1.15,0,0,1-1.07.49,1.68,1.68,0,0,1-.7-.14,1.12,1.12,0,0,1-.45-.38,1,1,0,0,1-.15-.54.92.92,0,0,1,.36-.77,1.88,1.88,0,0,1,1.14-.28h.8a.63.63,0,0,0-.2-.51.86.86,0,0,0-.6-.18,1.71,1.71,0,0,0-.55.09,1.54,1.54,0,0,0-.46.24l-.36-.71a1.94,1.94,0,0,1,.68-.31A2.86,2.86,0,0,1,45.75,10ZM45.68,13a.9.9,0,0,0,.46-.12.67.67,0,0,0,.28-.36v-.36h-.69c-.42,0-.63.14-.63.41a.36.36,0,0,0,.15.31A.71.71,0,0,0,45.68,13Zm4.93.46a1.15,1.15,0,0,1-.37.17,2.14,2.14,0,0,1-.45.05,1.38,1.38,0,0,1-1-.32,1.22,1.22,0,0,1-.34-.94V10.93h-.54v-.78h.54V9.3h1v.85h.87v.78H49.5v1.43a.45.45,0,0,0,.11.34.41.41,0,0,0,.32.12.63.63,0,0,0,.41-.13Zm2.13.22a2.13,2.13,0,0,1-1-.23,1.69,1.69,0,0,1-.93-1.57,1.79,1.79,0,0,1,.24-.93,1.7,1.7,0,0,1,.69-.64,2.16,2.16,0,0,1,2,0,1.62,1.62,0,0,1,.68.64,1.71,1.71,0,0,1,.25.93,1.74,1.74,0,0,1-.93,1.57A2.13,2.13,0,0,1,52.74,13.63Zm0-.83a.87.87,0,0,0,.64-.26,1,1,0,0,0,.25-.71,1,1,0,0,0-.25-.71.92.92,0,0,0-1.28,0,1,1,0,0,0-.26.71,1,1,0,0,0,.26.71A.87.87,0,0,0,52.74,12.8Z"/><circle class="cls-1" cx="9.29" cy="11.62" r="9.29" transform="translate(-0.23 0.19) rotate(-1.15)"/><circle class="cls-3" cx="9.29" cy="11.62" r="7.43"/><path class="cls-4" d="M13.12,11.59a4,4,0,0,0-.93-1.89,2.83,2.83,0,0,0-.3-.3L9.62,7.1A.48.48,0,0,0,9,7.1L6.8,9.3a3.65,3.65,0,0,0-.52.52,4,4,0,0,0-.83,1.76,4.53,4.53,0,0,0,0,1.17,4.09,4.09,0,0,0,3.77,3.51,3.92,3.92,0,0,0,4-3.94A3.54,3.54,0,0,0,13.12,11.59Z"/></g></g></svg>