<svg xmlns="http://www.w3.org/2000/svg" xmlns:xlink="http://www.w3.org/1999/xlink" viewBox="0 0 67.36 22.3"><defs><style>.cls-1{fill:#d7edf9;}.cls-2{fill:#272631;}.cls-3{fill:#fff;}.cls-4{fill:url(#Sfumatura_senza_nome_15);}</style><linearGradient id="Sfumatura_senza_nome_15" x1="9.29" y1="-371.1" x2="9.29" y2="-380.4" gradientTransform="matrix(1, 0, 0, -1, 0, -364.14)" gradientUnits="userSpaceOnUse"><stop offset="0" stop-color="#6de2e9"/><stop offset="1" stop-color="#6dbce9"/></linearGradient></defs><g id="Livello_2" data-name="Livello 2"><g id="Livello_1-2" data-name="Livello 1"><path class="cls-1" d="M11.61,9.29A9.29,9.29,0,0,1,20.9,0H58.07a9.29,9.29,0,0,1,9.29,9.29V13a9.29,9.29,0,0,1-9.29,9.29H20.9A9.29,9.29,0,0,1,11.61,13Z"/><path class="cls-2" d="M25.58,13.58V10.84l-1.34,2.25h-.48L22.43,10.9v2.68h-1V9h.87L24,11.85,25.69,9h.87v4.56ZM29,10a1.82,1.82,0,0,1,1.25.39,1.49,1.49,0,0,1,.44,1.17v2h-.95v-.44a1.15,1.15,0,0,1-1.07.49,1.68,1.68,0,0,1-.7-.14,1,1,0,0,1-.45-.38.93.93,0,0,1-.16-.54.9.9,0,0,1,.37-.77,1.83,1.83,0,0,1,1.13-.28h.81a.66.66,0,0,0-.2-.51.89.89,0,0,0-.61-.18,1.76,1.76,0,0,0-.55.09,1.37,1.37,0,0,0-.45.24l-.37-.71a2.2,2.2,0,0,1,.69-.32A3.18,3.18,0,0,1,29,10Zm-.08,2.92a.85.85,0,0,0,.46-.11.73.73,0,0,0,.29-.36v-.36H29c-.42,0-.63.14-.63.41a.36.36,0,0,0,.15.31A.67.67,0,0,0,28.91,12.94Zm2.68-4.19h1v4.83h-1Zm2,1.33h1v3.5h-1Zm.51-.49a.65.65,0,0,1-.46-.17.53.53,0,0,1-.17-.4.54.54,0,0,1,.17-.4.65.65,0,0,1,.46-.16.66.66,0,0,1,.45.15.51.51,0,0,1,.18.39.54.54,0,0,1-.18.42A.63.63,0,0,1,34.06,9.59Zm3.14,4a2.21,2.21,0,0,1-1-.23,1.81,1.81,0,0,1-.7-.64,1.84,1.84,0,0,1-.24-.93,1.79,1.79,0,0,1,.24-.93,1.67,1.67,0,0,1,.7-.64,2.09,2.09,0,0,1,1-.24,1.85,1.85,0,0,1,1,.24,1.37,1.37,0,0,1,.61.65l-.79.43a.87.87,0,0,0-.79-.48.89.89,0,0,0-.66.26,1.09,1.09,0,0,0,0,1.41.89.89,0,0,0,.66.26.86.86,0,0,0,.79-.48l.79.43a1.37,1.37,0,0,1-.61.65A1.85,1.85,0,0,1,37.2,13.63Zm3.77,0a2.13,2.13,0,0,1-1-.23,1.78,1.78,0,0,1-.69-.64,1.85,1.85,0,0,1-.25-.93,1.8,1.8,0,0,1,.25-.93,1.64,1.64,0,0,1,.69-.64,2.16,2.16,0,0,1,2,0,1.62,1.62,0,0,1,.68.64,1.71,1.71,0,0,1,.25.93A1.74,1.74,0,0,1,42,13.4,2.13,2.13,0,0,1,41,13.63Zm0-.84a.83.83,0,0,0,.64-.26,1,1,0,0,0,.25-.7,1,1,0,0,0-.25-.71.92.92,0,0,0-1.28,0,1,1,0,0,0-.26.71,1,1,0,0,0,.26.7A.83.83,0,0,0,41,12.79ZM45.69,10a1.42,1.42,0,0,1,1.05.39,1.54,1.54,0,0,1,.4,1.16v2h-1V11.73a.9.9,0,0,0-.18-.62.66.66,0,0,0-.53-.21.79.79,0,0,0-.61.24,1,1,0,0,0-.23.7v1.74h-1v-3.5h1v.4a1.25,1.25,0,0,1,.5-.33A1.75,1.75,0,0,1,45.69,10Zm2.37.06h1v3.5h-1Zm.51-.49a.61.61,0,0,1-.45-.17.5.5,0,0,1-.18-.4.52.52,0,0,1,.18-.4.61.61,0,0,1,.45-.16.69.69,0,0,1,.46.15A.54.54,0,0,1,49.2,9a.57.57,0,0,1-.17.42A.65.65,0,0,1,48.57,9.59Zm3.14,4a2.24,2.24,0,0,1-1-.23,1.85,1.85,0,0,1-.69-.64,1.75,1.75,0,0,1-.25-.93,1.72,1.72,0,0,1,.94-1.57,2.12,2.12,0,0,1,1-.24,1.85,1.85,0,0,1,1,.24,1.37,1.37,0,0,1,.61.65l-.79.43a.91.91,0,0,0-1.44-.22.93.93,0,0,0-.26.71.92.92,0,0,0,.26.7.91.91,0,0,0,1.44-.22l.79.43a1.37,1.37,0,0,1-.61.65A1.85,1.85,0,0,1,51.71,13.63Zm3.77,0a2.16,2.16,0,0,1-1-.23,1.74,1.74,0,0,1-.93-1.57,1.71,1.71,0,0,1,.25-.93,1.62,1.62,0,0,1,.68-.64,2,2,0,0,1,1-.24,2,2,0,0,1,1,.24,1.7,1.7,0,0,1,.69.64,1.79,1.79,0,0,1,.24.93,1.69,1.69,0,0,1-.93,1.57A2.13,2.13,0,0,1,55.48,13.63Zm0-.84a.82.82,0,0,0,.64-.26,1,1,0,0,0,.25-.7,1,1,0,0,0-.25-.71.85.85,0,0,0-.64-.26.87.87,0,0,0-.64.26,1,1,0,0,0-.25.71,1,1,0,0,0,.25.7A.83.83,0,0,0,55.48,12.79Z"/><circle class="cls-1" cx="9.29" cy="11.61" r="9.29"/><circle class="cls-3" cx="9.29" cy="11.61" r="7.43" transform="translate(-2.43 20.77) rotate(-89.33)"/><path class="cls-4" d="M13.12,11.59a4,4,0,0,0-.93-1.89,2.83,2.83,0,0,0-.3-.3L9.62,7.1A.46.46,0,0,0,9,7.1L6.8,9.3a4.18,4.18,0,0,0-.52.51,4.08,4.08,0,0,0-.83,1.77,4.53,4.53,0,0,0,0,1.17,4.09,4.09,0,0,0,3.77,3.51,3.92,3.92,0,0,0,4-3.94A3.48,3.48,0,0,0,13.12,11.59Z"/></g></g></svg>