<svg xmlns="http://www.w3.org/2000/svg" xmlns:xlink="http://www.w3.org/1999/xlink" viewBox="0 0 67.12 22.22"><defs><style>.cls-1{fill:#fff1b9;}.cls-2{fill:#272631;}.cls-3{fill:#fff;}.cls-4{fill:url(#Sfumatura_senza_nome);}</style><linearGradient id="Sfumatura_senza_nome" x1="6.08" y1="374.3" x2="12.09" y2="367.49" gradientTransform="matrix(1, 0, 0, -1, 0, 382.27)" gradientUnits="userSpaceOnUse"><stop offset="0" stop-color="#fed854"/><stop offset="1" stop-color="#feba54"/></linearGradient></defs><g id="Livello_2" data-name="Livello 2"><g id="Livello_1-2" data-name="Livello 1"><path class="cls-1" d="M11.57,9.26A9.26,9.26,0,0,1,20.83,0h37a9.25,9.25,0,0,1,9.26,9.26V13a9.26,9.26,0,0,1-9.26,9.26h-37A9.27,9.27,0,0,1,11.57,13Z"/><path class="cls-2" d="M29.33,12.71v.84H25.82V9h3.43v.84H26.86v1H29v.81H26.86v1.05Zm2.43.9a2.24,2.24,0,0,1-1-.23,1.85,1.85,0,0,1-.69-.64,1.8,1.8,0,0,1-.25-.93,1.85,1.85,0,0,1,.25-.93,1.75,1.75,0,0,1,.69-.63,2.24,2.24,0,0,1,1-.23,2,2,0,0,1,1,.23,1.4,1.4,0,0,1,.6.65l-.78.43a.88.88,0,0,0-.79-.48.85.85,0,0,0-.65.26.91.91,0,0,0-.26.7.93.93,0,0,0,.26.71.89.89,0,0,0,.65.26.86.86,0,0,0,.79-.48l.78.43a1.43,1.43,0,0,1-.6.64A1.9,1.9,0,0,1,31.76,13.61Zm3.78,0a2.2,2.2,0,0,1-1-.23,1.68,1.68,0,0,1-.94-1.57,1.84,1.84,0,0,1,.24-.93,1.71,1.71,0,0,1,.7-.63,2.2,2.2,0,0,1,1-.23,2,2,0,0,1,1,.23,1.31,1.31,0,0,1,.6.65l-.78.43a.91.91,0,0,0-1.44-.22.94.94,0,0,0-.26.7,1,1,0,0,0,.26.71.9.9,0,0,0,.66.26.85.85,0,0,0,.78-.48l.78.43a1.33,1.33,0,0,1-.6.64A1.85,1.85,0,0,1,35.54,13.61Zm2.15-3.54h1v3.48h-1Zm.5-.49a.62.62,0,0,1-.45-.16.52.52,0,0,1-.18-.4.5.5,0,0,1,.18-.4.62.62,0,0,1,.45-.16.64.64,0,0,1,.45.15.48.48,0,0,1,.18.39.54.54,0,0,1-.18.42A.61.61,0,0,1,38.19,9.58Zm3.69,3.81a1,1,0,0,1-.37.16,1.63,1.63,0,0,1-.45.06,1.36,1.36,0,0,1-1-.32,1.19,1.19,0,0,1-.34-.93V10.92h-.54v-.77h.54V9.3h1v.85h.87v.77h-.87v1.42a.54.54,0,0,0,.11.35.48.48,0,0,0,.32.11.63.63,0,0,0,.41-.13Zm2-3.37a1.79,1.79,0,0,1,1.24.39,1.46,1.46,0,0,1,.44,1.16v2h-.95v-.43a1.13,1.13,0,0,1-1.06.49,1.68,1.68,0,0,1-.7-.14,1,1,0,0,1-.45-.37,1.07,1.07,0,0,1-.16-.55.91.91,0,0,1,.37-.76,1.83,1.83,0,0,1,1.13-.28h.8a.63.63,0,0,0-.2-.51.86.86,0,0,0-.6-.18,1.76,1.76,0,0,0-.55.09,1.36,1.36,0,0,0-.45.23l-.37-.7a2,2,0,0,1,.68-.31A2.91,2.91,0,0,1,43.86,10Zm-.08,2.91a.88.88,0,0,0,.46-.12.64.64,0,0,0,.28-.36V12.1h-.69c-.41,0-.62.13-.62.4a.39.39,0,0,0,.15.32A.72.72,0,0,0,43.78,12.93Zm4.92.46a1,1,0,0,1-.37.16,1.63,1.63,0,0,1-.45.06,1.38,1.38,0,0,1-1-.32,1.23,1.23,0,0,1-.34-.93V10.92H46v-.77h.53V9.3h1v.85h.87v.77h-.87v1.42a.5.5,0,0,0,.12.35.44.44,0,0,0,.32.11.63.63,0,0,0,.41-.13Zm2.12.22a2.13,2.13,0,0,1-1-.23,1.75,1.75,0,0,1-.68-.64,1.71,1.71,0,0,1-.25-.93,1.75,1.75,0,0,1,.25-.93,1.66,1.66,0,0,1,.68-.63,2.13,2.13,0,0,1,1-.23,2.08,2.08,0,0,1,1,.23,1.66,1.66,0,0,1,.68.63,1.75,1.75,0,0,1,.25.93,1.71,1.71,0,0,1-.25.93,1.75,1.75,0,0,1-.68.64A2.08,2.08,0,0,1,50.82,13.61Zm0-.83a.83.83,0,0,0,.63-.26,1,1,0,0,0,.26-.71,1,1,0,0,0-.26-.7.79.79,0,0,0-.63-.26.83.83,0,0,0-.64.26,1,1,0,0,0-.26.7,1,1,0,0,0,.26.71A.87.87,0,0,0,50.82,12.78Z"/><circle class="cls-1" cx="9.26" cy="11.57" r="9.26"/><circle class="cls-3" cx="9.26" cy="11.57" r="7.41"/><path class="cls-4" d="M5.29,13.06l2.34,2.35a1,1,0,0,0,1,.25l3.21-.87a1,1,0,0,0,.7-.7l.86-3.21a1,1,0,0,0-.25-1L10.75,7.6a.94.94,0,0,0-.95-.26l-3.21.87a1,1,0,0,0-.7.7L5,12.12A1,1,0,0,0,5.29,13.06Z"/></g></g></svg>