<svg width="68" height="23" viewBox="0 0 68 23" fill="none" xmlns="http://www.w3.org/2000/svg">
<path d="M11.5742 9.25777C11.5742 4.14485 15.7191 0 20.832 0H57.8631C62.976 0 67.1208 4.14484 67.1208 9.25777V12.9609C67.1208 18.0738 62.976 22.2186 57.8631 22.2186H20.832C15.7191 22.2186 11.5742 18.0738 11.5742 12.9609V9.25777Z" fill="#FFF1B9"/>
<path d="M30.4045 12.5836H28.2983L27.8966 13.5557H26.8208L28.8427 9.01936H29.8796L31.9079 13.5557H30.8063L30.4045 12.5836ZM30.074 11.7865L29.3547 10.0497L28.6353 11.7865H30.074ZM32.3073 8.74718H33.3182V13.5557H32.3073V8.74718ZM34.2565 8.74718H35.2674V13.5557H34.2565V8.74718ZM39.6209 11.8254C39.6209 11.8383 39.6144 11.9291 39.6014 12.0976H36.9639C37.0114 12.3136 37.1238 12.4842 37.3009 12.6095C37.478 12.7348 37.6983 12.7975 37.9619 12.7975C38.1433 12.7975 38.3032 12.7715 38.4414 12.7197C38.584 12.6635 38.7158 12.5771 38.8367 12.4605L39.3746 13.0437C39.0463 13.4196 38.5667 13.6075 37.936 13.6075C37.5428 13.6075 37.195 13.5319 36.8926 13.3807C36.5902 13.2252 36.3569 13.0113 36.1927 12.7391C36.0286 12.467 35.9465 12.158 35.9465 11.8124C35.9465 11.4711 36.0264 11.1644 36.1862 10.8922C36.3504 10.6157 36.5729 10.4019 36.8537 10.2506C37.1389 10.0951 37.4564 10.0173 37.8064 10.0173C38.1477 10.0173 38.4566 10.0908 38.7331 10.2377C39.0096 10.3846 39.2256 10.5963 39.3811 10.8728C39.541 11.1449 39.6209 11.4625 39.6209 11.8254ZM37.8128 10.782C37.5839 10.782 37.3916 10.8468 37.2361 10.9764C37.0805 11.1061 36.9855 11.2832 36.9509 11.5078H38.6683C38.6337 11.2875 38.5386 11.1125 38.3831 10.9829C38.2276 10.849 38.0375 10.782 37.8128 10.782ZM43.8906 10.0692V12.9724C43.8906 13.6118 43.7242 14.0871 43.3916 14.3981C43.0589 14.7092 42.5729 14.8647 41.9335 14.8647C41.5965 14.8647 41.2768 14.8237 40.9744 14.7416C40.672 14.6595 40.4214 14.5407 40.2226 14.3852L40.6244 13.6594C40.7713 13.7803 40.9571 13.8754 41.1818 13.9445C41.4064 14.0179 41.6311 14.0547 41.8557 14.0547C42.2057 14.0547 42.4627 13.9747 42.6269 13.8149C42.7954 13.6594 42.8796 13.4217 42.8796 13.102V12.953C42.6161 13.2424 42.2489 13.3872 41.778 13.3872C41.4583 13.3872 41.1645 13.318 40.8966 13.1798C40.6331 13.0372 40.4235 12.8385 40.268 12.5836C40.1125 12.3287 40.0347 12.0349 40.0347 11.7023C40.0347 11.3696 40.1125 11.0758 40.268 10.8209C40.4235 10.566 40.6331 10.3694 40.8966 10.2312C41.1645 10.0886 41.4583 10.0173 41.778 10.0173C42.2834 10.0173 42.6679 10.1837 42.9315 10.5163V10.0692H43.8906ZM41.9788 12.5577C42.2467 12.5577 42.4649 12.4799 42.6334 12.3244C42.8062 12.1645 42.8926 11.9572 42.8926 11.7023C42.8926 11.4474 42.8062 11.2421 42.6334 11.0866C42.4649 10.9268 42.2467 10.8468 41.9788 10.8468C41.711 10.8468 41.4907 10.9268 41.3178 11.0866C41.145 11.2421 41.0586 11.4474 41.0586 11.7023C41.0586 11.9572 41.145 12.1645 41.3178 12.3244C41.4907 12.4799 41.711 12.5577 41.9788 12.5577ZM45.7971 10.5293C45.9181 10.3608 46.0801 10.2334 46.2831 10.147C46.4905 10.0605 46.7281 10.0173 46.996 10.0173V10.9505C46.8836 10.9419 46.808 10.9376 46.7692 10.9376C46.4797 10.9376 46.2529 11.0197 46.0887 11.1838C45.9245 11.3437 45.8425 11.5856 45.8425 11.9096V13.5557H44.8315V10.0692H45.7971V10.5293ZM49.2244 13.6075C48.8572 13.6075 48.5267 13.5319 48.2329 13.3807C47.9435 13.2252 47.7166 13.0113 47.5525 12.7391C47.3883 12.467 47.3062 12.158 47.3062 11.8124C47.3062 11.4668 47.3883 11.1579 47.5525 10.8857C47.7166 10.6135 47.9435 10.4019 48.2329 10.2506C48.5267 10.0951 48.8572 10.0173 49.2244 10.0173C49.5917 10.0173 49.92 10.0951 50.2095 10.2506C50.4989 10.4019 50.7257 10.6135 50.8899 10.8857C51.0541 11.1579 51.1362 11.4668 51.1362 11.8124C51.1362 12.158 51.0541 12.467 50.8899 12.7391C50.7257 13.0113 50.4989 13.2252 50.2095 13.3807C49.92 13.5319 49.5917 13.6075 49.2244 13.6075ZM49.2244 12.778C49.4836 12.778 49.6953 12.6916 49.8595 12.5188C50.028 12.3417 50.1122 12.1062 50.1122 11.8124C50.1122 11.5186 50.028 11.2854 49.8595 11.1125C49.6953 10.9354 49.4836 10.8468 49.2244 10.8468C48.9652 10.8468 48.7514 10.9354 48.5829 11.1125C48.4144 11.2854 48.3301 11.5186 48.3301 11.8124C48.3301 12.1062 48.4144 12.3417 48.5829 12.5188C48.7514 12.6916 48.9652 12.778 49.2244 12.778Z" fill="#272631"/>
<circle cx="9.25777" cy="11.5712" r="9.25777" fill="#FFF1B9"/>
<circle cx="9.25778" cy="11.5713" r="7.40621" fill="white"/>
<path d="M5.28909 13.0601L7.6329 15.406C7.88435 15.6577 8.24355 15.7566 8.5848 15.6577L11.7907 14.7948C12.1319 14.7049 12.4013 14.4353 12.4911 14.0937L13.3532 10.8849C13.443 10.5433 13.3443 10.1838 13.1018 9.93212L10.749 7.59515C10.4976 7.34347 10.1384 7.2446 9.79711 7.34348L6.59121 8.20636C6.24996 8.29624 5.98056 8.56589 5.89076 8.90745L5.02867 12.1163C4.93887 12.4399 5.03765 12.8084 5.28909 13.0601Z" fill="url(#paint0_linear)"/>
<defs>
<linearGradient id="paint0_linear" x1="5.90936" y1="8.1223" x2="11.9115" y2="14.9292" gradientUnits="userSpaceOnUse">
<stop stop-color="#FED854"/>
<stop offset="1" stop-color="#FEBA54"/>
</linearGradient>
</defs>
</svg>
