<svg xmlns="http://www.w3.org/2000/svg" xmlns:xlink="http://www.w3.org/1999/xlink" viewBox="0 0 67.12 22.22"><defs><style>.cls-1{fill:#fff1b9;}.cls-2{fill:#272631;}.cls-3{fill:#fff;}.cls-4{fill:url(#Sfumatura_senza_nome_2);}</style><linearGradient id="Sfumatura_senza_nome_2" x1="6.08" y1="241.92" x2="12.09" y2="235.12" gradientTransform="matrix(1, 0, 0, -1, 0, 249.89)" gradientUnits="userSpaceOnUse"><stop offset="0" stop-color="#fed854"/><stop offset="1" stop-color="#feba54"/></linearGradient></defs><g id="Livello_2" data-name="Livello 2"><g id="Livello_1-2" data-name="Livello 1"><path class="cls-1" d="M11.57,9.26A9.26,9.26,0,0,1,20.83,0h37a9.25,9.25,0,0,1,9.26,9.26V13a9.26,9.26,0,0,1-9.26,9.26h-37A9.27,9.27,0,0,1,11.57,13Z"/><path class="cls-2" d="M31.08,13.63a2.6,2.6,0,0,1-1.25-.3A2.37,2.37,0,0,1,29,10.08a2.2,2.2,0,0,1,.88-.83,2.5,2.5,0,0,1,1.26-.31,2.57,2.57,0,0,1,1.06.21,2.29,2.29,0,0,1,.81.59l-.68.63a1.41,1.41,0,0,0-1.14-.53,1.54,1.54,0,0,0-.75.18,1.37,1.37,0,0,0-.52.52,1.65,1.65,0,0,0,0,1.5,1.44,1.44,0,0,0,.52.52,1.54,1.54,0,0,0,.75.18,1.42,1.42,0,0,0,1.14-.54l.68.62a2.12,2.12,0,0,1-.81.61A2.79,2.79,0,0,1,31.08,13.63ZM35,10a1.79,1.79,0,0,1,1.24.39,1.45,1.45,0,0,1,.43,1.16v2h-.94v-.44a1.12,1.12,0,0,1-1.06.49,1.65,1.65,0,0,1-.7-.14,1,1,0,0,1-.45-.37,1,1,0,0,1-.16-.55.89.89,0,0,1,.37-.76,1.83,1.83,0,0,1,1.13-.28h.8a.63.63,0,0,0-.2-.51.86.86,0,0,0-.6-.18,1.71,1.71,0,0,0-.55.09,1.58,1.58,0,0,0-.45.23l-.37-.7a2,2,0,0,1,.68-.31A2.87,2.87,0,0,1,35,10Zm-.08,2.91a.9.9,0,0,0,.46-.12.64.64,0,0,0,.28-.36V12.1H35c-.42,0-.62.13-.62.41a.37.37,0,0,0,.15.31A.72.72,0,0,0,34.9,12.93Zm3.63-2.4a1.15,1.15,0,0,1,.49-.38,1.8,1.8,0,0,1,.71-.13V11h-.22a.92.92,0,0,0-.68.24,1,1,0,0,0-.25.73v1.65h-1V10.07h1Zm1.8-.46h1v3.49h-1Zm.51-.49a.61.61,0,0,1-.45-.16.53.53,0,0,1,0-.8.61.61,0,0,1,.45-.16.64.64,0,0,1,.45.15.48.48,0,0,1,.18.39.54.54,0,0,1-.18.42A.61.61,0,0,1,40.84,9.58Zm3.13,4a2.24,2.24,0,0,1-1-.23,1.77,1.77,0,0,1-.69-.64,1.84,1.84,0,0,1,0-1.85,1.7,1.7,0,0,1,.69-.64A2.24,2.24,0,0,1,44,10a2,2,0,0,1,1,.23,1.35,1.35,0,0,1,.6.65l-.78.43a.88.88,0,0,0-.79-.48.85.85,0,0,0-.65.26.91.91,0,0,0-.26.7.93.93,0,0,0,.26.71.89.89,0,0,0,.65.26.86.86,0,0,0,.79-.48l.78.43a1.38,1.38,0,0,1-.6.64A1.85,1.85,0,0,1,44,13.61Zm3.76,0a2.13,2.13,0,0,1-1-.23,1.68,1.68,0,0,1-.68-.64,1.84,1.84,0,0,1,0-1.85,1.62,1.62,0,0,1,.68-.64,2.22,2.22,0,0,1,2,0,1.62,1.62,0,0,1,.68.64,1.77,1.77,0,0,1-.68,2.49A2.11,2.11,0,0,1,47.73,13.61Zm0-.83a.83.83,0,0,0,.63-.26,1.09,1.09,0,0,0,0-1.41.79.79,0,0,0-.63-.26.82.82,0,0,0-.64.26,1.09,1.09,0,0,0,0,1.41A.85.85,0,0,0,47.73,12.78Z"/><circle class="cls-1" cx="9.26" cy="11.57" r="9.26"/><circle class="cls-3" cx="9.26" cy="11.57" r="7.41"/><path class="cls-4" d="M5.29,13.06l2.34,2.35a1,1,0,0,0,1,.25l3.21-.86a1,1,0,0,0,.7-.71l.86-3.2a1,1,0,0,0-.25-1L10.75,7.6a.94.94,0,0,0-.95-.26l-3.21.87a1,1,0,0,0-.7.7L5,12.12A1,1,0,0,0,5.29,13.06Z"/></g></g></svg>