<svg xmlns="http://www.w3.org/2000/svg" xmlns:xlink="http://www.w3.org/1999/xlink" viewBox="0 0 67.12 22.22"><defs><style>.cls-1{fill:#fff1b9;}.cls-2{fill:#272631;}.cls-3{fill:#fff;}.cls-4{fill:url(#Sfumatura_senza_nome_4);}</style><linearGradient id="Sfumatura_senza_nome_4" x1="6.08" y1="146.55" x2="12.08" y2="139.75" gradientTransform="matrix(1, 0, 0, -1, 0, 154.52)" gradientUnits="userSpaceOnUse"><stop offset="0" stop-color="#fed854"/><stop offset="1" stop-color="#feba54"/></linearGradient></defs><g id="Livello_2" data-name="Livello 2"><g id="Livello_1-2" data-name="Livello 1"><path class="cls-1" d="M11.57,9.26A9.25,9.25,0,0,1,20.83,0h37a9.26,9.26,0,0,1,9.26,9.26V13a9.27,9.27,0,0,1-9.26,9.26h-37A9.26,9.26,0,0,1,11.57,13Z"/><path class="cls-2" d="M30.74,9.86v1.2h2.1v.84h-2.1v1.65h-1V9h3.43v.84Zm6.35,2s0,.11,0,.28H34.43a.85.85,0,0,0,.34.51,1.17,1.17,0,0,0,.66.19,1.42,1.42,0,0,0,.48-.08,1.21,1.21,0,0,0,.39-.26l.54.58a1.8,1.8,0,0,1-1.44.57,2.31,2.31,0,0,1-1-.23,1.71,1.71,0,0,1-1-1.57,1.78,1.78,0,0,1,.24-.92,1.72,1.72,0,0,1,.67-.64,2.08,2.08,0,0,1,1.88,0,1.52,1.52,0,0,1,.65.63A1.84,1.84,0,0,1,37.09,11.82Zm-1.81-1a.88.88,0,0,0-.58.19.84.84,0,0,0-.28.54h1.72a.84.84,0,0,0-.86-.73Zm2.48-2h1v4.81h-1Zm2,1.33h1v3.48h-1Zm.51-.49a.65.65,0,0,1-.46-.16.54.54,0,0,1-.17-.4.57.57,0,0,1,.17-.41.69.69,0,0,1,.46-.16.69.69,0,0,1,.45.16.48.48,0,0,1,.18.39.54.54,0,0,1-.18.42A.64.64,0,0,1,40.22,9.58Zm3.13,4a2.21,2.21,0,0,1-1-.23,1.85,1.85,0,0,1-.69-.64,1.85,1.85,0,0,1,0-1.86,1.75,1.75,0,0,1,.69-.63,2.09,2.09,0,0,1,1-.23,1.83,1.83,0,0,1,.95.23,1.37,1.37,0,0,1,.61.65l-.79.42a.85.85,0,0,0-.78-.48.93.93,0,0,0-.66.26,1.13,1.13,0,0,0,0,1.42.93.93,0,0,0,.66.26.84.84,0,0,0,.78-.48l.79.42a1.37,1.37,0,0,1-.61.65A1.84,1.84,0,0,1,43.35,13.61Zm5.51-1.79s0,.11,0,.28H46.2a.85.85,0,0,0,.34.51,1.17,1.17,0,0,0,.66.19,1.42,1.42,0,0,0,.48-.08,1.37,1.37,0,0,0,.4-.26l.53.58a1.77,1.77,0,0,1-1.43.57,2.32,2.32,0,0,1-1-.23,1.68,1.68,0,0,1-.94-1.57,1.78,1.78,0,0,1,.24-.92,1.63,1.63,0,0,1,.66-.64,2,2,0,0,1,1-.23,1.87,1.87,0,0,1,.92.22,1.52,1.52,0,0,1,.65.63A1.84,1.84,0,0,1,48.86,11.82Zm-1.81-1a.84.84,0,0,0-.57.19.8.8,0,0,0-.29.54h1.72a.84.84,0,0,0-.86-.73Z"/><circle class="cls-1" cx="9.26" cy="11.57" r="9.26"/><circle class="cls-3" cx="9.26" cy="11.57" r="7.41"/><path class="cls-4" d="M5.28,13.06l2.35,2.35a1,1,0,0,0,1,.25l3.21-.87a1,1,0,0,0,.7-.7l.86-3.21a1,1,0,0,0-.25-1L10.74,7.6a.94.94,0,0,0-1-.26l-3.2.87a1,1,0,0,0-.7.7L5,12.12A1,1,0,0,0,5.28,13.06Z"/></g></g></svg>