<svg xmlns="http://www.w3.org/2000/svg" xmlns:xlink="http://www.w3.org/1999/xlink" viewBox="0 0 67.44 22.33"><defs><style>.cls-1{fill:#ffd3cc;}.cls-2{fill:#272631;}.cls-3{fill:#fff;}.cls-4{fill:url(#Sfumatura_senza_nome_9);}</style><linearGradient id="Sfumatura_senza_nome_9" x1="10.15" y1="261.82" x2="8.91" y2="255.27" gradientTransform="matrix(1, 0, 0, -1, 0, 268.5)" gradientUnits="userSpaceOnUse"><stop offset="0" stop-color="#fa6647"/><stop offset="1" stop-color="#f94b3d"/></linearGradient></defs><g id="Livello_2" data-name="Livello 2"><g id="Livello_1-2" data-name="Livello 1"><path class="cls-1" d="M11.63,9.07A9.07,9.07,0,0,1,20.69,0H58.37a9.07,9.07,0,0,1,9.07,9.07v4.19a9.07,9.07,0,0,1-9.07,9.07H20.69a9.07,9.07,0,0,1-9.06-9.07Z"/><path class="cls-2" d="M33.19,10H31.77V9.14h3.87V10H34.22v3.6h-1Zm5.93,1.91s0,.1,0,.26H36.52a.83.83,0,0,0,.33.5,1,1,0,0,0,.65.19,1.36,1.36,0,0,0,.47-.08,1.18,1.18,0,0,0,.39-.25l.52.57a1.76,1.76,0,0,1-1.41.55,2.25,2.25,0,0,1-1-.22,1.66,1.66,0,0,1-.68-.63,1.64,1.64,0,0,1-.25-.91,1.73,1.73,0,0,1,.24-.9,1.71,1.71,0,0,1,.65-.63,2,2,0,0,1,.94-.22,1.93,1.93,0,0,1,.9.21,1.53,1.53,0,0,1,.64.62A1.8,1.8,0,0,1,39.12,11.89Zm-1.77-1a.88.88,0,0,0-.56.19.84.84,0,0,0-.28.53h1.68a.81.81,0,0,0-.28-.52A.83.83,0,0,0,37.35,10.86Zm3.58,2.77a3.31,3.31,0,0,1-.83-.1,2.08,2.08,0,0,1-.65-.27l.33-.71a2.06,2.06,0,0,0,.56.24,2.28,2.28,0,0,0,.63.09c.42,0,.63-.1.63-.31a.23.23,0,0,0-.17-.21,2.79,2.79,0,0,0-.53-.11,5.51,5.51,0,0,1-.69-.14,1.19,1.19,0,0,1-.48-.29.85.85,0,0,1-.19-.6.92.92,0,0,1,.18-.57,1.2,1.2,0,0,1,.55-.39,2.2,2.2,0,0,1,.85-.14,2.81,2.81,0,0,1,.71.08,2,2,0,0,1,.6.21l-.33.71a2,2,0,0,0-1-.26,1,1,0,0,0-.48.09.26.26,0,0,0-.16.23.22.22,0,0,0,.17.22,2.19,2.19,0,0,0,.55.12,5.13,5.13,0,0,1,.69.16,1,1,0,0,1,.46.28.84.84,0,0,1,.2.59.87.87,0,0,1-.2.56,1.15,1.15,0,0,1-.55.39A2.49,2.49,0,0,1,40.93,13.63Zm3.85,0a2.07,2.07,0,0,1-1-.22,1.69,1.69,0,0,1-.67-.63,1.83,1.83,0,0,1,0-1.81,1.69,1.69,0,0,1,.67-.63,2.25,2.25,0,0,1,1.94,0,1.67,1.67,0,0,1,.66.63,1.83,1.83,0,0,1,0,1.81,1.67,1.67,0,0,1-.66.63A2.07,2.07,0,0,1,44.78,13.63Zm0-.81a.8.8,0,0,0,.62-.25,1,1,0,0,0,.25-.7.92.92,0,0,0-.25-.68.77.77,0,0,0-.62-.26.82.82,0,0,0-.63.26,1,1,0,0,0-.24.68,1,1,0,0,0,.24.7A.85.85,0,0,0,44.78,12.82Z"/><circle class="cls-1" cx="9.3" cy="11.16" r="9.3"/><circle class="cls-3" cx="9.3" cy="11.16" r="7.44"/><path class="cls-4" d="M8.73,15.58,4.89,11.73a.8.8,0,0,1,0-1.14L8.73,6.75a.8.8,0,0,1,1.14,0l3.85,3.84a.81.81,0,0,1,0,1.14L9.87,15.58A.81.81,0,0,1,8.73,15.58Z"/></g></g></svg>