<svg xmlns="http://www.w3.org/2000/svg" xmlns:xlink="http://www.w3.org/1999/xlink" viewBox="0 0 67.44 22.33"><defs><style>.cls-1{fill:#ffd3cc;}.cls-2{fill:#272631;}.cls-3{fill:#fff;}.cls-4{fill:url(#Sfumatura_senza_nome_12);}</style><linearGradient id="Sfumatura_senza_nome_12" x1="10.15" y1="144.62" x2="8.91" y2="138.07" gradientTransform="matrix(1, 0, 0, -1, 0, 151.29)" gradientUnits="userSpaceOnUse"><stop offset="0" stop-color="#fa6647"/><stop offset="1" stop-color="#f94b3d"/></linearGradient></defs><g id="Livello_2" data-name="Livello 2"><g id="Livello_1-2" data-name="Livello 1"><path class="cls-1" d="M11.63,9.07A9.07,9.07,0,0,1,20.7,0H58.37a9.07,9.07,0,0,1,9.07,9.07v4.19a9.07,9.07,0,0,1-9.07,9.07H20.7a9.07,9.07,0,0,1-9.07-9.07Z"/><path class="cls-2" d="M22.86,9.14h1v4.44h-1Zm4.09,1a1.41,1.41,0,0,1,1,.38,1.54,1.54,0,0,1,.39,1.13v2h-1v-1.8a.86.86,0,0,0-.18-.6.62.62,0,0,0-.51-.21.78.78,0,0,0-.6.24.93.93,0,0,0-.22.68v1.69h-1V10.17h.95v.4a1.15,1.15,0,0,1,.48-.33A1.54,1.54,0,0,1,27,10.11Zm3.4.13h.87V11h-.85v2.58h-1V11h-.53v-.76h.53v-.15a1.25,1.25,0,0,1,.34-.93,1.34,1.34,0,0,1,1-.34,1.86,1.86,0,0,1,.42,0,1,1,0,0,1,.34.13l-.26.72a.7.7,0,0,0-.4-.12c-.3,0-.45.17-.45.5ZM33,10.11a1.78,1.78,0,0,1,1.22.38,1.45,1.45,0,0,1,.42,1.14v1.95h-.92v-.43a1.11,1.11,0,0,1-1,.48A1.63,1.63,0,0,1,32,13.5a1,1,0,0,1-.44-.37,1,1,0,0,1-.15-.53.88.88,0,0,1,.36-.75,1.85,1.85,0,0,1,1.11-.27h.78a.62.62,0,0,0-.19-.5.85.85,0,0,0-.59-.18,1.7,1.7,0,0,0-.54.09,1.47,1.47,0,0,0-.45.23l-.35-.69a2.12,2.12,0,0,1,.66-.31A3.22,3.22,0,0,1,33,10.11ZM33,13a.9.9,0,0,0,.46-.11.63.63,0,0,0,.27-.35v-.35H33c-.41,0-.61.14-.61.4a.37.37,0,0,0,.14.31A.71.71,0,0,0,33,13Zm3.77.67a3.31,3.31,0,0,1-.83-.1,2.08,2.08,0,0,1-.65-.27l.33-.71a2,2,0,0,0,.55.24,2.41,2.41,0,0,0,.64.09c.42,0,.63-.1.63-.31a.22.22,0,0,0-.17-.21,2.79,2.79,0,0,0-.53-.11,5.51,5.51,0,0,1-.69-.14,1.13,1.13,0,0,1-.48-.29.85.85,0,0,1-.2-.6.87.87,0,0,1,.19-.57,1.26,1.26,0,0,1,.54-.4,2.44,2.44,0,0,1,.85-.14,2.9,2.9,0,0,1,.72.09,2.1,2.1,0,0,1,.6.21l-.33.71a2,2,0,0,0-1-.26,1,1,0,0,0-.47.09.26.26,0,0,0-.16.23.22.22,0,0,0,.17.22,2.19,2.19,0,0,0,.55.12,4.94,4.94,0,0,1,.68.16,1,1,0,0,1,.47.28.84.84,0,0,1,.19.59.86.86,0,0,1-.19.56,1.2,1.2,0,0,1-.56.39A2.47,2.47,0,0,1,36.72,13.63Zm4.43-.21a1.19,1.19,0,0,1-.36.16,2.14,2.14,0,0,1-.45.05,1.34,1.34,0,0,1-1-.31,1.19,1.19,0,0,1-.33-.91V11h-.52v-.76h.52V9.41h1v.83h.85V11h-.85v1.39a.49.49,0,0,0,.1.34.43.43,0,0,0,.32.11.65.65,0,0,0,.4-.12Zm.55-3.25h1v3.41h-1Zm.5-.48a.64.64,0,0,1-.45-.16.54.54,0,0,1-.17-.39.54.54,0,0,1,.17-.4.69.69,0,0,1,.45-.16.64.64,0,0,1,.44.16.46.46,0,0,1,.17.38.53.53,0,0,1-.17.41A.6.6,0,0,1,42.2,9.69Zm4.89-.82v4.71h-.94v-.39a1.34,1.34,0,0,1-1.07.44,1.87,1.87,0,0,1-.88-.21,1.58,1.58,0,0,1-.61-.62,2,2,0,0,1-.22-.93,1.92,1.92,0,0,1,.22-.92,1.52,1.52,0,0,1,.61-.62,1.88,1.88,0,0,1,.88-.22,1.27,1.27,0,0,1,1,.42V8.87Zm-1.84,4a.85.85,0,0,0,.62-.25,1,1,0,0,0,.25-.7.91.91,0,0,0-.25-.68.79.79,0,0,0-.62-.26.82.82,0,0,0-.63.26,1,1,0,0,0-.25.68,1,1,0,0,0,.25.7A.89.89,0,0,0,45.25,12.82ZM48,10.17h1v3.41H48Zm.49-.48a.6.6,0,0,1-.44-.16.5.5,0,0,1-.17-.39.51.51,0,0,1,.17-.4.64.64,0,0,1,.44-.16.67.67,0,0,1,.45.16.49.49,0,0,1,.17.38.57.57,0,0,1-.17.41A.62.62,0,0,1,48.5,9.69Zm3.62,3.73a1.19,1.19,0,0,1-.36.16,2.14,2.14,0,0,1-.45.05,1.32,1.32,0,0,1-.94-.31,1.19,1.19,0,0,1-.33-.91V11h-.53v-.76H50V9.41h1v.83h.85V11H51v1.39a.5.5,0,0,0,.11.34.39.39,0,0,0,.31.11.65.65,0,0,0,.4-.12Zm2.08.21a2,2,0,0,1-1-.22,1.63,1.63,0,0,1-.67-.63,1.85,1.85,0,0,1,0-1.82,1.67,1.67,0,0,1,.67-.62,2,2,0,0,1,1-.23,2,2,0,0,1,1,.23,1.67,1.67,0,0,1,.67.62,1.85,1.85,0,0,1,0,1.82,1.63,1.63,0,0,1-.67.63A2,2,0,0,1,54.2,13.63Zm0-.81a.85.85,0,0,0,.62-.25,1,1,0,0,0,.25-.7,1,1,0,0,0-.25-.68.88.88,0,0,0-1.25,0,.91.91,0,0,0-.25.68,1,1,0,0,0,.25.7A.86.86,0,0,0,54.2,12.82Z"/><circle class="cls-1" cx="9.3" cy="11.16" r="9.3"/><circle class="cls-3" cx="9.3" cy="11.16" r="7.44"/><path class="cls-4" d="M8.73,15.58,4.89,11.73a.8.8,0,0,1,0-1.14L8.73,6.75a.8.8,0,0,1,1.14,0l3.85,3.84a.81.81,0,0,1,0,1.14L9.87,15.58A.81.81,0,0,1,8.73,15.58Z"/></g></g></svg>