<svg xmlns="http://www.w3.org/2000/svg" xmlns:xlink="http://www.w3.org/1999/xlink" viewBox="0 0 66.98 22.33"><defs><style>.cls-1{fill:#ffd3cc;}.cls-2{fill:#272631;}.cls-3{fill:#fff;}.cls-4{fill:url(#Sfumatura_senza_nome_11);}</style><linearGradient id="Sfumatura_senza_nome_11" x1="10.15" y1="29.26" x2="8.91" y2="22.71" gradientTransform="matrix(1, 0, 0, -1, 0, 35.93)" gradientUnits="userSpaceOnUse"><stop offset="0" stop-color="#fa6647"/><stop offset="1" stop-color="#f94b3d"/></linearGradient></defs><g id="Livello_2" data-name="Livello 2"><g id="Livello_1-2" data-name="Livello 1"><path class="cls-1" d="M11.17,9.07A9.07,9.07,0,0,1,20.24,0H57.91A9.07,9.07,0,0,1,67,9.07v4.19a9.08,9.08,0,0,1-9.07,9.07H20.24a9.08,9.08,0,0,1-9.07-9.07Z"/><path class="cls-2" d="M28.38,9.14h1v4.44h-1Zm3,1.48a1.13,1.13,0,0,1,.48-.38,1.86,1.86,0,0,1,.7-.13V11h-.23a.89.89,0,0,0-.66.24.94.94,0,0,0-.24.71v1.61h-1V10.17h.95Zm2.71,0a1.13,1.13,0,0,1,.48-.38,1.84,1.84,0,0,1,.69-.13V11H35a.89.89,0,0,0-.66.24.9.9,0,0,0-.25.71v1.61h-1V10.17h.95Zm1.76-.45h1v3.41h-1Zm.5-.48a.64.64,0,0,1-.45-.16.54.54,0,0,1-.17-.39.54.54,0,0,1,.17-.4.69.69,0,0,1,.45-.16.64.64,0,0,1,.44.16.46.46,0,0,1,.17.38.53.53,0,0,1-.17.41A.6.6,0,0,1,36.31,9.69Zm3.62,3.73a1.15,1.15,0,0,1-.37.16,2,2,0,0,1-.44.05,1.34,1.34,0,0,1-.95-.31,1.19,1.19,0,0,1-.33-.91V11h-.52v-.76h.52V9.41h1v.83h.85V11h-.85v1.39a.5.5,0,0,0,.11.34.42.42,0,0,0,.32.11.65.65,0,0,0,.4-.12Zm1.93-3.31a1.78,1.78,0,0,1,1.22.38,1.45,1.45,0,0,1,.42,1.14v1.95h-.92v-.43a1.11,1.11,0,0,1-1,.48,1.6,1.6,0,0,1-.69-.13,1,1,0,0,1-.44-.37,1,1,0,0,1-.15-.53.88.88,0,0,1,.36-.75,1.85,1.85,0,0,1,1.11-.28h.78a.61.61,0,0,0-.19-.49.85.85,0,0,0-.59-.18,1.61,1.61,0,0,0-.54.09,1.47,1.47,0,0,0-.45.23l-.35-.69a2.12,2.12,0,0,1,.66-.31A3.16,3.16,0,0,1,41.86,10.11ZM41.78,13a.84.84,0,0,0,.45-.11.61.61,0,0,0,.28-.35v-.35h-.68c-.4,0-.61.14-.61.4a.37.37,0,0,0,.15.31A.71.71,0,0,0,41.78,13Zm4.82.46a1,1,0,0,1-.36.16,2.12,2.12,0,0,1-.44.05,1.34,1.34,0,0,1-.95-.31,1.19,1.19,0,0,1-.33-.91V11H44v-.76h.53V9.41h1v.83h.85V11h-.85v1.39a.5.5,0,0,0,.11.34.42.42,0,0,0,.32.11.68.68,0,0,0,.4-.12Zm2.08.21a2.07,2.07,0,0,1-1-.22,1.63,1.63,0,0,1-.67-.63A1.85,1.85,0,0,1,47,11a1.67,1.67,0,0,1,.67-.62,2.07,2.07,0,0,1,1-.23,2,2,0,0,1,1,.23,1.67,1.67,0,0,1,.67.62,1.85,1.85,0,0,1,0,1.82,1.63,1.63,0,0,1-.67.63A2,2,0,0,1,48.68,13.63Zm0-.81a.85.85,0,0,0,.62-.25,1,1,0,0,0,.25-.7.91.91,0,0,0-.25-.68.79.79,0,0,0-.62-.26.82.82,0,0,0-.63.26,1,1,0,0,0-.25.68,1,1,0,0,0,.25.7A.89.89,0,0,0,48.68,12.82Z"/><circle class="cls-1" cx="9.3" cy="11.16" r="9.3"/><circle class="cls-3" cx="9.3" cy="11.16" r="7.44"/><path class="cls-4" d="M8.73,15.58,4.89,11.73a.8.8,0,0,1,0-1.14L8.73,6.75a.8.8,0,0,1,1.14,0l3.85,3.84a.81.81,0,0,1,0,1.14L9.87,15.58A.81.81,0,0,1,8.73,15.58Z"/></g></g></svg>