<svg xmlns="http://www.w3.org/2000/svg" xmlns:xlink="http://www.w3.org/1999/xlink" viewBox="0 0 67.44 22.32"><defs><style>.cls-1{fill:#ffd3cc;}.cls-2{fill:#272631;}.cls-3{fill:#fff;}.cls-4{fill:url(#Sfumatura_senza_nome_10);}</style><linearGradient id="Sfumatura_senza_nome_10" x1="10.15" y1="373.45" x2="8.91" y2="366.9" gradientTransform="matrix(1, 0, 0, -1, 0, 380.12)" gradientUnits="userSpaceOnUse"><stop offset="0" stop-color="#fa6647"/><stop offset="1" stop-color="#f94b3d"/></linearGradient></defs><g id="Livello_2" data-name="Livello 2"><g id="Livello_1-2" data-name="Livello 1"><path class="cls-1" d="M11.63,9.07A9.07,9.07,0,0,1,20.7,0H58.37a9.07,9.07,0,0,1,9.07,9.07v4.19a9.07,9.07,0,0,1-9.07,9.06H20.7a9.07,9.07,0,0,1-9.07-9.06Z"/><path class="cls-2" d="M30.23,9.14v4.44h-.85l-2.21-2.7v2.7h-1V9.14H27l2.21,2.7V9.14Zm4.32,2.75s0,.1,0,.26H32a.83.83,0,0,0,.33.5,1.06,1.06,0,0,0,.65.19,1.36,1.36,0,0,0,.47-.08,1.18,1.18,0,0,0,.39-.25l.52.57a1.76,1.76,0,0,1-1.41.55,2.25,2.25,0,0,1-1-.22,1.66,1.66,0,0,1-.68-.63,1.79,1.79,0,0,1,0-1.81,1.71,1.71,0,0,1,.65-.63,2,2,0,0,1,.94-.23,1.93,1.93,0,0,1,.9.22,1.47,1.47,0,0,1,.64.62A1.8,1.8,0,0,1,34.55,11.89Zm-1.77-1a.88.88,0,0,0-.56.19.84.84,0,0,0-.28.52h1.68a.81.81,0,0,0-.28-.51A.83.83,0,0,0,32.78,10.86Zm3.38-.24a1.13,1.13,0,0,1,.48-.38,1.84,1.84,0,0,1,.69-.13V11h-.22a.89.89,0,0,0-.66.24.94.94,0,0,0-.25.71v1.61h-1V10.17h.95Zm5.27-.45L40,13.58H39l-1.44-3.41h1l.94,2.32,1-2.32Zm1.94,3.46a2,2,0,0,1-1-.22,1.63,1.63,0,0,1-.67-.63,1.74,1.74,0,0,1-.24-.91,1.68,1.68,0,0,1,.24-.9,1.63,1.63,0,0,1,.67-.63,2,2,0,0,1,1-.23,2,2,0,0,1,1,.23A1.63,1.63,0,0,1,45,11a1.68,1.68,0,0,1,.24.9,1.74,1.74,0,0,1-.24.91,1.63,1.63,0,0,1-.67.63A2,2,0,0,1,43.37,13.63Zm0-.81a.85.85,0,0,0,.62-.25,1,1,0,0,0,.25-.7.92.92,0,0,0-.25-.68.88.88,0,0,0-1.25,0,.92.92,0,0,0-.25.68,1,1,0,0,0,.25.7A.86.86,0,0,0,43.37,12.82Zm3.68.81a3.31,3.31,0,0,1-.83-.1,2.08,2.08,0,0,1-.65-.27l.33-.71a2.06,2.06,0,0,0,.56.24,2.28,2.28,0,0,0,.63.09c.42,0,.63-.1.63-.31a.22.22,0,0,0-.17-.21,2.79,2.79,0,0,0-.53-.11,5.51,5.51,0,0,1-.69-.14,1.19,1.19,0,0,1-.48-.29.85.85,0,0,1-.19-.6.92.92,0,0,1,.18-.57,1.29,1.29,0,0,1,.55-.4,2.4,2.4,0,0,1,.85-.14,2.82,2.82,0,0,1,.71.09,2.1,2.1,0,0,1,.6.21l-.33.71a2,2,0,0,0-1-.26,1,1,0,0,0-.48.09.26.26,0,0,0-.16.23.22.22,0,0,0,.17.22,2.19,2.19,0,0,0,.55.12,4.6,4.6,0,0,1,.68.16,1,1,0,0,1,.47.28.84.84,0,0,1,.19.59.86.86,0,0,1-.19.56,1.22,1.22,0,0,1-.55.39A2.53,2.53,0,0,1,47.05,13.63Zm3.85,0a2.07,2.07,0,0,1-1-.22,1.69,1.69,0,0,1-.67-.63,1.74,1.74,0,0,1-.24-.91,1.69,1.69,0,0,1,.91-1.53,2.16,2.16,0,0,1,1.94,0,1.7,1.7,0,0,1,.9,1.53,1.74,1.74,0,0,1-.24.91,1.67,1.67,0,0,1-.66.63A2.07,2.07,0,0,1,50.9,13.63Zm0-.81a.84.84,0,0,0,.62-.25,1,1,0,0,0,.25-.7.92.92,0,0,0-.25-.68.77.77,0,0,0-.62-.26.82.82,0,0,0-.63.26,1,1,0,0,0-.24.68,1,1,0,0,0,.24.7A.89.89,0,0,0,50.9,12.82Z"/><circle class="cls-1" cx="9.3" cy="11.16" r="9.3"/><circle class="cls-3" cx="9.3" cy="11.16" r="7.44"/><path class="cls-4" d="M8.73,15.58,4.89,11.73a.8.8,0,0,1,0-1.14L8.73,6.75a.8.8,0,0,1,1.14,0l3.85,3.84a.81.81,0,0,1,0,1.14L9.87,15.58A.81.81,0,0,1,8.73,15.58Z"/></g></g></svg>