<svg width="376" height="80" viewBox="0 0 376 80" fill="none" xmlns="http://www.w3.org/2000/svg">
<path d="M376 80L0 80L7.01247e-06 -2.26596e-06L376 3.05176e-05L376 80Z" fill="#007C5B"/>
<path d="M317.53 66.377H340.641C341.436 66.377 342.086 65.7395 342.086 64.9603C342.086 64.1811 341.436 63.5436 340.641 63.5436H317.53C316.736 63.5436 316.086 64.1811 316.086 64.9603C316.086 65.7395 316.736 66.377 317.53 66.377ZM317.53 59.2936H340.641C341.436 59.2936 342.086 58.6561 342.086 57.877C342.086 57.0978 341.436 56.4603 340.641 56.4603H317.53C316.736 56.4603 316.086 57.0978 316.086 57.877C316.086 58.6561 316.736 59.2936 317.53 59.2936ZM316.086 50.7936C316.086 51.5728 316.736 52.2103 317.53 52.2103H340.641C341.436 52.2103 342.086 51.5728 342.086 50.7936C342.086 50.0145 341.436 49.377 340.641 49.377H317.53C316.736 49.377 316.086 50.0145 316.086 50.7936Z" fill="#FBFEFD"/>
<path d="M94.0859 0H281.086V4C281.086 15.0457 272.132 24 261.086 24H114.086C103.04 24 94.0859 15.0457 94.0859 4V0Z" fill="#434343"/>
<path d="M30.4104 15.35C31.8504 15.35 32.9654 15.8 33.7554 16.7C34.5554 17.6 34.9554 18.89 34.9554 20.57C34.9554 21.75 34.7404 22.76 34.3104 23.6C33.8804 24.43 33.2754 25.065 32.4954 25.505C31.7254 25.935 30.8304 26.15 29.8104 26.15C29.2704 26.15 28.7604 26.095 28.2804 25.985C27.8104 25.865 27.4004 25.695 27.0504 25.475L27.7704 24.005C28.2904 24.345 28.9554 24.515 29.7654 24.515C30.7754 24.515 31.5654 24.205 32.1354 23.585C32.7054 22.965 32.9904 22.07 32.9904 20.9V20.885C32.6804 21.245 32.2854 21.52 31.8054 21.71C31.3254 21.89 30.7854 21.98 30.1854 21.98C29.4954 21.98 28.8754 21.85 28.3254 21.59C27.7754 21.32 27.3454 20.94 27.0354 20.45C26.7254 19.96 26.5704 19.395 26.5704 18.755C26.5704 18.075 26.7404 17.48 27.0804 16.97C27.4204 16.45 27.8804 16.05 28.4604 15.77C29.0404 15.49 29.6904 15.35 30.4104 15.35ZM30.5604 20.45C31.1904 20.45 31.7004 20.28 32.0904 19.94C32.4904 19.6 32.6904 19.17 32.6904 18.65C32.6904 18.14 32.4954 17.72 32.1054 17.39C31.7254 17.05 31.1954 16.88 30.5154 16.88C29.9054 16.88 29.4104 17.045 29.0304 17.375C28.6504 17.695 28.4604 18.125 28.4604 18.665C28.4604 19.215 28.6504 19.65 29.0304 19.97C29.4104 20.29 29.9204 20.45 30.5604 20.45ZM37.4447 20.39C37.1047 20.39 36.8147 20.275 36.5747 20.045C36.3347 19.805 36.2147 19.505 36.2147 19.145C36.2147 18.775 36.3297 18.475 36.5597 18.245C36.7997 18.015 37.0947 17.9 37.4447 17.9C37.7947 17.9 38.0847 18.015 38.3147 18.245C38.5547 18.475 38.6747 18.775 38.6747 19.145C38.6747 19.505 38.5547 19.805 38.3147 20.045C38.0747 20.275 37.7847 20.39 37.4447 20.39ZM37.4447 26.105C37.1047 26.105 36.8147 25.99 36.5747 25.76C36.3347 25.52 36.2147 25.22 36.2147 24.86C36.2147 24.49 36.3297 24.19 36.5597 23.96C36.7997 23.73 37.0947 23.615 37.4447 23.615C37.7947 23.615 38.0847 23.73 38.3147 23.96C38.5547 24.19 38.6747 24.49 38.6747 24.86C38.6747 25.22 38.5547 25.52 38.3147 25.76C38.0747 25.99 37.7847 26.105 37.4447 26.105ZM49.2969 23.615H47.4369V26H45.5469V23.615H39.7869V22.265L44.9619 15.5H47.0469L42.1719 21.965H45.6069V19.85H47.4369V21.965H49.2969V23.615ZM53.3667 15.5V26H51.4167V17.135H49.1967V15.5H53.3667Z" fill="#FBFEFD"/>
<rect x="288" y="22" width="3" height="5" rx="1" fill="#FBFEFD"/>
<rect x="293" y="20" width="3" height="7" rx="1" fill="#FBFEFD"/>
<rect x="298" y="18" width="3" height="9" rx="1" fill="#FBFEFD"/>
<rect x="303" y="16" width="3" height="11" rx="1" fill="#FBFEFD"/>
<rect x="332.5" y="16.5" width="20" height="10" rx="1.5" stroke="#FBFEFD"/>
<rect x="334" y="18.2002" width="16" height="6.6" rx="2" fill="#FBFEFD"/>
<path d="M355 19.2998H353V23.6998H355V19.2998Z" fill="#FBFEFD"/>
<path d="M319.501 15.7559C316.37 15.7559 313.423 16.9785 311.203 19.1985C311.104 19.297 311.104 19.4567 311.203 19.5552L312.868 21.2207C312.916 21.2681 312.98 21.2947 313.047 21.2947C313.114 21.2947 313.178 21.2681 313.225 21.2207C314.904 19.5417 317.133 18.6169 319.501 18.6169C321.869 18.6169 324.097 19.5417 325.776 21.2207C325.824 21.2681 325.888 21.2947 325.955 21.2947C326.022 21.2947 326.086 21.2681 326.133 21.2207L327.799 19.5552C327.846 19.5079 327.873 19.4438 327.873 19.3768C327.873 19.3099 327.846 19.2457 327.799 19.1984C325.579 16.9785 322.632 15.7559 319.501 15.7559Z" fill="#FBFEFD"/>
<path d="M319.499 20.1748C317.546 20.1748 315.708 20.9372 314.324 22.3217C314.277 22.369 314.25 22.4331 314.25 22.5001C314.25 22.567 314.276 22.6312 314.324 22.6785L315.989 24.3441C316.037 24.3914 316.101 24.418 316.168 24.418C316.235 24.418 316.299 24.3914 316.346 24.3441C317.19 23.5005 318.309 23.0359 319.499 23.0359C320.688 23.0359 321.808 23.5006 322.652 24.3441C322.699 24.3914 322.763 24.418 322.83 24.418C322.897 24.418 322.961 24.3914 323.008 24.3441L324.674 22.6785C324.772 22.58 324.772 22.4202 324.674 22.3218C323.29 20.9372 321.452 20.1748 319.499 20.1748Z" fill="#FBFEFD"/>
<path d="M319.5 24.8564C318.818 24.8564 318.177 25.122 317.695 25.6043C317.596 25.7029 317.596 25.8625 317.695 25.961L319.322 27.5883C319.369 27.6356 319.434 27.6622 319.5 27.6622C319.567 27.6622 319.632 27.6356 319.679 27.5883L321.306 25.961C321.404 25.8625 321.404 25.7028 321.306 25.6043C320.824 25.122 320.183 24.8564 319.5 24.8564Z" fill="#FBFEFD"/>
<path d="M141.577 52.4V65H139.651L132.703 56.468V65H130.381V52.4H132.307L139.255 60.932V52.4H141.577ZM154.044 55.388V65H151.902V63.776C151.542 64.208 151.092 64.544 150.552 64.784C150.012 65.012 149.43 65.126 148.806 65.126C147.522 65.126 146.508 64.772 145.764 64.064C145.032 63.344 144.666 62.282 144.666 60.878V55.388H146.916V60.572C146.916 61.436 147.108 62.084 147.492 62.516C147.888 62.936 148.446 63.146 149.166 63.146C149.97 63.146 150.606 62.9 151.074 62.408C151.554 61.904 151.794 61.184 151.794 60.248V55.388H154.044ZM161.31 65.126C160.338 65.126 159.462 64.916 158.682 64.496C157.902 64.076 157.29 63.494 156.846 62.75C156.414 61.994 156.198 61.142 156.198 60.194C156.198 59.246 156.414 58.4 156.846 57.656C157.29 56.912 157.902 56.33 158.682 55.91C159.462 55.49 160.338 55.28 161.31 55.28C162.294 55.28 163.176 55.49 163.956 55.91C164.736 56.33 165.342 56.912 165.774 57.656C166.218 58.4 166.44 59.246 166.44 60.194C166.44 61.142 166.218 61.994 165.774 62.75C165.342 63.494 164.736 64.076 163.956 64.496C163.176 64.916 162.294 65.126 161.31 65.126ZM161.31 63.2C162.138 63.2 162.822 62.924 163.362 62.372C163.902 61.82 164.172 61.094 164.172 60.194C164.172 59.294 163.902 58.568 163.362 58.016C162.822 57.464 162.138 57.188 161.31 57.188C160.482 57.188 159.798 57.464 159.258 58.016C158.73 58.568 158.466 59.294 158.466 60.194C158.466 61.094 158.73 61.82 159.258 62.372C159.798 62.924 160.482 63.2 161.31 63.2ZM177.328 55.388L173.206 65H170.884L166.762 55.388H169.102L172.09 62.516L175.168 55.388H177.328ZM182.79 65.126C181.818 65.126 180.942 64.916 180.162 64.496C179.382 64.076 178.77 63.494 178.326 62.75C177.894 61.994 177.678 61.142 177.678 60.194C177.678 59.246 177.894 58.4 178.326 57.656C178.77 56.912 179.382 56.33 180.162 55.91C180.942 55.49 181.818 55.28 182.79 55.28C183.774 55.28 184.656 55.49 185.436 55.91C186.216 56.33 186.822 56.912 187.254 57.656C187.698 58.4 187.92 59.246 187.92 60.194C187.92 61.142 187.698 61.994 187.254 62.75C186.822 63.494 186.216 64.076 185.436 64.496C184.656 64.916 183.774 65.126 182.79 65.126ZM182.79 63.2C183.618 63.2 184.302 62.924 184.842 62.372C185.382 61.82 185.652 61.094 185.652 60.194C185.652 59.294 185.382 58.568 184.842 58.016C184.302 57.464 183.618 57.188 182.79 57.188C181.962 57.188 181.278 57.464 180.738 58.016C180.21 58.568 179.946 59.294 179.946 60.194C179.946 61.094 180.21 61.82 180.738 62.372C181.278 62.924 181.962 63.2 182.79 63.2ZM198.016 65.126C197.236 65.126 196.474 65.024 195.73 64.82C194.986 64.616 194.392 64.358 193.948 64.046L194.812 62.336C195.244 62.624 195.76 62.858 196.36 63.038C196.972 63.206 197.572 63.29 198.16 63.29C199.504 63.29 200.176 62.936 200.176 62.228C200.176 61.892 200.002 61.658 199.654 61.526C199.318 61.394 198.772 61.268 198.016 61.148C197.224 61.028 196.576 60.89 196.072 60.734C195.58 60.578 195.148 60.308 194.776 59.924C194.416 59.528 194.236 58.982 194.236 58.286C194.236 57.374 194.614 56.648 195.37 56.108C196.138 55.556 197.17 55.28 198.466 55.28C199.126 55.28 199.786 55.358 200.446 55.514C201.106 55.658 201.646 55.856 202.066 56.108L201.202 57.818C200.386 57.338 199.468 57.098 198.448 57.098C197.788 57.098 197.284 57.2 196.936 57.404C196.6 57.596 196.432 57.854 196.432 58.178C196.432 58.538 196.612 58.796 196.972 58.952C197.344 59.096 197.914 59.234 198.682 59.366C199.45 59.486 200.08 59.624 200.572 59.78C201.064 59.936 201.484 60.2 201.832 60.572C202.192 60.944 202.372 61.472 202.372 62.156C202.372 63.056 201.982 63.776 201.202 64.316C200.422 64.856 199.36 65.126 198.016 65.126ZM210.088 64.478C209.824 64.694 209.5 64.856 209.116 64.964C208.744 65.072 208.348 65.126 207.928 65.126C206.872 65.126 206.056 64.85 205.48 64.298C204.904 63.746 204.616 62.942 204.616 61.886V57.26H203.032V55.46H204.616V53.264H206.866V55.46H209.44V57.26H206.866V61.832C206.866 62.3 206.98 62.66 207.208 62.912C207.436 63.152 207.766 63.272 208.198 63.272C208.702 63.272 209.122 63.14 209.458 62.876L210.088 64.478ZM215.611 55.28C217.027 55.28 218.107 55.622 218.851 56.306C219.607 56.978 219.985 57.998 219.985 59.366V65H217.861V63.83C217.585 64.25 217.189 64.574 216.673 64.802C216.169 65.018 215.557 65.126 214.837 65.126C214.117 65.126 213.487 65.006 212.947 64.766C212.407 64.514 211.987 64.172 211.687 63.74C211.399 63.296 211.255 62.798 211.255 62.246C211.255 61.382 211.573 60.692 212.209 60.176C212.857 59.648 213.871 59.384 215.251 59.384H217.735V59.24C217.735 58.568 217.531 58.052 217.123 57.692C216.727 57.332 216.133 57.152 215.341 57.152C214.801 57.152 214.267 57.236 213.739 57.404C213.223 57.572 212.785 57.806 212.425 58.106L211.543 56.468C212.047 56.084 212.653 55.79 213.361 55.586C214.069 55.382 214.819 55.28 215.611 55.28ZM215.305 63.488C215.869 63.488 216.367 63.362 216.799 63.11C217.243 62.846 217.555 62.474 217.735 61.994V60.878H215.413C214.117 60.878 213.469 61.304 213.469 62.156C213.469 62.564 213.631 62.888 213.955 63.128C214.279 63.368 214.729 63.488 215.305 63.488ZM228.65 64.478C228.386 64.694 228.062 64.856 227.678 64.964C227.306 65.072 226.91 65.126 226.49 65.126C225.434 65.126 224.618 64.85 224.042 64.298C223.466 63.746 223.178 62.942 223.178 61.886V57.26H221.594V55.46H223.178V53.264H225.428V55.46H228.002V57.26H225.428V61.832C225.428 62.3 225.542 62.66 225.77 62.912C225.998 63.152 226.328 63.272 226.76 63.272C227.264 63.272 227.684 63.14 228.02 62.876L228.65 64.478ZM234.505 65.126C233.533 65.126 232.657 64.916 231.877 64.496C231.097 64.076 230.485 63.494 230.041 62.75C229.609 61.994 229.393 61.142 229.393 60.194C229.393 59.246 229.609 58.4 230.041 57.656C230.485 56.912 231.097 56.33 231.877 55.91C232.657 55.49 233.533 55.28 234.505 55.28C235.489 55.28 236.371 55.49 237.151 55.91C237.931 56.33 238.537 56.912 238.969 57.656C239.413 58.4 239.635 59.246 239.635 60.194C239.635 61.142 239.413 61.994 238.969 62.75C238.537 63.494 237.931 64.076 237.151 64.496C236.371 64.916 235.489 65.126 234.505 65.126ZM234.505 63.2C235.333 63.2 236.017 62.924 236.557 62.372C237.097 61.82 237.367 61.094 237.367 60.194C237.367 59.294 237.097 58.568 236.557 58.016C236.017 57.464 235.333 57.188 234.505 57.188C233.677 57.188 232.993 57.464 232.453 58.016C231.925 58.568 231.661 59.294 231.661 60.194C231.661 61.094 231.925 61.82 232.453 62.372C232.993 62.924 233.677 63.2 234.505 63.2Z" fill="#FBFEFD"/>
</svg>
