<svg xmlns="http://www.w3.org/2000/svg" xmlns:xlink="http://www.w3.org/1999/xlink" viewBox="0 0 67.97 22.5"><defs><style>.cls-1{fill:#bff7a1;}.cls-2{fill:#272631;}.cls-3{fill:#fff;}.cls-4{fill:url(#Sfumatura_senza_nome_8);}</style><linearGradient id="Sfumatura_senza_nome_8" x1="8.23" y1="-378.5" x2="10.92" y2="-372.16" gradientTransform="matrix(1, 0, 0, -1, 0, -364.49)" gradientUnits="userSpaceOnUse"><stop offset="0" stop-color="#47b42e"/><stop offset="1" stop-color="#76ce43"/></linearGradient></defs><g id="Livello_2" data-name="Livello 2"><g id="Livello_1-2" data-name="Livello 1"><rect class="cls-1" x="11.72" width="56.25" height="22.5" rx="9.38"/><path class="cls-2" d="M29.84,13.7a4.17,4.17,0,0,1-1.06-.14,2.45,2.45,0,0,1-.81-.39l.36-.8a2.7,2.7,0,0,0,.7.35,2.87,2.87,0,0,0,.82.13,1.44,1.44,0,0,0,.67-.13.41.41,0,0,0,.21-.36.32.32,0,0,0-.13-.27.75.75,0,0,0-.33-.18l-.54-.14c-.35-.09-.63-.17-.86-.25a1.51,1.51,0,0,1-.57-.4,1.1,1.1,0,0,1-.24-.74,1.2,1.2,0,0,1,.22-.72,1.44,1.44,0,0,1,.65-.52A2.63,2.63,0,0,1,30,9a3.56,3.56,0,0,1,.86.11,2.54,2.54,0,0,1,.73.3l-.33.81A2.47,2.47,0,0,0,30,9.8a1.15,1.15,0,0,0-.66.15.43.43,0,0,0-.21.38.36.36,0,0,0,.24.35,4.18,4.18,0,0,0,.76.23,6,6,0,0,1,.85.25,1.36,1.36,0,0,1,.58.39,1.05,1.05,0,0,1,.24.73,1.33,1.33,0,0,1-.22.72,1.5,1.5,0,0,1-.66.51A2.63,2.63,0,0,1,29.84,13.7Zm6.06-1.83s0,.11,0,.28H33.21a.84.84,0,0,0,.34.52,1.18,1.18,0,0,0,.67.19,1.48,1.48,0,0,0,.49-.08,1.41,1.41,0,0,0,.4-.27l.54.6a1.83,1.83,0,0,1-1.46.57,2.35,2.35,0,0,1-1-.23,1.79,1.79,0,0,1-.71-.65,1.76,1.76,0,0,1-.25-.94,1.79,1.79,0,0,1,.24-.93,1.7,1.7,0,0,1,.68-.65,2.08,2.08,0,0,1,1.9,0,1.65,1.65,0,0,1,.66.65A1.85,1.85,0,0,1,35.9,11.87Zm-1.83-1a.86.86,0,0,0-.58.19.8.8,0,0,0-.29.54h1.74a.9.9,0,0,0-.29-.53A.84.84,0,0,0,34.07,10.82Zm3.49-.26a1.18,1.18,0,0,1,.49-.39,1.81,1.81,0,0,1,.72-.13V11h-.23a.89.89,0,0,0-.68.25,1,1,0,0,0-.25.74v1.66h-1V10.09h1Zm5.25,1.31s0,.11,0,.28H40.12a.84.84,0,0,0,.34.52,1.18,1.18,0,0,0,.67.19,1.48,1.48,0,0,0,.49-.08,1.41,1.41,0,0,0,.4-.27l.54.6a1.83,1.83,0,0,1-1.46.57,2.35,2.35,0,0,1-1.05-.23,1.73,1.73,0,0,1-.71-.65,1.76,1.76,0,0,1-.25-.94,1.79,1.79,0,0,1,.24-.93,1.7,1.7,0,0,1,.68-.65,2.08,2.08,0,0,1,1.9,0,1.65,1.65,0,0,1,.66.65A1.85,1.85,0,0,1,42.81,11.87Zm-1.83-1a.91.91,0,0,0-.59.19.84.84,0,0,0-.28.54h1.74a.9.9,0,0,0-.29-.53A.84.84,0,0,0,41,10.82ZM45.64,10a1.43,1.43,0,0,1,1,.39,1.59,1.59,0,0,1,.41,1.17v2h-1V11.76a.85.85,0,0,0-.19-.62.66.66,0,0,0-.53-.21.83.83,0,0,0-.62.24,1,1,0,0,0-.22.71v1.74h-1V10.09h1v.42a1.17,1.17,0,0,1,.5-.34A1.67,1.67,0,0,1,45.64,10Zm4.11,3.64a2.24,2.24,0,0,1-1-.23,1.84,1.84,0,0,1-.69-2.53,1.7,1.7,0,0,1,.69-.64,2.12,2.12,0,0,1,1-.24,2,2,0,0,1,1,.24,1.59,1.59,0,0,1,.69.64,1.89,1.89,0,0,1,0,1.88,1.73,1.73,0,0,1-.69.65A2.13,2.13,0,0,1,49.75,13.68Zm0-.84a.84.84,0,0,0,.64-.27,1,1,0,0,0,.26-.71,1,1,0,0,0-.26-.71.91.91,0,0,0-1.29,0,1,1,0,0,0-.26.71,1,1,0,0,0,.26.71A.85.85,0,0,0,49.75,12.84Z"/><circle class="cls-1" cx="9.38" cy="11.25" r="9.38"/><circle class="cls-3" cx="9.38" cy="11.25" r="7.5"/><path class="cls-4" d="M9.3,15.76A4.26,4.26,0,1,0,5,11.5,4.26,4.26,0,0,0,9.3,15.76Z"/></g></g></svg>