<svg xmlns="http://www.w3.org/2000/svg" xmlns:xlink="http://www.w3.org/1999/xlink" viewBox="0 0 67.97 22.5"><defs><style>.cls-1{fill:#bff7a1;}.cls-2{fill:#272631;}.cls-3{fill:#fff;}.cls-4{fill:url(#Sfumatura_senza_nome_6);}</style><linearGradient id="Sfumatura_senza_nome_6" x1="8.31" y1="-143.88" x2="10.99" y2="-137.54" gradientTransform="matrix(1, 0, 0, -1, 0, -130.11)" gradientUnits="userSpaceOnUse"><stop offset="0" stop-color="#47b42e"/><stop offset="1" stop-color="#76ce43"/></linearGradient></defs><g id="Livello_2" data-name="Livello 2"><g id="Livello_1-2" data-name="Livello 1"><path class="cls-1" d="M11.72,9.38A9.38,9.38,0,0,1,21.09,0h37.5A9.38,9.38,0,0,1,68,9.38v3.74a9.38,9.38,0,0,1-9.38,9.38H21.09a9.38,9.38,0,0,1-9.37-9.38Z"/><path class="cls-2" d="M27.87,13.62,27,12.35H26v1.27H24.94V9h2a2.64,2.64,0,0,1,1.06.2,1.59,1.59,0,0,1,.69.58,1.55,1.55,0,0,1,.25.89,1.59,1.59,0,0,1-.25.88,1.53,1.53,0,0,1-.7.57l1,1.47Zm0-2.92a.7.7,0,0,0-.25-.59,1.11,1.11,0,0,0-.73-.21H26v1.6h.86a1.11,1.11,0,0,0,.73-.21A.72.72,0,0,0,27.85,10.7Zm1.85-.61h1v3.53h-1Zm.51-.49a.65.65,0,0,1-.46-.16.56.56,0,0,1,0-.82.69.69,0,0,1,.46-.16.65.65,0,0,1,.46.16.48.48,0,0,1,.18.39.58.58,0,0,1-.18.43A.65.65,0,0,1,30.21,9.6Zm1.46-.84h1v4.86h-1ZM35.07,10a1.78,1.78,0,0,1,1.26.4,1.47,1.47,0,0,1,.44,1.17v2h-1v-.44a1.14,1.14,0,0,1-1.08.5,1.76,1.76,0,0,1-.71-.14,1.12,1.12,0,0,1-.45-.38,1,1,0,0,1-.15-.55.94.94,0,0,1,.36-.78,1.91,1.91,0,0,1,1.15-.28h.81a.63.63,0,0,0-.2-.51.89.89,0,0,0-.61-.18,1.82,1.82,0,0,0-.56.09,1.33,1.33,0,0,0-.46.23l-.36-.71a2.2,2.2,0,0,1,.69-.32A3.26,3.26,0,0,1,35.07,10ZM35,13a.91.91,0,0,0,.47-.12.64.64,0,0,0,.28-.36v-.36H35c-.42,0-.63.14-.63.41a.39.39,0,0,0,.15.32A.78.78,0,0,0,35,13Zm3.89.69a3.56,3.56,0,0,1-.86-.11,2.22,2.22,0,0,1-.67-.27l.35-.74a1.88,1.88,0,0,0,.57.25,2.48,2.48,0,0,0,.65.09c.44,0,.65-.1.65-.32s-.06-.17-.18-.22a2.6,2.6,0,0,0-.54-.11,4.11,4.11,0,0,1-.71-.15,1,1,0,0,1-.5-.3.89.89,0,0,1-.2-.62,1,1,0,0,1,.19-.59,1.25,1.25,0,0,1,.56-.4,2.39,2.39,0,0,1,.88-.15,3.2,3.2,0,0,1,.75.09,1.9,1.9,0,0,1,.61.22l-.34.73a2,2,0,0,0-1-.26,1,1,0,0,0-.49.09.26.26,0,0,0-.16.23.23.23,0,0,0,.17.23,2.71,2.71,0,0,0,.57.13,5.52,5.52,0,0,1,.71.16,1.09,1.09,0,0,1,.48.29.89.89,0,0,1,.2.6,1,1,0,0,1-.2.59,1.28,1.28,0,0,1-.58.4A2.56,2.56,0,0,1,38.88,13.68Zm3.49,0a3.56,3.56,0,0,1-.86-.11,2.22,2.22,0,0,1-.67-.27l.34-.74a2.13,2.13,0,0,0,.57.25,2.56,2.56,0,0,0,.66.09c.43,0,.65-.1.65-.32s-.06-.17-.18-.22a2.93,2.93,0,0,0-.54-.11,4.48,4.48,0,0,1-.72-.15,1,1,0,0,1-.49-.3.85.85,0,0,1-.21-.62,1,1,0,0,1,.2-.59,1.19,1.19,0,0,1,.56-.4,2.35,2.35,0,0,1,.88-.15,3.06,3.06,0,0,1,.74.09,1.87,1.87,0,0,1,.62.22l-.34.73a2,2,0,0,0-1-.26,1,1,0,0,0-.49.09.27.27,0,0,0-.17.23.23.23,0,0,0,.18.23,2.75,2.75,0,0,0,.56.13,5.15,5.15,0,0,1,.71.16,1,1,0,0,1,.48.29.84.84,0,0,1,.21.6,1,1,0,0,1-.2.59,1.28,1.28,0,0,1-.58.4A2.64,2.64,0,0,1,42.37,13.68ZM46.09,10a1.78,1.78,0,0,1,1.26.4,1.47,1.47,0,0,1,.44,1.17v2h-1v-.44a1.13,1.13,0,0,1-1.07.5,1.73,1.73,0,0,1-.71-.14,1,1,0,0,1-.45-.38,1,1,0,0,1-.16-.55.92.92,0,0,1,.37-.78A1.86,1.86,0,0,1,46,11.55h.82a.64.64,0,0,0-.21-.51.87.87,0,0,0-.61-.18,1.76,1.76,0,0,0-.55.09,1.24,1.24,0,0,0-.46.23l-.37-.71a2.2,2.2,0,0,1,.69-.32A3.32,3.32,0,0,1,46.09,10ZM46,13a.91.91,0,0,0,.47-.12.7.7,0,0,0,.29-.36v-.36h-.7c-.42,0-.63.14-.63.41a.39.39,0,0,0,.15.32A.72.72,0,0,0,46,13Zm5,.46a.84.84,0,0,1-.37.17,1.7,1.7,0,0,1-.46.06,1.43,1.43,0,0,1-1-.32,1.28,1.28,0,0,1-.34-.95V11H48.3v-.79h.54V9.31h1v.86h.88V11h-.88V12.4a.49.49,0,0,0,.11.35.49.49,0,0,0,.33.11.63.63,0,0,0,.41-.13Zm2.15.23a2.17,2.17,0,0,1-1-.23,1.73,1.73,0,0,1-.69-.65,1.89,1.89,0,0,1,0-1.88,1.65,1.65,0,0,1,.69-.64,2.2,2.2,0,0,1,2,0,1.77,1.77,0,0,1,.69.64,1.8,1.8,0,0,1-.69,2.53A2.17,2.17,0,0,1,53.14,13.68Zm0-.84a.85.85,0,0,0,.64-.26,1,1,0,0,0,.26-.72,1,1,0,0,0-.26-.71.82.82,0,0,0-.64-.27.86.86,0,0,0-.65.27,1,1,0,0,0-.25.71,1,1,0,0,0,.25.72A.89.89,0,0,0,53.14,12.84Z"/><circle class="cls-1" cx="9.38" cy="11.25" r="9.38"/><circle class="cls-3" cx="9.38" cy="11.25" r="7.5"/><path class="cls-4" d="M9.37,15.51a4.26,4.26,0,1,0-4.25-4.26A4.26,4.26,0,0,0,9.37,15.51Z"/></g></g></svg>