<svg xmlns="http://www.w3.org/2000/svg" xmlns:xlink="http://www.w3.org/1999/xlink" viewBox="0 0 67.97 22.5"><defs><style>.cls-1{fill:#bff7a1;}.cls-2{fill:#272631;}.cls-3{fill:#fff;}.cls-4{fill:url(#Sfumatura_senza_nome_5);}</style><linearGradient id="Sfumatura_senza_nome_5" x1="8.31" y1="-253.57" x2="10.99" y2="-247.22" gradientTransform="matrix(1, 0, 0, -1, 0, -239.8)" gradientUnits="userSpaceOnUse"><stop offset="0" stop-color="#47b42e"/><stop offset="1" stop-color="#76ce43"/></linearGradient></defs><g id="Livello_2" data-name="Livello 2"><g id="Livello_1-2" data-name="Livello 1"><path class="cls-1" d="M11.72,9.38A9.38,9.38,0,0,1,21.1,0H58.6A9.38,9.38,0,0,1,68,9.38v3.74A9.38,9.38,0,0,1,58.6,22.5H21.1a9.38,9.38,0,0,1-9.38-9.38Z"/><path class="cls-2" d="M21.47,13.7a4.11,4.11,0,0,1-1.06-.14,2.35,2.35,0,0,1-.81-.39l.36-.8a2.3,2.3,0,0,0,.7.35,2.54,2.54,0,0,0,.81.13,1.28,1.28,0,0,0,.67-.13.4.4,0,0,0,.22-.36.32.32,0,0,0-.13-.27.86.86,0,0,0-.33-.18l-.54-.14c-.35-.09-.63-.17-.86-.25a1.51,1.51,0,0,1-.57-.4,1.1,1.1,0,0,1-.24-.74,1.25,1.25,0,0,1,.22-.72,1.44,1.44,0,0,1,.65-.52A2.79,2.79,0,0,1,21.62,9a3.58,3.58,0,0,1,.87.11,2.66,2.66,0,0,1,.73.3l-.33.81a2.57,2.57,0,0,0-1.27-.37A1.15,1.15,0,0,0,21,10a.44.44,0,0,0-.21.38.36.36,0,0,0,.24.35,4,4,0,0,0,.75.23,5.77,5.77,0,0,1,.86.25,1.27,1.27,0,0,1,.57.39,1,1,0,0,1,.25.73,1.26,1.26,0,0,1-.23.72,1.36,1.36,0,0,1-.65.51A2.66,2.66,0,0,1,21.47,13.7ZM26.16,10a1.79,1.79,0,0,1,.89.23,1.64,1.64,0,0,1,.64.64,1.94,1.94,0,0,1,.23.95,2,2,0,0,1-.23,1,1.68,1.68,0,0,1-.64.63,1.79,1.79,0,0,1-.89.23,1.4,1.4,0,0,1-1.07-.43V14.9h-1V10.09h1v.41A1.37,1.37,0,0,1,26.16,10ZM26,12.84a.85.85,0,0,0,.64-.26,1,1,0,0,0,.26-.72,1,1,0,0,0-.26-.71.82.82,0,0,0-.64-.27.86.86,0,0,0-.65.27,1,1,0,0,0-.25.71,1,1,0,0,0,.25.72A.89.89,0,0,0,26,12.84Zm6.08-1s0,.11,0,.28H29.37a.84.84,0,0,0,.34.52,1.18,1.18,0,0,0,.67.19,1.48,1.48,0,0,0,.49-.08,1.61,1.61,0,0,0,.4-.26l.54.59a1.83,1.83,0,0,1-1.46.57,2.35,2.35,0,0,1-1.05-.23,1.79,1.79,0,0,1-.71-.65,1.76,1.76,0,0,1-.25-.94,1.79,1.79,0,0,1,.24-.93,1.7,1.7,0,0,1,.68-.65,2,2,0,0,1,1-.24,2.07,2.07,0,0,1,.94.22,1.65,1.65,0,0,1,.66.65A1.87,1.87,0,0,1,32.06,11.87Zm-1.83-1a.86.86,0,0,0-.58.19.8.8,0,0,0-.29.54H31.1a.9.9,0,0,0-.29-.53A.84.84,0,0,0,30.23,10.82ZM34.89,10a1.43,1.43,0,0,1,1,.39,1.55,1.55,0,0,1,.41,1.17v2h-1V11.76a.85.85,0,0,0-.19-.62.66.66,0,0,0-.53-.21.79.79,0,0,0-.61.24,1,1,0,0,0-.24.71v1.74h-1V10.09h1v.42a1.21,1.21,0,0,1,.51-.34A1.59,1.59,0,0,1,34.89,10Zm3.58,3.64a3.49,3.49,0,0,1-.86-.11,2.12,2.12,0,0,1-.67-.27l.34-.74a2.33,2.33,0,0,0,1.23.34c.43,0,.65-.1.65-.32s-.06-.17-.18-.22a2.89,2.89,0,0,0-.55-.11,4.57,4.57,0,0,1-.71-.15,1.09,1.09,0,0,1-.49-.3.85.85,0,0,1-.21-.62,1,1,0,0,1,.19-.59,1.28,1.28,0,0,1,.57-.4,2.35,2.35,0,0,1,.88-.15,3.12,3.12,0,0,1,.74.09,2,2,0,0,1,.62.22l-.35.73a2,2,0,0,0-1-.26,1,1,0,0,0-.49.09.27.27,0,0,0-.17.23.23.23,0,0,0,.18.23,2.59,2.59,0,0,0,.56.13,5.15,5.15,0,0,1,.71.16,1,1,0,0,1,.48.29.84.84,0,0,1,.2.6,1,1,0,0,1-.19.59,1.33,1.33,0,0,1-.58.4A2.64,2.64,0,0,1,38.47,13.68Zm2.29-3.59h1v3.53h-1Zm.52-.49a.65.65,0,0,1-.46-.16.56.56,0,0,1,0-.82.74.74,0,0,1,.92,0,.48.48,0,0,1,.17.39.57.57,0,0,1-.17.43A.65.65,0,0,1,41.28,9.6Zm4.92,2.27s0,.11,0,.28H43.51a.84.84,0,0,0,.34.52,1.18,1.18,0,0,0,.67.19,1.42,1.42,0,0,0,.48-.08,1.31,1.31,0,0,0,.4-.26l.55.59a1.83,1.83,0,0,1-1.46.57,2.39,2.39,0,0,1-1.06-.23,1.74,1.74,0,0,1-1-1.59,1.79,1.79,0,0,1,.24-.93,1.7,1.7,0,0,1,.68-.65,1.93,1.93,0,0,1,1-.24,2.07,2.07,0,0,1,.94.22,1.65,1.65,0,0,1,.66.65A1.87,1.87,0,0,1,46.2,11.87Zm-1.83-1a.91.91,0,0,0-.59.19.85.85,0,0,0-.29.54h1.74a.8.8,0,0,0-.29-.53A.81.81,0,0,0,44.37,10.82Zm3.49-.26a1.12,1.12,0,0,1,.49-.39,1.81,1.81,0,0,1,.72-.13v1l-.23,0a1,1,0,0,0-.69.25,1,1,0,0,0-.25.74v1.66h-1V10.09h1ZM51.09,10a1.86,1.86,0,0,1,1.26.39,1.5,1.5,0,0,1,.43,1.18v2h-1v-.44a1.15,1.15,0,0,1-1.08.5,1.73,1.73,0,0,1-.71-.14,1,1,0,0,1-.45-.38,1,1,0,0,1-.16-.55.92.92,0,0,1,.37-.78A1.89,1.89,0,0,1,51,11.55h.81a.66.66,0,0,0-.2-.51.91.91,0,0,0-.61-.19,1.78,1.78,0,0,0-.56.1,1.33,1.33,0,0,0-.46.23l-.37-.71a2.31,2.31,0,0,1,.69-.32A3.34,3.34,0,0,1,51.09,10ZM51,13a.88.88,0,0,0,.46-.12.65.65,0,0,0,.29-.36v-.36h-.7c-.42,0-.63.14-.63.41a.39.39,0,0,0,.15.32A.76.76,0,0,0,51,13Zm5,.46a1,1,0,0,1-.38.17,1.65,1.65,0,0,1-.46.06,1.4,1.4,0,0,1-1-.32,1.24,1.24,0,0,1-.34-.95V11h-.55v-.79h.55V9.31h1v.86h.88V11h-.88V12.4a.5.5,0,0,0,.11.34.45.45,0,0,0,.33.12.63.63,0,0,0,.41-.13Zm2.14.23a2.2,2.2,0,0,1-1-.23,1.88,1.88,0,0,1-.69-.65,1.89,1.89,0,0,1,0-1.88,1.7,1.7,0,0,1,.69-.64,2.08,2.08,0,0,1,1-.24,2,2,0,0,1,1,.24,1.7,1.7,0,0,1,.69.64,1.89,1.89,0,0,1,0,1.88,1.88,1.88,0,0,1-.69.65A2.14,2.14,0,0,1,58.13,13.68Zm0-.84a.87.87,0,0,0,.65-.26,1,1,0,0,0,.25-.72,1,1,0,0,0-.25-.71.85.85,0,0,0-.65-.27.86.86,0,0,0-.65.27,1,1,0,0,0-.25.71,1,1,0,0,0,.25.72A.89.89,0,0,0,58.13,12.84Z"/><circle class="cls-1" cx="9.38" cy="11.25" r="9.38"/><circle class="cls-3" cx="9.38" cy="11.25" r="7.5"/><path class="cls-4" d="M9.37,15.51a4.26,4.26,0,1,0-4.25-4.26A4.26,4.26,0,0,0,9.37,15.51Z"/></g></g></svg>