<svg xmlns="http://www.w3.org/2000/svg" xmlns:xlink="http://www.w3.org/1999/xlink" viewBox="0 0 67.97 22.5"><defs><style>.cls-1{fill:#bff7a1;}.cls-2{fill:#272631;}.cls-3{fill:#fff;}.cls-4{fill:url(#Sfumatura_senza_nome_7);}</style><linearGradient id="Sfumatura_senza_nome_7" x1="8.31" y1="-487.94" x2="10.99" y2="-481.59" gradientTransform="matrix(1, 0, 0, -1, 0, -474.17)" gradientUnits="userSpaceOnUse"><stop offset="0" stop-color="#47b42e"/><stop offset="1" stop-color="#76ce43"/></linearGradient></defs><g id="Livello_2" data-name="Livello 2"><g id="Livello_1-2" data-name="Livello 1"><path class="cls-1" d="M11.72,9.38A9.38,9.38,0,0,1,21.1,0H58.6A9.38,9.38,0,0,1,68,9.38v3.74A9.38,9.38,0,0,1,58.6,22.5H21.1a9.38,9.38,0,0,1-9.38-9.38Z"/><path class="cls-2" d="M31.57,13.71a2.68,2.68,0,0,1-1.27-.31,2.35,2.35,0,0,1-.9-.84,2.45,2.45,0,0,1-.32-1.23,2.36,2.36,0,0,1,.32-1.22,2.3,2.3,0,0,1,.9-.85A2.69,2.69,0,0,1,31.58,9a2.62,2.62,0,0,1,1.07.21,2.18,2.18,0,0,1,.82.61l-.69.63a1.45,1.45,0,0,0-1.15-.54,1.48,1.48,0,0,0-.76.19,1.39,1.39,0,0,0-.53.52,1.55,1.55,0,0,0-.18.76,1.58,1.58,0,0,0,.18.76,1.5,1.5,0,0,0,.53.53,1.58,1.58,0,0,0,.76.18,1.45,1.45,0,0,0,1.15-.54l.69.63a2.16,2.16,0,0,1-.82.6A2.51,2.51,0,0,1,31.57,13.71ZM35.51,10a1.78,1.78,0,0,1,1.26.4,1.49,1.49,0,0,1,.44,1.17v2h-1v-.44a1.13,1.13,0,0,1-1.07.49,1.73,1.73,0,0,1-.71-.14,1.09,1.09,0,0,1-.46-.38,1,1,0,0,1-.15-.55.89.89,0,0,1,.37-.77,1.85,1.85,0,0,1,1.14-.29h.82A.64.64,0,0,0,36,11a.89.89,0,0,0-.61-.18,1.76,1.76,0,0,0-.55.09,1.42,1.42,0,0,0-.46.23L34,10.47a2,2,0,0,1,.69-.31A2.92,2.92,0,0,1,35.51,10Zm-.08,3a.91.91,0,0,0,.47-.12.7.7,0,0,0,.29-.36v-.36h-.7c-.42,0-.63.14-.63.41a.39.39,0,0,0,.15.32A.72.72,0,0,0,35.43,13Zm2.71-4.23h1v4.87h-1ZM44.63,10a1.39,1.39,0,0,1,1,.4,1.53,1.53,0,0,1,.4,1.16v2h-1V11.76a1,1,0,0,0-.17-.62.61.61,0,0,0-.5-.21.75.75,0,0,0-.57.23,1,1,0,0,0-.21.69v1.78h-1V11.76c0-.55-.22-.83-.67-.83a.72.72,0,0,0-.56.23,1,1,0,0,0-.21.69v1.78h-1V10.1h1v.4a1.27,1.27,0,0,1,.48-.34A1.61,1.61,0,0,1,42.2,10a1.47,1.47,0,0,1,.67.15,1.14,1.14,0,0,1,.49.43,1.43,1.43,0,0,1,.54-.43A1.8,1.8,0,0,1,44.63,10Zm4.08,3.64a2.2,2.2,0,0,1-1-.23A1.73,1.73,0,0,1,47,12.8a1.89,1.89,0,0,1,0-1.88,1.71,1.71,0,0,1,.69-.64,2.08,2.08,0,0,1,1-.24,2.05,2.05,0,0,1,1,.24,1.83,1.83,0,0,1,.69,2.52,1.8,1.8,0,0,1-.69.65A2.17,2.17,0,0,1,48.71,13.68Zm0-.84a.87.87,0,0,0,.65-.26,1,1,0,0,0,.25-.72,1,1,0,0,0-.25-.71.85.85,0,0,0-.65-.27.86.86,0,0,0-.65.27,1,1,0,0,0-.25.71,1,1,0,0,0,.25.72A.89.89,0,0,0,48.71,12.84Z"/><circle class="cls-1" cx="9.38" cy="11.25" r="9.38"/><circle class="cls-3" cx="9.38" cy="11.25" r="7.5"/><path class="cls-4" d="M9.37,15.51a4.26,4.26,0,1,0-4.25-4.26A4.26,4.26,0,0,0,9.37,15.51Z"/></g></g></svg>