<svg width="328" height="424" viewBox="0 0 328 424" fill="none" xmlns="http://www.w3.org/2000/svg">
<rect width="328" height="424" rx="16" fill="white"/>
<path d="M83.4227 35.26C83.0027 35.752 82.5107 36.124 81.9467 36.376C81.3947 36.628 80.7887 36.754 80.1287 36.754C79.2647 36.754 78.4727 36.556 77.7527 36.16C77.0327 35.776 76.2107 35.104 75.2867 34.144C74.1227 34.048 73.0787 33.712 72.1547 33.136C71.2307 32.548 70.5107 31.786 69.9947 30.85C69.4787 29.902 69.2207 28.852 69.2207 27.7C69.2207 26.476 69.5147 25.372 70.1027 24.388C70.6907 23.392 71.5007 22.618 72.5327 22.066C73.5647 21.502 74.7227 21.22 76.0067 21.22C77.2907 21.22 78.4487 21.502 79.4807 22.066C80.5127 22.618 81.3227 23.386 81.9107 24.37C82.4987 25.354 82.7927 26.464 82.7927 27.7C82.7927 28.696 82.5947 29.62 82.1987 30.472C81.8027 31.312 81.2507 32.032 80.5427 32.632C79.8347 33.22 79.0127 33.646 78.0767 33.91C78.4247 34.282 78.7667 34.552 79.1027 34.72C79.4387 34.888 79.7987 34.972 80.1827 34.972C81.0107 34.972 81.7307 34.636 82.3427 33.964L83.4227 35.26ZM71.5787 27.7C71.5787 28.54 71.7707 29.302 72.1547 29.986C72.5387 30.658 73.0667 31.186 73.7387 31.57C74.4107 31.942 75.1667 32.128 76.0067 32.128C76.8467 32.128 77.6027 31.942 78.2747 31.57C78.9467 31.186 79.4747 30.658 79.8587 29.986C80.2427 29.302 80.4347 28.54 80.4347 27.7C80.4347 26.86 80.2427 26.104 79.8587 25.432C79.4747 24.748 78.9467 24.22 78.2747 23.848C77.6027 23.464 76.8467 23.272 76.0067 23.272C75.1667 23.272 74.4107 23.464 73.7387 23.848C73.0667 24.22 72.5387 24.748 72.1547 25.432C71.7707 26.104 71.5787 26.86 71.5787 27.7ZM94.3631 24.388V34H92.2211V32.776C91.8611 33.208 91.4111 33.544 90.8711 33.784C90.3311 34.012 89.7491 34.126 89.1251 34.126C87.8411 34.126 86.8271 33.772 86.0831 33.064C85.3511 32.344 84.9851 31.282 84.9851 29.878V24.388H87.2351V29.572C87.2351 30.436 87.4271 31.084 87.8111 31.516C88.2071 31.936 88.7651 32.146 89.4851 32.146C90.2891 32.146 90.9251 31.9 91.3931 31.408C91.8731 30.904 92.1131 30.184 92.1131 29.248V24.388H94.3631ZM100.981 24.28C102.397 24.28 103.477 24.622 104.221 25.306C104.977 25.978 105.355 26.998 105.355 28.366V34H103.231V32.83C102.955 33.25 102.559 33.574 102.043 33.802C101.539 34.018 100.927 34.126 100.207 34.126C99.487 34.126 98.857 34.006 98.317 33.766C97.777 33.514 97.357 33.172 97.057 32.74C96.769 32.296 96.625 31.798 96.625 31.246C96.625 30.382 96.943 29.692 97.579 29.176C98.227 28.648 99.241 28.384 100.621 28.384H103.105V28.24C103.105 27.568 102.901 27.052 102.493 26.692C102.097 26.332 101.503 26.152 100.711 26.152C100.171 26.152 99.637 26.236 99.109 26.404C98.593 26.572 98.155 26.806 97.795 27.106L96.913 25.468C97.417 25.084 98.023 24.79 98.731 24.586C99.439 24.382 100.189 24.28 100.981 24.28ZM100.675 32.488C101.239 32.488 101.737 32.362 102.169 32.11C102.613 31.846 102.925 31.474 103.105 30.994V29.878H100.783C99.487 29.878 98.839 30.304 98.839 31.156C98.839 31.564 99.001 31.888 99.325 32.128C99.649 32.368 100.099 32.488 100.675 32.488ZM113.697 24.28C114.909 24.28 115.881 24.634 116.613 25.342C117.345 26.05 117.711 27.1 117.711 28.492V34H115.461V28.78C115.461 27.94 115.263 27.31 114.867 26.89C114.471 26.458 113.907 26.242 113.175 26.242C112.347 26.242 111.693 26.494 111.213 26.998C110.733 27.49 110.493 28.204 110.493 29.14V34H108.243V24.388H110.385V25.63C110.757 25.186 111.225 24.85 111.789 24.622C112.353 24.394 112.989 24.28 113.697 24.28ZM126.343 33.478C126.079 33.694 125.755 33.856 125.371 33.964C124.999 34.072 124.603 34.126 124.183 34.126C123.127 34.126 122.311 33.85 121.735 33.298C121.159 32.746 120.871 31.942 120.871 30.886V26.26H119.287V24.46H120.871V22.264H123.121V24.46H125.695V26.26H123.121V30.832C123.121 31.3 123.235 31.66 123.463 31.912C123.691 32.152 124.021 32.272 124.453 32.272C124.957 32.272 125.377 32.14 125.713 31.876L126.343 33.478ZM132.197 34.126C131.225 34.126 130.349 33.916 129.569 33.496C128.789 33.076 128.177 32.494 127.733 31.75C127.301 30.994 127.085 30.142 127.085 29.194C127.085 28.246 127.301 27.4 127.733 26.656C128.177 25.912 128.789 25.33 129.569 24.91C130.349 24.49 131.225 24.28 132.197 24.28C133.181 24.28 134.063 24.49 134.843 24.91C135.623 25.33 136.229 25.912 136.661 26.656C137.105 27.4 137.327 28.246 137.327 29.194C137.327 30.142 137.105 30.994 136.661 31.75C136.229 32.494 135.623 33.076 134.843 33.496C134.063 33.916 133.181 34.126 132.197 34.126ZM132.197 32.2C133.025 32.2 133.709 31.924 134.249 31.372C134.789 30.82 135.059 30.094 135.059 29.194C135.059 28.294 134.789 27.568 134.249 27.016C133.709 26.464 133.025 26.188 132.197 26.188C131.369 26.188 130.685 26.464 130.145 27.016C129.617 27.568 129.353 28.294 129.353 29.194C129.353 30.094 129.617 30.82 130.145 31.372C130.685 31.924 131.369 32.2 132.197 32.2ZM150.232 33.478C149.968 33.694 149.644 33.856 149.26 33.964C148.888 34.072 148.492 34.126 148.072 34.126C147.016 34.126 146.2 33.85 145.624 33.298C145.048 32.746 144.76 31.942 144.76 30.886V26.26H143.176V24.46H144.76V22.264H147.01V24.46H149.584V26.26H147.01V30.832C147.01 31.3 147.124 31.66 147.352 31.912C147.58 32.152 147.91 32.272 148.342 32.272C148.846 32.272 149.266 32.14 149.602 31.876L150.232 33.478ZM152.082 24.388H154.332V34H152.082V24.388ZM153.216 22.804C152.808 22.804 152.466 22.678 152.19 22.426C151.914 22.162 151.776 21.838 151.776 21.454C151.776 21.07 151.914 20.752 152.19 20.5C152.466 20.236 152.808 20.104 153.216 20.104C153.624 20.104 153.966 20.23 154.242 20.482C154.518 20.722 154.656 21.028 154.656 21.4C154.656 21.796 154.518 22.132 154.242 22.408C153.978 22.672 153.636 22.804 153.216 22.804ZM165.23 34.126C164.45 34.126 163.688 34.024 162.944 33.82C162.2 33.616 161.606 33.358 161.162 33.046L162.026 31.336C162.458 31.624 162.974 31.858 163.574 32.038C164.186 32.206 164.786 32.29 165.374 32.29C166.718 32.29 167.39 31.936 167.39 31.228C167.39 30.892 167.216 30.658 166.868 30.526C166.532 30.394 165.986 30.268 165.23 30.148C164.438 30.028 163.79 29.89 163.286 29.734C162.794 29.578 162.362 29.308 161.99 28.924C161.63 28.528 161.45 27.982 161.45 27.286C161.45 26.374 161.828 25.648 162.584 25.108C163.352 24.556 164.384 24.28 165.68 24.28C166.34 24.28 167 24.358 167.66 24.514C168.32 24.658 168.86 24.856 169.28 25.108L168.416 26.818C167.6 26.338 166.682 26.098 165.662 26.098C165.002 26.098 164.498 26.2 164.15 26.404C163.814 26.596 163.646 26.854 163.646 27.178C163.646 27.538 163.826 27.796 164.186 27.952C164.558 28.096 165.128 28.234 165.896 28.366C166.664 28.486 167.294 28.624 167.786 28.78C168.278 28.936 168.698 29.2 169.046 29.572C169.406 29.944 169.586 30.472 169.586 31.156C169.586 32.056 169.196 32.776 168.416 33.316C167.636 33.856 166.574 34.126 165.23 34.126ZM180.56 29.248C180.56 29.404 180.548 29.626 180.524 29.914H172.982C173.114 30.622 173.456 31.186 174.008 31.606C174.572 32.014 175.268 32.218 176.096 32.218C177.152 32.218 178.022 31.87 178.706 31.174L179.912 32.56C179.48 33.076 178.934 33.466 178.274 33.73C177.614 33.994 176.87 34.126 176.042 34.126C174.986 34.126 174.056 33.916 173.252 33.496C172.448 33.076 171.824 32.494 171.38 31.75C170.948 30.994 170.732 30.142 170.732 29.194C170.732 28.258 170.942 27.418 171.362 26.674C171.794 25.918 172.388 25.33 173.144 24.91C173.9 24.49 174.752 24.28 175.7 24.28C176.636 24.28 177.47 24.49 178.202 24.91C178.946 25.318 179.522 25.9 179.93 26.656C180.35 27.4 180.56 28.264 180.56 29.248ZM175.7 26.08C174.98 26.08 174.368 26.296 173.864 26.728C173.372 27.148 173.072 27.712 172.964 28.42H178.418C178.322 27.724 178.028 27.16 177.536 26.728C177.044 26.296 176.432 26.08 175.7 26.08ZM188.175 24.28C189.387 24.28 190.359 24.634 191.091 25.342C191.823 26.05 192.189 27.1 192.189 28.492V34H189.939V28.78C189.939 27.94 189.741 27.31 189.345 26.89C188.949 26.458 188.385 26.242 187.653 26.242C186.825 26.242 186.171 26.494 185.691 26.998C185.211 27.49 184.971 28.204 184.971 29.14V34H182.721V24.388H184.863V25.63C185.235 25.186 185.703 24.85 186.267 24.622C186.831 24.394 187.467 24.28 188.175 24.28ZM200.821 33.478C200.557 33.694 200.233 33.856 199.849 33.964C199.477 34.072 199.081 34.126 198.661 34.126C197.605 34.126 196.789 33.85 196.213 33.298C195.637 32.746 195.349 31.942 195.349 30.886V26.26H193.765V24.46H195.349V22.264H197.599V24.46H200.173V26.26H197.599V30.832C197.599 31.3 197.713 31.66 197.941 31.912C198.169 32.152 198.499 32.272 198.931 32.272C199.435 32.272 199.855 32.14 200.191 31.876L200.821 33.478ZM202.672 24.388H204.922V34H202.672V24.388ZM203.806 22.804C203.398 22.804 203.056 22.678 202.78 22.426C202.504 22.162 202.366 21.838 202.366 21.454C202.366 21.07 202.504 20.752 202.78 20.5C203.056 20.236 203.398 20.104 203.806 20.104C204.214 20.104 204.556 20.23 204.832 20.482C205.108 20.722 205.246 21.028 205.246 21.4C205.246 21.796 205.108 22.132 204.832 22.408C204.568 22.672 204.226 22.804 203.806 22.804ZM217.26 34.126C216.264 34.126 215.37 33.916 214.578 33.496C213.786 33.076 213.168 32.494 212.724 31.75C212.28 30.994 212.058 30.142 212.058 29.194C212.058 28.246 212.28 27.4 212.724 26.656C213.168 25.912 213.78 25.33 214.56 24.91C215.352 24.49 216.252 24.28 217.26 24.28C218.208 24.28 219.036 24.472 219.744 24.856C220.464 25.24 221.004 25.792 221.364 26.512L219.636 27.52C219.36 27.076 219.012 26.746 218.592 26.53C218.184 26.302 217.734 26.188 217.242 26.188C216.402 26.188 215.706 26.464 215.154 27.016C214.602 27.556 214.326 28.282 214.326 29.194C214.326 30.106 214.596 30.838 215.136 31.39C215.688 31.93 216.39 32.2 217.242 32.2C217.734 32.2 218.184 32.092 218.592 31.876C219.012 31.648 219.36 31.312 219.636 30.868L221.364 31.876C220.992 32.596 220.446 33.154 219.726 33.55C219.018 33.934 218.196 34.126 217.26 34.126ZM227.488 34.126C226.516 34.126 225.64 33.916 224.86 33.496C224.08 33.076 223.468 32.494 223.024 31.75C222.592 30.994 222.376 30.142 222.376 29.194C222.376 28.246 222.592 27.4 223.024 26.656C223.468 25.912 224.08 25.33 224.86 24.91C225.64 24.49 226.516 24.28 227.488 24.28C228.472 24.28 229.354 24.49 230.134 24.91C230.914 25.33 231.52 25.912 231.952 26.656C232.396 27.4 232.618 28.246 232.618 29.194C232.618 30.142 232.396 30.994 231.952 31.75C231.52 32.494 230.914 33.076 230.134 33.496C229.354 33.916 228.472 34.126 227.488 34.126ZM227.488 32.2C228.316 32.2 229 31.924 229.54 31.372C230.08 30.82 230.35 30.094 230.35 29.194C230.35 28.294 230.08 27.568 229.54 27.016C229 26.464 228.316 26.188 227.488 26.188C226.66 26.188 225.976 26.464 225.436 27.016C224.908 27.568 224.644 28.294 224.644 29.194C224.644 30.094 224.908 30.82 225.436 31.372C225.976 31.924 226.66 32.2 227.488 32.2ZM237.74 34.126C236.96 34.126 236.198 34.024 235.454 33.82C234.71 33.616 234.116 33.358 233.672 33.046L234.536 31.336C234.968 31.624 235.484 31.858 236.084 32.038C236.696 32.206 237.296 32.29 237.884 32.29C239.228 32.29 239.9 31.936 239.9 31.228C239.9 30.892 239.726 30.658 239.378 30.526C239.042 30.394 238.496 30.268 237.74 30.148C236.948 30.028 236.3 29.89 235.796 29.734C235.304 29.578 234.872 29.308 234.5 28.924C234.14 28.528 233.96 27.982 233.96 27.286C233.96 26.374 234.338 25.648 235.094 25.108C235.862 24.556 236.894 24.28 238.19 24.28C238.85 24.28 239.51 24.358 240.17 24.514C240.83 24.658 241.37 24.856 241.79 25.108L240.926 26.818C240.11 26.338 239.192 26.098 238.172 26.098C237.512 26.098 237.008 26.2 236.66 26.404C236.324 26.596 236.156 26.854 236.156 27.178C236.156 27.538 236.336 27.796 236.696 27.952C237.068 28.096 237.638 28.234 238.406 28.366C239.174 28.486 239.804 28.624 240.296 28.78C240.788 28.936 241.208 29.2 241.556 29.572C241.916 29.944 242.096 30.472 242.096 31.156C242.096 32.056 241.706 32.776 240.926 33.316C240.146 33.856 239.084 34.126 237.74 34.126ZM244.034 24.388H246.284V34H244.034V24.388ZM241.604 20.608H244.25L246.68 23.074H244.736L241.604 20.608ZM252.108 29.824C252.108 29.176 252.252 28.642 252.54 28.222C252.84 27.79 253.272 27.322 253.836 26.818C254.268 26.434 254.586 26.104 254.79 25.828C255.006 25.54 255.114 25.216 255.114 24.856C255.114 24.352 254.91 23.944 254.502 23.632C254.094 23.32 253.548 23.164 252.864 23.164C251.568 23.164 250.59 23.626 249.93 24.55L248.184 23.416C248.7 22.708 249.366 22.168 250.182 21.796C250.998 21.412 251.958 21.22 253.062 21.22C254.406 21.22 255.474 21.514 256.266 22.102C257.07 22.678 257.472 23.476 257.472 24.496C257.472 24.988 257.388 25.42 257.22 25.792C257.064 26.164 256.872 26.482 256.644 26.746C256.416 26.998 256.116 27.292 255.744 27.628C255.288 28.036 254.946 28.396 254.718 28.708C254.502 29.02 254.394 29.392 254.394 29.824H252.108ZM253.26 34.126C252.84 34.126 252.492 33.994 252.216 33.73C251.952 33.454 251.82 33.118 251.82 32.722C251.82 32.326 251.952 31.996 252.216 31.732C252.492 31.468 252.84 31.336 253.26 31.336C253.668 31.336 254.004 31.468 254.268 31.732C254.544 31.996 254.682 32.326 254.682 32.722C254.682 33.118 254.544 33.454 254.268 33.73C254.004 33.994 253.668 34.126 253.26 34.126Z" fill="#272631"/>
<path d="M38.7652 53.096H35.3212V52.2H43.2452V53.096H39.8012V62H38.7652V53.096ZM44.5989 54.636H45.5929V62H44.5989V54.636ZM45.1029 53.026C44.8976 53.026 44.7249 52.956 44.5849 52.816C44.4449 52.676 44.3749 52.508 44.3749 52.312C44.3749 52.1253 44.4449 51.962 44.5849 51.822C44.7249 51.682 44.8976 51.612 45.1029 51.612C45.3082 51.612 45.4809 51.682 45.6209 51.822C45.7609 51.9527 45.8309 52.1113 45.8309 52.298C45.8309 52.5033 45.7609 52.676 45.6209 52.816C45.4809 52.956 45.3082 53.026 45.1029 53.026ZM54.8707 58.626H48.7107C48.7667 59.3913 49.0607 60.012 49.5927 60.488C50.1247 60.9547 50.7967 61.188 51.6086 61.188C52.066 61.188 52.486 61.1087 52.8687 60.95C53.2513 60.782 53.5827 60.5393 53.8627 60.222L54.4227 60.866C54.096 61.258 53.6853 61.5567 53.1907 61.762C52.7053 61.9673 52.1687 62.07 51.5807 62.07C50.8247 62.07 50.1527 61.9113 49.5646 61.594C48.986 61.2673 48.5333 60.8193 48.2066 60.25C47.88 59.6807 47.7167 59.0367 47.7167 58.318C47.7167 57.5993 47.8707 56.9553 48.1787 56.386C48.496 55.8167 48.9253 55.3733 49.4667 55.056C50.0173 54.7387 50.6333 54.58 51.3146 54.58C51.996 54.58 52.6073 54.7387 53.1487 55.056C53.69 55.3733 54.1147 55.8167 54.4227 56.386C54.7307 56.946 54.8847 57.59 54.8847 58.318L54.8707 58.626ZM51.3146 55.434C50.6053 55.434 50.008 55.6627 49.5227 56.12C49.0467 56.568 48.776 57.156 48.7107 57.884H53.9327C53.8673 57.156 53.592 56.568 53.1067 56.12C52.6307 55.6627 52.0333 55.434 51.3146 55.434ZM60.7599 54.58C61.6839 54.58 62.4165 54.8507 62.9579 55.392C63.5085 55.924 63.7839 56.7033 63.7839 57.73V62H62.7899V57.828C62.7899 57.0627 62.5985 56.4793 62.2159 56.078C61.8332 55.6767 61.2872 55.476 60.5779 55.476C59.7845 55.476 59.1545 55.714 58.6879 56.19C58.2305 56.6567 58.0019 57.3053 58.0019 58.136V62H57.0079V54.636H57.9599V55.994C58.2305 55.546 58.6039 55.2007 59.0799 54.958C59.5652 54.706 60.1252 54.58 60.7599 54.58ZM66.5825 54.636H67.5765V62H66.5825V54.636ZM67.0865 53.026C66.8811 53.026 66.7085 52.956 66.5685 52.816C66.4285 52.676 66.3585 52.508 66.3585 52.312C66.3585 52.1253 66.4285 51.962 66.5685 51.822C66.7085 51.682 66.8811 51.612 67.0865 51.612C67.2918 51.612 67.4645 51.682 67.6045 51.822C67.7445 51.9527 67.8145 52.1113 67.8145 52.298C67.8145 52.5033 67.7445 52.676 67.6045 52.816C67.4645 52.956 67.2918 53.026 67.0865 53.026ZM78.0003 54.58C78.691 54.58 79.3163 54.7387 79.8763 55.056C80.4363 55.364 80.875 55.8027 81.1923 56.372C81.5096 56.9413 81.6683 57.59 81.6683 58.318C81.6683 59.0553 81.5096 59.7087 81.1923 60.278C80.875 60.8473 80.4363 61.2907 79.8763 61.608C79.3256 61.916 78.7003 62.07 78.0003 62.07C77.403 62.07 76.8616 61.9487 76.3763 61.706C75.9003 61.454 75.5083 61.09 75.2003 60.614V64.716H74.2063V54.636H75.1583V56.092C75.457 55.6067 75.849 55.2333 76.3343 54.972C76.829 54.7107 77.3843 54.58 78.0003 54.58ZM77.9303 61.188C78.4436 61.188 78.9103 61.0713 79.3303 60.838C79.7503 60.5953 80.077 60.2547 80.3103 59.816C80.553 59.3773 80.6743 58.878 80.6743 58.318C80.6743 57.758 80.553 57.2633 80.3103 56.834C80.077 56.3953 79.7503 56.0547 79.3303 55.812C78.9103 55.5693 78.4436 55.448 77.9303 55.448C77.4076 55.448 76.9363 55.5693 76.5163 55.812C76.1056 56.0547 75.779 56.3953 75.5363 56.834C75.303 57.2633 75.1863 57.758 75.1863 58.318C75.1863 58.878 75.303 59.3773 75.5363 59.816C75.779 60.2547 76.1056 60.5953 76.5163 60.838C76.9363 61.0713 77.4076 61.188 77.9303 61.188ZM84.7466 56.078C84.9799 55.5833 85.3253 55.21 85.7826 54.958C86.2493 54.706 86.8233 54.58 87.5046 54.58V55.546L87.2666 55.532C86.4919 55.532 85.8853 55.77 85.4466 56.246C85.0079 56.722 84.7886 57.3893 84.7886 58.248V62H83.7946V54.636H84.7466V56.078ZM95.748 58.626H89.588C89.644 59.3913 89.938 60.012 90.47 60.488C91.002 60.9547 91.674 61.188 92.486 61.188C92.9433 61.188 93.3633 61.1087 93.746 60.95C94.1287 60.782 94.46 60.5393 94.74 60.222L95.3 60.866C94.9733 61.258 94.5627 61.5567 94.068 61.762C93.5827 61.9673 93.046 62.07 92.458 62.07C91.702 62.07 91.03 61.9113 90.442 61.594C89.8633 61.2673 89.4107 60.8193 89.084 60.25C88.7573 59.6807 88.594 59.0367 88.594 58.318C88.594 57.5993 88.748 56.9553 89.056 56.386C89.3733 55.8167 89.8027 55.3733 90.344 55.056C90.8947 54.7387 91.5107 54.58 92.192 54.58C92.8733 54.58 93.4847 54.7387 94.026 55.056C94.5673 55.3733 94.992 55.8167 95.3 56.386C95.608 56.946 95.762 57.59 95.762 58.318L95.748 58.626ZM92.192 55.434C91.4827 55.434 90.8853 55.6627 90.4 56.12C89.924 56.568 89.6533 57.156 89.588 57.884H94.81C94.7447 57.156 94.4693 56.568 93.984 56.12C93.508 55.6627 92.9107 55.434 92.192 55.434ZM107.069 54.58C107.993 54.58 108.717 54.846 109.239 55.378C109.771 55.91 110.037 56.694 110.037 57.73V62H109.043V57.828C109.043 57.0627 108.857 56.4793 108.483 56.078C108.119 55.6767 107.601 55.476 106.929 55.476C106.164 55.476 105.562 55.714 105.123 56.19C104.685 56.6567 104.465 57.3053 104.465 58.136V62H103.471V57.828C103.471 57.0627 103.285 56.4793 102.911 56.078C102.547 55.6767 102.025 55.476 101.343 55.476C100.587 55.476 99.9852 55.714 99.5372 56.19C99.0985 56.6567 98.8792 57.3053 98.8792 58.136V62H97.8852V54.636H98.8372V55.98C99.0985 55.532 99.4625 55.1867 99.9292 54.944C100.396 54.7013 100.933 54.58 101.539 54.58C102.155 54.58 102.687 54.7107 103.135 54.972C103.593 55.2333 103.933 55.6207 104.157 56.134C104.428 55.6487 104.815 55.2707 105.319 55C105.833 54.72 106.416 54.58 107.069 54.58ZM119.469 54.636V62H118.517V60.656C118.256 61.104 117.896 61.454 117.439 61.706C116.982 61.9487 116.459 62.07 115.871 62.07C114.91 62.07 114.149 61.804 113.589 61.272C113.038 60.7307 112.763 59.942 112.763 58.906V54.636H113.757V58.808C113.757 59.5827 113.948 60.1707 114.331 60.572C114.714 60.9733 115.26 61.174 115.969 61.174C116.744 61.174 117.355 60.9407 117.803 60.474C118.251 59.998 118.475 59.34 118.475 58.5V54.636H119.469ZM126.231 61.552C126.044 61.72 125.811 61.8507 125.531 61.944C125.26 62.028 124.975 62.07 124.677 62.07C123.986 62.07 123.454 61.8833 123.081 61.51C122.707 61.1367 122.521 60.6093 122.521 59.928V55.476H121.205V54.636H122.521V53.026H123.515V54.636H125.755V55.476H123.515V59.872C123.515 60.3107 123.622 60.6467 123.837 60.88C124.061 61.104 124.378 61.216 124.789 61.216C124.994 61.216 125.19 61.1833 125.377 61.118C125.573 61.0527 125.741 60.9593 125.881 60.838L126.231 61.552ZM130.891 62.07C130.181 62.07 129.542 61.9113 128.973 61.594C128.403 61.2673 127.955 60.8193 127.629 60.25C127.302 59.6807 127.139 59.0367 127.139 58.318C127.139 57.5993 127.302 56.9553 127.629 56.386C127.955 55.8167 128.403 55.3733 128.973 55.056C129.542 54.7387 130.181 54.58 130.891 54.58C131.6 54.58 132.239 54.7387 132.809 55.056C133.378 55.3733 133.821 55.8167 134.139 56.386C134.465 56.9553 134.629 57.5993 134.629 58.318C134.629 59.0367 134.465 59.6807 134.139 60.25C133.821 60.8193 133.378 61.2673 132.809 61.594C132.239 61.9113 131.6 62.07 130.891 62.07ZM130.891 61.188C131.413 61.188 131.88 61.0713 132.291 60.838C132.711 60.5953 133.037 60.2547 133.271 59.816C133.504 59.3773 133.621 58.878 133.621 58.318C133.621 57.758 133.504 57.2587 133.271 56.82C133.037 56.3813 132.711 56.0453 132.291 55.812C131.88 55.5693 131.413 55.448 130.891 55.448C130.368 55.448 129.897 55.5693 129.477 55.812C129.066 56.0453 128.739 56.3813 128.497 56.82C128.263 57.2587 128.147 57.758 128.147 58.318C128.147 58.878 128.263 59.3773 128.497 59.816C128.739 60.2547 129.066 60.5953 129.477 60.838C129.897 61.0713 130.368 61.188 130.891 61.188ZM144.316 54.58C145.007 54.58 145.632 54.7387 146.192 55.056C146.752 55.364 147.191 55.8027 147.508 56.372C147.825 56.9413 147.984 57.59 147.984 58.318C147.984 59.0553 147.825 59.7087 147.508 60.278C147.191 60.8473 146.752 61.2907 146.192 61.608C145.641 61.916 145.016 62.07 144.316 62.07C143.719 62.07 143.177 61.9487 142.692 61.706C142.216 61.454 141.824 61.09 141.516 60.614V64.716H140.522V54.636H141.474V56.092C141.773 55.6067 142.165 55.2333 142.65 54.972C143.145 54.7107 143.7 54.58 144.316 54.58ZM144.246 61.188C144.759 61.188 145.226 61.0713 145.646 60.838C146.066 60.5953 146.393 60.2547 146.626 59.816C146.869 59.3773 146.99 58.878 146.99 58.318C146.99 57.758 146.869 57.2633 146.626 56.834C146.393 56.3953 146.066 56.0547 145.646 55.812C145.226 55.5693 144.759 55.448 144.246 55.448C143.723 55.448 143.252 55.5693 142.832 55.812C142.421 56.0547 142.095 56.3953 141.852 56.834C141.619 57.2633 141.502 57.758 141.502 58.318C141.502 58.878 141.619 59.3773 141.852 59.816C142.095 60.2547 142.421 60.5953 142.832 60.838C143.252 61.0713 143.723 61.188 144.246 61.188ZM156.522 58.626H150.362C150.418 59.3913 150.712 60.012 151.244 60.488C151.776 60.9547 152.448 61.188 153.26 61.188C153.718 61.188 154.138 61.1087 154.52 60.95C154.903 60.782 155.234 60.5393 155.514 60.222L156.074 60.866C155.748 61.258 155.337 61.5567 154.842 61.762C154.357 61.9673 153.82 62.07 153.232 62.07C152.476 62.07 151.804 61.9113 151.216 61.594C150.638 61.2673 150.185 60.8193 149.858 60.25C149.532 59.6807 149.368 59.0367 149.368 58.318C149.368 57.5993 149.522 56.9553 149.83 56.386C150.148 55.8167 150.577 55.3733 151.118 55.056C151.669 54.7387 152.285 54.58 152.966 54.58C153.648 54.58 154.259 54.7387 154.8 55.056C155.342 55.3733 155.766 55.8167 156.074 56.386C156.382 56.946 156.536 57.59 156.536 58.318L156.522 58.626ZM152.966 55.434C152.257 55.434 151.66 55.6627 151.174 56.12C150.698 56.568 150.428 57.156 150.362 57.884H155.584C155.519 57.156 155.244 56.568 154.758 56.12C154.282 55.6627 153.685 55.434 152.966 55.434ZM159.611 56.078C159.845 55.5833 160.19 55.21 160.647 54.958C161.114 54.706 161.688 54.58 162.369 54.58V55.546L162.131 55.532C161.357 55.532 160.75 55.77 160.311 56.246C159.873 56.722 159.653 57.3893 159.653 58.248V62H158.659V54.636H159.611V56.078ZM168.143 54.636H169.137V62H168.143V54.636ZM168.647 53.026C168.441 53.026 168.269 52.956 168.129 52.816C167.989 52.676 167.919 52.508 167.919 52.312C167.919 52.1253 167.989 51.962 168.129 51.822C168.269 51.682 168.441 51.612 168.647 51.612C168.852 51.612 169.025 51.682 169.165 51.822C169.305 51.9527 169.375 52.1113 169.375 52.298C169.375 52.5033 169.305 52.676 169.165 52.816C169.025 52.956 168.852 53.026 168.647 53.026ZM175.754 54.58C176.678 54.58 177.411 54.8507 177.952 55.392C178.503 55.924 178.778 56.7033 178.778 57.73V62H177.784V57.828C177.784 57.0627 177.593 56.4793 177.21 56.078C176.828 55.6767 176.282 55.476 175.572 55.476C174.779 55.476 174.149 55.714 173.682 56.19C173.225 56.6567 172.996 57.3053 172.996 58.136V62H172.002V54.636H172.954V55.994C173.225 55.546 173.598 55.2007 174.074 54.958C174.56 54.706 175.12 54.58 175.754 54.58ZM188.324 51.612V62H187.372V60.544C187.074 61.0387 186.677 61.4167 186.182 61.678C185.697 61.9393 185.146 62.07 184.53 62.07C183.84 62.07 183.214 61.9113 182.654 61.594C182.094 61.2767 181.656 60.8333 181.338 60.264C181.021 59.6947 180.862 59.046 180.862 58.318C180.862 57.59 181.021 56.9413 181.338 56.372C181.656 55.8027 182.094 55.364 182.654 55.056C183.214 54.7387 183.84 54.58 184.53 54.58C185.128 54.58 185.664 54.706 186.14 54.958C186.626 55.2007 187.022 55.56 187.33 56.036V51.612H188.324ZM184.614 61.188C185.128 61.188 185.59 61.0713 186 60.838C186.42 60.5953 186.747 60.2547 186.98 59.816C187.223 59.3773 187.344 58.878 187.344 58.318C187.344 57.758 187.223 57.2587 186.98 56.82C186.747 56.3813 186.42 56.0453 186 55.812C185.59 55.5693 185.128 55.448 184.614 55.448C184.092 55.448 183.62 55.5693 183.2 55.812C182.79 56.0453 182.463 56.3813 182.22 56.82C181.987 57.2587 181.87 57.758 181.87 58.318C181.87 58.878 181.987 59.3773 182.22 59.816C182.463 60.2547 182.79 60.5953 183.2 60.838C183.62 61.0713 184.092 61.188 184.614 61.188ZM191.193 54.636H192.187V62H191.193V54.636ZM191.697 53.026C191.491 53.026 191.319 52.956 191.179 52.816C191.039 52.676 190.969 52.508 190.969 52.312C190.969 52.1253 191.039 51.962 191.179 51.822C191.319 51.682 191.491 51.612 191.697 51.612C191.902 51.612 192.075 51.682 192.215 51.822C192.355 51.9527 192.425 52.1113 192.425 52.298C192.425 52.5033 192.355 52.676 192.215 52.816C192.075 52.956 191.902 53.026 191.697 53.026ZM198.104 62.07C197.376 62.07 196.723 61.9113 196.144 61.594C195.575 61.2767 195.127 60.8333 194.8 60.264C194.474 59.6853 194.31 59.0367 194.31 58.318C194.31 57.5993 194.474 56.9553 194.8 56.386C195.127 55.8167 195.575 55.3733 196.144 55.056C196.723 54.7387 197.376 54.58 198.104 54.58C198.739 54.58 199.304 54.706 199.798 54.958C200.302 55.2007 200.699 55.56 200.988 56.036L200.246 56.54C200.004 56.176 199.696 55.9053 199.322 55.728C198.949 55.5413 198.543 55.448 198.104 55.448C197.572 55.448 197.092 55.5693 196.662 55.812C196.242 56.0453 195.911 56.3813 195.668 56.82C195.435 57.2587 195.318 57.758 195.318 58.318C195.318 58.8873 195.435 59.3913 195.668 59.83C195.911 60.2593 196.242 60.5953 196.662 60.838C197.092 61.0713 197.572 61.188 198.104 61.188C198.543 61.188 198.949 61.0993 199.322 60.922C199.696 60.7447 200.004 60.474 200.246 60.11L200.988 60.614C200.699 61.09 200.302 61.454 199.798 61.706C199.294 61.9487 198.73 62.07 198.104 62.07ZM205.617 54.58C206.578 54.58 207.316 54.8227 207.829 55.308C208.342 55.784 208.599 56.4933 208.599 57.436V62H207.647V60.852C207.423 61.2347 207.092 61.5333 206.653 61.748C206.224 61.9627 205.71 62.07 205.113 62.07C204.292 62.07 203.638 61.874 203.153 61.482C202.668 61.09 202.425 60.572 202.425 59.928C202.425 59.3027 202.649 58.7987 203.097 58.416C203.554 58.0333 204.278 57.842 205.267 57.842H207.605V57.394C207.605 56.7593 207.428 56.2787 207.073 55.952C206.718 55.616 206.2 55.448 205.519 55.448C205.052 55.448 204.604 55.5273 204.175 55.686C203.746 55.8353 203.377 56.0453 203.069 56.316L202.621 55.574C202.994 55.2567 203.442 55.014 203.965 54.846C204.488 54.6687 205.038 54.58 205.617 54.58ZM205.267 61.286C205.827 61.286 206.308 61.16 206.709 60.908C207.11 60.6467 207.409 60.2733 207.605 59.788V58.584H205.295C204.035 58.584 203.405 59.0227 203.405 59.9C203.405 60.3293 203.568 60.67 203.895 60.922C204.222 61.1647 204.679 61.286 205.267 61.286ZM212.351 56.078C212.584 55.5833 212.93 55.21 213.387 54.958C213.854 54.706 214.428 54.58 215.109 54.58V55.546L214.871 55.532C214.096 55.532 213.49 55.77 213.051 56.246C212.612 56.722 212.393 57.3893 212.393 58.248V62H211.399V54.636H212.351V56.078ZM223.352 58.626H217.192C217.248 59.3913 217.542 60.012 218.074 60.488C218.606 60.9547 219.278 61.188 220.09 61.188C220.548 61.188 220.968 61.1087 221.35 60.95C221.733 60.782 222.064 60.5393 222.344 60.222L222.904 60.866C222.578 61.258 222.167 61.5567 221.672 61.762C221.187 61.9673 220.65 62.07 220.062 62.07C219.306 62.07 218.634 61.9113 218.046 61.594C217.468 61.2673 217.015 60.8193 216.688 60.25C216.362 59.6807 216.198 59.0367 216.198 58.318C216.198 57.5993 216.352 56.9553 216.66 56.386C216.978 55.8167 217.407 55.3733 217.948 55.056C218.499 54.7387 219.115 54.58 219.796 54.58C220.478 54.58 221.089 54.7387 221.63 55.056C222.172 55.3733 222.596 55.8167 222.904 56.386C223.212 56.946 223.366 57.59 223.366 58.318L223.352 58.626ZM219.796 55.434C219.087 55.434 218.49 55.6627 218.004 56.12C217.528 56.568 217.258 57.156 217.192 57.884H222.414C222.349 57.156 222.074 56.568 221.588 56.12C221.112 55.6627 220.515 55.434 219.796 55.434ZM229.254 51.612H230.248V62H229.254V51.612ZM233.225 51.542C233.44 51.542 233.617 51.6167 233.757 51.766C233.897 51.906 233.967 52.0833 233.967 52.298C233.967 52.41 233.949 52.5313 233.911 52.662C233.883 52.7833 233.841 52.928 233.785 53.096L233.183 55.028H232.511L233.001 53.012C232.843 52.9653 232.717 52.8813 232.623 52.76C232.53 52.6293 232.483 52.4753 232.483 52.298C232.483 52.074 232.553 51.892 232.693 51.752C232.833 51.612 233.011 51.542 233.225 51.542ZM236.18 54.636H237.174V62H236.18V54.636ZM236.684 53.026C236.479 53.026 236.306 52.956 236.166 52.816C236.026 52.676 235.956 52.508 235.956 52.312C235.956 52.1253 236.026 51.962 236.166 51.822C236.306 51.682 236.479 51.612 236.684 51.612C236.889 51.612 237.062 51.682 237.202 51.822C237.342 51.9527 237.412 52.1113 237.412 52.298C237.412 52.5033 237.342 52.676 237.202 52.816C237.062 52.956 236.889 53.026 236.684 53.026ZM243.792 54.58C244.716 54.58 245.449 54.8507 245.99 55.392C246.541 55.924 246.816 56.7033 246.816 57.73V62H245.822V57.828C245.822 57.0627 245.631 56.4793 245.248 56.078C244.865 55.6767 244.319 55.476 243.61 55.476C242.817 55.476 242.187 55.714 241.72 56.19C241.263 56.6567 241.034 57.3053 241.034 58.136V62H240.04V54.636H240.992V55.994C241.263 55.546 241.636 55.2007 242.112 54.958C242.597 54.706 243.157 54.58 243.792 54.58ZM253.493 61.552C253.306 61.72 253.073 61.8507 252.793 61.944C252.522 62.028 252.237 62.07 251.939 62.07C251.248 62.07 250.716 61.8833 250.343 61.51C249.969 61.1367 249.783 60.6093 249.783 59.928V55.476H248.467V54.636H249.783V53.026H250.777V54.636H253.017V55.476H250.777V59.872C250.777 60.3107 250.884 60.6467 251.099 60.88C251.323 61.104 251.64 61.216 252.051 61.216C252.256 61.216 252.452 61.1833 252.639 61.118C252.835 61.0527 253.003 60.9593 253.143 60.838L253.493 61.552ZM261.554 58.626H255.394C255.45 59.3913 255.744 60.012 256.276 60.488C256.808 60.9547 257.48 61.188 258.292 61.188C258.75 61.188 259.17 61.1087 259.552 60.95C259.935 60.782 260.266 60.5393 260.546 60.222L261.106 60.866C260.78 61.258 260.369 61.5567 259.874 61.762C259.389 61.9673 258.852 62.07 258.264 62.07C257.508 62.07 256.836 61.9113 256.248 61.594C255.67 61.2673 255.217 60.8193 254.89 60.25C254.564 59.6807 254.4 59.0367 254.4 58.318C254.4 57.5993 254.554 56.9553 254.862 56.386C255.18 55.8167 255.609 55.3733 256.15 55.056C256.701 54.7387 257.317 54.58 257.998 54.58C258.68 54.58 259.291 54.7387 259.832 55.056C260.374 55.3733 260.798 55.8167 261.106 56.386C261.414 56.946 261.568 57.59 261.568 58.318L261.554 58.626ZM257.998 55.434C257.289 55.434 256.692 55.6627 256.206 56.12C255.73 56.568 255.46 57.156 255.394 57.884H260.616C260.551 57.156 260.276 56.568 259.79 56.12C259.314 55.6627 258.717 55.434 257.998 55.434ZM267.443 54.58C268.367 54.58 269.1 54.8507 269.641 55.392C270.192 55.924 270.467 56.7033 270.467 57.73V62H269.473V57.828C269.473 57.0627 269.282 56.4793 268.899 56.078C268.517 55.6767 267.971 55.476 267.261 55.476C266.468 55.476 265.838 55.714 265.371 56.19C264.914 56.6567 264.685 57.3053 264.685 58.136V62H263.691V54.636H264.643V55.994C264.914 55.546 265.287 55.2007 265.763 54.958C266.249 54.706 266.809 54.58 267.443 54.58ZM275.24 62.07C274.643 62.07 274.069 61.986 273.518 61.818C272.977 61.6407 272.552 61.4213 272.244 61.16L272.692 60.376C273 60.6187 273.387 60.8193 273.854 60.978C274.321 61.1273 274.806 61.202 275.31 61.202C275.982 61.202 276.477 61.0993 276.794 60.894C277.121 60.6793 277.284 60.3807 277.284 59.998C277.284 59.7273 277.195 59.5173 277.018 59.368C276.841 59.2093 276.617 59.0927 276.346 59.018C276.075 58.934 275.716 58.8547 275.268 58.78C274.671 58.668 274.19 58.556 273.826 58.444C273.462 58.3227 273.149 58.122 272.888 57.842C272.636 57.562 272.51 57.1747 272.51 56.68C272.51 56.064 272.767 55.56 273.28 55.168C273.793 54.776 274.507 54.58 275.422 54.58C275.898 54.58 276.374 54.6453 276.85 54.776C277.326 54.8973 277.718 55.0607 278.026 55.266L277.592 56.064C276.985 55.644 276.262 55.434 275.422 55.434C274.787 55.434 274.307 55.546 273.98 55.77C273.663 55.994 273.504 56.288 273.504 56.652C273.504 56.932 273.593 57.156 273.77 57.324C273.957 57.492 274.185 57.618 274.456 57.702C274.727 57.7767 275.1 57.856 275.576 57.94C276.164 58.052 276.635 58.164 276.99 58.276C277.345 58.388 277.648 58.5793 277.9 58.85C278.152 59.1207 278.278 59.494 278.278 59.97C278.278 60.614 278.007 61.1273 277.466 61.51C276.934 61.8833 276.192 62.07 275.24 62.07ZM280.216 54.636H281.21V62H280.216V54.636ZM280.72 53.026C280.514 53.026 280.342 52.956 280.202 52.816C280.062 52.676 279.992 52.508 279.992 52.312C279.992 52.1253 280.062 51.962 280.202 51.822C280.342 51.682 280.514 51.612 280.72 51.612C280.925 51.612 281.098 51.682 281.238 51.822C281.378 51.9527 281.448 52.1113 281.448 52.298C281.448 52.5033 281.378 52.676 281.238 52.816C281.098 52.956 280.925 53.026 280.72 53.026ZM287.953 61.552C287.767 61.72 287.533 61.8507 287.253 61.944C286.983 62.028 286.698 62.07 286.399 62.07C285.709 62.07 285.177 61.8833 284.803 61.51C284.43 61.1367 284.243 60.6093 284.243 59.928V55.476H282.927V54.636H284.243V53.026H285.237V54.636H287.477V55.476H285.237V59.872C285.237 60.3107 285.345 60.6467 285.559 60.88C285.783 61.104 286.101 61.216 286.511 61.216C286.717 61.216 286.913 61.1833 287.099 61.118C287.295 61.0527 287.463 60.9593 287.603 60.838L287.953 61.552ZM292.439 54.58C293.4 54.58 294.138 54.8227 294.651 55.308C295.164 55.784 295.421 56.4933 295.421 57.436V62H294.469V60.852C294.245 61.2347 293.914 61.5333 293.475 61.748C293.046 61.9627 292.532 62.07 291.935 62.07C291.114 62.07 290.46 61.874 289.975 61.482C289.49 61.09 289.247 60.572 289.247 59.928C289.247 59.3027 289.471 58.7987 289.919 58.416C290.376 58.0333 291.1 57.842 292.089 57.842H294.427V57.394C294.427 56.7593 294.25 56.2787 293.895 55.952C293.54 55.616 293.022 55.448 292.341 55.448C291.874 55.448 291.426 55.5273 290.997 55.686C290.568 55.8353 290.199 56.0453 289.891 56.316L289.443 55.574C289.816 55.2567 290.264 55.014 290.787 54.846C291.31 54.6687 291.86 54.58 292.439 54.58ZM292.089 61.286C292.649 61.286 293.13 61.16 293.531 60.908C293.932 60.6467 294.231 60.2733 294.427 59.788V58.584H292.117C290.857 58.584 290.227 59.0227 290.227 59.9C290.227 60.3293 290.39 60.67 290.717 60.922C291.044 61.1647 291.501 61.286 292.089 61.286ZM290.129 51.752H291.459L293.377 53.488H292.397L290.129 51.752Z" fill="#272631"/>
</svg>
