<svg width="59" height="66" viewBox="0 0 59 66" fill="none" xmlns="http://www.w3.org/2000/svg">
<g filter="url(#filter0_d)">
<path d="M52.1502 32.8374C51.3609 28.6831 49.4179 24.89 46.6857 21.8797C46.1393 21.2776 45.5321 20.6755 44.9249 20.1336L31.4459 6.76764C30.4137 5.74412 28.6529 5.74412 27.6207 6.76764L14.7489 19.5316C13.656 20.4347 12.6238 21.4582 11.713 22.5419C9.28437 25.4319 7.58431 28.9239 6.795 32.7772C6.4307 34.9446 6.30927 37.2325 6.55213 39.5806C7.70575 50.3577 17.9668 59.6898 28.8351 59.9908C41.8891 60.3521 52.5752 49.9964 52.5752 37.1121C52.5752 35.6671 52.4538 34.2221 52.1502 32.8374Z" fill="url(#paint0_linear)"/>
</g>
<defs>
<filter id="filter0_d" x="-4" y="0" width="67" height="66" filterUnits="userSpaceOnUse" color-interpolation-filters="sRGB">
<feFlood flood-opacity="0" result="BackgroundImageFix"/>
<feColorMatrix in="SourceAlpha" type="matrix" values="0 0 0 0 0 0 0 0 0 0 0 0 0 0 0 0 0 0 127 0"/>
<feOffset/>
<feGaussianBlur stdDeviation="3"/>
<feColorMatrix type="matrix" values="0 0 0 0 0.425833 0 0 0 0 0.7373 0 0 0 0 0.9125 0 0 0 1 0"/>
<feBlend mode="normal" in2="BackgroundImageFix" result="effect1_dropShadow"/>
<feBlend mode="normal" in="SourceGraphic" in2="effect1_dropShadow" result="shape"/>
</filter>
<linearGradient id="paint0_linear" x1="29.5005" y1="6" x2="29.5005" y2="60" gradientUnits="userSpaceOnUse">
<stop stop-color="#6DE2E9"/>
<stop offset="1" stop-color="#6DBCE9"/>
</linearGradient>
</defs>
</svg>
