<svg width="66" height="66" viewBox="0 0 66 66" fill="none" xmlns="http://www.w3.org/2000/svg">
<g filter="url(#filter0_d)">
<path d="M7.86729 42.673L22.8045 57.6239C24.4069 59.2278 26.6961 59.8579 28.8709 59.2278L49.3022 53.7286C51.477 53.1558 53.1939 51.4373 53.7662 49.2605L59.2603 28.8105C59.8326 26.6337 59.2031 24.3424 57.6579 22.7385L42.6635 7.84489C41.061 6.24097 38.7718 5.61086 36.597 6.24097L16.1657 11.7401C13.991 12.313 12.274 14.0315 11.7017 16.2082L6.20759 36.6583C5.63529 38.7205 6.26483 41.0691 7.86729 42.673Z" fill="url(#paint0_linear)"/>
</g>
<defs>
<filter id="filter0_d" x="0" y="0" width="65.4688" height="65.4687" filterUnits="userSpaceOnUse" color-interpolation-filters="sRGB">
<feFlood flood-opacity="0" result="BackgroundImageFix"/>
<feColorMatrix in="SourceAlpha" type="matrix" values="0 0 0 0 0 0 0 0 0 0 0 0 0 0 0 0 0 0 127 0"/>
<feOffset/>
<feGaussianBlur stdDeviation="3"/>
<feColorMatrix type="matrix" values="0 0 0 0 0.995833 0 0 0 0 0.848865 0 0 0 0 0.327795 0 0 0 1 0"/>
<feBlend mode="normal" in2="BackgroundImageFix" result="effect1_dropShadow"/>
<feBlend mode="normal" in="SourceGraphic" in2="effect1_dropShadow" result="shape"/>
</filter>
<linearGradient id="paint0_linear" x1="11.8202" y1="11.2044" x2="50.0721" y2="54.5848" gradientUnits="userSpaceOnUse">
<stop stop-color="#FED854"/>
<stop offset="1" stop-color="#FEBA54"/>
</linearGradient>
</defs>
</svg>
