<svg width="420" height="128" viewBox="0 0 420 128" fill="none" xmlns="http://www.w3.org/2000/svg">
<g filter="url(#filter0_d)">
<path d="M22 43H398V111H22V43Z" fill="#FBFEFD"/>
<rect x="142" y="94" width="136" height="5" rx="2.5" fill="#DBF0E0"/>
<circle cx="210" cy="55" r="26" fill="#FF624C" stroke="#FBFEFD" stroke-width="4"/>
</g>
<path d="M76.1643 86.37C76.571 86.4833 76.891 86.69 77.1243 86.99C77.3576 87.2833 77.4743 87.6567 77.4743 88.11C77.4743 88.7167 77.2443 89.1833 76.7843 89.51C76.331 89.8367 75.6676 90 74.7943 90H71.4543V83H74.5943C75.3943 83 76.011 83.16 76.4443 83.48C76.8843 83.8 77.1043 84.2433 77.1043 84.81C77.1043 85.1767 77.0176 85.4933 76.8443 85.76C76.6776 86.0267 76.451 86.23 76.1643 86.37ZM72.4543 83.81V86.05H74.5043C75.0176 86.05 75.411 85.9567 75.6843 85.77C75.9643 85.5767 76.1043 85.2967 76.1043 84.93C76.1043 84.5633 75.9643 84.2867 75.6843 84.1C75.411 83.9067 75.0176 83.81 74.5043 83.81H72.4543ZM74.7543 89.19C75.321 89.19 75.7476 89.0967 76.0343 88.91C76.321 88.7233 76.4643 88.43 76.4643 88.03C76.4643 87.25 75.8943 86.86 74.7543 86.86H72.4543V89.19H74.7543ZM83.4827 88.25H79.7627L78.9927 90H77.9627L81.1327 83H82.1227L85.3027 90H84.2527L83.4827 88.25ZM83.1327 87.45L81.6227 84.02L80.1127 87.45H83.1327ZM89.3792 90.08C88.6792 90.08 88.0459 89.9267 87.4792 89.62C86.9192 89.3067 86.4792 88.88 86.1592 88.34C85.8392 87.7933 85.6792 87.18 85.6792 86.5C85.6792 85.82 85.8392 85.21 86.1592 84.67C86.4792 84.1233 86.9226 83.6967 87.4892 83.39C88.0559 83.0767 88.6892 82.92 89.3892 82.92C89.9359 82.92 90.4359 83.0133 90.8892 83.2C91.3426 83.38 91.7292 83.65 92.0492 84.01L91.3992 84.64C90.8726 84.0867 90.2159 83.81 89.4292 83.81C88.9092 83.81 88.4392 83.9267 88.0192 84.16C87.5992 84.3933 87.2692 84.7167 87.0292 85.13C86.7959 85.5367 86.6792 85.9933 86.6792 86.5C86.6792 87.0067 86.7959 87.4667 87.0292 87.88C87.2692 88.2867 87.5992 88.6067 88.0192 88.84C88.4392 89.0733 88.9092 89.19 89.4292 89.19C90.2092 89.19 90.8659 88.91 91.3992 88.35L92.0492 88.98C91.7292 89.34 91.3392 89.6133 90.8792 89.8C90.4259 89.9867 89.9259 90.08 89.3792 90.08ZM99.4958 83V90H98.4958V86.88H94.4758V90H93.4758V83H94.4758V86.01H98.4958V83H99.4958ZM106.671 89.13V90H101.591V83H106.531V83.87H102.591V86.02H106.101V86.87H102.591V89.13H106.671ZM111.391 90.08C110.691 90.08 110.058 89.9267 109.491 89.62C108.931 89.3067 108.491 88.88 108.171 88.34C107.851 87.7933 107.691 87.18 107.691 86.5C107.691 85.82 107.851 85.21 108.171 84.67C108.491 84.1233 108.934 83.6967 109.501 83.39C110.068 83.0767 110.701 82.92 111.401 82.92C111.948 82.92 112.448 83.0133 112.901 83.2C113.354 83.38 113.741 83.65 114.061 84.01L113.411 84.64C112.884 84.0867 112.228 83.81 111.441 83.81C110.921 83.81 110.451 83.9267 110.031 84.16C109.611 84.3933 109.281 84.7167 109.041 85.13C108.808 85.5367 108.691 85.9933 108.691 86.5C108.691 87.0067 108.808 87.4667 109.041 87.88C109.281 88.2867 109.611 88.6067 110.031 88.84C110.451 89.0733 110.921 89.19 111.441 89.19C112.221 89.19 112.878 88.91 113.411 88.35L114.061 88.98C113.741 89.34 113.351 89.6133 112.891 89.8C112.438 89.9867 111.938 90.08 111.391 90.08ZM119.781 88.25H116.061L115.291 90H114.261L117.431 83H118.421L121.601 90H120.551L119.781 88.25ZM119.431 87.45L117.921 84.02L116.411 87.45H119.431Z" fill="#60A986"/>
<path d="M311.932 86.37C312.339 86.4833 312.659 86.69 312.892 86.99C313.125 87.2833 313.242 87.6567 313.242 88.11C313.242 88.7167 313.012 89.1833 312.552 89.51C312.099 89.8367 311.435 90 310.562 90H307.222V83H310.362C311.162 83 311.779 83.16 312.212 83.48C312.652 83.8 312.872 84.2433 312.872 84.81C312.872 85.1767 312.785 85.4933 312.612 85.76C312.445 86.0267 312.219 86.23 311.932 86.37ZM308.222 83.81V86.05H310.272C310.785 86.05 311.179 85.9567 311.452 85.77C311.732 85.5767 311.872 85.2967 311.872 84.93C311.872 84.5633 311.732 84.2867 311.452 84.1C311.179 83.9067 310.785 83.81 310.272 83.81H308.222ZM310.522 89.19C311.089 89.19 311.515 89.0967 311.802 88.91C312.089 88.7233 312.232 88.43 312.232 88.03C312.232 87.25 311.662 86.86 310.522 86.86H308.222V89.19H310.522ZM317.95 90.08C317.244 90.08 316.607 89.9267 316.04 89.62C315.474 89.3067 315.027 88.8767 314.7 88.33C314.38 87.7833 314.22 87.1733 314.22 86.5C314.22 85.8267 314.38 85.2167 314.7 84.67C315.027 84.1233 315.474 83.6967 316.04 83.39C316.607 83.0767 317.244 82.92 317.95 82.92C318.65 82.92 319.284 83.0767 319.85 83.39C320.417 83.6967 320.86 84.1233 321.18 84.67C321.5 85.21 321.66 85.82 321.66 86.5C321.66 87.18 321.5 87.7933 321.18 88.34C320.86 88.88 320.417 89.3067 319.85 89.62C319.284 89.9267 318.65 90.08 317.95 90.08ZM317.95 89.19C318.464 89.19 318.924 89.0733 319.33 88.84C319.744 88.6067 320.067 88.2867 320.3 87.88C320.54 87.4667 320.66 87.0067 320.66 86.5C320.66 85.9933 320.54 85.5367 320.3 85.13C320.067 84.7167 319.744 84.3933 319.33 84.16C318.924 83.9267 318.464 83.81 317.95 83.81C317.437 83.81 316.97 83.9267 316.55 84.16C316.137 84.3933 315.81 84.7167 315.57 85.13C315.337 85.5367 315.22 85.9933 315.22 86.5C315.22 87.0067 315.337 87.4667 315.57 87.88C315.81 88.2867 316.137 88.6067 316.55 88.84C316.97 89.0733 317.437 89.19 317.95 89.19ZM325.229 90.08C324.702 90.08 324.192 90 323.699 89.84C323.212 89.6733 322.829 89.46 322.549 89.2L322.919 88.42C323.185 88.66 323.525 88.8567 323.939 89.01C324.359 89.1567 324.789 89.23 325.229 89.23C325.809 89.23 326.242 89.1333 326.529 88.94C326.815 88.74 326.959 88.4767 326.959 88.15C326.959 87.91 326.879 87.7167 326.719 87.57C326.565 87.4167 326.372 87.3 326.139 87.22C325.912 87.14 325.589 87.05 325.169 86.95C324.642 86.8233 324.215 86.6967 323.889 86.57C323.569 86.4433 323.292 86.25 323.059 85.99C322.832 85.7233 322.719 85.3667 322.719 84.92C322.719 84.5467 322.815 84.21 323.009 83.91C323.209 83.61 323.509 83.37 323.909 83.19C324.309 83.01 324.805 82.92 325.399 82.92C325.812 82.92 326.219 82.9733 326.619 83.08C327.019 83.1867 327.362 83.34 327.649 83.54L327.319 84.34C327.025 84.1533 326.712 84.0133 326.379 83.92C326.045 83.82 325.719 83.77 325.399 83.77C324.832 83.77 324.405 83.8733 324.119 84.08C323.839 84.2867 323.699 84.5533 323.699 84.88C323.699 85.12 323.779 85.3167 323.939 85.47C324.099 85.6167 324.295 85.7333 324.529 85.82C324.769 85.9 325.092 85.9867 325.499 86.08C326.025 86.2067 326.449 86.3333 326.769 86.46C327.089 86.5867 327.362 86.78 327.589 87.04C327.822 87.3 327.939 87.65 327.939 88.09C327.939 88.4567 327.839 88.7933 327.639 89.1C327.439 89.4 327.135 89.64 326.729 89.82C326.322 89.9933 325.822 90.08 325.229 90.08ZM332.53 90.08C331.83 90.08 331.196 89.9267 330.63 89.62C330.07 89.3067 329.63 88.88 329.31 88.34C328.99 87.7933 328.83 87.18 328.83 86.5C328.83 85.82 328.99 85.21 329.31 84.67C329.63 84.1233 330.073 83.6967 330.64 83.39C331.206 83.0767 331.84 82.92 332.54 82.92C333.086 82.92 333.586 83.0133 334.04 83.2C334.493 83.38 334.88 83.65 335.2 84.01L334.55 84.64C334.023 84.0867 333.366 83.81 332.58 83.81C332.06 83.81 331.59 83.9267 331.17 84.16C330.75 84.3933 330.42 84.7167 330.18 85.13C329.946 85.5367 329.83 85.9933 329.83 86.5C329.83 87.0067 329.946 87.4667 330.18 87.88C330.42 88.2867 330.75 88.6067 331.17 88.84C331.59 89.0733 332.06 89.19 332.58 89.19C333.36 89.19 334.016 88.91 334.55 88.35L335.2 88.98C334.88 89.34 334.49 89.6133 334.03 89.8C333.576 89.9867 333.076 90.08 332.53 90.08ZM339.64 90.08C338.933 90.08 338.296 89.9267 337.73 89.62C337.163 89.3067 336.716 88.8767 336.39 88.33C336.07 87.7833 335.91 87.1733 335.91 86.5C335.91 85.8267 336.07 85.2167 336.39 84.67C336.716 84.1233 337.163 83.6967 337.73 83.39C338.296 83.0767 338.933 82.92 339.64 82.92C340.34 82.92 340.973 83.0767 341.54 83.39C342.106 83.6967 342.55 84.1233 342.87 84.67C343.19 85.21 343.35 85.82 343.35 86.5C343.35 87.18 343.19 87.7933 342.87 88.34C342.55 88.88 342.106 89.3067 341.54 89.62C340.973 89.9267 340.34 90.08 339.64 90.08ZM339.64 89.19C340.153 89.19 340.613 89.0733 341.02 88.84C341.433 88.6067 341.756 88.2867 341.99 87.88C342.23 87.4667 342.35 87.0067 342.35 86.5C342.35 85.9933 342.23 85.5367 341.99 85.13C341.756 84.7167 341.433 84.3933 341.02 84.16C340.613 83.9267 340.153 83.81 339.64 83.81C339.126 83.81 338.66 83.9267 338.24 84.16C337.826 84.3933 337.5 84.7167 337.26 85.13C337.026 85.5367 336.91 85.9933 336.91 86.5C336.91 87.0067 337.026 87.4667 337.26 87.88C337.5 88.2867 337.826 88.6067 338.24 88.84C338.66 89.0733 339.126 89.19 339.64 89.19Z" fill="#60A986"/>
<path d="M88 64H94C94.2652 64 94.5196 63.8946 94.7071 63.7071C94.8946 63.5196 95 63.2652 95 63V55C95 54.7348 94.8946 54.4804 94.7071 54.2929C94.5196 54.1054 94.2652 54 94 54H88C87.7348 54 87.4804 54.1054 87.2929 54.2929C87.1054 54.4804 87 54.7348 87 55V63C87 63.2652 87.1054 63.5196 87.2929 63.7071C87.4804 63.8946 87.7348 64 88 64ZM87 71C87 71.2652 87.1054 71.5196 87.2929 71.7071C87.4804 71.8946 87.7348 72 88 72H94C94.2652 72 94.5196 71.8946 94.7071 71.7071C94.8946 71.5196 95 71.2652 95 71V67C95 66.7348 94.8946 66.4804 94.7071 66.2929C94.5196 66.1054 94.2652 66 94 66H88C87.7348 66 87.4804 66.1054 87.2929 66.2929C87.1054 66.4804 87 66.7348 87 67V71ZM97 71C97 71.2652 97.1054 71.5196 97.2929 71.7071C97.4804 71.8946 97.7348 72 98 72H104C104.265 72 104.52 71.8946 104.707 71.7071C104.895 71.5196 105 71.2652 105 71V64C105 63.7348 104.895 63.4804 104.707 63.2929C104.52 63.1054 104.265 63 104 63H98C97.7348 63 97.4804 63.1054 97.2929 63.2929C97.1054 63.4804 97 63.7348 97 64V71ZM98 61H104C104.265 61 104.52 60.8946 104.707 60.7071C104.895 60.5196 105 60.2652 105 60V55C105 54.7348 104.895 54.4804 104.707 54.2929C104.52 54.1054 104.265 54 104 54H98C97.7348 54 97.4804 54.1054 97.2929 54.2929C97.1054 54.4804 97 54.7348 97 55V60C97 60.2652 97.1054 60.5196 97.2929 60.7071C97.4804 60.8946 97.7348 61 98 61Z" fill="#60A986"/>
<path d="M338.588 59.4753C338.353 58.2443 337.776 57.1205 336.964 56.2285C336.802 56.0501 336.621 55.8717 336.441 55.7112L332.435 51.7509C332.129 51.4476 331.605 51.4476 331.299 51.7509L327.473 55.5328C327.149 55.8004 326.842 56.1036 326.571 56.4248C325.849 57.281 325.344 58.3157 325.11 59.4574C325.001 60.0996 324.965 60.7775 325.038 61.4732C325.38 64.6665 328.43 67.4315 331.659 67.5207C335.539 67.6278 338.714 64.5594 338.714 60.7418C338.714 60.3137 338.678 59.8856 338.588 59.4753Z" fill="#60A986"/>
<path d="M317 59.5234C317 55.1052 320.582 51.5234 325 51.5234C329.418 51.5234 333 55.1052 333 59.5234C333 63.9417 329.418 67.5234 325 67.5234C320.582 67.5234 317 63.9417 317 59.5234Z" fill="#FBFEFD"/>
<path fill-rule="evenodd" clip-rule="evenodd" d="M325 54.1901C322.054 54.1901 319.667 56.5779 319.667 59.5234C319.667 62.469 322.054 64.8568 325 64.8568C327.946 64.8568 330.333 62.469 330.333 59.5234C330.333 56.5779 327.946 54.1901 325 54.1901ZM325 51.5234C320.582 51.5234 317 55.1052 317 59.5234C317 63.9417 320.582 67.5234 325 67.5234C329.418 67.5234 333 63.9417 333 59.5234C333 55.1052 329.418 51.5234 325 51.5234Z" fill="#60A986"/>
<path d="M317.004 69.2266C317.004 68.0919 317.013 66.9572 317 65.8226C316.995 65.385 317.086 65.2246 317.371 65.2392C317.892 65.2684 318.413 65.2625 318.934 65.2421C319.186 65.2304 319.288 65.3471 319.286 65.7701C319.276 68.089 319.276 70.4079 319.286 72.7268C319.288 73.1031 319.204 73.2402 318.967 73.2344C318.431 73.2169 317.894 73.2081 317.358 73.2373C317.058 73.2548 316.998 73.0419 317.002 72.6306C317.011 71.4988 317.004 70.3612 317.004 69.2266Z" fill="#60A986"/>
<path d="M323.863 69.2266C323.863 68.0919 323.873 66.9572 323.86 65.8226C323.854 65.385 323.945 65.2246 324.23 65.2392C324.751 65.2684 325.272 65.2625 325.793 65.2421C326.045 65.2304 326.147 65.3471 326.145 65.7701C326.136 68.089 326.136 70.4079 326.145 72.7268C326.147 73.1031 326.064 73.2402 325.826 73.2344C325.291 73.2169 324.753 73.2081 324.217 73.2373C323.917 73.2548 323.858 73.0419 323.861 72.6306C323.871 71.4988 323.863 70.3612 323.863 69.2266Z" fill="#60A986"/>
<path d="M330.719 69.2266C330.719 68.0919 330.728 66.9572 330.715 65.8226C330.71 65.385 330.8 65.2246 331.086 65.2392C331.607 65.2684 332.128 65.2625 332.648 65.2421C332.9 65.2304 333.002 65.3471 333.001 65.7701C332.991 68.089 332.991 70.4079 333.001 72.7268C333.002 73.1031 332.919 73.2402 332.682 73.2344C332.146 73.2169 331.609 73.2081 331.073 73.2373C330.773 73.2548 330.713 73.0419 330.717 72.6306C330.726 71.4988 330.719 70.3612 330.719 69.2266Z" fill="#60A986"/>
<path d="M310.549 58.5425L317.16 51.9315C317.704 51.3874 318.578 51.3874 319.122 51.9315L325.733 58.5425C326.277 59.0865 326.277 59.9603 325.733 60.5044L319.122 67.1154C318.578 67.6594 317.704 67.6594 317.16 67.1154L310.549 60.5044C310.005 59.9603 310.005 59.0865 310.549 58.5425Z" fill="#60A986"/>
<circle cx="210" cy="53" r="30" fill="#FF624C" stroke="#FBFEFD" stroke-width="4"/>
<path d="M213.501 46.667C216.374 46.667 219.13 47.8084 221.162 49.84C223.193 51.8716 224.335 54.6271 224.335 57.5003C224.335 60.3735 223.193 63.129 221.162 65.1606C219.13 67.1923 216.374 68.3337 213.501 68.3337H207.668V65.0003H213.501C217.668 65.0003 221.001 61.667 221.001 57.5003C221.001 53.3337 217.668 50.0003 213.501 50.0003H204.051L209.185 55.1503L206.835 57.5003L197.668 48.3337L206.835 39.167L209.201 41.517L204.051 46.667H213.501ZM201.001 65.0003H204.335V68.3337H201.001V65.0003Z" fill="#FBFEFD"/>
<defs>
<filter id="filter0_d" x="0" y="0" width="420" height="128" filterUnits="userSpaceOnUse" color-interpolation-filters="sRGB">
<feFlood flood-opacity="0" result="BackgroundImageFix"/>
<feColorMatrix in="SourceAlpha" type="matrix" values="0 0 0 0 0 0 0 0 0 0 0 0 0 0 0 0 0 0 127 0"/>
<feOffset dy="-5"/>
<feGaussianBlur stdDeviation="11"/>
<feColorMatrix type="matrix" values="0 0 0 0 0 0 0 0 0 0 0 0 0 0 0 0 0 0 0.1 0"/>
<feBlend mode="normal" in2="BackgroundImageFix" result="effect1_dropShadow"/>
<feBlend mode="normal" in="SourceGraphic" in2="effect1_dropShadow" result="shape"/>
</filter>
</defs>
</svg>
