<svg width="376" height="812" viewBox="0 0 376 812" fill="none" xmlns="http://www.w3.org/2000/svg">
<g clip-path="url(#clip0)">
<rect width="376" height="812" fill="#DBF0E0"/>
<path d="M32.35 708.168C31.3514 708.168 30.446 707.953 29.634 707.524C28.8314 707.085 28.1967 706.483 27.73 705.718C27.2727 704.943 27.044 704.071 27.044 703.1C27.044 702.129 27.2727 701.261 27.73 700.496C28.1967 699.721 28.8314 699.119 29.634 698.69C30.446 698.251 31.356 698.032 32.364 698.032C33.2134 698.032 33.9787 698.181 34.66 698.48C35.3507 698.779 35.9294 699.208 36.396 699.768L34.94 701.112C34.2774 700.347 33.456 699.964 32.476 699.964C31.8694 699.964 31.328 700.099 30.852 700.37C30.376 700.631 30.0027 701 29.732 701.476C29.4707 701.952 29.34 702.493 29.34 703.1C29.34 703.707 29.4707 704.248 29.732 704.724C30.0027 705.2 30.376 705.573 30.852 705.844C31.328 706.105 31.8694 706.236 32.476 706.236C33.456 706.236 34.2774 705.849 34.94 705.074L36.396 706.418C35.9294 706.987 35.3507 707.421 34.66 707.72C33.9694 708.019 33.1994 708.168 32.35 708.168ZM40.7569 700.356C41.9236 700.356 42.8196 700.636 43.4449 701.196C44.0703 701.747 44.3829 702.582 44.3829 703.702V708H42.3389V707.062C41.9283 707.762 41.1629 708.112 40.0429 708.112C39.4643 708.112 38.9603 708.014 38.5309 707.818C38.1109 707.622 37.7889 707.351 37.5649 707.006C37.3409 706.661 37.2289 706.269 37.2289 705.83C37.2289 705.13 37.4903 704.579 38.0129 704.178C38.5449 703.777 39.3616 703.576 40.4629 703.576H42.1989C42.1989 703.1 42.0543 702.736 41.7649 702.484C41.4756 702.223 41.0416 702.092 40.4629 702.092C40.0616 702.092 39.6649 702.157 39.2729 702.288C38.8903 702.409 38.5636 702.577 38.2929 702.792L37.5089 701.266C37.9196 700.977 38.4096 700.753 38.9789 700.594C39.5576 700.435 40.1503 700.356 40.7569 700.356ZM40.5889 706.642C40.9623 706.642 41.2936 706.558 41.5829 706.39C41.8723 706.213 42.0776 705.956 42.1989 705.62V704.85H40.7009C39.8049 704.85 39.3569 705.144 39.3569 705.732C39.3569 706.012 39.4643 706.236 39.6789 706.404C39.9029 706.563 40.2063 706.642 40.5889 706.642ZM46.3596 697.612H48.5436V708H46.3596V697.612ZM60.2165 700.356C61.1592 700.356 61.9058 700.636 62.4565 701.196C63.0165 701.747 63.2965 702.577 63.2965 703.688V708H61.1125V704.024C61.1125 703.427 60.9865 702.983 60.7345 702.694C60.4918 702.395 60.1418 702.246 59.6845 702.246C59.1712 702.246 58.7652 702.414 58.4665 702.75C58.1678 703.077 58.0185 703.567 58.0185 704.22V708H55.8345V704.024C55.8345 702.839 55.3585 702.246 54.4065 702.246C53.9025 702.246 53.5012 702.414 53.2025 702.75C52.9038 703.077 52.7545 703.567 52.7545 704.22V708H50.5705V700.468H52.6565V701.336C52.9365 701.019 53.2772 700.776 53.6785 700.608C54.0892 700.44 54.5372 700.356 55.0225 700.356C55.5545 700.356 56.0352 700.463 56.4645 700.678C56.8938 700.883 57.2392 701.187 57.5005 701.588C57.8085 701.196 58.1958 700.893 58.6625 700.678C59.1385 700.463 59.6565 700.356 60.2165 700.356ZM68.9201 708.112C68.1268 708.112 67.4128 707.949 66.7781 707.622C66.1528 707.286 65.6628 706.824 65.3081 706.236C64.9535 705.648 64.7761 704.981 64.7761 704.234C64.7761 703.487 64.9535 702.82 65.3081 702.232C65.6628 701.644 66.1528 701.187 66.7781 700.86C67.4128 700.524 68.1268 700.356 68.9201 700.356C69.7135 700.356 70.4228 700.524 71.0481 700.86C71.6735 701.187 72.1635 701.644 72.5181 702.232C72.8728 702.82 73.0501 703.487 73.0501 704.234C73.0501 704.981 72.8728 705.648 72.5181 706.236C72.1635 706.824 71.6735 707.286 71.0481 707.622C70.4228 707.949 69.7135 708.112 68.9201 708.112ZM68.9201 706.32C69.4801 706.32 69.9375 706.133 70.2921 705.76C70.6561 705.377 70.8381 704.869 70.8381 704.234C70.8381 703.599 70.6561 703.095 70.2921 702.722C69.9375 702.339 69.4801 702.148 68.9201 702.148C68.3601 702.148 67.8981 702.339 67.5341 702.722C67.1701 703.095 66.9881 703.599 66.9881 704.234C66.9881 704.869 67.1701 705.377 67.5341 705.76C67.8981 706.133 68.3601 706.32 68.9201 706.32Z" fill="#5F5E6E"/>
<path d="M18 668C18 676.837 25.1634 684 34 684H344C352.837 684 360 676.837 360 668V220C360 211.163 352.837 204 344 204H117.377C113.271 204 109.322 205.578 106.348 208.409L22.9707 287.745C19.7967 290.765 18 294.955 18 299.336V668Z" fill="#FBFEFD"/>
<path d="M284.754 178.2C285.622 178.2 286.373 178.345 287.008 178.634C287.652 178.923 288.146 179.334 288.492 179.866C288.837 180.398 289.01 181.028 289.01 181.756C289.01 182.475 288.837 183.105 288.492 183.646C288.146 184.178 287.652 184.589 287.008 184.878C286.373 185.158 285.622 185.298 284.754 185.298H282.78V188H280.512V178.2H284.754ZM284.628 183.45C285.309 183.45 285.827 183.305 286.182 183.016C286.536 182.717 286.714 182.297 286.714 181.756C286.714 181.205 286.536 180.785 286.182 180.496C285.827 180.197 285.309 180.048 284.628 180.048H282.78V183.45H284.628ZM290.475 180.468H292.659V188H290.475V180.468ZM291.567 179.418C291.165 179.418 290.839 179.301 290.587 179.068C290.335 178.835 290.209 178.545 290.209 178.2C290.209 177.855 290.335 177.565 290.587 177.332C290.839 177.099 291.165 176.982 291.567 176.982C291.968 176.982 292.295 177.094 292.547 177.318C292.799 177.542 292.925 177.822 292.925 178.158C292.925 178.522 292.799 178.825 292.547 179.068C292.295 179.301 291.968 179.418 291.567 179.418ZM297.724 180.356C298.89 180.356 299.786 180.636 300.412 181.196C301.037 181.747 301.35 182.582 301.35 183.702V188H299.306V187.062C298.895 187.762 298.13 188.112 297.01 188.112C296.431 188.112 295.927 188.014 295.498 187.818C295.078 187.622 294.756 187.351 294.532 187.006C294.308 186.661 294.196 186.269 294.196 185.83C294.196 185.13 294.457 184.579 294.98 184.178C295.512 183.777 296.328 183.576 297.43 183.576H299.166C299.166 183.1 299.021 182.736 298.732 182.484C298.442 182.223 298.008 182.092 297.43 182.092C297.028 182.092 296.632 182.157 296.24 182.288C295.857 182.409 295.53 182.577 295.26 182.792L294.476 181.266C294.886 180.977 295.376 180.753 295.946 180.594C296.524 180.435 297.117 180.356 297.724 180.356ZM297.556 186.642C297.929 186.642 298.26 186.558 298.55 186.39C298.839 186.213 299.044 185.956 299.166 185.62V184.85H297.668C296.772 184.85 296.324 185.144 296.324 185.732C296.324 186.012 296.431 186.236 296.646 186.404C296.87 186.563 297.173 186.642 297.556 186.642ZM307.048 188.112C306.246 188.112 305.522 187.949 304.878 187.622C304.244 187.286 303.744 186.824 303.38 186.236C303.026 185.648 302.848 184.981 302.848 184.234C302.848 183.487 303.026 182.82 303.38 182.232C303.744 181.644 304.244 181.187 304.878 180.86C305.522 180.524 306.246 180.356 307.048 180.356C307.842 180.356 308.532 180.524 309.12 180.86C309.718 181.187 310.152 181.658 310.422 182.274L308.728 183.184C308.336 182.493 307.772 182.148 307.034 182.148C306.465 182.148 305.994 182.335 305.62 182.708C305.247 183.081 305.06 183.59 305.06 184.234C305.06 184.878 305.247 185.387 305.62 185.76C305.994 186.133 306.465 186.32 307.034 186.32C307.781 186.32 308.346 185.975 308.728 185.284L310.422 186.208C310.152 186.805 309.718 187.272 309.12 187.608C308.532 187.944 307.842 188.112 307.048 188.112ZM318.962 184.262C318.962 184.29 318.948 184.486 318.92 184.85H313.222C313.325 185.317 313.568 185.685 313.95 185.956C314.333 186.227 314.809 186.362 315.378 186.362C315.77 186.362 316.116 186.306 316.414 186.194C316.722 186.073 317.007 185.886 317.268 185.634L318.43 186.894C317.721 187.706 316.685 188.112 315.322 188.112C314.473 188.112 313.722 187.949 313.068 187.622C312.415 187.286 311.911 186.824 311.556 186.236C311.202 185.648 311.024 184.981 311.024 184.234C311.024 183.497 311.197 182.834 311.542 182.246C311.897 181.649 312.378 181.187 312.984 180.86C313.6 180.524 314.286 180.356 315.042 180.356C315.78 180.356 316.447 180.515 317.044 180.832C317.642 181.149 318.108 181.607 318.444 182.204C318.79 182.792 318.962 183.478 318.962 184.262ZM315.056 182.008C314.562 182.008 314.146 182.148 313.81 182.428C313.474 182.708 313.269 183.091 313.194 183.576H316.904C316.83 183.1 316.624 182.722 316.288 182.442C315.952 182.153 315.542 182.008 315.056 182.008ZM327.755 180.468L324.577 188H322.323L319.159 180.468H321.413L323.499 185.592L325.655 180.468H327.755ZM332.026 188.112C331.232 188.112 330.518 187.949 329.884 187.622C329.258 187.286 328.768 186.824 328.414 186.236C328.059 185.648 327.882 184.981 327.882 184.234C327.882 183.487 328.059 182.82 328.414 182.232C328.768 181.644 329.258 181.187 329.884 180.86C330.518 180.524 331.232 180.356 332.026 180.356C332.819 180.356 333.528 180.524 334.154 180.86C334.779 181.187 335.269 181.644 335.624 182.232C335.978 182.82 336.156 183.487 336.156 184.234C336.156 184.981 335.978 185.648 335.624 186.236C335.269 186.824 334.779 187.286 334.154 187.622C333.528 187.949 332.819 188.112 332.026 188.112ZM332.026 186.32C332.586 186.32 333.043 186.133 333.398 185.76C333.762 185.377 333.944 184.869 333.944 184.234C333.944 183.599 333.762 183.095 333.398 182.722C333.043 182.339 332.586 182.148 332.026 182.148C331.466 182.148 331.004 182.339 330.64 182.722C330.276 183.095 330.094 183.599 330.094 184.234C330.094 184.869 330.276 185.377 330.64 185.76C331.004 186.133 331.466 186.32 332.026 186.32ZM337.615 177.612H339.799V188H337.615V177.612ZM349.204 184.262C349.204 184.29 349.19 184.486 349.162 184.85H343.464C343.567 185.317 343.81 185.685 344.192 185.956C344.575 186.227 345.051 186.362 345.62 186.362C346.012 186.362 346.358 186.306 346.656 186.194C346.964 186.073 347.249 185.886 347.51 185.634L348.672 186.894C347.963 187.706 346.927 188.112 345.564 188.112C344.715 188.112 343.964 187.949 343.31 187.622C342.657 187.286 342.153 186.824 341.798 186.236C341.444 185.648 341.266 184.981 341.266 184.234C341.266 183.497 341.439 182.834 341.784 182.246C342.139 181.649 342.62 181.187 343.226 180.86C343.842 180.524 344.528 180.356 345.284 180.356C346.022 180.356 346.689 180.515 347.286 180.832C347.884 181.149 348.35 181.607 348.686 182.204C349.032 182.792 349.204 183.478 349.204 184.262ZM345.298 182.008C344.804 182.008 344.388 182.148 344.052 182.428C343.716 182.708 343.511 183.091 343.436 183.576H347.146C347.072 183.1 346.866 182.722 346.53 182.442C346.194 182.153 345.784 182.008 345.298 182.008Z" fill="#5F5E6E"/>
<path d="M34.5 207L125.5 298M125.5 298L105.5 318V356M125.5 298L162 334.5M221 393.5H256L277 414.5V494M221 393.5L162 334.5M221 393.5L131 494V613.5M162 334.5H271.5L292.5 313.5V276" stroke="#C1DDC8" stroke-width="7" stroke-linejoin="bevel"/>
<g filter="url(#filter0_d)">
<path d="M49 373C49 361.954 57.9543 353 69 353H149C160.046 353 169 361.954 169 373V381C169 392.046 160.046 401 149 401H69C57.9543 401 49 392.046 49 381V373Z" fill="#BFF7A1"/>
<path d="M73.7892 382.168C73.0146 382.168 72.2632 382.065 71.5352 381.86C70.8166 381.645 70.2379 381.37 69.7992 381.034L70.5692 379.326C70.9892 379.634 71.4886 379.881 72.0672 380.068C72.6459 380.255 73.2246 380.348 73.8032 380.348C74.4472 380.348 74.9232 380.255 75.2312 380.068C75.5392 379.872 75.6932 379.615 75.6932 379.298C75.6932 379.065 75.5999 378.873 75.4132 378.724C75.2359 378.565 75.0026 378.439 74.7132 378.346C74.4332 378.253 74.0506 378.15 73.5652 378.038C72.8186 377.861 72.2072 377.683 71.7312 377.506C71.2552 377.329 70.8446 377.044 70.4992 376.652C70.1632 376.26 69.9952 375.737 69.9952 375.084C69.9952 374.515 70.1492 374.001 70.4572 373.544C70.7652 373.077 71.2272 372.709 71.8432 372.438C72.4686 372.167 73.2292 372.032 74.1252 372.032C74.7506 372.032 75.3619 372.107 75.9592 372.256C76.5566 372.405 77.0792 372.62 77.5272 372.9L76.8272 374.622C75.9219 374.109 75.0166 373.852 74.1112 373.852C73.4766 373.852 73.0052 373.955 72.6972 374.16C72.3986 374.365 72.2492 374.636 72.2492 374.972C72.2492 375.308 72.4219 375.56 72.7672 375.728C73.1219 375.887 73.6586 376.045 74.3772 376.204C75.1239 376.381 75.7352 376.559 76.2112 376.736C76.6872 376.913 77.0932 377.193 77.4292 377.576C77.7746 377.959 77.9472 378.477 77.9472 379.13C77.9472 379.69 77.7886 380.203 77.4712 380.67C77.1632 381.127 76.6966 381.491 76.0712 381.762C75.4459 382.033 74.6852 382.168 73.7892 382.168ZM83.795 374.356C84.495 374.356 85.1296 374.519 85.699 374.846C86.2776 375.163 86.7303 375.616 87.057 376.204C87.3836 376.783 87.547 377.459 87.547 378.234C87.547 379.009 87.3836 379.69 87.057 380.278C86.7303 380.857 86.2776 381.309 85.699 381.636C85.1296 381.953 84.495 382.112 83.795 382.112C82.8336 382.112 82.0776 381.809 81.527 381.202V384.716H79.343V374.468H81.429V375.336C81.9703 374.683 82.759 374.356 83.795 374.356ZM83.417 380.32C83.977 380.32 84.4343 380.133 84.789 379.76C85.153 379.377 85.335 378.869 85.335 378.234C85.335 377.599 85.153 377.095 84.789 376.722C84.4343 376.339 83.977 376.148 83.417 376.148C82.857 376.148 82.395 376.339 82.031 376.722C81.6763 377.095 81.499 377.599 81.499 378.234C81.499 378.869 81.6763 379.377 82.031 379.76C82.395 380.133 82.857 380.32 83.417 380.32ZM96.387 378.262C96.387 378.29 96.373 378.486 96.345 378.85H90.647C90.7496 379.317 90.9923 379.685 91.375 379.956C91.7576 380.227 92.2336 380.362 92.803 380.362C93.195 380.362 93.5403 380.306 93.839 380.194C94.147 380.073 94.4316 379.886 94.693 379.634L95.855 380.894C95.1456 381.706 94.1096 382.112 92.747 382.112C91.8976 382.112 91.1463 381.949 90.493 381.622C89.8396 381.286 89.3356 380.824 88.981 380.236C88.6263 379.648 88.449 378.981 88.449 378.234C88.449 377.497 88.6216 376.834 88.967 376.246C89.3216 375.649 89.8023 375.187 90.409 374.86C91.025 374.524 91.711 374.356 92.467 374.356C93.2043 374.356 93.8716 374.515 94.469 374.832C95.0663 375.149 95.533 375.607 95.869 376.204C96.2143 376.792 96.387 377.478 96.387 378.262ZM92.481 376.008C91.9863 376.008 91.571 376.148 91.235 376.428C90.899 376.708 90.6936 377.091 90.619 377.576H94.329C94.2543 377.1 94.049 376.722 93.713 376.442C93.377 376.153 92.9663 376.008 92.481 376.008ZM102.419 374.356C103.352 374.356 104.104 374.636 104.673 375.196C105.252 375.756 105.541 376.587 105.541 377.688V382H103.357V378.024C103.357 377.427 103.226 376.983 102.965 376.694C102.704 376.395 102.326 376.246 101.831 376.246C101.28 376.246 100.842 376.419 100.515 376.764C100.188 377.1 100.025 377.604 100.025 378.276V382H97.841V374.468H99.927V375.35C100.216 375.033 100.576 374.79 101.005 374.622C101.434 374.445 101.906 374.356 102.419 374.356ZM110.055 382.112C109.429 382.112 108.818 382.037 108.221 381.888C107.623 381.729 107.147 381.533 106.793 381.3L107.521 379.732C107.857 379.947 108.263 380.124 108.739 380.264C109.215 380.395 109.681 380.46 110.139 380.46C111.063 380.46 111.525 380.231 111.525 379.774C111.525 379.559 111.399 379.405 111.147 379.312C110.895 379.219 110.507 379.139 109.985 379.074C109.369 378.981 108.86 378.873 108.459 378.752C108.057 378.631 107.707 378.416 107.409 378.108C107.119 377.8 106.975 377.361 106.975 376.792C106.975 376.316 107.11 375.896 107.381 375.532C107.661 375.159 108.062 374.869 108.585 374.664C109.117 374.459 109.742 374.356 110.461 374.356C110.993 374.356 111.52 374.417 112.043 374.538C112.575 374.65 113.013 374.809 113.359 375.014L112.631 376.568C111.968 376.195 111.245 376.008 110.461 376.008C109.994 376.008 109.644 376.073 109.411 376.204C109.177 376.335 109.061 376.503 109.061 376.708C109.061 376.941 109.187 377.105 109.439 377.198C109.691 377.291 110.092 377.38 110.643 377.464C111.259 377.567 111.763 377.679 112.155 377.8C112.547 377.912 112.887 378.122 113.177 378.43C113.466 378.738 113.611 379.167 113.611 379.718C113.611 380.185 113.471 380.6 113.191 380.964C112.911 381.328 112.5 381.613 111.959 381.818C111.427 382.014 110.792 382.112 110.055 382.112ZM114.958 374.468H117.142V382H114.958V374.468ZM116.05 373.418C115.649 373.418 115.322 373.301 115.07 373.068C114.818 372.835 114.692 372.545 114.692 372.2C114.692 371.855 114.818 371.565 115.07 371.332C115.322 371.099 115.649 370.982 116.05 370.982C116.452 370.982 116.778 371.094 117.03 371.318C117.282 371.542 117.408 371.822 117.408 372.158C117.408 372.522 117.282 372.825 117.03 373.068C116.778 373.301 116.452 373.418 116.05 373.418ZM126.547 378.262C126.547 378.29 126.533 378.486 126.505 378.85H120.807C120.91 379.317 121.152 379.685 121.535 379.956C121.918 380.227 122.394 380.362 122.963 380.362C123.355 380.362 123.7 380.306 123.999 380.194C124.307 380.073 124.592 379.886 124.853 379.634L126.015 380.894C125.306 381.706 124.27 382.112 122.907 382.112C122.058 382.112 121.306 381.949 120.653 381.622C120 381.286 119.496 380.824 119.141 380.236C118.786 379.648 118.609 378.981 118.609 378.234C118.609 377.497 118.782 376.834 119.127 376.246C119.482 375.649 119.962 375.187 120.569 374.86C121.185 374.524 121.871 374.356 122.627 374.356C123.364 374.356 124.032 374.515 124.629 374.832C125.226 375.149 125.693 375.607 126.029 376.204C126.374 376.792 126.547 377.478 126.547 378.262ZM122.641 376.008C122.146 376.008 121.731 376.148 121.395 376.428C121.059 376.708 120.854 377.091 120.779 377.576H124.489C124.414 377.1 124.209 376.722 123.873 376.442C123.537 376.153 123.126 376.008 122.641 376.008ZM130.087 375.462C130.348 375.098 130.698 374.823 131.137 374.636C131.585 374.449 132.098 374.356 132.677 374.356V376.372C132.434 376.353 132.271 376.344 132.187 376.344C131.562 376.344 131.072 376.521 130.717 376.876C130.362 377.221 130.185 377.744 130.185 378.444V382H128.001V374.468H130.087V375.462ZM136.973 374.356C138.139 374.356 139.035 374.636 139.661 375.196C140.286 375.747 140.599 376.582 140.599 377.702V382H138.555V381.062C138.144 381.762 137.379 382.112 136.259 382.112C135.68 382.112 135.176 382.014 134.747 381.818C134.327 381.622 134.005 381.351 133.781 381.006C133.557 380.661 133.445 380.269 133.445 379.83C133.445 379.13 133.706 378.579 134.229 378.178C134.761 377.777 135.577 377.576 136.679 377.576H138.415C138.415 377.1 138.27 376.736 137.981 376.484C137.691 376.223 137.257 376.092 136.679 376.092C136.277 376.092 135.881 376.157 135.489 376.288C135.106 376.409 134.779 376.577 134.509 376.792L133.725 375.266C134.135 374.977 134.625 374.753 135.195 374.594C135.773 374.435 136.366 374.356 136.973 374.356ZM136.805 380.642C137.178 380.642 137.509 380.558 137.799 380.39C138.088 380.213 138.293 379.956 138.415 379.62V378.85H136.917C136.021 378.85 135.573 379.144 135.573 379.732C135.573 380.012 135.68 380.236 135.895 380.404C136.119 380.563 136.422 380.642 136.805 380.642ZM147.433 381.636C147.219 381.795 146.953 381.916 146.635 382C146.327 382.075 146.001 382.112 145.655 382.112C144.759 382.112 144.064 381.883 143.569 381.426C143.084 380.969 142.841 380.297 142.841 379.41V376.316H141.679V374.636H142.841V372.802H145.025V374.636H146.901V376.316H145.025V379.382C145.025 379.699 145.105 379.947 145.263 380.124C145.431 380.292 145.665 380.376 145.963 380.376C146.309 380.376 146.603 380.283 146.845 380.096L147.433 381.636ZM152.011 382.112C151.218 382.112 150.504 381.949 149.869 381.622C149.244 381.286 148.754 380.824 148.399 380.236C148.044 379.648 147.867 378.981 147.867 378.234C147.867 377.487 148.044 376.82 148.399 376.232C148.754 375.644 149.244 375.187 149.869 374.86C150.504 374.524 151.218 374.356 152.011 374.356C152.804 374.356 153.514 374.524 154.139 374.86C154.764 375.187 155.254 375.644 155.609 376.232C155.964 376.82 156.141 377.487 156.141 378.234C156.141 378.981 155.964 379.648 155.609 380.236C155.254 380.824 154.764 381.286 154.139 381.622C153.514 381.949 152.804 382.112 152.011 382.112ZM152.011 380.32C152.571 380.32 153.028 380.133 153.383 379.76C153.747 379.377 153.929 378.869 153.929 378.234C153.929 377.599 153.747 377.095 153.383 376.722C153.028 376.339 152.571 376.148 152.011 376.148C151.451 376.148 150.989 376.339 150.625 376.722C150.261 377.095 150.079 377.599 150.079 378.234C150.079 378.869 150.261 379.377 150.625 379.76C150.989 380.133 151.451 380.32 152.011 380.32Z" fill="#272631"/>
<circle cx="44" cy="377" r="20" fill="url(#paint0_linear)"/>
<circle cx="44" cy="377" r="16" fill="white"/>
<path d="M43.9984 386.081C49.0134 386.081 53.0789 382.015 53.0789 377C53.0789 371.985 49.0134 367.92 43.9984 367.92C38.9834 367.92 34.918 371.985 34.918 377C34.918 382.015 38.9834 386.081 43.9984 386.081Z" fill="url(#paint1_linear)"/>
</g>
<g filter="url(#filter1_d)">
<path d="M232 256C232 244.954 240.954 236 252 236H332C343.046 236 352 244.954 352 256V264C352 275.046 343.046 284 332 284H252C240.954 284 232 275.046 232 264V256Z" fill="#BFF7A1"/>
<path d="M266.457 265L264.567 262.27H264.455H262.481V265H260.213V255.2H264.455C265.323 255.2 266.074 255.345 266.709 255.634C267.353 255.923 267.847 256.334 268.193 256.866C268.538 257.398 268.711 258.028 268.711 258.756C268.711 259.484 268.533 260.114 268.179 260.646C267.833 261.169 267.339 261.57 266.695 261.85L268.893 265H266.457ZM266.415 258.756C266.415 258.205 266.237 257.785 265.883 257.496C265.528 257.197 265.01 257.048 264.329 257.048H262.481V260.464H264.329C265.01 260.464 265.528 260.315 265.883 260.016C266.237 259.717 266.415 259.297 266.415 258.756ZM270.354 257.468H272.538V265H270.354V257.468ZM271.446 256.418C271.044 256.418 270.718 256.301 270.466 256.068C270.214 255.835 270.088 255.545 270.088 255.2C270.088 254.855 270.214 254.565 270.466 254.332C270.718 254.099 271.044 253.982 271.446 253.982C271.847 253.982 272.174 254.094 272.426 254.318C272.678 254.542 272.804 254.822 272.804 255.158C272.804 255.522 272.678 255.825 272.426 256.068C272.174 256.301 271.847 256.418 271.446 256.418ZM274.565 254.612H276.749V265H274.565V254.612ZM281.814 257.356C282.98 257.356 283.876 257.636 284.502 258.196C285.127 258.747 285.44 259.582 285.44 260.702V265H283.396V264.062C282.985 264.762 282.22 265.112 281.1 265.112C280.521 265.112 280.017 265.014 279.588 264.818C279.168 264.622 278.846 264.351 278.622 264.006C278.398 263.661 278.286 263.269 278.286 262.83C278.286 262.13 278.547 261.579 279.07 261.178C279.602 260.777 280.418 260.576 281.52 260.576H283.256C283.256 260.1 283.111 259.736 282.822 259.484C282.532 259.223 282.098 259.092 281.52 259.092C281.118 259.092 280.722 259.157 280.33 259.288C279.947 259.409 279.62 259.577 279.35 259.792L278.566 258.266C278.976 257.977 279.466 257.753 280.036 257.594C280.614 257.435 281.207 257.356 281.814 257.356ZM281.646 263.642C282.019 263.642 282.35 263.558 282.64 263.39C282.929 263.213 283.134 262.956 283.256 262.62V261.85H281.758C280.862 261.85 280.414 262.144 280.414 262.732C280.414 263.012 280.521 263.236 280.736 263.404C280.96 263.563 281.263 263.642 281.646 263.642ZM289.95 265.112C289.325 265.112 288.714 265.037 288.116 264.888C287.519 264.729 287.043 264.533 286.688 264.3L287.416 262.732C287.752 262.947 288.158 263.124 288.634 263.264C289.11 263.395 289.577 263.46 290.034 263.46C290.958 263.46 291.42 263.231 291.42 262.774C291.42 262.559 291.294 262.405 291.042 262.312C290.79 262.219 290.403 262.139 289.88 262.074C289.264 261.981 288.756 261.873 288.354 261.752C287.953 261.631 287.603 261.416 287.304 261.108C287.015 260.8 286.87 260.361 286.87 259.792C286.87 259.316 287.006 258.896 287.276 258.532C287.556 258.159 287.958 257.869 288.48 257.664C289.012 257.459 289.638 257.356 290.356 257.356C290.888 257.356 291.416 257.417 291.938 257.538C292.47 257.65 292.909 257.809 293.254 258.014L292.526 259.568C291.864 259.195 291.14 259.008 290.356 259.008C289.89 259.008 289.54 259.073 289.306 259.204C289.073 259.335 288.956 259.503 288.956 259.708C288.956 259.941 289.082 260.105 289.334 260.198C289.586 260.291 289.988 260.38 290.538 260.464C291.154 260.567 291.658 260.679 292.05 260.8C292.442 260.912 292.783 261.122 293.072 261.43C293.362 261.738 293.506 262.167 293.506 262.718C293.506 263.185 293.366 263.6 293.086 263.964C292.806 264.328 292.396 264.613 291.854 264.818C291.322 265.014 290.688 265.112 289.95 265.112ZM297.388 265.112C296.762 265.112 296.151 265.037 295.554 264.888C294.956 264.729 294.48 264.533 294.126 264.3L294.854 262.732C295.19 262.947 295.596 263.124 296.072 263.264C296.548 263.395 297.014 263.46 297.472 263.46C298.396 263.46 298.858 263.231 298.858 262.774C298.858 262.559 298.732 262.405 298.48 262.312C298.228 262.219 297.84 262.139 297.318 262.074C296.702 261.981 296.193 261.873 295.792 261.752C295.39 261.631 295.04 261.416 294.742 261.108C294.452 260.8 294.308 260.361 294.308 259.792C294.308 259.316 294.443 258.896 294.714 258.532C294.994 258.159 295.395 257.869 295.918 257.664C296.45 257.459 297.075 257.356 297.794 257.356C298.326 257.356 298.853 257.417 299.376 257.538C299.908 257.65 300.346 257.809 300.692 258.014L299.964 259.568C299.301 259.195 298.578 259.008 297.794 259.008C297.327 259.008 296.977 259.073 296.744 259.204C296.51 259.335 296.394 259.503 296.394 259.708C296.394 259.941 296.52 260.105 296.772 260.198C297.024 260.291 297.425 260.38 297.976 260.464C298.592 260.567 299.096 260.679 299.488 260.8C299.88 260.912 300.22 261.122 300.51 261.43C300.799 261.738 300.944 262.167 300.944 262.718C300.944 263.185 300.804 263.6 300.524 263.964C300.244 264.328 299.833 264.613 299.292 264.818C298.76 265.014 298.125 265.112 297.388 265.112ZM305.329 257.356C306.496 257.356 307.392 257.636 308.017 258.196C308.643 258.747 308.955 259.582 308.955 260.702V265H306.911V264.062C306.501 264.762 305.735 265.112 304.615 265.112C304.037 265.112 303.533 265.014 303.103 264.818C302.683 264.622 302.361 264.351 302.137 264.006C301.913 263.661 301.801 263.269 301.801 262.83C301.801 262.13 302.063 261.579 302.585 261.178C303.117 260.777 303.934 260.576 305.035 260.576H306.771C306.771 260.1 306.627 259.736 306.337 259.484C306.048 259.223 305.614 259.092 305.035 259.092C304.634 259.092 304.237 259.157 303.845 259.288C303.463 259.409 303.136 259.577 302.865 259.792L302.081 258.266C302.492 257.977 302.982 257.753 303.551 257.594C304.13 257.435 304.723 257.356 305.329 257.356ZM305.161 263.642C305.535 263.642 305.866 263.558 306.155 263.39C306.445 263.213 306.65 262.956 306.771 262.62V261.85H305.273C304.377 261.85 303.929 262.144 303.929 262.732C303.929 263.012 304.037 263.236 304.251 263.404C304.475 263.563 304.779 263.642 305.161 263.642ZM315.79 264.636C315.575 264.795 315.309 264.916 314.992 265C314.684 265.075 314.357 265.112 314.012 265.112C313.116 265.112 312.42 264.883 311.926 264.426C311.44 263.969 311.198 263.297 311.198 262.41V259.316H310.036V257.636H311.198V255.802H313.382V257.636H315.258V259.316H313.382V262.382C313.382 262.699 313.461 262.947 313.62 263.124C313.788 263.292 314.021 263.376 314.32 263.376C314.665 263.376 314.959 263.283 315.202 263.096L315.79 264.636ZM320.367 265.112C319.574 265.112 318.86 264.949 318.225 264.622C317.6 264.286 317.11 263.824 316.755 263.236C316.401 262.648 316.223 261.981 316.223 261.234C316.223 260.487 316.401 259.82 316.755 259.232C317.11 258.644 317.6 258.187 318.225 257.86C318.86 257.524 319.574 257.356 320.367 257.356C321.161 257.356 321.87 257.524 322.495 257.86C323.121 258.187 323.611 258.644 323.965 259.232C324.32 259.82 324.497 260.487 324.497 261.234C324.497 261.981 324.32 262.648 323.965 263.236C323.611 263.824 323.121 264.286 322.495 264.622C321.87 264.949 321.161 265.112 320.367 265.112ZM320.367 263.32C320.927 263.32 321.385 263.133 321.739 262.76C322.103 262.377 322.285 261.869 322.285 261.234C322.285 260.599 322.103 260.095 321.739 259.722C321.385 259.339 320.927 259.148 320.367 259.148C319.807 259.148 319.345 259.339 318.981 259.722C318.617 260.095 318.435 260.599 318.435 261.234C318.435 261.869 318.617 262.377 318.981 262.76C319.345 263.133 319.807 263.32 320.367 263.32Z" fill="#272631"/>
<circle cx="227" cy="260" r="20" fill="url(#paint2_linear)"/>
<circle cx="227" cy="260" r="16" fill="white"/>
<path d="M226.998 269.081C232.013 269.081 236.079 265.015 236.079 260C236.079 254.985 232.013 250.92 226.998 250.92C221.983 250.92 217.918 254.985 217.918 260C217.918 265.015 221.983 269.081 226.998 269.081Z" fill="url(#paint3_linear)"/>
</g>
<g filter="url(#filter2_d)">
<path d="M73 623C73 611.954 81.9543 603 93 603H173C184.046 603 193 611.954 193 623V631C193 642.046 184.046 651 173 651H93C81.9543 651 73 642.046 73 631V623Z" fill="#BFF7A1"/>
<path d="M115.35 632.168C114.351 632.168 113.446 631.953 112.634 631.524C111.831 631.085 111.197 630.483 110.73 629.718C110.273 628.943 110.044 628.071 110.044 627.1C110.044 626.129 110.273 625.261 110.73 624.496C111.197 623.721 111.831 623.119 112.634 622.69C113.446 622.251 114.356 622.032 115.364 622.032C116.213 622.032 116.979 622.181 117.66 622.48C118.351 622.779 118.929 623.208 119.396 623.768L117.94 625.112C117.277 624.347 116.456 623.964 115.476 623.964C114.869 623.964 114.328 624.099 113.852 624.37C113.376 624.631 113.003 625 112.732 625.476C112.471 625.952 112.34 626.493 112.34 627.1C112.34 627.707 112.471 628.248 112.732 628.724C113.003 629.2 113.376 629.573 113.852 629.844C114.328 630.105 114.869 630.236 115.476 630.236C116.456 630.236 117.277 629.849 117.94 629.074L119.396 630.418C118.929 630.987 118.351 631.421 117.66 631.72C116.969 632.019 116.199 632.168 115.35 632.168ZM123.757 624.356C124.924 624.356 125.82 624.636 126.445 625.196C127.07 625.747 127.383 626.582 127.383 627.702V632H125.339V631.062C124.928 631.762 124.163 632.112 123.043 632.112C122.464 632.112 121.96 632.014 121.531 631.818C121.111 631.622 120.789 631.351 120.565 631.006C120.341 630.661 120.229 630.269 120.229 629.83C120.229 629.13 120.49 628.579 121.013 628.178C121.545 627.777 122.362 627.576 123.463 627.576H125.199C125.199 627.1 125.054 626.736 124.765 626.484C124.476 626.223 124.042 626.092 123.463 626.092C123.062 626.092 122.665 626.157 122.273 626.288C121.89 626.409 121.564 626.577 121.293 626.792L120.509 625.266C120.92 624.977 121.41 624.753 121.979 624.594C122.558 624.435 123.15 624.356 123.757 624.356ZM123.589 630.642C123.962 630.642 124.294 630.558 124.583 630.39C124.872 630.213 125.078 629.956 125.199 629.62V628.85H123.701C122.805 628.85 122.357 629.144 122.357 629.732C122.357 630.012 122.464 630.236 122.679 630.404C122.903 630.563 123.206 630.642 123.589 630.642ZM129.36 621.612H131.544V632H129.36V621.612ZM143.217 624.356C144.159 624.356 144.906 624.636 145.457 625.196C146.017 625.747 146.297 626.577 146.297 627.688V632H144.113V628.024C144.113 627.427 143.987 626.983 143.735 626.694C143.492 626.395 143.142 626.246 142.685 626.246C142.171 626.246 141.765 626.414 141.467 626.75C141.168 627.077 141.019 627.567 141.019 628.22V632H138.835V628.024C138.835 626.839 138.359 626.246 137.407 626.246C136.903 626.246 136.501 626.414 136.203 626.75C135.904 627.077 135.755 627.567 135.755 628.22V632H133.571V624.468H135.657V625.336C135.937 625.019 136.277 624.776 136.678 624.608C137.089 624.44 137.537 624.356 138.023 624.356C138.555 624.356 139.035 624.463 139.465 624.678C139.894 624.883 140.239 625.187 140.501 625.588C140.809 625.196 141.196 624.893 141.663 624.678C142.139 624.463 142.657 624.356 143.217 624.356ZM151.92 632.112C151.127 632.112 150.413 631.949 149.778 631.622C149.153 631.286 148.663 630.824 148.308 630.236C147.953 629.648 147.776 628.981 147.776 628.234C147.776 627.487 147.953 626.82 148.308 626.232C148.663 625.644 149.153 625.187 149.778 624.86C150.413 624.524 151.127 624.356 151.92 624.356C152.713 624.356 153.423 624.524 154.048 624.86C154.673 625.187 155.163 625.644 155.518 626.232C155.873 626.82 156.05 627.487 156.05 628.234C156.05 628.981 155.873 629.648 155.518 630.236C155.163 630.824 154.673 631.286 154.048 631.622C153.423 631.949 152.713 632.112 151.92 632.112ZM151.92 630.32C152.48 630.32 152.937 630.133 153.292 629.76C153.656 629.377 153.838 628.869 153.838 628.234C153.838 627.599 153.656 627.095 153.292 626.722C152.937 626.339 152.48 626.148 151.92 626.148C151.36 626.148 150.898 626.339 150.534 626.722C150.17 627.095 149.988 627.599 149.988 628.234C149.988 628.869 150.17 629.377 150.534 629.76C150.898 630.133 151.36 630.32 151.92 630.32Z" fill="#272631"/>
<circle cx="68" cy="627" r="20" fill="url(#paint4_linear)"/>
<circle cx="68" cy="627" r="16" fill="white"/>
<path d="M67.9984 636.081C73.0134 636.081 77.0789 632.015 77.0789 627C77.0789 621.985 73.0134 617.92 67.9984 617.92C62.9834 617.92 58.918 621.985 58.918 627C58.918 632.015 62.9834 636.081 67.9984 636.081Z" fill="url(#paint5_linear)"/>
</g>
<g filter="url(#filter3_d)">
<rect x="221" y="486" width="120" height="48" rx="20" fill="#BFF7A1"/>
<path d="M259.665 515.168C258.891 515.168 258.139 515.065 257.411 514.86C256.693 514.645 256.114 514.37 255.675 514.034L256.445 512.326C256.865 512.634 257.365 512.881 257.943 513.068C258.522 513.255 259.101 513.348 259.679 513.348C260.323 513.348 260.799 513.255 261.107 513.068C261.415 512.872 261.569 512.615 261.569 512.298C261.569 512.065 261.476 511.873 261.289 511.724C261.112 511.565 260.879 511.439 260.589 511.346C260.309 511.253 259.927 511.15 259.441 511.038C258.695 510.861 258.083 510.683 257.607 510.506C257.131 510.329 256.721 510.044 256.375 509.652C256.039 509.26 255.871 508.737 255.871 508.084C255.871 507.515 256.025 507.001 256.333 506.544C256.641 506.077 257.103 505.709 257.719 505.438C258.345 505.167 259.105 505.032 260.001 505.032C260.627 505.032 261.238 505.107 261.835 505.256C262.433 505.405 262.955 505.62 263.403 505.9L262.703 507.622C261.798 507.109 260.893 506.852 259.987 506.852C259.353 506.852 258.881 506.955 258.573 507.16C258.275 507.365 258.125 507.636 258.125 507.972C258.125 508.308 258.298 508.56 258.643 508.728C258.998 508.887 259.535 509.045 260.253 509.204C261 509.381 261.611 509.559 262.087 509.736C262.563 509.913 262.969 510.193 263.305 510.576C263.651 510.959 263.823 511.477 263.823 512.13C263.823 512.69 263.665 513.203 263.347 513.67C263.039 514.127 262.573 514.491 261.947 514.762C261.322 515.033 260.561 515.168 259.665 515.168ZM272.597 511.262C272.597 511.29 272.583 511.486 272.555 511.85H266.857C266.96 512.317 267.202 512.685 267.585 512.956C267.968 513.227 268.444 513.362 269.013 513.362C269.405 513.362 269.75 513.306 270.049 513.194C270.357 513.073 270.642 512.886 270.903 512.634L272.065 513.894C271.356 514.706 270.32 515.112 268.957 515.112C268.108 515.112 267.356 514.949 266.703 514.622C266.05 514.286 265.546 513.824 265.191 513.236C264.836 512.648 264.659 511.981 264.659 511.234C264.659 510.497 264.832 509.834 265.177 509.246C265.532 508.649 266.012 508.187 266.619 507.86C267.235 507.524 267.921 507.356 268.677 507.356C269.414 507.356 270.082 507.515 270.679 507.832C271.276 508.149 271.743 508.607 272.079 509.204C272.424 509.792 272.597 510.478 272.597 511.262ZM268.691 509.008C268.196 509.008 267.781 509.148 267.445 509.428C267.109 509.708 266.904 510.091 266.829 510.576H270.539C270.464 510.1 270.259 509.722 269.923 509.442C269.587 509.153 269.176 509.008 268.691 509.008ZM276.137 508.462C276.398 508.098 276.748 507.823 277.187 507.636C277.635 507.449 278.148 507.356 278.727 507.356V509.372C278.484 509.353 278.321 509.344 278.237 509.344C277.612 509.344 277.122 509.521 276.767 509.876C276.412 510.221 276.235 510.744 276.235 511.444V515H274.051V507.468H276.137V508.462ZM287.335 511.262C287.335 511.29 287.321 511.486 287.293 511.85H281.595C281.698 512.317 281.941 512.685 282.323 512.956C282.706 513.227 283.182 513.362 283.751 513.362C284.143 513.362 284.489 513.306 284.787 513.194C285.095 513.073 285.38 512.886 285.641 512.634L286.803 513.894C286.094 514.706 285.058 515.112 283.695 515.112C282.846 515.112 282.095 514.949 281.441 514.622C280.788 514.286 280.284 513.824 279.929 513.236C279.575 512.648 279.397 511.981 279.397 511.234C279.397 510.497 279.57 509.834 279.915 509.246C280.27 508.649 280.751 508.187 281.357 507.86C281.973 507.524 282.659 507.356 283.415 507.356C284.153 507.356 284.82 507.515 285.417 507.832C286.015 508.149 286.481 508.607 286.817 509.204C287.163 509.792 287.335 510.478 287.335 511.262ZM283.429 509.008C282.935 509.008 282.519 509.148 282.183 509.428C281.847 509.708 281.642 510.091 281.567 510.576H285.277C285.203 510.1 284.997 509.722 284.661 509.442C284.325 509.153 283.915 509.008 283.429 509.008ZM293.367 507.356C294.301 507.356 295.052 507.636 295.621 508.196C296.2 508.756 296.489 509.587 296.489 510.688V515H294.305V511.024C294.305 510.427 294.175 509.983 293.913 509.694C293.652 509.395 293.274 509.246 292.779 509.246C292.229 509.246 291.79 509.419 291.463 509.764C291.137 510.1 290.973 510.604 290.973 511.276V515H288.789V507.468H290.875V508.35C291.165 508.033 291.524 507.79 291.953 507.622C292.383 507.445 292.854 507.356 293.367 507.356ZM302.135 515.112C301.342 515.112 300.628 514.949 299.993 514.622C299.368 514.286 298.878 513.824 298.523 513.236C298.168 512.648 297.991 511.981 297.991 511.234C297.991 510.487 298.168 509.82 298.523 509.232C298.878 508.644 299.368 508.187 299.993 507.86C300.628 507.524 301.342 507.356 302.135 507.356C302.928 507.356 303.638 507.524 304.263 507.86C304.888 508.187 305.378 508.644 305.733 509.232C306.088 509.82 306.265 510.487 306.265 511.234C306.265 511.981 306.088 512.648 305.733 513.236C305.378 513.824 304.888 514.286 304.263 514.622C303.638 514.949 302.928 515.112 302.135 515.112ZM302.135 513.32C302.695 513.32 303.152 513.133 303.507 512.76C303.871 512.377 304.053 511.869 304.053 511.234C304.053 510.599 303.871 510.095 303.507 509.722C303.152 509.339 302.695 509.148 302.135 509.148C301.575 509.148 301.113 509.339 300.749 509.722C300.385 510.095 300.203 510.599 300.203 511.234C300.203 511.869 300.385 512.377 300.749 512.76C301.113 513.133 301.575 513.32 302.135 513.32Z" fill="#272631"/>
<circle cx="216" cy="510" r="20" fill="url(#paint6_linear)"/>
<circle cx="216" cy="510" r="16" fill="white"/>
<path d="M215.998 519.081C221.013 519.081 225.079 515.015 225.079 510C225.079 504.985 221.013 500.92 215.998 500.92C210.983 500.92 206.918 504.985 206.918 510C206.918 515.015 210.983 519.081 215.998 519.081Z" fill="url(#paint7_linear)"/>
</g>
<rect x="16" y="96" width="344" height="64" rx="16" fill="#FBFEFD"/>
<path d="M75.6179 136.288C73.9059 136.288 72.3539 135.92 70.9619 135.184C69.5859 134.432 68.4979 133.4 67.6979 132.088C66.9139 130.76 66.5219 129.264 66.5219 127.6C66.5219 125.936 66.9139 124.448 67.6979 123.136C68.4979 121.808 69.5859 120.776 70.9619 120.04C72.3539 119.288 73.9139 118.912 75.6419 118.912C77.0979 118.912 78.4099 119.168 79.5779 119.68C80.7619 120.192 81.7539 120.928 82.5539 121.888L80.0579 124.192C78.9219 122.88 77.5139 122.224 75.8339 122.224C74.7939 122.224 73.8659 122.456 73.0499 122.92C72.2339 123.368 71.5939 124 71.1299 124.816C70.6819 125.632 70.4579 126.56 70.4579 127.6C70.4579 128.64 70.6819 129.568 71.1299 130.384C71.5939 131.2 72.2339 131.84 73.0499 132.304C73.8659 132.752 74.7939 132.976 75.8339 132.976C77.5139 132.976 78.9219 132.312 80.0579 130.984L82.5539 133.288C81.7539 134.264 80.7619 135.008 79.5779 135.52C78.3939 136.032 77.0739 136.288 75.6179 136.288ZM90.6142 136.192C89.2542 136.192 88.0302 135.912 86.9422 135.352C85.8702 134.776 85.0302 133.984 84.4222 132.976C83.8142 131.968 83.5102 130.824 83.5102 129.544C83.5102 128.264 83.8142 127.12 84.4222 126.112C85.0302 125.104 85.8702 124.32 86.9422 123.76C88.0302 123.184 89.2542 122.896 90.6142 122.896C91.9742 122.896 93.1902 123.184 94.2622 123.76C95.3342 124.32 96.1742 125.104 96.7822 126.112C97.3902 127.12 97.6942 128.264 97.6942 129.544C97.6942 130.824 97.3902 131.968 96.7822 132.976C96.1742 133.984 95.3342 134.776 94.2622 135.352C93.1902 135.912 91.9742 136.192 90.6142 136.192ZM90.6142 133.12C91.5742 133.12 92.3582 132.8 92.9662 132.16C93.5902 131.504 93.9022 130.632 93.9022 129.544C93.9022 128.456 93.5902 127.592 92.9662 126.952C92.3582 126.296 91.5742 125.968 90.6142 125.968C89.6542 125.968 88.8622 126.296 88.2382 126.952C87.6142 127.592 87.3022 128.456 87.3022 129.544C87.3022 130.632 87.6142 131.504 88.2382 132.16C88.8622 132.8 89.6542 133.12 90.6142 133.12ZM116.733 122.896C118.349 122.896 119.629 123.376 120.573 124.336C121.533 125.28 122.013 126.704 122.013 128.608V136H118.269V129.184C118.269 128.16 118.053 127.4 117.621 126.904C117.205 126.392 116.605 126.136 115.821 126.136C114.941 126.136 114.245 126.424 113.733 127C113.221 127.56 112.965 128.4 112.965 129.52V136H109.221V129.184C109.221 127.152 108.405 126.136 106.773 126.136C105.909 126.136 105.221 126.424 104.709 127C104.197 127.56 103.941 128.4 103.941 129.52V136H100.197V123.088H103.773V124.576C104.253 124.032 104.837 123.616 105.525 123.328C106.229 123.04 106.997 122.896 107.829 122.896C108.741 122.896 109.565 123.08 110.301 123.448C111.037 123.8 111.629 124.32 112.077 125.008C112.605 124.336 113.269 123.816 114.069 123.448C114.885 123.08 115.773 122.896 116.733 122.896ZM138.157 129.592C138.157 129.64 138.133 129.976 138.085 130.6H128.317C128.493 131.4 128.909 132.032 129.565 132.496C130.221 132.96 131.037 133.192 132.013 133.192C132.685 133.192 133.277 133.096 133.789 132.904C134.317 132.696 134.805 132.376 135.253 131.944L137.245 134.104C136.029 135.496 134.253 136.192 131.917 136.192C130.461 136.192 129.173 135.912 128.053 135.352C126.933 134.776 126.069 133.984 125.461 132.976C124.853 131.968 124.549 130.824 124.549 129.544C124.549 128.28 124.845 127.144 125.437 126.136C126.045 125.112 126.869 124.32 127.909 123.76C128.965 123.184 130.141 122.896 131.437 122.896C132.701 122.896 133.845 123.168 134.869 123.712C135.893 124.256 136.693 125.04 137.269 126.064C137.861 127.072 138.157 128.248 138.157 129.592ZM131.461 125.728C130.613 125.728 129.901 125.968 129.325 126.448C128.749 126.928 128.397 127.584 128.269 128.416H134.629C134.501 127.6 134.149 126.952 133.573 126.472C132.997 125.976 132.293 125.728 131.461 125.728ZM155.775 135.376C155.407 135.648 154.951 135.856 154.407 136C153.879 136.128 153.319 136.192 152.727 136.192C151.191 136.192 149.999 135.8 149.151 135.016C148.319 134.232 147.903 133.08 147.903 131.56V126.256H145.911V123.376H147.903V120.232H151.647V123.376H154.863V126.256H151.647V131.512C151.647 132.056 151.783 132.48 152.055 132.784C152.343 133.072 152.743 133.216 153.255 133.216C153.847 133.216 154.351 133.056 154.767 132.736L155.775 135.376ZM157.876 123.088H161.62V136H157.876V123.088ZM159.748 121.288C159.06 121.288 158.5 121.088 158.068 120.688C157.636 120.288 157.42 119.792 157.42 119.2C157.42 118.608 157.636 118.112 158.068 117.712C158.5 117.312 159.06 117.112 159.748 117.112C160.436 117.112 160.996 117.304 161.428 117.688C161.86 118.072 162.076 118.552 162.076 119.128C162.076 119.752 161.86 120.272 161.428 120.688C160.996 121.088 160.436 121.288 159.748 121.288ZM176.236 136.192C175.164 136.192 174.116 136.064 173.092 135.808C172.068 135.536 171.252 135.2 170.644 134.8L171.892 132.112C172.468 132.48 173.164 132.784 173.98 133.024C174.796 133.248 175.596 133.36 176.38 133.36C177.964 133.36 178.756 132.968 178.756 132.184C178.756 131.816 178.54 131.552 178.108 131.392C177.676 131.232 177.012 131.096 176.116 130.984C175.06 130.824 174.188 130.64 173.5 130.432C172.812 130.224 172.212 129.856 171.7 129.328C171.204 128.8 170.956 128.048 170.956 127.072C170.956 126.256 171.188 125.536 171.652 124.912C172.132 124.272 172.82 123.776 173.716 123.424C174.628 123.072 175.7 122.896 176.932 122.896C177.844 122.896 178.748 123 179.644 123.208C180.556 123.4 181.308 123.672 181.9 124.024L180.652 126.688C179.516 126.048 178.276 125.728 176.932 125.728C176.132 125.728 175.532 125.84 175.132 126.064C174.732 126.288 174.532 126.576 174.532 126.928C174.532 127.328 174.748 127.608 175.18 127.768C175.612 127.928 176.3 128.08 177.244 128.224C178.3 128.4 179.164 128.592 179.836 128.8C180.508 128.992 181.092 129.352 181.588 129.88C182.084 130.408 182.332 131.144 182.332 132.088C182.332 132.888 182.092 133.6 181.612 134.224C181.132 134.848 180.428 135.336 179.5 135.688C178.588 136.024 177.5 136.192 176.236 136.192ZM197.29 129.592C197.29 129.64 197.266 129.976 197.218 130.6H187.45C187.626 131.4 188.042 132.032 188.698 132.496C189.354 132.96 190.17 133.192 191.146 133.192C191.818 133.192 192.41 133.096 192.922 132.904C193.45 132.696 193.938 132.376 194.386 131.944L196.378 134.104C195.162 135.496 193.386 136.192 191.05 136.192C189.594 136.192 188.306 135.912 187.186 135.352C186.066 134.776 185.202 133.984 184.594 132.976C183.986 131.968 183.682 130.824 183.682 129.544C183.682 128.28 183.978 127.144 184.57 126.136C185.178 125.112 186.002 124.32 187.042 123.76C188.098 123.184 189.274 122.896 190.57 122.896C191.834 122.896 192.978 123.168 194.002 123.712C195.026 124.256 195.826 125.04 196.402 126.064C196.994 127.072 197.29 128.248 197.29 129.592ZM190.594 125.728C189.746 125.728 189.034 125.968 188.458 126.448C187.882 126.928 187.53 127.584 187.402 128.416H193.762C193.634 127.6 193.282 126.952 192.706 126.472C192.13 125.976 191.426 125.728 190.594 125.728ZM207.631 122.896C209.231 122.896 210.519 123.376 211.495 124.336C212.487 125.296 212.983 126.72 212.983 128.608V136H209.239V129.184C209.239 128.16 209.015 127.4 208.567 126.904C208.119 126.392 207.471 126.136 206.623 126.136C205.679 126.136 204.927 126.432 204.367 127.024C203.807 127.6 203.527 128.464 203.527 129.616V136H199.783V123.088H203.359V124.6C203.855 124.056 204.471 123.64 205.207 123.352C205.943 123.048 206.751 122.896 207.631 122.896ZM224.704 135.376C224.336 135.648 223.88 135.856 223.336 136C222.808 136.128 222.248 136.192 221.656 136.192C220.12 136.192 218.928 135.8 218.08 135.016C217.248 134.232 216.832 133.08 216.832 131.56V126.256H214.84V123.376H216.832V120.232H220.576V123.376H223.792V126.256H220.576V131.512C220.576 132.056 220.712 132.48 220.984 132.784C221.272 133.072 221.672 133.216 222.184 133.216C222.776 133.216 223.28 133.056 223.696 132.736L224.704 135.376ZM226.806 123.088H230.55V136H226.806V123.088ZM228.678 121.288C227.99 121.288 227.43 121.088 226.998 120.688C226.566 120.288 226.35 119.792 226.35 119.2C226.35 118.608 226.566 118.112 226.998 117.712C227.43 117.312 227.99 117.112 228.678 117.112C229.366 117.112 229.926 117.304 230.358 117.688C230.79 118.072 231.006 118.552 231.006 119.128C231.006 119.752 230.79 120.272 230.358 120.688C229.926 121.088 229.366 121.288 228.678 121.288ZM246.966 136.192C245.606 136.192 244.382 135.912 243.294 135.352C242.222 134.776 241.382 133.984 240.774 132.976C240.166 131.968 239.862 130.824 239.862 129.544C239.862 128.264 240.166 127.12 240.774 126.112C241.382 125.104 242.222 124.32 243.294 123.76C244.382 123.184 245.606 122.896 246.966 122.896C248.326 122.896 249.542 123.184 250.614 123.76C251.686 124.32 252.526 125.104 253.134 126.112C253.742 127.12 254.046 128.264 254.046 129.544C254.046 130.824 253.742 131.968 253.134 132.976C252.526 133.984 251.686 134.776 250.614 135.352C249.542 135.912 248.326 136.192 246.966 136.192ZM246.966 133.12C247.926 133.12 248.71 132.8 249.318 132.16C249.942 131.504 250.254 130.632 250.254 129.544C250.254 128.456 249.942 127.592 249.318 126.952C248.71 126.296 247.926 125.968 246.966 125.968C246.006 125.968 245.214 126.296 244.59 126.952C243.966 127.592 243.654 128.456 243.654 129.544C243.654 130.632 243.966 131.504 244.59 132.16C245.214 132.8 246.006 133.12 246.966 133.12ZM269.868 123.088V133.84C269.868 136.208 269.252 137.968 268.02 139.12C266.788 140.272 264.988 140.848 262.62 140.848C261.372 140.848 260.188 140.696 259.068 140.392C257.948 140.088 257.02 139.648 256.284 139.072L257.772 136.384C258.316 136.832 259.004 137.184 259.836 137.44C260.668 137.712 261.5 137.848 262.332 137.848C263.628 137.848 264.58 137.552 265.188 136.96C265.812 136.384 266.124 135.504 266.124 134.32V133.768C265.148 134.84 263.788 135.376 262.044 135.376C260.86 135.376 259.772 135.12 258.78 134.608C257.804 134.08 257.028 133.344 256.452 132.4C255.876 131.456 255.588 130.368 255.588 129.136C255.588 127.904 255.876 126.816 256.452 125.872C257.028 124.928 257.804 124.2 258.78 123.688C259.772 123.16 260.86 122.896 262.044 122.896C263.916 122.896 265.34 123.512 266.316 124.744V123.088H269.868ZM262.788 132.304C263.78 132.304 264.588 132.016 265.212 131.44C265.852 130.848 266.172 130.08 266.172 129.136C266.172 128.192 265.852 127.432 265.212 126.856C264.588 126.264 263.78 125.968 262.788 125.968C261.796 125.968 260.98 126.264 260.34 126.856C259.7 127.432 259.38 128.192 259.38 129.136C259.38 130.08 259.7 130.848 260.34 131.44C260.98 132.016 261.796 132.304 262.788 132.304ZM286.673 123.088V133.84C286.673 136.208 286.057 137.968 284.825 139.12C283.593 140.272 281.793 140.848 279.425 140.848C278.177 140.848 276.993 140.696 275.873 140.392C274.753 140.088 273.825 139.648 273.089 139.072L274.577 136.384C275.121 136.832 275.809 137.184 276.641 137.44C277.473 137.712 278.305 137.848 279.137 137.848C280.433 137.848 281.385 137.552 281.993 136.96C282.617 136.384 282.929 135.504 282.929 134.32V133.768C281.953 134.84 280.593 135.376 278.849 135.376C277.665 135.376 276.577 135.12 275.585 134.608C274.609 134.08 273.833 133.344 273.257 132.4C272.681 131.456 272.393 130.368 272.393 129.136C272.393 127.904 272.681 126.816 273.257 125.872C273.833 124.928 274.609 124.2 275.585 123.688C276.577 123.16 277.665 122.896 278.849 122.896C280.721 122.896 282.145 123.512 283.121 124.744V123.088H286.673ZM279.593 132.304C280.585 132.304 281.393 132.016 282.017 131.44C282.657 130.848 282.977 130.08 282.977 129.136C282.977 128.192 282.657 127.432 282.017 126.856C281.393 126.264 280.585 125.968 279.593 125.968C278.601 125.968 277.785 126.264 277.145 126.856C276.505 127.432 276.185 128.192 276.185 129.136C276.185 130.08 276.505 130.848 277.145 131.44C277.785 132.016 278.601 132.304 279.593 132.304ZM290.158 123.088H293.902V136H290.158V123.088ZM292.03 121.288C291.342 121.288 290.782 121.088 290.35 120.688C289.918 120.288 289.702 119.792 289.702 119.2C289.702 118.608 289.918 118.112 290.35 117.712C290.782 117.312 291.342 117.112 292.03 117.112C292.718 117.112 293.278 117.304 293.71 117.688C294.142 118.072 294.358 118.552 294.358 119.128C294.358 119.752 294.142 120.272 293.71 120.688C293.278 121.088 292.718 121.288 292.03 121.288ZM301.489 130.168C301.489 129.336 301.673 128.648 302.041 128.104C302.425 127.56 302.977 126.96 303.697 126.304C304.225 125.824 304.609 125.424 304.849 125.104C305.105 124.768 305.233 124.392 305.233 123.976C305.233 123.384 304.993 122.92 304.513 122.584C304.049 122.232 303.425 122.056 302.641 122.056C301.889 122.056 301.217 122.216 300.625 122.536C300.049 122.84 299.561 123.272 299.161 123.832L296.257 122.128C296.929 121.104 297.833 120.312 298.969 119.752C300.121 119.192 301.481 118.912 303.049 118.912C304.889 118.912 306.361 119.304 307.465 120.088C308.585 120.872 309.145 121.96 309.145 123.352C309.145 124.008 309.033 124.584 308.809 125.08C308.601 125.576 308.337 126 308.017 126.352C307.713 126.688 307.313 127.08 306.817 127.528C306.225 128.056 305.793 128.504 305.521 128.872C305.249 129.224 305.113 129.656 305.113 130.168H301.489ZM303.313 136.192C302.657 136.192 302.105 135.984 301.657 135.568C301.225 135.136 301.009 134.616 301.009 134.008C301.009 133.4 301.225 132.896 301.657 132.496C302.089 132.08 302.641 131.872 303.313 131.872C303.985 131.872 304.537 132.08 304.969 132.496C305.401 132.896 305.617 133.4 305.617 134.008C305.617 134.616 305.393 135.136 304.945 135.568C304.513 135.984 303.969 136.192 303.313 136.192Z" fill="#272631"/>
<g filter="url(#filter4_d)">
<rect x="-8.25781" y="73.8105" width="134.884" height="134.884" rx="8" transform="rotate(45 -8.25781 73.8105)" fill="#EBF7EE"/>
</g>
<g filter="url(#filter5_d)">
<path d="M0 744H376V812H0V744Z" fill="#FBFEFD"/>
<rect x="120" y="795" width="136" height="5" rx="2.5" fill="#DBF0E0"/>
<circle cx="188" cy="756" r="26" fill="#FF624C" stroke="#FBFEFD" stroke-width="4"/>
</g>
<path d="M54.1643 787.37C54.571 787.483 54.891 787.69 55.1243 787.99C55.3576 788.283 55.4743 788.657 55.4743 789.11C55.4743 789.717 55.2443 790.183 54.7843 790.51C54.331 790.837 53.6676 791 52.7943 791H49.4543V784H52.5943C53.3943 784 54.011 784.16 54.4443 784.48C54.8843 784.8 55.1043 785.243 55.1043 785.81C55.1043 786.177 55.0176 786.493 54.8443 786.76C54.6776 787.027 54.451 787.23 54.1643 787.37ZM50.4543 784.81V787.05H52.5043C53.0176 787.05 53.411 786.957 53.6843 786.77C53.9643 786.577 54.1043 786.297 54.1043 785.93C54.1043 785.563 53.9643 785.287 53.6843 785.1C53.411 784.907 53.0176 784.81 52.5043 784.81H50.4543ZM52.7543 790.19C53.321 790.19 53.7476 790.097 54.0343 789.91C54.321 789.723 54.4643 789.43 54.4643 789.03C54.4643 788.25 53.8943 787.86 52.7543 787.86H50.4543V790.19H52.7543ZM61.4827 789.25H57.7627L56.9927 791H55.9627L59.1327 784H60.1227L63.3027 791H62.2527L61.4827 789.25ZM61.1327 788.45L59.6227 785.02L58.1127 788.45H61.1327ZM67.3792 791.08C66.6792 791.08 66.0459 790.927 65.4792 790.62C64.9192 790.307 64.4792 789.88 64.1592 789.34C63.8392 788.793 63.6792 788.18 63.6792 787.5C63.6792 786.82 63.8392 786.21 64.1592 785.67C64.4792 785.123 64.9226 784.697 65.4892 784.39C66.0559 784.077 66.6892 783.92 67.3892 783.92C67.9359 783.92 68.4359 784.013 68.8892 784.2C69.3426 784.38 69.7292 784.65 70.0492 785.01L69.3992 785.64C68.8726 785.087 68.2159 784.81 67.4292 784.81C66.9092 784.81 66.4392 784.927 66.0192 785.16C65.5992 785.393 65.2692 785.717 65.0292 786.13C64.7959 786.537 64.6792 786.993 64.6792 787.5C64.6792 788.007 64.7959 788.467 65.0292 788.88C65.2692 789.287 65.5992 789.607 66.0192 789.84C66.4392 790.073 66.9092 790.19 67.4292 790.19C68.2092 790.19 68.8659 789.91 69.3992 789.35L70.0492 789.98C69.7292 790.34 69.3392 790.613 68.8792 790.8C68.4259 790.987 67.9259 791.08 67.3792 791.08ZM77.4958 784V791H76.4958V787.88H72.4758V791H71.4758V784H72.4758V787.01H76.4958V784H77.4958ZM84.671 790.13V791H79.591V784H84.531V784.87H80.591V787.02H84.101V787.87H80.591V790.13H84.671ZM89.3909 791.08C88.6909 791.08 88.0576 790.927 87.4909 790.62C86.9309 790.307 86.4909 789.88 86.1709 789.34C85.8509 788.793 85.6909 788.18 85.6909 787.5C85.6909 786.82 85.8509 786.21 86.1709 785.67C86.4909 785.123 86.9343 784.697 87.5009 784.39C88.0676 784.077 88.7009 783.92 89.4009 783.92C89.9476 783.92 90.4476 784.013 90.9009 784.2C91.3543 784.38 91.7409 784.65 92.0609 785.01L91.4109 785.64C90.8843 785.087 90.2276 784.81 89.4409 784.81C88.9209 784.81 88.4509 784.927 88.0309 785.16C87.6109 785.393 87.2809 785.717 87.0409 786.13C86.8076 786.537 86.6909 786.993 86.6909 787.5C86.6909 788.007 86.8076 788.467 87.0409 788.88C87.2809 789.287 87.6109 789.607 88.0309 789.84C88.4509 790.073 88.9209 790.19 89.4409 790.19C90.2209 790.19 90.8776 789.91 91.4109 789.35L92.0609 789.98C91.7409 790.34 91.3509 790.613 90.8909 790.8C90.4376 790.987 89.9376 791.08 89.3909 791.08ZM97.7815 789.25H94.0615L93.2915 791H92.2615L95.4315 784H96.4215L99.6015 791H98.5515L97.7815 789.25ZM97.4315 788.45L95.9215 785.02L94.4115 788.45H97.4315Z" fill="#60A986"/>
<path d="M289.932 787.37C290.339 787.483 290.659 787.69 290.892 787.99C291.125 788.283 291.242 788.657 291.242 789.11C291.242 789.717 291.012 790.183 290.552 790.51C290.099 790.837 289.435 791 288.562 791H285.222V784H288.362C289.162 784 289.779 784.16 290.212 784.48C290.652 784.8 290.872 785.243 290.872 785.81C290.872 786.177 290.785 786.493 290.612 786.76C290.445 787.027 290.219 787.23 289.932 787.37ZM286.222 784.81V787.05H288.272C288.785 787.05 289.179 786.957 289.452 786.77C289.732 786.577 289.872 786.297 289.872 785.93C289.872 785.563 289.732 785.287 289.452 785.1C289.179 784.907 288.785 784.81 288.272 784.81H286.222ZM288.522 790.19C289.089 790.19 289.515 790.097 289.802 789.91C290.089 789.723 290.232 789.43 290.232 789.03C290.232 788.25 289.662 787.86 288.522 787.86H286.222V790.19H288.522ZM295.95 791.08C295.244 791.08 294.607 790.927 294.04 790.62C293.474 790.307 293.027 789.877 292.7 789.33C292.38 788.783 292.22 788.173 292.22 787.5C292.22 786.827 292.38 786.217 292.7 785.67C293.027 785.123 293.474 784.697 294.04 784.39C294.607 784.077 295.244 783.92 295.95 783.92C296.65 783.92 297.284 784.077 297.85 784.39C298.417 784.697 298.86 785.123 299.18 785.67C299.5 786.21 299.66 786.82 299.66 787.5C299.66 788.18 299.5 788.793 299.18 789.34C298.86 789.88 298.417 790.307 297.85 790.62C297.284 790.927 296.65 791.08 295.95 791.08ZM295.95 790.19C296.464 790.19 296.924 790.073 297.33 789.84C297.744 789.607 298.067 789.287 298.3 788.88C298.54 788.467 298.66 788.007 298.66 787.5C298.66 786.993 298.54 786.537 298.3 786.13C298.067 785.717 297.744 785.393 297.33 785.16C296.924 784.927 296.464 784.81 295.95 784.81C295.437 784.81 294.97 784.927 294.55 785.16C294.137 785.393 293.81 785.717 293.57 786.13C293.337 786.537 293.22 786.993 293.22 787.5C293.22 788.007 293.337 788.467 293.57 788.88C293.81 789.287 294.137 789.607 294.55 789.84C294.97 790.073 295.437 790.19 295.95 790.19ZM303.229 791.08C302.702 791.08 302.192 791 301.699 790.84C301.212 790.673 300.829 790.46 300.549 790.2L300.919 789.42C301.185 789.66 301.525 789.857 301.939 790.01C302.359 790.157 302.789 790.23 303.229 790.23C303.809 790.23 304.242 790.133 304.529 789.94C304.815 789.74 304.959 789.477 304.959 789.15C304.959 788.91 304.879 788.717 304.719 788.57C304.565 788.417 304.372 788.3 304.139 788.22C303.912 788.14 303.589 788.05 303.169 787.95C302.642 787.823 302.215 787.697 301.889 787.57C301.569 787.443 301.292 787.25 301.059 786.99C300.832 786.723 300.719 786.367 300.719 785.92C300.719 785.547 300.815 785.21 301.009 784.91C301.209 784.61 301.509 784.37 301.909 784.19C302.309 784.01 302.805 783.92 303.399 783.92C303.812 783.92 304.219 783.973 304.619 784.08C305.019 784.187 305.362 784.34 305.649 784.54L305.319 785.34C305.025 785.153 304.712 785.013 304.379 784.92C304.045 784.82 303.719 784.77 303.399 784.77C302.832 784.77 302.405 784.873 302.119 785.08C301.839 785.287 301.699 785.553 301.699 785.88C301.699 786.12 301.779 786.317 301.939 786.47C302.099 786.617 302.295 786.733 302.529 786.82C302.769 786.9 303.092 786.987 303.499 787.08C304.025 787.207 304.449 787.333 304.769 787.46C305.089 787.587 305.362 787.78 305.589 788.04C305.822 788.3 305.939 788.65 305.939 789.09C305.939 789.457 305.839 789.793 305.639 790.1C305.439 790.4 305.135 790.64 304.729 790.82C304.322 790.993 303.822 791.08 303.229 791.08ZM310.53 791.08C309.83 791.08 309.196 790.927 308.63 790.62C308.07 790.307 307.63 789.88 307.31 789.34C306.99 788.793 306.83 788.18 306.83 787.5C306.83 786.82 306.99 786.21 307.31 785.67C307.63 785.123 308.073 784.697 308.64 784.39C309.206 784.077 309.84 783.92 310.54 783.92C311.086 783.92 311.586 784.013 312.04 784.2C312.493 784.38 312.88 784.65 313.2 785.01L312.55 785.64C312.023 785.087 311.366 784.81 310.58 784.81C310.06 784.81 309.59 784.927 309.17 785.16C308.75 785.393 308.42 785.717 308.18 786.13C307.946 786.537 307.83 786.993 307.83 787.5C307.83 788.007 307.946 788.467 308.18 788.88C308.42 789.287 308.75 789.607 309.17 789.84C309.59 790.073 310.06 790.19 310.58 790.19C311.36 790.19 312.016 789.91 312.55 789.35L313.2 789.98C312.88 790.34 312.49 790.613 312.03 790.8C311.576 790.987 311.076 791.08 310.53 791.08ZM317.64 791.08C316.933 791.08 316.296 790.927 315.73 790.62C315.163 790.307 314.716 789.877 314.39 789.33C314.07 788.783 313.91 788.173 313.91 787.5C313.91 786.827 314.07 786.217 314.39 785.67C314.716 785.123 315.163 784.697 315.73 784.39C316.296 784.077 316.933 783.92 317.64 783.92C318.34 783.92 318.973 784.077 319.54 784.39C320.106 784.697 320.55 785.123 320.87 785.67C321.19 786.21 321.35 786.82 321.35 787.5C321.35 788.18 321.19 788.793 320.87 789.34C320.55 789.88 320.106 790.307 319.54 790.62C318.973 790.927 318.34 791.08 317.64 791.08ZM317.64 790.19C318.153 790.19 318.613 790.073 319.02 789.84C319.433 789.607 319.756 789.287 319.99 788.88C320.23 788.467 320.35 788.007 320.35 787.5C320.35 786.993 320.23 786.537 319.99 786.13C319.756 785.717 319.433 785.393 319.02 785.16C318.613 784.927 318.153 784.81 317.64 784.81C317.126 784.81 316.66 784.927 316.24 785.16C315.826 785.393 315.5 785.717 315.26 786.13C315.026 786.537 314.91 786.993 314.91 787.5C314.91 788.007 315.026 788.467 315.26 788.88C315.5 789.287 315.826 789.607 316.24 789.84C316.66 790.073 317.126 790.19 317.64 790.19Z" fill="#60A986"/>
<path d="M66 765H72C72.2652 765 72.5196 764.895 72.7071 764.707C72.8946 764.52 73 764.265 73 764V756C73 755.735 72.8946 755.48 72.7071 755.293C72.5196 755.105 72.2652 755 72 755H66C65.7348 755 65.4804 755.105 65.2929 755.293C65.1054 755.48 65 755.735 65 756V764C65 764.265 65.1054 764.52 65.2929 764.707C65.4804 764.895 65.7348 765 66 765ZM65 772C65 772.265 65.1054 772.52 65.2929 772.707C65.4804 772.895 65.7348 773 66 773H72C72.2652 773 72.5196 772.895 72.7071 772.707C72.8946 772.52 73 772.265 73 772V768C73 767.735 72.8946 767.48 72.7071 767.293C72.5196 767.105 72.2652 767 72 767H66C65.7348 767 65.4804 767.105 65.2929 767.293C65.1054 767.48 65 767.735 65 768V772ZM75 772C75 772.265 75.1054 772.52 75.2929 772.707C75.4804 772.895 75.7348 773 76 773H82C82.2652 773 82.5196 772.895 82.7071 772.707C82.8946 772.52 83 772.265 83 772V765C83 764.735 82.8946 764.48 82.7071 764.293C82.5196 764.105 82.2652 764 82 764H76C75.7348 764 75.4804 764.105 75.2929 764.293C75.1054 764.48 75 764.735 75 765V772ZM76 762H82C82.2652 762 82.5196 761.895 82.7071 761.707C82.8946 761.52 83 761.265 83 761V756C83 755.735 82.8946 755.48 82.7071 755.293C82.5196 755.105 82.2652 755 82 755H76C75.7348 755 75.4804 755.105 75.2929 755.293C75.1054 755.48 75 755.735 75 756V761C75 761.265 75.1054 761.52 75.2929 761.707C75.4804 761.895 75.7348 762 76 762Z" fill="#60A986"/>
<path d="M316.588 760.475C316.353 759.244 315.776 758.12 314.964 757.229C314.802 757.05 314.621 756.872 314.441 756.711L310.435 752.751C310.129 752.448 309.605 752.448 309.299 752.751L305.473 756.533C305.149 756.8 304.842 757.104 304.571 757.425C303.849 758.281 303.344 759.316 303.11 760.457C303.001 761.1 302.965 761.778 303.038 762.473C303.38 765.666 306.43 768.432 309.659 768.521C313.539 768.628 316.714 765.559 316.714 761.742C316.714 761.314 316.678 760.886 316.588 760.475Z" fill="#60A986"/>
<path d="M295 760.523C295 756.105 298.582 752.523 303 752.523C307.418 752.523 311 756.105 311 760.523C311 764.942 307.418 768.523 303 768.523C298.582 768.523 295 764.942 295 760.523Z" fill="#FBFEFD"/>
<path fill-rule="evenodd" clip-rule="evenodd" d="M303 755.19C300.054 755.19 297.667 757.578 297.667 760.523C297.667 763.469 300.054 765.857 303 765.857C305.946 765.857 308.333 763.469 308.333 760.523C308.333 757.578 305.946 755.19 303 755.19ZM303 752.523C298.582 752.523 295 756.105 295 760.523C295 764.942 298.582 768.523 303 768.523C307.418 768.523 311 764.942 311 760.523C311 756.105 307.418 752.523 303 752.523Z" fill="#60A986"/>
<path d="M295.004 770.227C295.004 769.092 295.013 767.957 295 766.823C294.995 766.385 295.086 766.225 295.371 766.239C295.892 766.268 296.413 766.263 296.934 766.242C297.186 766.23 297.288 766.347 297.286 766.77C297.276 769.089 297.276 771.408 297.286 773.727C297.288 774.103 297.204 774.24 296.967 774.234C296.431 774.217 295.894 774.208 295.358 774.237C295.058 774.255 294.998 774.042 295.002 773.631C295.011 772.499 295.004 771.361 295.004 770.227Z" fill="#60A986"/>
<path d="M301.863 770.227C301.863 769.092 301.873 767.957 301.86 766.823C301.854 766.385 301.945 766.225 302.23 766.239C302.751 766.268 303.272 766.263 303.793 766.242C304.045 766.23 304.147 766.347 304.145 766.77C304.136 769.089 304.136 771.408 304.145 773.727C304.147 774.103 304.064 774.24 303.826 774.234C303.291 774.217 302.753 774.208 302.217 774.237C301.917 774.255 301.858 774.042 301.861 773.631C301.871 772.499 301.863 771.361 301.863 770.227Z" fill="#60A986"/>
<path d="M308.719 770.227C308.719 769.092 308.728 767.957 308.715 766.823C308.71 766.385 308.8 766.225 309.086 766.239C309.607 766.268 310.128 766.263 310.648 766.242C310.9 766.23 311.002 766.347 311.001 766.77C310.991 769.089 310.991 771.408 311.001 773.727C311.002 774.103 310.919 774.24 310.682 774.234C310.146 774.217 309.609 774.208 309.073 774.237C308.773 774.255 308.713 774.042 308.717 773.631C308.726 772.499 308.719 771.361 308.719 770.227Z" fill="#60A986"/>
<path d="M288.549 759.542L295.16 752.931C295.704 752.387 296.578 752.387 297.122 752.931L303.733 759.542C304.277 760.087 304.277 760.96 303.733 761.504L297.122 768.115C296.578 768.659 295.704 768.659 295.16 768.115L288.549 761.504C288.005 760.96 288.005 760.087 288.549 759.542Z" fill="#60A986"/>
<circle cx="188" cy="754" r="30" fill="#FF624C" stroke="#FBFEFD" stroke-width="4"/>
<path d="M184.002 763L178.168 757.167C177.518 756.517 176.485 756.517 175.835 757.167C175.185 757.817 175.185 758.85 175.835 759.5L182.818 766.484C183.468 767.134 184.518 767.134 185.168 766.484L202.835 748.834C203.485 748.184 203.485 747.15 202.835 746.5C202.185 745.85 201.152 745.85 200.502 746.5L184.002 763Z" fill="#FBFEFD"/>
<path d="M376 80L0 80L7.01247e-06 -2.26596e-06L376 3.05176e-05L376 80Z" fill="#007C5B"/>
<path d="M317.53 66.377H340.641C341.436 66.377 342.086 65.7395 342.086 64.9603C342.086 64.1811 341.436 63.5436 340.641 63.5436H317.53C316.736 63.5436 316.086 64.1811 316.086 64.9603C316.086 65.7395 316.736 66.377 317.53 66.377ZM317.53 59.2936H340.641C341.436 59.2936 342.086 58.6561 342.086 57.877C342.086 57.0978 341.436 56.4603 340.641 56.4603H317.53C316.736 56.4603 316.086 57.0978 316.086 57.877C316.086 58.6561 316.736 59.2936 317.53 59.2936ZM316.086 50.7936C316.086 51.5728 316.736 52.2103 317.53 52.2103H340.641C341.436 52.2103 342.086 51.5728 342.086 50.7936C342.086 50.0145 341.436 49.377 340.641 49.377H317.53C316.736 49.377 316.086 50.0145 316.086 50.7936Z" fill="#FBFEFD"/>
<path d="M94.0859 0H281.086V4C281.086 15.0457 272.132 24 261.086 24H114.086C103.04 24 94.0859 15.0457 94.0859 4V0Z" fill="#434343"/>
<path d="M30.4104 15.35C31.8504 15.35 32.9654 15.8 33.7554 16.7C34.5554 17.6 34.9554 18.89 34.9554 20.57C34.9554 21.75 34.7404 22.76 34.3104 23.6C33.8804 24.43 33.2754 25.065 32.4954 25.505C31.7254 25.935 30.8304 26.15 29.8104 26.15C29.2704 26.15 28.7604 26.095 28.2804 25.985C27.8104 25.865 27.4004 25.695 27.0504 25.475L27.7704 24.005C28.2904 24.345 28.9554 24.515 29.7654 24.515C30.7754 24.515 31.5654 24.205 32.1354 23.585C32.7054 22.965 32.9904 22.07 32.9904 20.9V20.885C32.6804 21.245 32.2854 21.52 31.8054 21.71C31.3254 21.89 30.7854 21.98 30.1854 21.98C29.4954 21.98 28.8754 21.85 28.3254 21.59C27.7754 21.32 27.3454 20.94 27.0354 20.45C26.7254 19.96 26.5704 19.395 26.5704 18.755C26.5704 18.075 26.7404 17.48 27.0804 16.97C27.4204 16.45 27.8804 16.05 28.4604 15.77C29.0404 15.49 29.6904 15.35 30.4104 15.35ZM30.5604 20.45C31.1904 20.45 31.7004 20.28 32.0904 19.94C32.4904 19.6 32.6904 19.17 32.6904 18.65C32.6904 18.14 32.4954 17.72 32.1054 17.39C31.7254 17.05 31.1954 16.88 30.5154 16.88C29.9054 16.88 29.4104 17.045 29.0304 17.375C28.6504 17.695 28.4604 18.125 28.4604 18.665C28.4604 19.215 28.6504 19.65 29.0304 19.97C29.4104 20.29 29.9204 20.45 30.5604 20.45ZM37.4447 20.39C37.1047 20.39 36.8147 20.275 36.5747 20.045C36.3347 19.805 36.2147 19.505 36.2147 19.145C36.2147 18.775 36.3297 18.475 36.5597 18.245C36.7997 18.015 37.0947 17.9 37.4447 17.9C37.7947 17.9 38.0847 18.015 38.3147 18.245C38.5547 18.475 38.6747 18.775 38.6747 19.145C38.6747 19.505 38.5547 19.805 38.3147 20.045C38.0747 20.275 37.7847 20.39 37.4447 20.39ZM37.4447 26.105C37.1047 26.105 36.8147 25.99 36.5747 25.76C36.3347 25.52 36.2147 25.22 36.2147 24.86C36.2147 24.49 36.3297 24.19 36.5597 23.96C36.7997 23.73 37.0947 23.615 37.4447 23.615C37.7947 23.615 38.0847 23.73 38.3147 23.96C38.5547 24.19 38.6747 24.49 38.6747 24.86C38.6747 25.22 38.5547 25.52 38.3147 25.76C38.0747 25.99 37.7847 26.105 37.4447 26.105ZM49.2969 23.615H47.4369V26H45.5469V23.615H39.7869V22.265L44.9619 15.5H47.0469L42.1719 21.965H45.6069V19.85H47.4369V21.965H49.2969V23.615ZM53.3667 15.5V26H51.4167V17.135H49.1967V15.5H53.3667Z" fill="#FBFEFD"/>
<rect x="288" y="22" width="3" height="5" rx="1" fill="#FBFEFD"/>
<rect x="293" y="20" width="3" height="7" rx="1" fill="#FBFEFD"/>
<rect x="298" y="18" width="3" height="9" rx="1" fill="#FBFEFD"/>
<rect x="303" y="16" width="3" height="11" rx="1" fill="#FBFEFD"/>
<rect x="332.5" y="16.5" width="20" height="10" rx="1.5" stroke="#FBFEFD"/>
<rect x="334" y="18.2002" width="16" height="6.6" rx="2" fill="#FBFEFD"/>
<path d="M355 19.2998H353V23.6998H355V19.2998Z" fill="#FBFEFD"/>
<path d="M319.501 15.7559C316.37 15.7559 313.423 16.9785 311.203 19.1985C311.104 19.297 311.104 19.4567 311.203 19.5552L312.868 21.2207C312.916 21.2681 312.98 21.2947 313.047 21.2947C313.114 21.2947 313.178 21.2681 313.225 21.2207C314.904 19.5417 317.133 18.6169 319.501 18.6169C321.869 18.6169 324.097 19.5417 325.776 21.2207C325.824 21.2681 325.888 21.2947 325.955 21.2947C326.022 21.2947 326.086 21.2681 326.133 21.2207L327.799 19.5552C327.846 19.5079 327.873 19.4438 327.873 19.3768C327.873 19.3099 327.846 19.2457 327.799 19.1984C325.579 16.9785 322.632 15.7559 319.501 15.7559Z" fill="#FBFEFD"/>
<path d="M319.499 20.1748C317.546 20.1748 315.708 20.9372 314.324 22.3217C314.277 22.369 314.25 22.4331 314.25 22.5001C314.25 22.567 314.276 22.6312 314.324 22.6785L315.989 24.3441C316.037 24.3914 316.101 24.418 316.168 24.418C316.235 24.418 316.299 24.3914 316.346 24.3441C317.19 23.5005 318.309 23.0359 319.499 23.0359C320.688 23.0359 321.808 23.5006 322.652 24.3441C322.699 24.3914 322.763 24.418 322.83 24.418C322.897 24.418 322.961 24.3914 323.008 24.3441L324.674 22.6785C324.772 22.58 324.772 22.4202 324.674 22.3218C323.29 20.9372 321.452 20.1748 319.499 20.1748Z" fill="#FBFEFD"/>
<path d="M319.5 24.8564C318.818 24.8564 318.177 25.122 317.695 25.6043C317.596 25.7029 317.596 25.8625 317.695 25.961L319.322 27.5883C319.369 27.6356 319.434 27.6622 319.5 27.6622C319.567 27.6622 319.632 27.6356 319.679 27.5883L321.306 25.961C321.404 25.8625 321.404 25.7028 321.306 25.6043C320.824 25.122 320.183 24.8564 319.5 24.8564Z" fill="#FBFEFD"/>
<path d="M43.6186 48.9896C43.1286 48.4996 42.3386 48.4996 41.8486 48.9896L33.5386 57.2996C33.1486 57.6896 33.1486 58.3196 33.5386 58.7096L41.8486 67.0196C42.3386 67.5096 43.1286 67.5096 43.6186 67.0196C44.1086 66.5296 44.1086 65.7396 43.6186 65.2496L36.3786 57.9996L43.6286 50.7496C44.1086 50.2696 44.1086 49.4696 43.6186 48.9896Z" fill="#FBFEFD"/>
<path d="M141.577 52.4V65H139.651L132.703 56.468V65H130.381V52.4H132.307L139.255 60.932V52.4H141.577ZM154.044 55.388V65H151.902V63.776C151.542 64.208 151.092 64.544 150.552 64.784C150.012 65.012 149.43 65.126 148.806 65.126C147.522 65.126 146.508 64.772 145.764 64.064C145.032 63.344 144.666 62.282 144.666 60.878V55.388H146.916V60.572C146.916 61.436 147.108 62.084 147.492 62.516C147.888 62.936 148.446 63.146 149.166 63.146C149.97 63.146 150.606 62.9 151.074 62.408C151.554 61.904 151.794 61.184 151.794 60.248V55.388H154.044ZM161.31 65.126C160.338 65.126 159.462 64.916 158.682 64.496C157.902 64.076 157.29 63.494 156.846 62.75C156.414 61.994 156.198 61.142 156.198 60.194C156.198 59.246 156.414 58.4 156.846 57.656C157.29 56.912 157.902 56.33 158.682 55.91C159.462 55.49 160.338 55.28 161.31 55.28C162.294 55.28 163.176 55.49 163.956 55.91C164.736 56.33 165.342 56.912 165.774 57.656C166.218 58.4 166.44 59.246 166.44 60.194C166.44 61.142 166.218 61.994 165.774 62.75C165.342 63.494 164.736 64.076 163.956 64.496C163.176 64.916 162.294 65.126 161.31 65.126ZM161.31 63.2C162.138 63.2 162.822 62.924 163.362 62.372C163.902 61.82 164.172 61.094 164.172 60.194C164.172 59.294 163.902 58.568 163.362 58.016C162.822 57.464 162.138 57.188 161.31 57.188C160.482 57.188 159.798 57.464 159.258 58.016C158.73 58.568 158.466 59.294 158.466 60.194C158.466 61.094 158.73 61.82 159.258 62.372C159.798 62.924 160.482 63.2 161.31 63.2ZM177.328 55.388L173.206 65H170.884L166.762 55.388H169.102L172.09 62.516L175.168 55.388H177.328ZM182.79 65.126C181.818 65.126 180.942 64.916 180.162 64.496C179.382 64.076 178.77 63.494 178.326 62.75C177.894 61.994 177.678 61.142 177.678 60.194C177.678 59.246 177.894 58.4 178.326 57.656C178.77 56.912 179.382 56.33 180.162 55.91C180.942 55.49 181.818 55.28 182.79 55.28C183.774 55.28 184.656 55.49 185.436 55.91C186.216 56.33 186.822 56.912 187.254 57.656C187.698 58.4 187.92 59.246 187.92 60.194C187.92 61.142 187.698 61.994 187.254 62.75C186.822 63.494 186.216 64.076 185.436 64.496C184.656 64.916 183.774 65.126 182.79 65.126ZM182.79 63.2C183.618 63.2 184.302 62.924 184.842 62.372C185.382 61.82 185.652 61.094 185.652 60.194C185.652 59.294 185.382 58.568 184.842 58.016C184.302 57.464 183.618 57.188 182.79 57.188C181.962 57.188 181.278 57.464 180.738 58.016C180.21 58.568 179.946 59.294 179.946 60.194C179.946 61.094 180.21 61.82 180.738 62.372C181.278 62.924 181.962 63.2 182.79 63.2ZM198.016 65.126C197.236 65.126 196.474 65.024 195.73 64.82C194.986 64.616 194.392 64.358 193.948 64.046L194.812 62.336C195.244 62.624 195.76 62.858 196.36 63.038C196.972 63.206 197.572 63.29 198.16 63.29C199.504 63.29 200.176 62.936 200.176 62.228C200.176 61.892 200.002 61.658 199.654 61.526C199.318 61.394 198.772 61.268 198.016 61.148C197.224 61.028 196.576 60.89 196.072 60.734C195.58 60.578 195.148 60.308 194.776 59.924C194.416 59.528 194.236 58.982 194.236 58.286C194.236 57.374 194.614 56.648 195.37 56.108C196.138 55.556 197.17 55.28 198.466 55.28C199.126 55.28 199.786 55.358 200.446 55.514C201.106 55.658 201.646 55.856 202.066 56.108L201.202 57.818C200.386 57.338 199.468 57.098 198.448 57.098C197.788 57.098 197.284 57.2 196.936 57.404C196.6 57.596 196.432 57.854 196.432 58.178C196.432 58.538 196.612 58.796 196.972 58.952C197.344 59.096 197.914 59.234 198.682 59.366C199.45 59.486 200.08 59.624 200.572 59.78C201.064 59.936 201.484 60.2 201.832 60.572C202.192 60.944 202.372 61.472 202.372 62.156C202.372 63.056 201.982 63.776 201.202 64.316C200.422 64.856 199.36 65.126 198.016 65.126ZM210.088 64.478C209.824 64.694 209.5 64.856 209.116 64.964C208.744 65.072 208.348 65.126 207.928 65.126C206.872 65.126 206.056 64.85 205.48 64.298C204.904 63.746 204.616 62.942 204.616 61.886V57.26H203.032V55.46H204.616V53.264H206.866V55.46H209.44V57.26H206.866V61.832C206.866 62.3 206.98 62.66 207.208 62.912C207.436 63.152 207.766 63.272 208.198 63.272C208.702 63.272 209.122 63.14 209.458 62.876L210.088 64.478ZM215.611 55.28C217.027 55.28 218.107 55.622 218.851 56.306C219.607 56.978 219.985 57.998 219.985 59.366V65H217.861V63.83C217.585 64.25 217.189 64.574 216.673 64.802C216.169 65.018 215.557 65.126 214.837 65.126C214.117 65.126 213.487 65.006 212.947 64.766C212.407 64.514 211.987 64.172 211.687 63.74C211.399 63.296 211.255 62.798 211.255 62.246C211.255 61.382 211.573 60.692 212.209 60.176C212.857 59.648 213.871 59.384 215.251 59.384H217.735V59.24C217.735 58.568 217.531 58.052 217.123 57.692C216.727 57.332 216.133 57.152 215.341 57.152C214.801 57.152 214.267 57.236 213.739 57.404C213.223 57.572 212.785 57.806 212.425 58.106L211.543 56.468C212.047 56.084 212.653 55.79 213.361 55.586C214.069 55.382 214.819 55.28 215.611 55.28ZM215.305 63.488C215.869 63.488 216.367 63.362 216.799 63.11C217.243 62.846 217.555 62.474 217.735 61.994V60.878H215.413C214.117 60.878 213.469 61.304 213.469 62.156C213.469 62.564 213.631 62.888 213.955 63.128C214.279 63.368 214.729 63.488 215.305 63.488ZM228.65 64.478C228.386 64.694 228.062 64.856 227.678 64.964C227.306 65.072 226.91 65.126 226.49 65.126C225.434 65.126 224.618 64.85 224.042 64.298C223.466 63.746 223.178 62.942 223.178 61.886V57.26H221.594V55.46H223.178V53.264H225.428V55.46H228.002V57.26H225.428V61.832C225.428 62.3 225.542 62.66 225.77 62.912C225.998 63.152 226.328 63.272 226.76 63.272C227.264 63.272 227.684 63.14 228.02 62.876L228.65 64.478ZM234.505 65.126C233.533 65.126 232.657 64.916 231.877 64.496C231.097 64.076 230.485 63.494 230.041 62.75C229.609 61.994 229.393 61.142 229.393 60.194C229.393 59.246 229.609 58.4 230.041 57.656C230.485 56.912 231.097 56.33 231.877 55.91C232.657 55.49 233.533 55.28 234.505 55.28C235.489 55.28 236.371 55.49 237.151 55.91C237.931 56.33 238.537 56.912 238.969 57.656C239.413 58.4 239.635 59.246 239.635 60.194C239.635 61.142 239.413 61.994 238.969 62.75C238.537 63.494 237.931 64.076 237.151 64.496C236.371 64.916 235.489 65.126 234.505 65.126ZM234.505 63.2C235.333 63.2 236.017 62.924 236.557 62.372C237.097 61.82 237.367 61.094 237.367 60.194C237.367 59.294 237.097 58.568 236.557 58.016C236.017 57.464 235.333 57.188 234.505 57.188C233.677 57.188 232.993 57.464 232.453 58.016C231.925 58.568 231.661 59.294 231.661 60.194C231.661 61.094 231.925 61.82 232.453 62.372C232.993 62.924 233.677 63.2 234.505 63.2Z" fill="#FBFEFD"/>
</g>
<defs>
<filter id="filter0_d" x="20" y="352" width="153" height="56" filterUnits="userSpaceOnUse" color-interpolation-filters="sRGB">
<feFlood flood-opacity="0" result="BackgroundImageFix"/>
<feColorMatrix in="SourceAlpha" type="matrix" values="0 0 0 0 0 0 0 0 0 0 0 0 0 0 0 0 0 0 127 0"/>
<feOffset dy="3"/>
<feGaussianBlur stdDeviation="2"/>
<feColorMatrix type="matrix" values="0 0 0 0 0.0781875 0 0 0 0 0.371812 0 0 0 0 0.327022 0 0 0 0.4 0"/>
<feBlend mode="normal" in2="BackgroundImageFix" result="effect1_dropShadow"/>
<feBlend mode="normal" in="SourceGraphic" in2="effect1_dropShadow" result="shape"/>
</filter>
<filter id="filter1_d" x="203" y="235" width="153" height="56" filterUnits="userSpaceOnUse" color-interpolation-filters="sRGB">
<feFlood flood-opacity="0" result="BackgroundImageFix"/>
<feColorMatrix in="SourceAlpha" type="matrix" values="0 0 0 0 0 0 0 0 0 0 0 0 0 0 0 0 0 0 127 0"/>
<feOffset dy="3"/>
<feGaussianBlur stdDeviation="2"/>
<feColorMatrix type="matrix" values="0 0 0 0 0.0781875 0 0 0 0 0.371812 0 0 0 0 0.327022 0 0 0 0.4 0"/>
<feBlend mode="normal" in2="BackgroundImageFix" result="effect1_dropShadow"/>
<feBlend mode="normal" in="SourceGraphic" in2="effect1_dropShadow" result="shape"/>
</filter>
<filter id="filter2_d" x="44" y="602" width="153" height="56" filterUnits="userSpaceOnUse" color-interpolation-filters="sRGB">
<feFlood flood-opacity="0" result="BackgroundImageFix"/>
<feColorMatrix in="SourceAlpha" type="matrix" values="0 0 0 0 0 0 0 0 0 0 0 0 0 0 0 0 0 0 127 0"/>
<feOffset dy="3"/>
<feGaussianBlur stdDeviation="2"/>
<feColorMatrix type="matrix" values="0 0 0 0 0.0781875 0 0 0 0 0.371812 0 0 0 0 0.327022 0 0 0 0.4 0"/>
<feBlend mode="normal" in2="BackgroundImageFix" result="effect1_dropShadow"/>
<feBlend mode="normal" in="SourceGraphic" in2="effect1_dropShadow" result="shape"/>
</filter>
<filter id="filter3_d" x="192" y="485" width="153" height="56" filterUnits="userSpaceOnUse" color-interpolation-filters="sRGB">
<feFlood flood-opacity="0" result="BackgroundImageFix"/>
<feColorMatrix in="SourceAlpha" type="matrix" values="0 0 0 0 0 0 0 0 0 0 0 0 0 0 0 0 0 0 127 0"/>
<feOffset dy="3"/>
<feGaussianBlur stdDeviation="2"/>
<feColorMatrix type="matrix" values="0 0 0 0 0.0781875 0 0 0 0 0.371812 0 0 0 0 0.327022 0 0 0 0.4 0"/>
<feBlend mode="normal" in2="BackgroundImageFix" result="effect1_dropShadow"/>
<feBlend mode="normal" in="SourceGraphic" in2="effect1_dropShadow" result="shape"/>
</filter>
<filter id="filter4_d" x="-104.32" y="76.124" width="192.127" height="192.127" filterUnits="userSpaceOnUse" color-interpolation-filters="sRGB">
<feFlood flood-opacity="0" result="BackgroundImageFix"/>
<feColorMatrix in="SourceAlpha" type="matrix" values="0 0 0 0 0 0 0 0 0 0 0 0 0 0 0 0 0 0 127 0"/>
<feOffset dy="3"/>
<feGaussianBlur stdDeviation="2"/>
<feColorMatrix type="matrix" values="0 0 0 0 0.0781875 0 0 0 0 0.371812 0 0 0 0 0.327022 0 0 0 0.4 0"/>
<feBlend mode="normal" in2="BackgroundImageFix" result="effect1_dropShadow"/>
<feBlend mode="normal" in="SourceGraphic" in2="effect1_dropShadow" result="shape"/>
</filter>
<filter id="filter5_d" x="-22" y="701" width="420" height="128" filterUnits="userSpaceOnUse" color-interpolation-filters="sRGB">
<feFlood flood-opacity="0" result="BackgroundImageFix"/>
<feColorMatrix in="SourceAlpha" type="matrix" values="0 0 0 0 0 0 0 0 0 0 0 0 0 0 0 0 0 0 127 0"/>
<feOffset dy="-5"/>
<feGaussianBlur stdDeviation="11"/>
<feColorMatrix type="matrix" values="0 0 0 0 0 0 0 0 0 0 0 0 0 0 0 0 0 0 0.1 0"/>
<feBlend mode="normal" in2="BackgroundImageFix" result="effect1_dropShadow"/>
<feBlend mode="normal" in="SourceGraphic" in2="effect1_dropShadow" result="shape"/>
</filter>
<linearGradient id="paint0_linear" x1="62.481" y1="398.772" x2="75.0838" y2="368.97" gradientUnits="userSpaceOnUse">
<stop stop-color="#47B42E"/>
<stop offset="1" stop-color="#76CE43"/>
</linearGradient>
<linearGradient id="paint1_linear" x1="52.3892" y1="386.885" x2="58.1112" y2="373.355" gradientUnits="userSpaceOnUse">
<stop stop-color="#47B42E"/>
<stop offset="1" stop-color="#76CE43"/>
</linearGradient>
<linearGradient id="paint2_linear" x1="245.481" y1="281.772" x2="258.084" y2="251.97" gradientUnits="userSpaceOnUse">
<stop stop-color="#47B42E"/>
<stop offset="1" stop-color="#76CE43"/>
</linearGradient>
<linearGradient id="paint3_linear" x1="235.389" y1="269.885" x2="241.111" y2="256.355" gradientUnits="userSpaceOnUse">
<stop stop-color="#47B42E"/>
<stop offset="1" stop-color="#76CE43"/>
</linearGradient>
<linearGradient id="paint4_linear" x1="86.481" y1="648.772" x2="99.0838" y2="618.97" gradientUnits="userSpaceOnUse">
<stop stop-color="#47B42E"/>
<stop offset="1" stop-color="#76CE43"/>
</linearGradient>
<linearGradient id="paint5_linear" x1="76.3892" y1="636.885" x2="82.1112" y2="623.355" gradientUnits="userSpaceOnUse">
<stop stop-color="#47B42E"/>
<stop offset="1" stop-color="#76CE43"/>
</linearGradient>
<linearGradient id="paint6_linear" x1="234.481" y1="531.772" x2="247.084" y2="501.97" gradientUnits="userSpaceOnUse">
<stop stop-color="#47B42E"/>
<stop offset="1" stop-color="#76CE43"/>
</linearGradient>
<linearGradient id="paint7_linear" x1="224.389" y1="519.885" x2="230.111" y2="506.355" gradientUnits="userSpaceOnUse">
<stop stop-color="#47B42E"/>
<stop offset="1" stop-color="#76CE43"/>
</linearGradient>
<clipPath id="clip0">
<rect width="376" height="812" fill="white"/>
</clipPath>
</defs>
</svg>
