<svg width="376" height="812" viewBox="0 0 376 812" fill="none" xmlns="http://www.w3.org/2000/svg">
<g clip-path="url(#clip0)">
<rect width="376" height="812" fill="#DBF0E0"/>
<line x1="150.586" y1="475.586" x2="222.586" y2="403.586" stroke="#C1DDC8" stroke-width="4"/>
<line x1="153.414" y1="403.586" x2="225.414" y2="475.586" stroke="#C1DDC8" stroke-width="4"/>
<rect x="16" y="96" width="344" height="64" rx="16" fill="#FBFEFD"/>
<path d="M75.6179 136.288C73.9059 136.288 72.3539 135.92 70.9619 135.184C69.5859 134.432 68.4979 133.4 67.6979 132.088C66.9139 130.76 66.5219 129.264 66.5219 127.6C66.5219 125.936 66.9139 124.448 67.6979 123.136C68.4979 121.808 69.5859 120.776 70.9619 120.04C72.3539 119.288 73.9139 118.912 75.6419 118.912C77.0979 118.912 78.4099 119.168 79.5779 119.68C80.7619 120.192 81.7539 120.928 82.5539 121.888L80.0579 124.192C78.9219 122.88 77.5139 122.224 75.8339 122.224C74.7939 122.224 73.8659 122.456 73.0499 122.92C72.2339 123.368 71.5939 124 71.1299 124.816C70.6819 125.632 70.4579 126.56 70.4579 127.6C70.4579 128.64 70.6819 129.568 71.1299 130.384C71.5939 131.2 72.2339 131.84 73.0499 132.304C73.8659 132.752 74.7939 132.976 75.8339 132.976C77.5139 132.976 78.9219 132.312 80.0579 130.984L82.5539 133.288C81.7539 134.264 80.7619 135.008 79.5779 135.52C78.3939 136.032 77.0739 136.288 75.6179 136.288ZM90.6142 136.192C89.2542 136.192 88.0302 135.912 86.9422 135.352C85.8702 134.776 85.0302 133.984 84.4222 132.976C83.8142 131.968 83.5102 130.824 83.5102 129.544C83.5102 128.264 83.8142 127.12 84.4222 126.112C85.0302 125.104 85.8702 124.32 86.9422 123.76C88.0302 123.184 89.2542 122.896 90.6142 122.896C91.9742 122.896 93.1902 123.184 94.2622 123.76C95.3342 124.32 96.1742 125.104 96.7822 126.112C97.3902 127.12 97.6942 128.264 97.6942 129.544C97.6942 130.824 97.3902 131.968 96.7822 132.976C96.1742 133.984 95.3342 134.776 94.2622 135.352C93.1902 135.912 91.9742 136.192 90.6142 136.192ZM90.6142 133.12C91.5742 133.12 92.3582 132.8 92.9662 132.16C93.5902 131.504 93.9022 130.632 93.9022 129.544C93.9022 128.456 93.5902 127.592 92.9662 126.952C92.3582 126.296 91.5742 125.968 90.6142 125.968C89.6542 125.968 88.8622 126.296 88.2382 126.952C87.6142 127.592 87.3022 128.456 87.3022 129.544C87.3022 130.632 87.6142 131.504 88.2382 132.16C88.8622 132.8 89.6542 133.12 90.6142 133.12ZM116.733 122.896C118.349 122.896 119.629 123.376 120.573 124.336C121.533 125.28 122.013 126.704 122.013 128.608V136H118.269V129.184C118.269 128.16 118.053 127.4 117.621 126.904C117.205 126.392 116.605 126.136 115.821 126.136C114.941 126.136 114.245 126.424 113.733 127C113.221 127.56 112.965 128.4 112.965 129.52V136H109.221V129.184C109.221 127.152 108.405 126.136 106.773 126.136C105.909 126.136 105.221 126.424 104.709 127C104.197 127.56 103.941 128.4 103.941 129.52V136H100.197V123.088H103.773V124.576C104.253 124.032 104.837 123.616 105.525 123.328C106.229 123.04 106.997 122.896 107.829 122.896C108.741 122.896 109.565 123.08 110.301 123.448C111.037 123.8 111.629 124.32 112.077 125.008C112.605 124.336 113.269 123.816 114.069 123.448C114.885 123.08 115.773 122.896 116.733 122.896ZM138.157 129.592C138.157 129.64 138.133 129.976 138.085 130.6H128.317C128.493 131.4 128.909 132.032 129.565 132.496C130.221 132.96 131.037 133.192 132.013 133.192C132.685 133.192 133.277 133.096 133.789 132.904C134.317 132.696 134.805 132.376 135.253 131.944L137.245 134.104C136.029 135.496 134.253 136.192 131.917 136.192C130.461 136.192 129.173 135.912 128.053 135.352C126.933 134.776 126.069 133.984 125.461 132.976C124.853 131.968 124.549 130.824 124.549 129.544C124.549 128.28 124.845 127.144 125.437 126.136C126.045 125.112 126.869 124.32 127.909 123.76C128.965 123.184 130.141 122.896 131.437 122.896C132.701 122.896 133.845 123.168 134.869 123.712C135.893 124.256 136.693 125.04 137.269 126.064C137.861 127.072 138.157 128.248 138.157 129.592ZM131.461 125.728C130.613 125.728 129.901 125.968 129.325 126.448C128.749 126.928 128.397 127.584 128.269 128.416H134.629C134.501 127.6 134.149 126.952 133.573 126.472C132.997 125.976 132.293 125.728 131.461 125.728ZM155.775 135.376C155.407 135.648 154.951 135.856 154.407 136C153.879 136.128 153.319 136.192 152.727 136.192C151.191 136.192 149.999 135.8 149.151 135.016C148.319 134.232 147.903 133.08 147.903 131.56V126.256H145.911V123.376H147.903V120.232H151.647V123.376H154.863V126.256H151.647V131.512C151.647 132.056 151.783 132.48 152.055 132.784C152.343 133.072 152.743 133.216 153.255 133.216C153.847 133.216 154.351 133.056 154.767 132.736L155.775 135.376ZM157.876 123.088H161.62V136H157.876V123.088ZM159.748 121.288C159.06 121.288 158.5 121.088 158.068 120.688C157.636 120.288 157.42 119.792 157.42 119.2C157.42 118.608 157.636 118.112 158.068 117.712C158.5 117.312 159.06 117.112 159.748 117.112C160.436 117.112 160.996 117.304 161.428 117.688C161.86 118.072 162.076 118.552 162.076 119.128C162.076 119.752 161.86 120.272 161.428 120.688C160.996 121.088 160.436 121.288 159.748 121.288ZM176.236 136.192C175.164 136.192 174.116 136.064 173.092 135.808C172.068 135.536 171.252 135.2 170.644 134.8L171.892 132.112C172.468 132.48 173.164 132.784 173.98 133.024C174.796 133.248 175.596 133.36 176.38 133.36C177.964 133.36 178.756 132.968 178.756 132.184C178.756 131.816 178.54 131.552 178.108 131.392C177.676 131.232 177.012 131.096 176.116 130.984C175.06 130.824 174.188 130.64 173.5 130.432C172.812 130.224 172.212 129.856 171.7 129.328C171.204 128.8 170.956 128.048 170.956 127.072C170.956 126.256 171.188 125.536 171.652 124.912C172.132 124.272 172.82 123.776 173.716 123.424C174.628 123.072 175.7 122.896 176.932 122.896C177.844 122.896 178.748 123 179.644 123.208C180.556 123.4 181.308 123.672 181.9 124.024L180.652 126.688C179.516 126.048 178.276 125.728 176.932 125.728C176.132 125.728 175.532 125.84 175.132 126.064C174.732 126.288 174.532 126.576 174.532 126.928C174.532 127.328 174.748 127.608 175.18 127.768C175.612 127.928 176.3 128.08 177.244 128.224C178.3 128.4 179.164 128.592 179.836 128.8C180.508 128.992 181.092 129.352 181.588 129.88C182.084 130.408 182.332 131.144 182.332 132.088C182.332 132.888 182.092 133.6 181.612 134.224C181.132 134.848 180.428 135.336 179.5 135.688C178.588 136.024 177.5 136.192 176.236 136.192ZM197.29 129.592C197.29 129.64 197.266 129.976 197.218 130.6H187.45C187.626 131.4 188.042 132.032 188.698 132.496C189.354 132.96 190.17 133.192 191.146 133.192C191.818 133.192 192.41 133.096 192.922 132.904C193.45 132.696 193.938 132.376 194.386 131.944L196.378 134.104C195.162 135.496 193.386 136.192 191.05 136.192C189.594 136.192 188.306 135.912 187.186 135.352C186.066 134.776 185.202 133.984 184.594 132.976C183.986 131.968 183.682 130.824 183.682 129.544C183.682 128.28 183.978 127.144 184.57 126.136C185.178 125.112 186.002 124.32 187.042 123.76C188.098 123.184 189.274 122.896 190.57 122.896C191.834 122.896 192.978 123.168 194.002 123.712C195.026 124.256 195.826 125.04 196.402 126.064C196.994 127.072 197.29 128.248 197.29 129.592ZM190.594 125.728C189.746 125.728 189.034 125.968 188.458 126.448C187.882 126.928 187.53 127.584 187.402 128.416H193.762C193.634 127.6 193.282 126.952 192.706 126.472C192.13 125.976 191.426 125.728 190.594 125.728ZM207.631 122.896C209.231 122.896 210.519 123.376 211.495 124.336C212.487 125.296 212.983 126.72 212.983 128.608V136H209.239V129.184C209.239 128.16 209.015 127.4 208.567 126.904C208.119 126.392 207.471 126.136 206.623 126.136C205.679 126.136 204.927 126.432 204.367 127.024C203.807 127.6 203.527 128.464 203.527 129.616V136H199.783V123.088H203.359V124.6C203.855 124.056 204.471 123.64 205.207 123.352C205.943 123.048 206.751 122.896 207.631 122.896ZM224.704 135.376C224.336 135.648 223.88 135.856 223.336 136C222.808 136.128 222.248 136.192 221.656 136.192C220.12 136.192 218.928 135.8 218.08 135.016C217.248 134.232 216.832 133.08 216.832 131.56V126.256H214.84V123.376H216.832V120.232H220.576V123.376H223.792V126.256H220.576V131.512C220.576 132.056 220.712 132.48 220.984 132.784C221.272 133.072 221.672 133.216 222.184 133.216C222.776 133.216 223.28 133.056 223.696 132.736L224.704 135.376ZM226.806 123.088H230.55V136H226.806V123.088ZM228.678 121.288C227.99 121.288 227.43 121.088 226.998 120.688C226.566 120.288 226.35 119.792 226.35 119.2C226.35 118.608 226.566 118.112 226.998 117.712C227.43 117.312 227.99 117.112 228.678 117.112C229.366 117.112 229.926 117.304 230.358 117.688C230.79 118.072 231.006 118.552 231.006 119.128C231.006 119.752 230.79 120.272 230.358 120.688C229.926 121.088 229.366 121.288 228.678 121.288ZM246.966 136.192C245.606 136.192 244.382 135.912 243.294 135.352C242.222 134.776 241.382 133.984 240.774 132.976C240.166 131.968 239.862 130.824 239.862 129.544C239.862 128.264 240.166 127.12 240.774 126.112C241.382 125.104 242.222 124.32 243.294 123.76C244.382 123.184 245.606 122.896 246.966 122.896C248.326 122.896 249.542 123.184 250.614 123.76C251.686 124.32 252.526 125.104 253.134 126.112C253.742 127.12 254.046 128.264 254.046 129.544C254.046 130.824 253.742 131.968 253.134 132.976C252.526 133.984 251.686 134.776 250.614 135.352C249.542 135.912 248.326 136.192 246.966 136.192ZM246.966 133.12C247.926 133.12 248.71 132.8 249.318 132.16C249.942 131.504 250.254 130.632 250.254 129.544C250.254 128.456 249.942 127.592 249.318 126.952C248.71 126.296 247.926 125.968 246.966 125.968C246.006 125.968 245.214 126.296 244.59 126.952C243.966 127.592 243.654 128.456 243.654 129.544C243.654 130.632 243.966 131.504 244.59 132.16C245.214 132.8 246.006 133.12 246.966 133.12ZM269.868 123.088V133.84C269.868 136.208 269.252 137.968 268.02 139.12C266.788 140.272 264.988 140.848 262.62 140.848C261.372 140.848 260.188 140.696 259.068 140.392C257.948 140.088 257.02 139.648 256.284 139.072L257.772 136.384C258.316 136.832 259.004 137.184 259.836 137.44C260.668 137.712 261.5 137.848 262.332 137.848C263.628 137.848 264.58 137.552 265.188 136.96C265.812 136.384 266.124 135.504 266.124 134.32V133.768C265.148 134.84 263.788 135.376 262.044 135.376C260.86 135.376 259.772 135.12 258.78 134.608C257.804 134.08 257.028 133.344 256.452 132.4C255.876 131.456 255.588 130.368 255.588 129.136C255.588 127.904 255.876 126.816 256.452 125.872C257.028 124.928 257.804 124.2 258.78 123.688C259.772 123.16 260.86 122.896 262.044 122.896C263.916 122.896 265.34 123.512 266.316 124.744V123.088H269.868ZM262.788 132.304C263.78 132.304 264.588 132.016 265.212 131.44C265.852 130.848 266.172 130.08 266.172 129.136C266.172 128.192 265.852 127.432 265.212 126.856C264.588 126.264 263.78 125.968 262.788 125.968C261.796 125.968 260.98 126.264 260.34 126.856C259.7 127.432 259.38 128.192 259.38 129.136C259.38 130.08 259.7 130.848 260.34 131.44C260.98 132.016 261.796 132.304 262.788 132.304ZM286.673 123.088V133.84C286.673 136.208 286.057 137.968 284.825 139.12C283.593 140.272 281.793 140.848 279.425 140.848C278.177 140.848 276.993 140.696 275.873 140.392C274.753 140.088 273.825 139.648 273.089 139.072L274.577 136.384C275.121 136.832 275.809 137.184 276.641 137.44C277.473 137.712 278.305 137.848 279.137 137.848C280.433 137.848 281.385 137.552 281.993 136.96C282.617 136.384 282.929 135.504 282.929 134.32V133.768C281.953 134.84 280.593 135.376 278.849 135.376C277.665 135.376 276.577 135.12 275.585 134.608C274.609 134.08 273.833 133.344 273.257 132.4C272.681 131.456 272.393 130.368 272.393 129.136C272.393 127.904 272.681 126.816 273.257 125.872C273.833 124.928 274.609 124.2 275.585 123.688C276.577 123.16 277.665 122.896 278.849 122.896C280.721 122.896 282.145 123.512 283.121 124.744V123.088H286.673ZM279.593 132.304C280.585 132.304 281.393 132.016 282.017 131.44C282.657 130.848 282.977 130.08 282.977 129.136C282.977 128.192 282.657 127.432 282.017 126.856C281.393 126.264 280.585 125.968 279.593 125.968C278.601 125.968 277.785 126.264 277.145 126.856C276.505 127.432 276.185 128.192 276.185 129.136C276.185 130.08 276.505 130.848 277.145 131.44C277.785 132.016 278.601 132.304 279.593 132.304ZM290.158 123.088H293.902V136H290.158V123.088ZM292.03 121.288C291.342 121.288 290.782 121.088 290.35 120.688C289.918 120.288 289.702 119.792 289.702 119.2C289.702 118.608 289.918 118.112 290.35 117.712C290.782 117.312 291.342 117.112 292.03 117.112C292.718 117.112 293.278 117.304 293.71 117.688C294.142 118.072 294.358 118.552 294.358 119.128C294.358 119.752 294.142 120.272 293.71 120.688C293.278 121.088 292.718 121.288 292.03 121.288ZM301.489 130.168C301.489 129.336 301.673 128.648 302.041 128.104C302.425 127.56 302.977 126.96 303.697 126.304C304.225 125.824 304.609 125.424 304.849 125.104C305.105 124.768 305.233 124.392 305.233 123.976C305.233 123.384 304.993 122.92 304.513 122.584C304.049 122.232 303.425 122.056 302.641 122.056C301.889 122.056 301.217 122.216 300.625 122.536C300.049 122.84 299.561 123.272 299.161 123.832L296.257 122.128C296.929 121.104 297.833 120.312 298.969 119.752C300.121 119.192 301.481 118.912 303.049 118.912C304.889 118.912 306.361 119.304 307.465 120.088C308.585 120.872 309.145 121.96 309.145 123.352C309.145 124.008 309.033 124.584 308.809 125.08C308.601 125.576 308.337 126 308.017 126.352C307.713 126.688 307.313 127.08 306.817 127.528C306.225 128.056 305.793 128.504 305.521 128.872C305.249 129.224 305.113 129.656 305.113 130.168H301.489ZM303.313 136.192C302.657 136.192 302.105 135.984 301.657 135.568C301.225 135.136 301.009 134.616 301.009 134.008C301.009 133.4 301.225 132.896 301.657 132.496C302.089 132.08 302.641 131.872 303.313 131.872C303.985 131.872 304.537 132.08 304.969 132.496C305.401 132.896 305.617 133.4 305.617 134.008C305.617 134.616 305.393 135.136 304.945 135.568C304.513 135.984 303.969 136.192 303.313 136.192Z" fill="#272631"/>
<path d="M164.122 183.18V185H156.534V175.2H163.94V177.02H158.788V179.148H163.338V180.912H158.788V183.18H164.122ZM170.351 177.356C171.284 177.356 172.035 177.636 172.605 178.196C173.183 178.756 173.473 179.587 173.473 180.688V185H171.289V181.024C171.289 180.427 171.158 179.983 170.897 179.694C170.635 179.395 170.257 179.246 169.763 179.246C169.212 179.246 168.773 179.419 168.447 179.764C168.12 180.1 167.957 180.604 167.957 181.276V185H165.773V177.468H167.859V178.35C168.148 178.033 168.507 177.79 168.937 177.622C169.366 177.445 169.837 177.356 170.351 177.356ZM182.912 181.262C182.912 181.29 182.898 181.486 182.87 181.85H177.172C177.275 182.317 177.518 182.685 177.9 182.956C178.283 183.227 178.759 183.362 179.328 183.362C179.72 183.362 180.066 183.306 180.364 183.194C180.672 183.073 180.957 182.886 181.218 182.634L182.38 183.894C181.671 184.706 180.635 185.112 179.272 185.112C178.423 185.112 177.672 184.949 177.018 184.622C176.365 184.286 175.861 183.824 175.506 183.236C175.152 182.648 174.974 181.981 174.974 181.234C174.974 180.497 175.147 179.834 175.492 179.246C175.847 178.649 176.328 178.187 176.934 177.86C177.55 177.524 178.236 177.356 178.992 177.356C179.73 177.356 180.397 177.515 180.994 177.832C181.592 178.149 182.058 178.607 182.394 179.204C182.74 179.792 182.912 180.478 182.912 181.262ZM179.006 179.008C178.512 179.008 178.096 179.148 177.76 179.428C177.424 179.708 177.219 180.091 177.144 180.576H180.854C180.78 180.1 180.574 179.722 180.238 179.442C179.902 179.153 179.492 179.008 179.006 179.008ZM186.452 178.462C186.714 178.098 187.064 177.823 187.502 177.636C187.95 177.449 188.464 177.356 189.042 177.356V179.372C188.8 179.353 188.636 179.344 188.552 179.344C187.927 179.344 187.437 179.521 187.082 179.876C186.728 180.221 186.55 180.744 186.55 181.444V185H184.366V177.468H186.452V178.462ZM198.043 177.468V183.74C198.043 185.121 197.683 186.148 196.965 186.82C196.246 187.492 195.196 187.828 193.815 187.828C193.087 187.828 192.396 187.739 191.743 187.562C191.089 187.385 190.548 187.128 190.119 186.792L190.987 185.224C191.304 185.485 191.705 185.691 192.191 185.84C192.676 185.999 193.161 186.078 193.647 186.078C194.403 186.078 194.958 185.905 195.313 185.56C195.677 185.224 195.859 184.711 195.859 184.02V183.698C195.289 184.323 194.496 184.636 193.479 184.636C192.788 184.636 192.153 184.487 191.575 184.188C191.005 183.88 190.553 183.451 190.217 182.9C189.881 182.349 189.713 181.715 189.713 180.996C189.713 180.277 189.881 179.643 190.217 179.092C190.553 178.541 191.005 178.117 191.575 177.818C192.153 177.51 192.788 177.356 193.479 177.356C194.571 177.356 195.401 177.715 195.971 178.434V177.468H198.043ZM193.913 182.844C194.491 182.844 194.963 182.676 195.327 182.34C195.7 181.995 195.887 181.547 195.887 180.996C195.887 180.445 195.7 180.002 195.327 179.666C194.963 179.321 194.491 179.148 193.913 179.148C193.334 179.148 192.858 179.321 192.485 179.666C192.111 180.002 191.925 180.445 191.925 180.996C191.925 181.547 192.111 181.995 192.485 182.34C192.858 182.676 193.334 182.844 193.913 182.844ZM200.075 177.468H202.259V185H200.075V177.468ZM201.167 176.418C200.766 176.418 200.439 176.301 200.187 176.068C199.935 175.835 199.809 175.545 199.809 175.2C199.809 174.855 199.935 174.565 200.187 174.332C200.439 174.099 200.766 173.982 201.167 173.982C201.569 173.982 201.895 174.094 202.147 174.318C202.399 174.542 202.525 174.822 202.525 175.158C202.525 175.522 202.399 175.825 202.147 176.068C201.895 176.301 201.569 176.418 201.167 176.418ZM207.926 185.112C207.124 185.112 206.4 184.949 205.756 184.622C205.122 184.286 204.622 183.824 204.258 183.236C203.904 182.648 203.726 181.981 203.726 181.234C203.726 180.487 203.904 179.82 204.258 179.232C204.622 178.644 205.122 178.187 205.756 177.86C206.4 177.524 207.124 177.356 207.926 177.356C208.72 177.356 209.41 177.524 209.998 177.86C210.596 178.187 211.03 178.658 211.3 179.274L209.606 180.184C209.214 179.493 208.65 179.148 207.912 179.148C207.343 179.148 206.872 179.335 206.498 179.708C206.125 180.081 205.938 180.59 205.938 181.234C205.938 181.878 206.125 182.387 206.498 182.76C206.872 183.133 207.343 183.32 207.912 183.32C208.659 183.32 209.224 182.975 209.606 182.284L211.3 183.208C211.03 183.805 210.596 184.272 209.998 184.608C209.41 184.944 208.72 185.112 207.926 185.112ZM216.046 185.112C215.253 185.112 214.539 184.949 213.904 184.622C213.279 184.286 212.789 183.824 212.434 183.236C212.079 182.648 211.902 181.981 211.902 181.234C211.902 180.487 212.079 179.82 212.434 179.232C212.789 178.644 213.279 178.187 213.904 177.86C214.539 177.524 215.253 177.356 216.046 177.356C216.839 177.356 217.549 177.524 218.174 177.86C218.799 178.187 219.289 178.644 219.644 179.232C219.999 179.82 220.176 180.487 220.176 181.234C220.176 181.981 219.999 182.648 219.644 183.236C219.289 183.824 218.799 184.286 218.174 184.622C217.549 184.949 216.839 185.112 216.046 185.112ZM216.046 183.32C216.606 183.32 217.063 183.133 217.418 182.76C217.782 182.377 217.964 181.869 217.964 181.234C217.964 180.599 217.782 180.095 217.418 179.722C217.063 179.339 216.606 179.148 216.046 179.148C215.486 179.148 215.024 179.339 214.66 179.722C214.296 180.095 214.114 180.599 214.114 181.234C214.114 181.869 214.296 182.377 214.66 182.76C215.024 183.133 215.486 183.32 216.046 183.32Z" fill="#272631"/>
<path d="M170.35 705.168C169.351 705.168 168.446 704.953 167.634 704.524C166.831 704.085 166.197 703.483 165.73 702.718C165.273 701.943 165.044 701.071 165.044 700.1C165.044 699.129 165.273 698.261 165.73 697.496C166.197 696.721 166.831 696.119 167.634 695.69C168.446 695.251 169.356 695.032 170.364 695.032C171.213 695.032 171.979 695.181 172.66 695.48C173.351 695.779 173.929 696.208 174.396 696.768L172.94 698.112C172.277 697.347 171.456 696.964 170.476 696.964C169.869 696.964 169.328 697.099 168.852 697.37C168.376 697.631 168.003 698 167.732 698.476C167.471 698.952 167.34 699.493 167.34 700.1C167.34 700.707 167.471 701.248 167.732 701.724C168.003 702.2 168.376 702.573 168.852 702.844C169.328 703.105 169.869 703.236 170.476 703.236C171.456 703.236 172.277 702.849 172.94 702.074L174.396 703.418C173.929 703.987 173.351 704.421 172.66 704.72C171.969 705.019 171.199 705.168 170.35 705.168ZM178.757 697.356C179.924 697.356 180.82 697.636 181.445 698.196C182.07 698.747 182.383 699.582 182.383 700.702V705H180.339V704.062C179.928 704.762 179.163 705.112 178.043 705.112C177.464 705.112 176.96 705.014 176.531 704.818C176.111 704.622 175.789 704.351 175.565 704.006C175.341 703.661 175.229 703.269 175.229 702.83C175.229 702.13 175.49 701.579 176.013 701.178C176.545 700.777 177.362 700.576 178.463 700.576H180.199C180.199 700.1 180.054 699.736 179.765 699.484C179.476 699.223 179.042 699.092 178.463 699.092C178.062 699.092 177.665 699.157 177.273 699.288C176.89 699.409 176.564 699.577 176.293 699.792L175.509 698.266C175.92 697.977 176.41 697.753 176.979 697.594C177.558 697.435 178.15 697.356 178.757 697.356ZM178.589 703.642C178.962 703.642 179.294 703.558 179.583 703.39C179.872 703.213 180.078 702.956 180.199 702.62V701.85H178.701C177.805 701.85 177.357 702.144 177.357 702.732C177.357 703.012 177.464 703.236 177.679 703.404C177.903 703.563 178.206 703.642 178.589 703.642ZM184.36 694.612H186.544V705H184.36V694.612ZM198.217 697.356C199.159 697.356 199.906 697.636 200.457 698.196C201.017 698.747 201.297 699.577 201.297 700.688V705H199.113V701.024C199.113 700.427 198.987 699.983 198.735 699.694C198.492 699.395 198.142 699.246 197.685 699.246C197.171 699.246 196.765 699.414 196.467 699.75C196.168 700.077 196.019 700.567 196.019 701.22V705H193.835V701.024C193.835 699.839 193.359 699.246 192.407 699.246C191.903 699.246 191.501 699.414 191.203 699.75C190.904 700.077 190.755 700.567 190.755 701.22V705H188.571V697.468H190.657V698.336C190.937 698.019 191.277 697.776 191.678 697.608C192.089 697.44 192.537 697.356 193.023 697.356C193.555 697.356 194.035 697.463 194.465 697.678C194.894 697.883 195.239 698.187 195.501 698.588C195.809 698.196 196.196 697.893 196.663 697.678C197.139 697.463 197.657 697.356 198.217 697.356ZM206.92 705.112C206.127 705.112 205.413 704.949 204.778 704.622C204.153 704.286 203.663 703.824 203.308 703.236C202.953 702.648 202.776 701.981 202.776 701.234C202.776 700.487 202.953 699.82 203.308 699.232C203.663 698.644 204.153 698.187 204.778 697.86C205.413 697.524 206.127 697.356 206.92 697.356C207.713 697.356 208.423 697.524 209.048 697.86C209.673 698.187 210.163 698.644 210.518 699.232C210.873 699.82 211.05 700.487 211.05 701.234C211.05 701.981 210.873 702.648 210.518 703.236C210.163 703.824 209.673 704.286 209.048 704.622C208.423 704.949 207.713 705.112 206.92 705.112ZM206.92 703.32C207.48 703.32 207.937 703.133 208.292 702.76C208.656 702.377 208.838 701.869 208.838 701.234C208.838 700.599 208.656 700.095 208.292 699.722C207.937 699.339 207.48 699.148 206.92 699.148C206.36 699.148 205.898 699.339 205.534 699.722C205.17 700.095 204.988 700.599 204.988 701.234C204.988 701.869 205.17 702.377 205.534 702.76C205.898 703.133 206.36 703.32 206.92 703.32Z" fill="#272631"/>
<g filter="url(#filter0_d)">
<path d="M200 217C200 208.163 207.163 201 216 201H344C352.837 201 360 208.163 360 217V409C360 417.837 352.837 425 344 425H250.437C246.306 425 242.336 423.403 239.357 420.543L204.92 387.485C201.777 384.468 200 380.3 200 375.943V217Z" fill="#FBFEFD"/>
</g>
<g filter="url(#filter1_d)">
<path d="M200 665C200 673.837 207.163 681 216 681H344C352.837 681 360 673.837 360 665V473C360 464.163 352.837 457 344 457H249.884C245.785 457 241.843 458.573 238.869 461.395L204.985 493.556C201.802 496.577 200 500.773 200 505.161V665Z" fill="#FBFEFD"/>
</g>
<g filter="url(#filter2_d)">
<path d="M176 217C176 208.163 168.837 201 160 201H32C23.1635 201 16 208.163 16 217V409C16 417.837 23.1634 425 32 425H125.116C129.215 425 133.157 423.427 136.131 420.605L171.015 387.494C174.198 384.473 176 380.278 176 375.89V217Z" fill="#FBFEFD"/>
</g>
<g filter="url(#filter3_d)">
<path d="M176 665C176 673.837 168.837 681 160 681H32C23.1635 681 16 673.837 16 665V473C16 464.163 23.1635 457 32 457H126.616C130.715 457 134.657 458.573 137.631 461.395L171.015 493.082C174.198 496.103 176 500.299 176 504.687V665Z" fill="#FBFEFD"/>
</g>
<path d="M20.4933 446.168C19.7187 446.168 18.9673 446.065 18.2393 445.86C17.5207 445.645 16.942 445.37 16.5033 445.034L17.2733 443.326C17.6933 443.634 18.1927 443.881 18.7713 444.068C19.35 444.255 19.9287 444.348 20.5073 444.348C21.1513 444.348 21.6273 444.255 21.9353 444.068C22.2433 443.872 22.3973 443.615 22.3973 443.298C22.3973 443.065 22.304 442.873 22.1173 442.724C21.94 442.565 21.7067 442.439 21.4173 442.346C21.1373 442.253 20.7547 442.15 20.2693 442.038C19.5227 441.861 18.9113 441.683 18.4353 441.506C17.9593 441.329 17.5487 441.044 17.2033 440.652C16.8673 440.26 16.6993 439.737 16.6993 439.084C16.6993 438.515 16.8533 438.001 17.1613 437.544C17.4693 437.077 17.9313 436.709 18.5473 436.438C19.1727 436.167 19.9333 436.032 20.8293 436.032C21.4547 436.032 22.066 436.107 22.6633 436.256C23.2607 436.405 23.7833 436.62 24.2313 436.9L23.5313 438.622C22.626 438.109 21.7207 437.852 20.8153 437.852C20.1807 437.852 19.7093 437.955 19.4013 438.16C19.1027 438.365 18.9533 438.636 18.9533 438.972C18.9533 439.308 19.126 439.56 19.4713 439.728C19.826 439.887 20.3627 440.045 21.0813 440.204C21.828 440.381 22.4393 440.559 22.9153 440.736C23.3913 440.913 23.7973 441.193 24.1333 441.576C24.4787 441.959 24.6513 442.477 24.6513 443.13C24.6513 443.69 24.4927 444.203 24.1753 444.67C23.8673 445.127 23.4007 445.491 22.7753 445.762C22.15 446.033 21.3893 446.168 20.4933 446.168ZM30.4991 438.356C31.1991 438.356 31.8337 438.519 32.4031 438.846C32.9817 439.163 33.4344 439.616 33.7611 440.204C34.0877 440.783 34.2511 441.459 34.2511 442.234C34.2511 443.009 34.0877 443.69 33.7611 444.278C33.4344 444.857 32.9817 445.309 32.4031 445.636C31.8337 445.953 31.1991 446.112 30.4991 446.112C29.5377 446.112 28.7817 445.809 28.2311 445.202V448.716H26.0471V438.468H28.1331V439.336C28.6744 438.683 29.4631 438.356 30.4991 438.356ZM30.1211 444.32C30.6811 444.32 31.1384 444.133 31.4931 443.76C31.8571 443.377 32.0391 442.869 32.0391 442.234C32.0391 441.599 31.8571 441.095 31.4931 440.722C31.1384 440.339 30.6811 440.148 30.1211 440.148C29.5611 440.148 29.0991 440.339 28.7351 440.722C28.3804 441.095 28.2031 441.599 28.2031 442.234C28.2031 442.869 28.3804 443.377 28.7351 443.76C29.0991 444.133 29.5611 444.32 30.1211 444.32ZM35.7131 438.468H37.8971V446H35.7131V438.468ZM36.8051 437.418C36.4037 437.418 36.0771 437.301 35.8251 437.068C35.5731 436.835 35.4471 436.545 35.4471 436.2C35.4471 435.855 35.5731 435.565 35.8251 435.332C36.0771 435.099 36.4037 434.982 36.8051 434.982C37.2064 434.982 37.5331 435.094 37.7851 435.318C38.0371 435.542 38.1631 435.822 38.1631 436.158C38.1631 436.522 38.0371 436.825 37.7851 437.068C37.5331 437.301 37.2064 437.418 36.8051 437.418ZM42.962 438.356C44.1287 438.356 45.0247 438.636 45.65 439.196C46.2753 439.747 46.588 440.582 46.588 441.702V446H44.544V445.062C44.1333 445.762 43.368 446.112 42.248 446.112C41.6693 446.112 41.1653 446.014 40.736 445.818C40.316 445.622 39.994 445.351 39.77 445.006C39.546 444.661 39.434 444.269 39.434 443.83C39.434 443.13 39.6953 442.579 40.218 442.178C40.75 441.777 41.5667 441.576 42.668 441.576H44.404C44.404 441.1 44.2593 440.736 43.97 440.484C43.6807 440.223 43.2467 440.092 42.668 440.092C42.2667 440.092 41.87 440.157 41.478 440.288C41.0953 440.409 40.7687 440.577 40.498 440.792L39.714 439.266C40.1247 438.977 40.6147 438.753 41.184 438.594C41.7627 438.435 42.3553 438.356 42.962 438.356ZM42.794 444.642C43.1673 444.642 43.4987 444.558 43.788 444.39C44.0773 444.213 44.2827 443.956 44.404 443.62V442.85H42.906C42.01 442.85 41.562 443.144 41.562 443.732C41.562 444.012 41.6693 444.236 41.884 444.404C42.108 444.563 42.4113 444.642 42.794 444.642ZM52.2867 446.112C51.484 446.112 50.7607 445.949 50.1167 445.622C49.482 445.286 48.9827 444.824 48.6187 444.236C48.264 443.648 48.0867 442.981 48.0867 442.234C48.0867 441.487 48.264 440.82 48.6187 440.232C48.9827 439.644 49.482 439.187 50.1167 438.86C50.7607 438.524 51.484 438.356 52.2867 438.356C53.08 438.356 53.7707 438.524 54.3587 438.86C54.956 439.187 55.39 439.658 55.6607 440.274L53.9667 441.184C53.5747 440.493 53.01 440.148 52.2727 440.148C51.7033 440.148 51.232 440.335 50.8587 440.708C50.4853 441.081 50.2987 441.59 50.2987 442.234C50.2987 442.878 50.4853 443.387 50.8587 443.76C51.232 444.133 51.7033 444.32 52.2727 444.32C53.0193 444.32 53.584 443.975 53.9667 443.284L55.6607 444.208C55.39 444.805 54.956 445.272 54.3587 445.608C53.7707 445.944 53.08 446.112 52.2867 446.112ZM64.2005 442.262C64.2005 442.29 64.1865 442.486 64.1585 442.85H58.4605C58.5631 443.317 58.8058 443.685 59.1885 443.956C59.5711 444.227 60.0471 444.362 60.6165 444.362C61.0085 444.362 61.3538 444.306 61.6525 444.194C61.9605 444.073 62.2451 443.886 62.5065 443.634L63.6685 444.894C62.9591 445.706 61.9231 446.112 60.5605 446.112C59.7111 446.112 58.9598 445.949 58.3065 445.622C57.6531 445.286 57.1491 444.824 56.7945 444.236C56.4398 443.648 56.2625 442.981 56.2625 442.234C56.2625 441.497 56.4351 440.834 56.7805 440.246C57.1351 439.649 57.6158 439.187 58.2225 438.86C58.8385 438.524 59.5245 438.356 60.2805 438.356C61.0178 438.356 61.6851 438.515 62.2825 438.832C62.8798 439.149 63.3465 439.607 63.6825 440.204C64.0278 440.792 64.2005 441.478 64.2005 442.262ZM60.2945 440.008C59.7998 440.008 59.3845 440.148 59.0485 440.428C58.7125 440.708 58.5071 441.091 58.4325 441.576H62.1425C62.0678 441.1 61.8625 440.722 61.5265 440.442C61.1905 440.153 60.7798 440.008 60.2945 440.008ZM72.9938 438.468L69.8158 446H67.5618L64.3978 438.468H66.6518L68.7378 443.592L70.8938 438.468H72.9938ZM77.2639 446.112C76.4705 446.112 75.7565 445.949 75.1219 445.622C74.4965 445.286 74.0065 444.824 73.6519 444.236C73.2972 443.648 73.1199 442.981 73.1199 442.234C73.1199 441.487 73.2972 440.82 73.6519 440.232C74.0065 439.644 74.4965 439.187 75.1219 438.86C75.7565 438.524 76.4705 438.356 77.2639 438.356C78.0572 438.356 78.7665 438.524 79.3919 438.86C80.0172 439.187 80.5072 439.644 80.8619 440.232C81.2165 440.82 81.3939 441.487 81.3939 442.234C81.3939 442.981 81.2165 443.648 80.8619 444.236C80.5072 444.824 80.0172 445.286 79.3919 445.622C78.7665 445.949 78.0572 446.112 77.2639 446.112ZM77.2639 444.32C77.8239 444.32 78.2812 444.133 78.6359 443.76C78.9999 443.377 79.1819 442.869 79.1819 442.234C79.1819 441.599 78.9999 441.095 78.6359 440.722C78.2812 440.339 77.8239 440.148 77.2639 440.148C76.7039 440.148 76.2419 440.339 75.8779 440.722C75.5139 441.095 75.3319 441.599 75.3319 442.234C75.3319 442.869 75.5139 443.377 75.8779 443.76C76.2419 444.133 76.7039 444.32 77.2639 444.32ZM82.8537 435.612H85.0377V446H82.8537V435.612ZM94.4426 442.262C94.4426 442.29 94.4286 442.486 94.4006 442.85H88.7026C88.8053 443.317 89.048 443.685 89.4306 443.956C89.8133 444.227 90.2893 444.362 90.8586 444.362C91.2506 444.362 91.596 444.306 91.8946 444.194C92.2026 444.073 92.4873 443.886 92.7486 443.634L93.9106 444.894C93.2013 445.706 92.1653 446.112 90.8026 446.112C89.9533 446.112 89.202 445.949 88.5486 445.622C87.8953 445.286 87.3913 444.824 87.0366 444.236C86.682 443.648 86.5046 442.981 86.5046 442.234C86.5046 441.497 86.6773 440.834 87.0226 440.246C87.3773 439.649 87.858 439.187 88.4646 438.86C89.0806 438.524 89.7666 438.356 90.5226 438.356C91.26 438.356 91.9273 438.515 92.5246 438.832C93.122 439.149 93.5886 439.607 93.9246 440.204C94.27 440.792 94.4426 441.478 94.4426 442.262ZM90.5366 440.008C90.042 440.008 89.6266 440.148 89.2906 440.428C88.9546 440.708 88.7493 441.091 88.6746 441.576H92.3846C92.31 441.1 92.1046 440.722 91.7686 440.442C91.4326 440.153 91.022 440.008 90.5366 440.008Z" fill="#272631"/>
<path d="M294.754 436.2C295.622 436.2 296.373 436.345 297.008 436.634C297.652 436.923 298.146 437.334 298.492 437.866C298.837 438.398 299.01 439.028 299.01 439.756C299.01 440.475 298.837 441.105 298.492 441.646C298.146 442.178 297.652 442.589 297.008 442.878C296.373 443.158 295.622 443.298 294.754 443.298H292.78V446H290.512V436.2H294.754ZM294.628 441.45C295.309 441.45 295.827 441.305 296.182 441.016C296.536 440.717 296.714 440.297 296.714 439.756C296.714 439.205 296.536 438.785 296.182 438.496C295.827 438.197 295.309 438.048 294.628 438.048H292.78V441.45H294.628ZM300.475 438.468H302.659V446H300.475V438.468ZM301.567 437.418C301.165 437.418 300.839 437.301 300.587 437.068C300.335 436.835 300.209 436.545 300.209 436.2C300.209 435.855 300.335 435.565 300.587 435.332C300.839 435.099 301.165 434.982 301.567 434.982C301.968 434.982 302.295 435.094 302.547 435.318C302.799 435.542 302.925 435.822 302.925 436.158C302.925 436.522 302.799 436.825 302.547 437.068C302.295 437.301 301.968 437.418 301.567 437.418ZM307.724 438.356C308.89 438.356 309.786 438.636 310.412 439.196C311.037 439.747 311.35 440.582 311.35 441.702V446H309.306V445.062C308.895 445.762 308.13 446.112 307.01 446.112C306.431 446.112 305.927 446.014 305.498 445.818C305.078 445.622 304.756 445.351 304.532 445.006C304.308 444.661 304.196 444.269 304.196 443.83C304.196 443.13 304.457 442.579 304.98 442.178C305.512 441.777 306.328 441.576 307.43 441.576H309.166C309.166 441.1 309.021 440.736 308.732 440.484C308.442 440.223 308.008 440.092 307.43 440.092C307.028 440.092 306.632 440.157 306.24 440.288C305.857 440.409 305.53 440.577 305.26 440.792L304.476 439.266C304.886 438.977 305.376 438.753 305.946 438.594C306.524 438.435 307.117 438.356 307.724 438.356ZM307.556 444.642C307.929 444.642 308.26 444.558 308.55 444.39C308.839 444.213 309.044 443.956 309.166 443.62V442.85H307.668C306.772 442.85 306.324 443.144 306.324 443.732C306.324 444.012 306.431 444.236 306.646 444.404C306.87 444.563 307.173 444.642 307.556 444.642ZM317.048 446.112C316.246 446.112 315.522 445.949 314.878 445.622C314.244 445.286 313.744 444.824 313.38 444.236C313.026 443.648 312.848 442.981 312.848 442.234C312.848 441.487 313.026 440.82 313.38 440.232C313.744 439.644 314.244 439.187 314.878 438.86C315.522 438.524 316.246 438.356 317.048 438.356C317.842 438.356 318.532 438.524 319.12 438.86C319.718 439.187 320.152 439.658 320.422 440.274L318.728 441.184C318.336 440.493 317.772 440.148 317.034 440.148C316.465 440.148 315.994 440.335 315.62 440.708C315.247 441.081 315.06 441.59 315.06 442.234C315.06 442.878 315.247 443.387 315.62 443.76C315.994 444.133 316.465 444.32 317.034 444.32C317.781 444.32 318.346 443.975 318.728 443.284L320.422 444.208C320.152 444.805 319.718 445.272 319.12 445.608C318.532 445.944 317.842 446.112 317.048 446.112ZM328.962 442.262C328.962 442.29 328.948 442.486 328.92 442.85H323.222C323.325 443.317 323.568 443.685 323.95 443.956C324.333 444.227 324.809 444.362 325.378 444.362C325.77 444.362 326.116 444.306 326.414 444.194C326.722 444.073 327.007 443.886 327.268 443.634L328.43 444.894C327.721 445.706 326.685 446.112 325.322 446.112C324.473 446.112 323.722 445.949 323.068 445.622C322.415 445.286 321.911 444.824 321.556 444.236C321.202 443.648 321.024 442.981 321.024 442.234C321.024 441.497 321.197 440.834 321.542 440.246C321.897 439.649 322.378 439.187 322.984 438.86C323.6 438.524 324.286 438.356 325.042 438.356C325.78 438.356 326.447 438.515 327.044 438.832C327.642 439.149 328.108 439.607 328.444 440.204C328.79 440.792 328.962 441.478 328.962 442.262ZM325.056 440.008C324.562 440.008 324.146 440.148 323.81 440.428C323.474 440.708 323.269 441.091 323.194 441.576H326.904C326.83 441.1 326.624 440.722 326.288 440.442C325.952 440.153 325.542 440.008 325.056 440.008ZM337.755 438.468L334.577 446H332.323L329.159 438.468H331.413L333.499 443.592L335.655 438.468H337.755ZM342.026 446.112C341.232 446.112 340.518 445.949 339.884 445.622C339.258 445.286 338.768 444.824 338.414 444.236C338.059 443.648 337.882 442.981 337.882 442.234C337.882 441.487 338.059 440.82 338.414 440.232C338.768 439.644 339.258 439.187 339.884 438.86C340.518 438.524 341.232 438.356 342.026 438.356C342.819 438.356 343.528 438.524 344.154 438.86C344.779 439.187 345.269 439.644 345.624 440.232C345.978 440.82 346.156 441.487 346.156 442.234C346.156 442.981 345.978 443.648 345.624 444.236C345.269 444.824 344.779 445.286 344.154 445.622C343.528 445.949 342.819 446.112 342.026 446.112ZM342.026 444.32C342.586 444.32 343.043 444.133 343.398 443.76C343.762 443.377 343.944 442.869 343.944 442.234C343.944 441.599 343.762 441.095 343.398 440.722C343.043 440.339 342.586 440.148 342.026 440.148C341.466 440.148 341.004 440.339 340.64 440.722C340.276 441.095 340.094 441.599 340.094 442.234C340.094 442.869 340.276 443.377 340.64 443.76C341.004 444.133 341.466 444.32 342.026 444.32ZM347.615 435.612H349.799V446H347.615V435.612ZM359.204 442.262C359.204 442.29 359.19 442.486 359.162 442.85H353.464C353.567 443.317 353.81 443.685 354.192 443.956C354.575 444.227 355.051 444.362 355.62 444.362C356.012 444.362 356.358 444.306 356.656 444.194C356.964 444.073 357.249 443.886 357.51 443.634L358.672 444.894C357.963 445.706 356.927 446.112 355.564 446.112C354.715 446.112 353.964 445.949 353.31 445.622C352.657 445.286 352.153 444.824 351.798 444.236C351.444 443.648 351.266 442.981 351.266 442.234C351.266 441.497 351.439 440.834 351.784 440.246C352.139 439.649 352.62 439.187 353.226 438.86C353.842 438.524 354.528 438.356 355.284 438.356C356.022 438.356 356.689 438.515 357.286 438.832C357.884 439.149 358.35 439.607 358.686 440.204C359.032 440.792 359.204 441.478 359.204 442.262ZM355.298 440.008C354.804 440.008 354.388 440.148 354.052 440.428C353.716 440.708 353.511 441.091 353.436 441.576H357.146C357.072 441.1 356.866 440.722 356.53 440.442C356.194 440.153 355.784 440.008 355.298 440.008Z" fill="#272631"/>
<g filter="url(#filter4_d)">
<path d="M229.313 332.107L259.694 362.515C262.953 365.777 267.609 367.059 272.033 365.777L313.588 354.593C318.011 353.428 321.503 349.932 322.667 345.505L333.842 303.912C335.006 299.484 333.725 294.824 330.582 291.562L300.085 261.27C296.826 258.008 292.17 256.726 287.747 258.008L246.192 269.192C241.768 270.358 238.276 273.853 237.112 278.28L225.938 319.873C224.774 324.068 226.054 328.844 229.313 332.107Z" fill="url(#paint0_linear)"/>
</g>
<g filter="url(#filter5_d)">
<path d="M88.643 368.94L39.0603 319.357C34.9799 315.277 34.9799 308.723 39.0603 304.643L88.643 255.06C92.7233 250.98 99.2767 250.98 103.357 255.06L152.94 304.643C157.02 308.723 157.02 315.277 152.94 319.357L103.357 368.94C99.2767 373.02 92.7233 373.02 88.643 368.94Z" fill="url(#paint1_linear)"/>
</g>
<g filter="url(#filter6_d)">
<path d="M145.419 571.062C143.696 561.764 139.457 553.276 133.496 546.538C132.304 545.191 130.979 543.844 129.654 542.631L100.246 512.718C97.9935 510.427 94.1518 510.427 91.8998 512.718L63.8157 541.283C61.4312 543.305 59.1792 545.595 57.1921 548.021C51.8932 554.488 48.184 562.303 46.4618 570.927C45.667 575.778 45.402 580.898 45.9319 586.153C48.4489 610.272 70.8367 631.157 94.5493 631.831C123.031 632.639 146.346 609.463 146.346 580.628C146.346 577.394 146.081 574.161 145.419 571.062Z" fill="url(#paint2_linear)"/>
</g>
<g filter="url(#filter7_d)">
<path d="M279.998 625.483C310.088 625.483 334.481 601.09 334.481 571C334.481 540.91 310.088 516.518 279.998 516.518C249.908 516.518 225.516 540.91 225.516 571C225.516 601.09 249.908 625.483 279.998 625.483Z" fill="url(#paint3_linear)"/>
</g>
<rect x="188" y="396" width="63" height="63" rx="8" transform="rotate(45 188 396)" fill="#EBF7EE"/>
<g filter="url(#filter8_d)">
<path d="M0 744H376V812H0V744Z" fill="#FBFEFD"/>
<rect x="120" y="795" width="136" height="5" rx="2.5" fill="#DBF0E0"/>
<circle cx="188" cy="756" r="30" fill="#FFE0D7" stroke="#FBFEFD" stroke-width="4"/>
<rect x="177" y="754.954" width="21.8868" height="2.98456" rx="1.49228" fill="#FBFEFD"/>
<rect x="186.949" y="767.887" width="21.8868" height="2.98456" rx="1.49228" transform="rotate(-90 186.949 767.887)" fill="#FBFEFD"/>
</g>
<path d="M54.1643 787.37C54.571 787.483 54.891 787.69 55.1243 787.99C55.3576 788.283 55.4743 788.657 55.4743 789.11C55.4743 789.717 55.2443 790.183 54.7843 790.51C54.331 790.837 53.6676 791 52.7943 791H49.4543V784H52.5943C53.3943 784 54.011 784.16 54.4443 784.48C54.8843 784.8 55.1043 785.243 55.1043 785.81C55.1043 786.177 55.0176 786.493 54.8443 786.76C54.6776 787.027 54.451 787.23 54.1643 787.37ZM50.4543 784.81V787.05H52.5043C53.0176 787.05 53.411 786.957 53.6843 786.77C53.9643 786.577 54.1043 786.297 54.1043 785.93C54.1043 785.563 53.9643 785.287 53.6843 785.1C53.411 784.907 53.0176 784.81 52.5043 784.81H50.4543ZM52.7543 790.19C53.321 790.19 53.7476 790.097 54.0343 789.91C54.321 789.723 54.4643 789.43 54.4643 789.03C54.4643 788.25 53.8943 787.86 52.7543 787.86H50.4543V790.19H52.7543ZM61.4827 789.25H57.7627L56.9927 791H55.9627L59.1327 784H60.1227L63.3027 791H62.2527L61.4827 789.25ZM61.1327 788.45L59.6227 785.02L58.1127 788.45H61.1327ZM67.3792 791.08C66.6792 791.08 66.0459 790.927 65.4792 790.62C64.9192 790.307 64.4792 789.88 64.1592 789.34C63.8392 788.793 63.6792 788.18 63.6792 787.5C63.6792 786.82 63.8392 786.21 64.1592 785.67C64.4792 785.123 64.9226 784.697 65.4892 784.39C66.0559 784.077 66.6892 783.92 67.3892 783.92C67.9359 783.92 68.4359 784.013 68.8892 784.2C69.3426 784.38 69.7292 784.65 70.0492 785.01L69.3992 785.64C68.8726 785.087 68.2159 784.81 67.4292 784.81C66.9092 784.81 66.4392 784.927 66.0192 785.16C65.5992 785.393 65.2692 785.717 65.0292 786.13C64.7959 786.537 64.6792 786.993 64.6792 787.5C64.6792 788.007 64.7959 788.467 65.0292 788.88C65.2692 789.287 65.5992 789.607 66.0192 789.84C66.4392 790.073 66.9092 790.19 67.4292 790.19C68.2092 790.19 68.8659 789.91 69.3992 789.35L70.0492 789.98C69.7292 790.34 69.3392 790.613 68.8792 790.8C68.4259 790.987 67.9259 791.08 67.3792 791.08ZM77.4958 784V791H76.4958V787.88H72.4758V791H71.4758V784H72.4758V787.01H76.4958V784H77.4958ZM84.671 790.13V791H79.591V784H84.531V784.87H80.591V787.02H84.101V787.87H80.591V790.13H84.671ZM89.3909 791.08C88.6909 791.08 88.0576 790.927 87.4909 790.62C86.9309 790.307 86.4909 789.88 86.1709 789.34C85.8509 788.793 85.6909 788.18 85.6909 787.5C85.6909 786.82 85.8509 786.21 86.1709 785.67C86.4909 785.123 86.9343 784.697 87.5009 784.39C88.0676 784.077 88.7009 783.92 89.4009 783.92C89.9476 783.92 90.4476 784.013 90.9009 784.2C91.3543 784.38 91.7409 784.65 92.0609 785.01L91.4109 785.64C90.8843 785.087 90.2276 784.81 89.4409 784.81C88.9209 784.81 88.4509 784.927 88.0309 785.16C87.6109 785.393 87.2809 785.717 87.0409 786.13C86.8076 786.537 86.6909 786.993 86.6909 787.5C86.6909 788.007 86.8076 788.467 87.0409 788.88C87.2809 789.287 87.6109 789.607 88.0309 789.84C88.4509 790.073 88.9209 790.19 89.4409 790.19C90.2209 790.19 90.8776 789.91 91.4109 789.35L92.0609 789.98C91.7409 790.34 91.3509 790.613 90.8909 790.8C90.4376 790.987 89.9376 791.08 89.3909 791.08ZM97.7815 789.25H94.0615L93.2915 791H92.2615L95.4315 784H96.4215L99.6015 791H98.5515L97.7815 789.25ZM97.4315 788.45L95.9215 785.02L94.4115 788.45H97.4315Z" fill="#60A986"/>
<path d="M289.932 787.37C290.339 787.483 290.659 787.69 290.892 787.99C291.125 788.283 291.242 788.657 291.242 789.11C291.242 789.717 291.012 790.183 290.552 790.51C290.099 790.837 289.435 791 288.562 791H285.222V784H288.362C289.162 784 289.779 784.16 290.212 784.48C290.652 784.8 290.872 785.243 290.872 785.81C290.872 786.177 290.785 786.493 290.612 786.76C290.445 787.027 290.219 787.23 289.932 787.37ZM286.222 784.81V787.05H288.272C288.785 787.05 289.179 786.957 289.452 786.77C289.732 786.577 289.872 786.297 289.872 785.93C289.872 785.563 289.732 785.287 289.452 785.1C289.179 784.907 288.785 784.81 288.272 784.81H286.222ZM288.522 790.19C289.089 790.19 289.515 790.097 289.802 789.91C290.089 789.723 290.232 789.43 290.232 789.03C290.232 788.25 289.662 787.86 288.522 787.86H286.222V790.19H288.522ZM295.95 791.08C295.244 791.08 294.607 790.927 294.04 790.62C293.474 790.307 293.027 789.877 292.7 789.33C292.38 788.783 292.22 788.173 292.22 787.5C292.22 786.827 292.38 786.217 292.7 785.67C293.027 785.123 293.474 784.697 294.04 784.39C294.607 784.077 295.244 783.92 295.95 783.92C296.65 783.92 297.284 784.077 297.85 784.39C298.417 784.697 298.86 785.123 299.18 785.67C299.5 786.21 299.66 786.82 299.66 787.5C299.66 788.18 299.5 788.793 299.18 789.34C298.86 789.88 298.417 790.307 297.85 790.62C297.284 790.927 296.65 791.08 295.95 791.08ZM295.95 790.19C296.464 790.19 296.924 790.073 297.33 789.84C297.744 789.607 298.067 789.287 298.3 788.88C298.54 788.467 298.66 788.007 298.66 787.5C298.66 786.993 298.54 786.537 298.3 786.13C298.067 785.717 297.744 785.393 297.33 785.16C296.924 784.927 296.464 784.81 295.95 784.81C295.437 784.81 294.97 784.927 294.55 785.16C294.137 785.393 293.81 785.717 293.57 786.13C293.337 786.537 293.22 786.993 293.22 787.5C293.22 788.007 293.337 788.467 293.57 788.88C293.81 789.287 294.137 789.607 294.55 789.84C294.97 790.073 295.437 790.19 295.95 790.19ZM303.229 791.08C302.702 791.08 302.192 791 301.699 790.84C301.212 790.673 300.829 790.46 300.549 790.2L300.919 789.42C301.185 789.66 301.525 789.857 301.939 790.01C302.359 790.157 302.789 790.23 303.229 790.23C303.809 790.23 304.242 790.133 304.529 789.94C304.815 789.74 304.959 789.477 304.959 789.15C304.959 788.91 304.879 788.717 304.719 788.57C304.565 788.417 304.372 788.3 304.139 788.22C303.912 788.14 303.589 788.05 303.169 787.95C302.642 787.823 302.215 787.697 301.889 787.57C301.569 787.443 301.292 787.25 301.059 786.99C300.832 786.723 300.719 786.367 300.719 785.92C300.719 785.547 300.815 785.21 301.009 784.91C301.209 784.61 301.509 784.37 301.909 784.19C302.309 784.01 302.805 783.92 303.399 783.92C303.812 783.92 304.219 783.973 304.619 784.08C305.019 784.187 305.362 784.34 305.649 784.54L305.319 785.34C305.025 785.153 304.712 785.013 304.379 784.92C304.045 784.82 303.719 784.77 303.399 784.77C302.832 784.77 302.405 784.873 302.119 785.08C301.839 785.287 301.699 785.553 301.699 785.88C301.699 786.12 301.779 786.317 301.939 786.47C302.099 786.617 302.295 786.733 302.529 786.82C302.769 786.9 303.092 786.987 303.499 787.08C304.025 787.207 304.449 787.333 304.769 787.46C305.089 787.587 305.362 787.78 305.589 788.04C305.822 788.3 305.939 788.65 305.939 789.09C305.939 789.457 305.839 789.793 305.639 790.1C305.439 790.4 305.135 790.64 304.729 790.82C304.322 790.993 303.822 791.08 303.229 791.08ZM310.53 791.08C309.83 791.08 309.196 790.927 308.63 790.62C308.07 790.307 307.63 789.88 307.31 789.34C306.99 788.793 306.83 788.18 306.83 787.5C306.83 786.82 306.99 786.21 307.31 785.67C307.63 785.123 308.073 784.697 308.64 784.39C309.206 784.077 309.84 783.92 310.54 783.92C311.086 783.92 311.586 784.013 312.04 784.2C312.493 784.38 312.88 784.65 313.2 785.01L312.55 785.64C312.023 785.087 311.366 784.81 310.58 784.81C310.06 784.81 309.59 784.927 309.17 785.16C308.75 785.393 308.42 785.717 308.18 786.13C307.946 786.537 307.83 786.993 307.83 787.5C307.83 788.007 307.946 788.467 308.18 788.88C308.42 789.287 308.75 789.607 309.17 789.84C309.59 790.073 310.06 790.19 310.58 790.19C311.36 790.19 312.016 789.91 312.55 789.35L313.2 789.98C312.88 790.34 312.49 790.613 312.03 790.8C311.576 790.987 311.076 791.08 310.53 791.08ZM317.64 791.08C316.933 791.08 316.296 790.927 315.73 790.62C315.163 790.307 314.716 789.877 314.39 789.33C314.07 788.783 313.91 788.173 313.91 787.5C313.91 786.827 314.07 786.217 314.39 785.67C314.716 785.123 315.163 784.697 315.73 784.39C316.296 784.077 316.933 783.92 317.64 783.92C318.34 783.92 318.973 784.077 319.54 784.39C320.106 784.697 320.55 785.123 320.87 785.67C321.19 786.21 321.35 786.82 321.35 787.5C321.35 788.18 321.19 788.793 320.87 789.34C320.55 789.88 320.106 790.307 319.54 790.62C318.973 790.927 318.34 791.08 317.64 791.08ZM317.64 790.19C318.153 790.19 318.613 790.073 319.02 789.84C319.433 789.607 319.756 789.287 319.99 788.88C320.23 788.467 320.35 788.007 320.35 787.5C320.35 786.993 320.23 786.537 319.99 786.13C319.756 785.717 319.433 785.393 319.02 785.16C318.613 784.927 318.153 784.81 317.64 784.81C317.126 784.81 316.66 784.927 316.24 785.16C315.826 785.393 315.5 785.717 315.26 786.13C315.026 786.537 314.91 786.993 314.91 787.5C314.91 788.007 315.026 788.467 315.26 788.88C315.5 789.287 315.826 789.607 316.24 789.84C316.66 790.073 317.126 790.19 317.64 790.19Z" fill="#60A986"/>
<path d="M66 765H72C72.2652 765 72.5196 764.895 72.7071 764.707C72.8946 764.52 73 764.265 73 764V756C73 755.735 72.8946 755.48 72.7071 755.293C72.5196 755.105 72.2652 755 72 755H66C65.7348 755 65.4804 755.105 65.2929 755.293C65.1054 755.48 65 755.735 65 756V764C65 764.265 65.1054 764.52 65.2929 764.707C65.4804 764.895 65.7348 765 66 765ZM65 772C65 772.265 65.1054 772.52 65.2929 772.707C65.4804 772.895 65.7348 773 66 773H72C72.2652 773 72.5196 772.895 72.7071 772.707C72.8946 772.52 73 772.265 73 772V768C73 767.735 72.8946 767.48 72.7071 767.293C72.5196 767.105 72.2652 767 72 767H66C65.7348 767 65.4804 767.105 65.2929 767.293C65.1054 767.48 65 767.735 65 768V772ZM75 772C75 772.265 75.1054 772.52 75.2929 772.707C75.4804 772.895 75.7348 773 76 773H82C82.2652 773 82.5196 772.895 82.7071 772.707C82.8946 772.52 83 772.265 83 772V765C83 764.735 82.8946 764.48 82.7071 764.293C82.5196 764.105 82.2652 764 82 764H76C75.7348 764 75.4804 764.105 75.2929 764.293C75.1054 764.48 75 764.735 75 765V772ZM76 762H82C82.2652 762 82.5196 761.895 82.7071 761.707C82.8946 761.52 83 761.265 83 761V756C83 755.735 82.8946 755.48 82.7071 755.293C82.5196 755.105 82.2652 755 82 755H76C75.7348 755 75.4804 755.105 75.2929 755.293C75.1054 755.48 75 755.735 75 756V761C75 761.265 75.1054 761.52 75.2929 761.707C75.4804 761.895 75.7348 762 76 762Z" fill="#60A986"/>
<path d="M316.588 760.475C316.353 759.244 315.776 758.12 314.964 757.229C314.802 757.05 314.621 756.872 314.441 756.711L310.435 752.751C310.129 752.448 309.605 752.448 309.299 752.751L305.473 756.533C305.149 756.8 304.842 757.104 304.571 757.425C303.849 758.281 303.344 759.316 303.11 760.457C303.001 761.1 302.965 761.778 303.038 762.473C303.38 765.666 306.43 768.432 309.659 768.521C313.539 768.628 316.714 765.559 316.714 761.742C316.714 761.314 316.678 760.886 316.588 760.475Z" fill="#60A986"/>
<path d="M295 760.523C295 756.105 298.582 752.523 303 752.523C307.418 752.523 311 756.105 311 760.523C311 764.942 307.418 768.523 303 768.523C298.582 768.523 295 764.942 295 760.523Z" fill="#FBFEFD"/>
<path fill-rule="evenodd" clip-rule="evenodd" d="M303 755.19C300.054 755.19 297.667 757.578 297.667 760.523C297.667 763.469 300.054 765.857 303 765.857C305.946 765.857 308.333 763.469 308.333 760.523C308.333 757.578 305.946 755.19 303 755.19ZM303 752.523C298.582 752.523 295 756.105 295 760.523C295 764.942 298.582 768.523 303 768.523C307.418 768.523 311 764.942 311 760.523C311 756.105 307.418 752.523 303 752.523Z" fill="#60A986"/>
<path d="M295.004 770.227C295.004 769.092 295.013 767.957 295 766.823C294.995 766.385 295.086 766.225 295.371 766.239C295.892 766.268 296.413 766.263 296.934 766.242C297.186 766.23 297.288 766.347 297.286 766.77C297.276 769.089 297.276 771.408 297.286 773.727C297.288 774.103 297.204 774.24 296.967 774.234C296.431 774.217 295.894 774.208 295.358 774.237C295.058 774.255 294.998 774.042 295.002 773.631C295.011 772.499 295.004 771.361 295.004 770.227Z" fill="#60A986"/>
<path d="M301.863 770.227C301.863 769.092 301.873 767.957 301.86 766.823C301.854 766.385 301.945 766.225 302.23 766.239C302.751 766.268 303.272 766.263 303.793 766.242C304.045 766.23 304.147 766.347 304.145 766.77C304.136 769.089 304.136 771.408 304.145 773.727C304.147 774.103 304.064 774.24 303.826 774.234C303.291 774.217 302.753 774.208 302.217 774.237C301.917 774.255 301.858 774.042 301.861 773.631C301.871 772.499 301.863 771.361 301.863 770.227Z" fill="#60A986"/>
<path d="M308.719 770.227C308.719 769.092 308.728 767.957 308.715 766.823C308.71 766.385 308.8 766.225 309.086 766.239C309.607 766.268 310.128 766.263 310.648 766.242C310.9 766.23 311.002 766.347 311.001 766.77C310.991 769.089 310.991 771.408 311.001 773.727C311.002 774.103 310.919 774.24 310.682 774.234C310.146 774.217 309.609 774.208 309.073 774.237C308.773 774.255 308.713 774.042 308.717 773.631C308.726 772.499 308.719 771.361 308.719 770.227Z" fill="#60A986"/>
<path d="M288.549 759.542L295.16 752.931C295.704 752.387 296.578 752.387 297.122 752.931L303.733 759.542C304.277 760.087 304.277 760.96 303.733 761.504L297.122 768.115C296.578 768.659 295.704 768.659 295.16 768.115L288.549 761.504C288.005 760.96 288.005 760.087 288.549 759.542Z" fill="#60A986"/>
<path d="M376 80L0 80L7.01247e-06 -2.26596e-06L376 3.05176e-05L376 80Z" fill="#007C5B"/>
<path d="M317.53 66.377H340.641C341.436 66.377 342.086 65.7395 342.086 64.9603C342.086 64.1811 341.436 63.5436 340.641 63.5436H317.53C316.736 63.5436 316.086 64.1811 316.086 64.9603C316.086 65.7395 316.736 66.377 317.53 66.377ZM317.53 59.2936H340.641C341.436 59.2936 342.086 58.6561 342.086 57.877C342.086 57.0978 341.436 56.4603 340.641 56.4603H317.53C316.736 56.4603 316.086 57.0978 316.086 57.877C316.086 58.6561 316.736 59.2936 317.53 59.2936ZM316.086 50.7936C316.086 51.5728 316.736 52.2103 317.53 52.2103H340.641C341.436 52.2103 342.086 51.5728 342.086 50.7936C342.086 50.0145 341.436 49.377 340.641 49.377H317.53C316.736 49.377 316.086 50.0145 316.086 50.7936Z" fill="#FBFEFD"/>
<path d="M94.0859 0H281.086V4C281.086 15.0457 272.132 24 261.086 24H114.086C103.04 24 94.0859 15.0457 94.0859 4V0Z" fill="#434343"/>
<path d="M30.4104 15.35C31.8504 15.35 32.9654 15.8 33.7554 16.7C34.5554 17.6 34.9554 18.89 34.9554 20.57C34.9554 21.75 34.7404 22.76 34.3104 23.6C33.8804 24.43 33.2754 25.065 32.4954 25.505C31.7254 25.935 30.8304 26.15 29.8104 26.15C29.2704 26.15 28.7604 26.095 28.2804 25.985C27.8104 25.865 27.4004 25.695 27.0504 25.475L27.7704 24.005C28.2904 24.345 28.9554 24.515 29.7654 24.515C30.7754 24.515 31.5654 24.205 32.1354 23.585C32.7054 22.965 32.9904 22.07 32.9904 20.9V20.885C32.6804 21.245 32.2854 21.52 31.8054 21.71C31.3254 21.89 30.7854 21.98 30.1854 21.98C29.4954 21.98 28.8754 21.85 28.3254 21.59C27.7754 21.32 27.3454 20.94 27.0354 20.45C26.7254 19.96 26.5704 19.395 26.5704 18.755C26.5704 18.075 26.7404 17.48 27.0804 16.97C27.4204 16.45 27.8804 16.05 28.4604 15.77C29.0404 15.49 29.6904 15.35 30.4104 15.35ZM30.5604 20.45C31.1904 20.45 31.7004 20.28 32.0904 19.94C32.4904 19.6 32.6904 19.17 32.6904 18.65C32.6904 18.14 32.4954 17.72 32.1054 17.39C31.7254 17.05 31.1954 16.88 30.5154 16.88C29.9054 16.88 29.4104 17.045 29.0304 17.375C28.6504 17.695 28.4604 18.125 28.4604 18.665C28.4604 19.215 28.6504 19.65 29.0304 19.97C29.4104 20.29 29.9204 20.45 30.5604 20.45ZM37.4447 20.39C37.1047 20.39 36.8147 20.275 36.5747 20.045C36.3347 19.805 36.2147 19.505 36.2147 19.145C36.2147 18.775 36.3297 18.475 36.5597 18.245C36.7997 18.015 37.0947 17.9 37.4447 17.9C37.7947 17.9 38.0847 18.015 38.3147 18.245C38.5547 18.475 38.6747 18.775 38.6747 19.145C38.6747 19.505 38.5547 19.805 38.3147 20.045C38.0747 20.275 37.7847 20.39 37.4447 20.39ZM37.4447 26.105C37.1047 26.105 36.8147 25.99 36.5747 25.76C36.3347 25.52 36.2147 25.22 36.2147 24.86C36.2147 24.49 36.3297 24.19 36.5597 23.96C36.7997 23.73 37.0947 23.615 37.4447 23.615C37.7947 23.615 38.0847 23.73 38.3147 23.96C38.5547 24.19 38.6747 24.49 38.6747 24.86C38.6747 25.22 38.5547 25.52 38.3147 25.76C38.0747 25.99 37.7847 26.105 37.4447 26.105ZM49.2969 23.615H47.4369V26H45.5469V23.615H39.7869V22.265L44.9619 15.5H47.0469L42.1719 21.965H45.6069V19.85H47.4369V21.965H49.2969V23.615ZM53.3667 15.5V26H51.4167V17.135H49.1967V15.5H53.3667Z" fill="#FBFEFD"/>
<rect x="288" y="22" width="3" height="5" rx="1" fill="#FBFEFD"/>
<rect x="293" y="20" width="3" height="7" rx="1" fill="#FBFEFD"/>
<rect x="298" y="18" width="3" height="9" rx="1" fill="#FBFEFD"/>
<rect x="303" y="16" width="3" height="11" rx="1" fill="#FBFEFD"/>
<rect x="332.5" y="16.5" width="20" height="10" rx="1.5" stroke="#FBFEFD"/>
<rect x="334" y="18.2002" width="16" height="6.6" rx="2" fill="#FBFEFD"/>
<path d="M355 19.2998H353V23.6998H355V19.2998Z" fill="#FBFEFD"/>
<path d="M319.501 15.7559C316.37 15.7559 313.423 16.9785 311.203 19.1985C311.104 19.297 311.104 19.4567 311.203 19.5552L312.868 21.2207C312.916 21.2681 312.98 21.2947 313.047 21.2947C313.114 21.2947 313.178 21.2681 313.225 21.2207C314.904 19.5417 317.133 18.6169 319.501 18.6169C321.869 18.6169 324.097 19.5417 325.776 21.2207C325.824 21.2681 325.888 21.2947 325.955 21.2947C326.022 21.2947 326.086 21.2681 326.133 21.2207L327.799 19.5552C327.846 19.5079 327.873 19.4438 327.873 19.3768C327.873 19.3099 327.846 19.2457 327.799 19.1984C325.579 16.9785 322.632 15.7559 319.501 15.7559Z" fill="#FBFEFD"/>
<path d="M319.499 20.1748C317.546 20.1748 315.708 20.9372 314.324 22.3217C314.277 22.369 314.25 22.4331 314.25 22.5001C314.25 22.567 314.276 22.6312 314.324 22.6785L315.989 24.3441C316.037 24.3914 316.101 24.418 316.168 24.418C316.235 24.418 316.299 24.3914 316.346 24.3441C317.19 23.5005 318.309 23.0359 319.499 23.0359C320.688 23.0359 321.808 23.5006 322.652 24.3441C322.699 24.3914 322.763 24.418 322.83 24.418C322.897 24.418 322.961 24.3914 323.008 24.3441L324.674 22.6785C324.772 22.58 324.772 22.4202 324.674 22.3218C323.29 20.9372 321.452 20.1748 319.499 20.1748Z" fill="#FBFEFD"/>
<path d="M319.5 24.8564C318.818 24.8564 318.177 25.122 317.695 25.6043C317.596 25.7029 317.596 25.8625 317.695 25.961L319.322 27.5883C319.369 27.6356 319.434 27.6622 319.5 27.6622C319.567 27.6622 319.632 27.6356 319.679 27.5883L321.306 25.961C321.404 25.8625 321.404 25.7028 321.306 25.6043C320.824 25.122 320.183 24.8564 319.5 24.8564Z" fill="#FBFEFD"/>
<path d="M141.577 52.4V65H139.651L132.703 56.468V65H130.381V52.4H132.307L139.255 60.932V52.4H141.577ZM154.044 55.388V65H151.902V63.776C151.542 64.208 151.092 64.544 150.552 64.784C150.012 65.012 149.43 65.126 148.806 65.126C147.522 65.126 146.508 64.772 145.764 64.064C145.032 63.344 144.666 62.282 144.666 60.878V55.388H146.916V60.572C146.916 61.436 147.108 62.084 147.492 62.516C147.888 62.936 148.446 63.146 149.166 63.146C149.97 63.146 150.606 62.9 151.074 62.408C151.554 61.904 151.794 61.184 151.794 60.248V55.388H154.044ZM161.31 65.126C160.338 65.126 159.462 64.916 158.682 64.496C157.902 64.076 157.29 63.494 156.846 62.75C156.414 61.994 156.198 61.142 156.198 60.194C156.198 59.246 156.414 58.4 156.846 57.656C157.29 56.912 157.902 56.33 158.682 55.91C159.462 55.49 160.338 55.28 161.31 55.28C162.294 55.28 163.176 55.49 163.956 55.91C164.736 56.33 165.342 56.912 165.774 57.656C166.218 58.4 166.44 59.246 166.44 60.194C166.44 61.142 166.218 61.994 165.774 62.75C165.342 63.494 164.736 64.076 163.956 64.496C163.176 64.916 162.294 65.126 161.31 65.126ZM161.31 63.2C162.138 63.2 162.822 62.924 163.362 62.372C163.902 61.82 164.172 61.094 164.172 60.194C164.172 59.294 163.902 58.568 163.362 58.016C162.822 57.464 162.138 57.188 161.31 57.188C160.482 57.188 159.798 57.464 159.258 58.016C158.73 58.568 158.466 59.294 158.466 60.194C158.466 61.094 158.73 61.82 159.258 62.372C159.798 62.924 160.482 63.2 161.31 63.2ZM177.328 55.388L173.206 65H170.884L166.762 55.388H169.102L172.09 62.516L175.168 55.388H177.328ZM182.79 65.126C181.818 65.126 180.942 64.916 180.162 64.496C179.382 64.076 178.77 63.494 178.326 62.75C177.894 61.994 177.678 61.142 177.678 60.194C177.678 59.246 177.894 58.4 178.326 57.656C178.77 56.912 179.382 56.33 180.162 55.91C180.942 55.49 181.818 55.28 182.79 55.28C183.774 55.28 184.656 55.49 185.436 55.91C186.216 56.33 186.822 56.912 187.254 57.656C187.698 58.4 187.92 59.246 187.92 60.194C187.92 61.142 187.698 61.994 187.254 62.75C186.822 63.494 186.216 64.076 185.436 64.496C184.656 64.916 183.774 65.126 182.79 65.126ZM182.79 63.2C183.618 63.2 184.302 62.924 184.842 62.372C185.382 61.82 185.652 61.094 185.652 60.194C185.652 59.294 185.382 58.568 184.842 58.016C184.302 57.464 183.618 57.188 182.79 57.188C181.962 57.188 181.278 57.464 180.738 58.016C180.21 58.568 179.946 59.294 179.946 60.194C179.946 61.094 180.21 61.82 180.738 62.372C181.278 62.924 181.962 63.2 182.79 63.2ZM198.016 65.126C197.236 65.126 196.474 65.024 195.73 64.82C194.986 64.616 194.392 64.358 193.948 64.046L194.812 62.336C195.244 62.624 195.76 62.858 196.36 63.038C196.972 63.206 197.572 63.29 198.16 63.29C199.504 63.29 200.176 62.936 200.176 62.228C200.176 61.892 200.002 61.658 199.654 61.526C199.318 61.394 198.772 61.268 198.016 61.148C197.224 61.028 196.576 60.89 196.072 60.734C195.58 60.578 195.148 60.308 194.776 59.924C194.416 59.528 194.236 58.982 194.236 58.286C194.236 57.374 194.614 56.648 195.37 56.108C196.138 55.556 197.17 55.28 198.466 55.28C199.126 55.28 199.786 55.358 200.446 55.514C201.106 55.658 201.646 55.856 202.066 56.108L201.202 57.818C200.386 57.338 199.468 57.098 198.448 57.098C197.788 57.098 197.284 57.2 196.936 57.404C196.6 57.596 196.432 57.854 196.432 58.178C196.432 58.538 196.612 58.796 196.972 58.952C197.344 59.096 197.914 59.234 198.682 59.366C199.45 59.486 200.08 59.624 200.572 59.78C201.064 59.936 201.484 60.2 201.832 60.572C202.192 60.944 202.372 61.472 202.372 62.156C202.372 63.056 201.982 63.776 201.202 64.316C200.422 64.856 199.36 65.126 198.016 65.126ZM210.088 64.478C209.824 64.694 209.5 64.856 209.116 64.964C208.744 65.072 208.348 65.126 207.928 65.126C206.872 65.126 206.056 64.85 205.48 64.298C204.904 63.746 204.616 62.942 204.616 61.886V57.26H203.032V55.46H204.616V53.264H206.866V55.46H209.44V57.26H206.866V61.832C206.866 62.3 206.98 62.66 207.208 62.912C207.436 63.152 207.766 63.272 208.198 63.272C208.702 63.272 209.122 63.14 209.458 62.876L210.088 64.478ZM215.611 55.28C217.027 55.28 218.107 55.622 218.851 56.306C219.607 56.978 219.985 57.998 219.985 59.366V65H217.861V63.83C217.585 64.25 217.189 64.574 216.673 64.802C216.169 65.018 215.557 65.126 214.837 65.126C214.117 65.126 213.487 65.006 212.947 64.766C212.407 64.514 211.987 64.172 211.687 63.74C211.399 63.296 211.255 62.798 211.255 62.246C211.255 61.382 211.573 60.692 212.209 60.176C212.857 59.648 213.871 59.384 215.251 59.384H217.735V59.24C217.735 58.568 217.531 58.052 217.123 57.692C216.727 57.332 216.133 57.152 215.341 57.152C214.801 57.152 214.267 57.236 213.739 57.404C213.223 57.572 212.785 57.806 212.425 58.106L211.543 56.468C212.047 56.084 212.653 55.79 213.361 55.586C214.069 55.382 214.819 55.28 215.611 55.28ZM215.305 63.488C215.869 63.488 216.367 63.362 216.799 63.11C217.243 62.846 217.555 62.474 217.735 61.994V60.878H215.413C214.117 60.878 213.469 61.304 213.469 62.156C213.469 62.564 213.631 62.888 213.955 63.128C214.279 63.368 214.729 63.488 215.305 63.488ZM228.65 64.478C228.386 64.694 228.062 64.856 227.678 64.964C227.306 65.072 226.91 65.126 226.49 65.126C225.434 65.126 224.618 64.85 224.042 64.298C223.466 63.746 223.178 62.942 223.178 61.886V57.26H221.594V55.46H223.178V53.264H225.428V55.46H228.002V57.26H225.428V61.832C225.428 62.3 225.542 62.66 225.77 62.912C225.998 63.152 226.328 63.272 226.76 63.272C227.264 63.272 227.684 63.14 228.02 62.876L228.65 64.478ZM234.505 65.126C233.533 65.126 232.657 64.916 231.877 64.496C231.097 64.076 230.485 63.494 230.041 62.75C229.609 61.994 229.393 61.142 229.393 60.194C229.393 59.246 229.609 58.4 230.041 57.656C230.485 56.912 231.097 56.33 231.877 55.91C232.657 55.49 233.533 55.28 234.505 55.28C235.489 55.28 236.371 55.49 237.151 55.91C237.931 56.33 238.537 56.912 238.969 57.656C239.413 58.4 239.635 59.246 239.635 60.194C239.635 61.142 239.413 61.994 238.969 62.75C238.537 63.494 237.931 64.076 237.151 64.496C236.371 64.916 235.489 65.126 234.505 65.126ZM234.505 63.2C235.333 63.2 236.017 62.924 236.557 62.372C237.097 61.82 237.367 61.094 237.367 60.194C237.367 59.294 237.097 58.568 236.557 58.016C236.017 57.464 235.333 57.188 234.505 57.188C233.677 57.188 232.993 57.464 232.453 58.016C231.925 58.568 231.661 59.294 231.661 60.194C231.661 61.094 231.925 61.82 232.453 62.372C232.993 62.924 233.677 63.2 234.505 63.2Z" fill="#FBFEFD"/>
</g>
<defs>
<filter id="filter0_d" x="196" y="200" width="168" height="232" filterUnits="userSpaceOnUse" color-interpolation-filters="sRGB">
<feFlood flood-opacity="0" result="BackgroundImageFix"/>
<feColorMatrix in="SourceAlpha" type="matrix" values="0 0 0 0 0 0 0 0 0 0 0 0 0 0 0 0 0 0 127 0"/>
<feOffset dy="3"/>
<feGaussianBlur stdDeviation="2"/>
<feColorMatrix type="matrix" values="0 0 0 0 0.0781875 0 0 0 0 0.371812 0 0 0 0 0.327022 0 0 0 0.4 0"/>
<feBlend mode="normal" in2="BackgroundImageFix" result="effect1_dropShadow"/>
<feBlend mode="normal" in="SourceGraphic" in2="effect1_dropShadow" result="shape"/>
</filter>
<filter id="filter1_d" x="196" y="456" width="168" height="232" filterUnits="userSpaceOnUse" color-interpolation-filters="sRGB">
<feFlood flood-opacity="0" result="BackgroundImageFix"/>
<feColorMatrix in="SourceAlpha" type="matrix" values="0 0 0 0 0 0 0 0 0 0 0 0 0 0 0 0 0 0 127 0"/>
<feOffset dy="3"/>
<feGaussianBlur stdDeviation="2"/>
<feColorMatrix type="matrix" values="0 0 0 0 0.0781875 0 0 0 0 0.371812 0 0 0 0 0.327022 0 0 0 0.4 0"/>
<feBlend mode="normal" in2="BackgroundImageFix" result="effect1_dropShadow"/>
<feBlend mode="normal" in="SourceGraphic" in2="effect1_dropShadow" result="shape"/>
</filter>
<filter id="filter2_d" x="12" y="200" width="168" height="232" filterUnits="userSpaceOnUse" color-interpolation-filters="sRGB">
<feFlood flood-opacity="0" result="BackgroundImageFix"/>
<feColorMatrix in="SourceAlpha" type="matrix" values="0 0 0 0 0 0 0 0 0 0 0 0 0 0 0 0 0 0 127 0"/>
<feOffset dy="3"/>
<feGaussianBlur stdDeviation="2"/>
<feColorMatrix type="matrix" values="0 0 0 0 0.0781875 0 0 0 0 0.371812 0 0 0 0 0.327022 0 0 0 0.4 0"/>
<feBlend mode="normal" in2="BackgroundImageFix" result="effect1_dropShadow"/>
<feBlend mode="normal" in="SourceGraphic" in2="effect1_dropShadow" result="shape"/>
</filter>
<filter id="filter3_d" x="12" y="456" width="168" height="232" filterUnits="userSpaceOnUse" color-interpolation-filters="sRGB">
<feFlood flood-opacity="0" result="BackgroundImageFix"/>
<feColorMatrix in="SourceAlpha" type="matrix" values="0 0 0 0 0 0 0 0 0 0 0 0 0 0 0 0 0 0 127 0"/>
<feOffset dy="3"/>
<feGaussianBlur stdDeviation="2"/>
<feColorMatrix type="matrix" values="0 0 0 0 0.0781875 0 0 0 0 0.371812 0 0 0 0 0.327022 0 0 0 0.4 0"/>
<feBlend mode="normal" in2="BackgroundImageFix" result="effect1_dropShadow"/>
<feBlend mode="normal" in="SourceGraphic" in2="effect1_dropShadow" result="shape"/>
</filter>
<filter id="filter4_d" x="214" y="246" width="132" height="132" filterUnits="userSpaceOnUse" color-interpolation-filters="sRGB">
<feFlood flood-opacity="0" result="BackgroundImageFix"/>
<feColorMatrix in="SourceAlpha" type="matrix" values="0 0 0 0 0 0 0 0 0 0 0 0 0 0 0 0 0 0 127 0"/>
<feOffset/>
<feGaussianBlur stdDeviation="3"/>
<feColorMatrix type="matrix" values="0 0 0 0 0.995833 0 0 0 0 0.848865 0 0 0 0 0.327795 0 0 0 1 0"/>
<feBlend mode="normal" in2="BackgroundImageFix" result="effect1_dropShadow"/>
<feBlend mode="normal" in="SourceGraphic" in2="effect1_dropShadow" result="shape"/>
</filter>
<filter id="filter5_d" x="30" y="246" width="132" height="132" filterUnits="userSpaceOnUse" color-interpolation-filters="sRGB">
<feFlood flood-opacity="0" result="BackgroundImageFix"/>
<feColorMatrix in="SourceAlpha" type="matrix" values="0 0 0 0 0 0 0 0 0 0 0 0 0 0 0 0 0 0 127 0"/>
<feOffset/>
<feGaussianBlur stdDeviation="3"/>
<feColorMatrix type="matrix" values="0 0 0 0 0.95 0 0 0 0 0.447608 0 0 0 0 0.288958 0 0 0 1 0"/>
<feBlend mode="normal" in2="BackgroundImageFix" result="effect1_dropShadow"/>
<feBlend mode="normal" in="SourceGraphic" in2="effect1_dropShadow" result="shape"/>
</filter>
<filter id="filter6_d" x="30" y="505" width="132" height="132.851" filterUnits="userSpaceOnUse" color-interpolation-filters="sRGB">
<feFlood flood-opacity="0" result="BackgroundImageFix"/>
<feColorMatrix in="SourceAlpha" type="matrix" values="0 0 0 0 0 0 0 0 0 0 0 0 0 0 0 0 0 0 127 0"/>
<feOffset/>
<feGaussianBlur stdDeviation="3"/>
<feColorMatrix type="matrix" values="0 0 0 0 0.425833 0 0 0 0 0.7373 0 0 0 0 0.9125 0 0 0 1 0"/>
<feBlend mode="normal" in2="BackgroundImageFix" result="effect1_dropShadow"/>
<feBlend mode="normal" in="SourceGraphic" in2="effect1_dropShadow" result="shape"/>
</filter>
<filter id="filter7_d" x="214" y="505" width="132" height="132" filterUnits="userSpaceOnUse" color-interpolation-filters="sRGB">
<feFlood flood-opacity="0" result="BackgroundImageFix"/>
<feColorMatrix in="SourceAlpha" type="matrix" values="0 0 0 0 0 0 0 0 0 0 0 0 0 0 0 0 0 0 127 0"/>
<feOffset/>
<feGaussianBlur stdDeviation="3"/>
<feColorMatrix type="matrix" values="0 0 0 0 0.338108 0 0 0 0 0.854167 0 0 0 0 0.544531 0 0 0 1 0"/>
<feBlend mode="normal" in2="BackgroundImageFix" result="effect1_dropShadow"/>
<feBlend mode="normal" in="SourceGraphic" in2="effect1_dropShadow" result="shape"/>
</filter>
<filter id="filter8_d" x="-22" y="697" width="420" height="132" filterUnits="userSpaceOnUse" color-interpolation-filters="sRGB">
<feFlood flood-opacity="0" result="BackgroundImageFix"/>
<feColorMatrix in="SourceAlpha" type="matrix" values="0 0 0 0 0 0 0 0 0 0 0 0 0 0 0 0 0 0 127 0"/>
<feOffset dy="-5"/>
<feGaussianBlur stdDeviation="11"/>
<feColorMatrix type="matrix" values="0 0 0 0 0 0 0 0 0 0 0 0 0 0 0 0 0 0 0.1 0"/>
<feBlend mode="normal" in2="BackgroundImageFix" result="effect1_dropShadow"/>
<feBlend mode="normal" in="SourceGraphic" in2="effect1_dropShadow" result="shape"/>
</filter>
<linearGradient id="paint0_linear" x1="237.353" y1="268.103" x2="315.154" y2="356.334" gradientUnits="userSpaceOnUse">
<stop stop-color="#FED854"/>
<stop offset="1" stop-color="#FEBA54"/>
</linearGradient>
<linearGradient id="paint1_linear" x1="96" y1="252" x2="79.9828" y2="336.471" gradientUnits="userSpaceOnUse">
<stop stop-color="#FA6647"/>
<stop offset="1" stop-color="#F94B3D"/>
</linearGradient>
<linearGradient id="paint2_linear" x1="96.0011" y1="511" x2="96.0011" y2="631.851" gradientUnits="userSpaceOnUse">
<stop stop-color="#6DE2E9"/>
<stop offset="1" stop-color="#6DBCE9"/>
</linearGradient>
<linearGradient id="paint3_linear" x1="330.343" y1="630.311" x2="364.675" y2="549.126" gradientUnits="userSpaceOnUse">
<stop stop-color="#47B42E"/>
<stop offset="1" stop-color="#76CE43"/>
</linearGradient>
<clipPath id="clip0">
<rect width="376" height="812" fill="white"/>
</clipPath>
</defs>
</svg>
