<svg xmlns="http://www.w3.org/2000/svg" xmlns:xlink="http://www.w3.org/1999/xlink" viewBox="0 0 145 48"><defs><style>.cls-1{fill:#bff7a1;}.cls-2{fill:#272631;}.cls-3{fill:url(#Sfumatura_senza_nome_6);}.cls-4{fill:#fff;}.cls-5{fill:url(#Sfumatura_senza_nome_6-2);}</style><linearGradient id="Sfumatura_senza_nome_6" x1="14.99" y1="-429.95" x2="27.6" y2="-400.15" gradientTransform="matrix(1, 0, 0, -1, 0, -394.11)" gradientUnits="userSpaceOnUse"><stop offset="0" stop-color="#47b42e"/><stop offset="1" stop-color="#76ce43"/></linearGradient><linearGradient id="Sfumatura_senza_nome_6-2" x1="17.73" y1="-423.49" x2="23.45" y2="-409.96" xlink:href="#Sfumatura_senza_nome_6"/></defs><g id="Livello_2" data-name="Livello 2"><g id="Livello_1-2" data-name="Livello 1"><path class="cls-1" d="M25,20A20,20,0,0,1,45,0h80a20,20,0,0,1,20,20v8a20,20,0,0,1-20,20H45A20,20,0,0,1,25,28Z"/><path class="cls-2" d="M67.35,29.17a5.75,5.75,0,0,1-2.72-.65,5,5,0,0,1-1.9-1.8A5.05,5.05,0,0,1,62,24.1a4.93,4.93,0,0,1,.69-2.6,4.86,4.86,0,0,1,1.9-1.81,6,6,0,0,1,5-.21,4.66,4.66,0,0,1,1.74,1.29l-1.46,1.34A3.14,3.14,0,0,0,67.48,21a3.26,3.26,0,0,0-1.63.41,2.85,2.85,0,0,0-1.12,1.11,3.56,3.56,0,0,0,0,3.24,2.94,2.94,0,0,0,1.12,1.12,3.36,3.36,0,0,0,1.63.4,3.1,3.1,0,0,0,2.46-1.17l1.46,1.35a4.58,4.58,0,0,1-1.74,1.3A5.73,5.73,0,0,1,67.35,29.17Zm8.41-7.81a3.88,3.88,0,0,1,2.68.84,3.14,3.14,0,0,1,.94,2.5V29h-2v-.94A2.44,2.44,0,0,1,75,29.11a3.7,3.7,0,0,1-1.51-.29,2.27,2.27,0,0,1-1-.81,2.09,2.09,0,0,1-.34-1.18A2,2,0,0,1,73,25.18a4.07,4.07,0,0,1,2.45-.6H77.2a1.39,1.39,0,0,0-.44-1.1,1.87,1.87,0,0,0-1.3-.39,3.81,3.81,0,0,0-1.19.2,3.12,3.12,0,0,0-1,.5l-.78-1.52A4.75,4.75,0,0,1,74,21.59,6.64,6.64,0,0,1,75.76,21.36Zm-.17,6.28a1.92,1.92,0,0,0,1-.25,1.44,1.44,0,0,0,.62-.77v-.77H75.7c-.89,0-1.34.29-1.34.88a.78.78,0,0,0,.32.67A1.53,1.53,0,0,0,75.59,27.64Zm5.77-9h2.18V29H81.36Zm13.86,2.75a3,3,0,0,1,2.24.84,3.35,3.35,0,0,1,.84,2.49V29H96.11V25a2,2,0,0,0-.37-1.33,1.32,1.32,0,0,0-1.06-.44,1.51,1.51,0,0,0-1.21.5A2.12,2.12,0,0,0,93,25.22V29H90.84V25c0-1.18-.48-1.77-1.43-1.77a1.52,1.52,0,0,0-1.21.5,2.12,2.12,0,0,0-.44,1.47V29H85.57V21.47h2.09v.87a2.77,2.77,0,0,1,1-.73A3.47,3.47,0,0,1,90,21.36a3.08,3.08,0,0,1,1.44.32,2.47,2.47,0,0,1,1,.91,3.14,3.14,0,0,1,1.16-.91A3.69,3.69,0,0,1,95.22,21.36Zm8.7,7.75a4.56,4.56,0,0,1-2.14-.49,3.69,3.69,0,0,1-1.47-1.38,4.06,4.06,0,0,1,0-4,3.6,3.6,0,0,1,1.47-1.37,4.81,4.81,0,0,1,4.27,0,3.73,3.73,0,0,1,1.47,1.37,3.83,3.83,0,0,1-1.47,5.39A4.52,4.52,0,0,1,103.92,29.11Zm0-1.79a1.81,1.81,0,0,0,1.37-.56,2.1,2.1,0,0,0,.55-1.53,2,2,0,0,0-.55-1.51,1.78,1.78,0,0,0-1.37-.57,1.85,1.85,0,0,0-1.39.57,2.08,2.08,0,0,0-.54,1.51,2.13,2.13,0,0,0,.54,1.53A1.88,1.88,0,0,0,103.92,27.32Z"/><circle class="cls-3" cx="20" cy="24" r="20"/><circle class="cls-4" cx="20" cy="24" r="16"/><path class="cls-5" d="M20,33.08A9.08,9.08,0,1,0,10.92,24,9.08,9.08,0,0,0,20,33.08Z"/></g></g></svg>