<svg xmlns="http://www.w3.org/2000/svg" xmlns:xlink="http://www.w3.org/1999/xlink" viewBox="0 0 145 48"><defs><style>.cls-1{fill:#bff7a1;}.cls-2{fill:#272631;}.cls-3{fill:url(#Sfumatura_senza_nome_4);}.cls-4{fill:#fff;}.cls-5{fill:url(#Sfumatura_senza_nome_4-2);}</style><linearGradient id="Sfumatura_senza_nome_4" x1="14.99" y1="304.05" x2="27.6" y2="333.85" gradientTransform="matrix(1, 0, 0, -1, 0, 339.89)" gradientUnits="userSpaceOnUse"><stop offset="0" stop-color="#47b42e"/><stop offset="1" stop-color="#76ce43"/></linearGradient><linearGradient id="Sfumatura_senza_nome_4-2" x1="17.73" y1="310.51" x2="23.45" y2="324.04" xlink:href="#Sfumatura_senza_nome_4"/></defs><g id="Livello_2" data-name="Livello 2"><g id="Livello_1-2" data-name="Livello 1"><path class="cls-1" d="M25,20A20,20,0,0,1,45,0h80a20,20,0,0,1,20,20v8a20,20,0,0,1-20,20H45A20,20,0,0,1,25,28Z"/><path class="cls-2" d="M59.46,29l-1.89-2.73H55.48V29H53.21V19.2h4.24a5.59,5.59,0,0,1,2.26.43,3.3,3.3,0,0,1,1.48,1.24,3.35,3.35,0,0,1,.52,1.89,3.4,3.4,0,0,1-.53,1.89,3.35,3.35,0,0,1-1.48,1.2L61.89,29Zm0-6.24a1.51,1.51,0,0,0-.54-1.26,2.33,2.33,0,0,0-1.55-.45H55.48v3.41h1.85A2.33,2.33,0,0,0,58.88,24,1.55,1.55,0,0,0,59.42,22.76Zm3.93-1.29h2.19V29H63.35Zm1.1-1a1.38,1.38,0,0,1-1-.35,1.19,1.19,0,0,1,0-1.74,1.38,1.38,0,0,1,1-.35,1.41,1.41,0,0,1,1,.34,1.07,1.07,0,0,1,.37.84,1.23,1.23,0,0,1-.37.91A1.42,1.42,0,0,1,64.45,20.42Zm3.12-1.81h2.18V29H67.57Zm7.24,2.75a3.89,3.89,0,0,1,2.69.84,3.14,3.14,0,0,1,.94,2.5V29h-2v-.94a2.45,2.45,0,0,1-2.3,1.05,3.7,3.7,0,0,1-1.51-.29,2.36,2.36,0,0,1-1-.81,2.16,2.16,0,0,1-.33-1.18,2,2,0,0,1,.78-1.65,4.07,4.07,0,0,1,2.45-.6h1.74a1.39,1.39,0,0,0-.44-1.1,1.89,1.89,0,0,0-1.3-.39,3.76,3.76,0,0,0-1.19.2,3.12,3.12,0,0,0-1,.5l-.78-1.52A4.75,4.75,0,0,1,73,21.59,6.56,6.56,0,0,1,74.81,21.36Zm-.16,6.28a1.92,1.92,0,0,0,1-.25,1.49,1.49,0,0,0,.62-.77v-.77h-1.5c-.9,0-1.35.29-1.35.88a.79.79,0,0,0,.33.67A1.51,1.51,0,0,0,74.65,27.64ZM83,29.11a7.45,7.45,0,0,1-1.83-.22,5,5,0,0,1-1.43-.59l.73-1.57a4.5,4.5,0,0,0,1.21.53,5.38,5.38,0,0,0,1.4.2c.93,0,1.39-.23,1.39-.69a.49.49,0,0,0-.38-.46,6.14,6.14,0,0,0-1.16-.24,11.17,11.17,0,0,1-1.53-.32,2.39,2.39,0,0,1-1-.64,1.9,1.9,0,0,1-.43-1.32,2.09,2.09,0,0,1,.41-1.26,2.75,2.75,0,0,1,1.2-.87,5.33,5.33,0,0,1,1.88-.3,7,7,0,0,1,1.58.18,4.34,4.34,0,0,1,1.31.47l-.72,1.56A4.41,4.41,0,0,0,83.36,23a2.21,2.21,0,0,0-1,.19.57.57,0,0,0-.35.51.5.5,0,0,0,.37.49,7,7,0,0,0,1.21.26,13.61,13.61,0,0,1,1.51.34,2.19,2.19,0,0,1,1,.63,1.82,1.82,0,0,1,.44,1.29A2,2,0,0,1,86.09,28a2.7,2.7,0,0,1-1.24.86A5.62,5.62,0,0,1,83,29.11Zm7.44,0a7.53,7.53,0,0,1-1.84-.22,5,5,0,0,1-1.42-.59l.72-1.57a4.72,4.72,0,0,0,1.22.53,5.32,5.32,0,0,0,1.4.2c.93,0,1.39-.23,1.39-.69a.49.49,0,0,0-.38-.46,6.14,6.14,0,0,0-1.16-.24,10.85,10.85,0,0,1-1.53-.32,2.39,2.39,0,0,1-1.05-.64,1.86,1.86,0,0,1-.43-1.32,2.08,2.08,0,0,1,.4-1.26,2.73,2.73,0,0,1,1.21-.87,5.32,5.32,0,0,1,1.87-.3,7.11,7.11,0,0,1,1.59.18,4.34,4.34,0,0,1,1.31.47L93,23.57A4.36,4.36,0,0,0,90.79,23a2.26,2.26,0,0,0-1.05.19.58.58,0,0,0-.35.51.5.5,0,0,0,.38.49,6.6,6.6,0,0,0,1.21.26,13.61,13.61,0,0,1,1.51.34,2.19,2.19,0,0,1,1,.63,1.81,1.81,0,0,1,.43,1.29A2,2,0,0,1,93.52,28a2.72,2.72,0,0,1-1.23.86A5.67,5.67,0,0,1,90.39,29.11Zm7.94-7.75a3.91,3.91,0,0,1,2.69.84,3.17,3.17,0,0,1,.93,2.5V29h-2v-.94a2.44,2.44,0,0,1-2.3,1.05,3.73,3.73,0,0,1-1.51-.29,2.27,2.27,0,0,1-1-.81,2.09,2.09,0,0,1-.34-1.18,2,2,0,0,1,.78-1.65,4.11,4.11,0,0,1,2.46-.6h1.73a1.39,1.39,0,0,0-.43-1.1,1.91,1.91,0,0,0-1.3-.39,3.72,3.72,0,0,0-1.19.2,3.18,3.18,0,0,0-1,.5l-.78-1.52a4.75,4.75,0,0,1,1.47-.68A6.64,6.64,0,0,1,98.33,21.36Zm-.17,6.28a1.87,1.87,0,0,0,1-.25,1.4,1.4,0,0,0,.62-.77v-.77h-1.5c-.89,0-1.34.29-1.34.88a.81.81,0,0,0,.32.67A1.56,1.56,0,0,0,98.16,27.64Zm10.63,1a2.19,2.19,0,0,1-.8.36,3.87,3.87,0,0,1-1,.11,3,3,0,0,1-2.08-.68,2.63,2.63,0,0,1-.73-2V23.32H103V21.64h1.16V19.8h2.18v1.84h1.88v1.68h-1.88v3.06a1,1,0,0,0,.24.74.94.94,0,0,0,.7.26,1.42,1.42,0,0,0,.88-.28Zm4.58.47a4.53,4.53,0,0,1-2.14-.49,3.69,3.69,0,0,1-1.47-1.38,4,4,0,0,1,0-4,3.6,3.6,0,0,1,1.47-1.37,4.42,4.42,0,0,1,2.14-.5,4.34,4.34,0,0,1,2.12.5A3.6,3.6,0,0,1,117,23.23a4,4,0,0,1,0,4,3.69,3.69,0,0,1-1.47,1.38A4.45,4.45,0,0,1,113.37,29.11Zm0-1.79a1.81,1.81,0,0,0,1.37-.56,2.14,2.14,0,0,0,.55-1.53,2.11,2.11,0,0,0-.55-1.51,1.78,1.78,0,0,0-1.37-.57,1.85,1.85,0,0,0-1.39.57,2.11,2.11,0,0,0-.55,1.51,2.14,2.14,0,0,0,.55,1.53A1.88,1.88,0,0,0,113.37,27.32Z"/><circle class="cls-3" cx="20" cy="24" r="20"/><circle class="cls-4" cx="20" cy="24" r="16"/><path class="cls-5" d="M20,33.08A9.08,9.08,0,1,0,10.92,24,9.08,9.08,0,0,0,20,33.08Z"/></g></g></svg>