<svg xmlns="http://www.w3.org/2000/svg" xmlns:xlink="http://www.w3.org/1999/xlink" viewBox="0 0 145 48"><defs><style>.cls-1{fill:#bff7a1;}.cls-2{fill:#272631;}.cls-3{fill:url(#Sfumatura_senza_nome_8);}.cls-4{fill:#fff;}.cls-5{fill:url(#Sfumatura_senza_nome_8-2);}</style><linearGradient id="Sfumatura_senza_nome_8" x1="14.99" y1="-195.95" x2="27.6" y2="-166.15" gradientTransform="matrix(1, 0, 0, -1, 0, -160.11)" gradientUnits="userSpaceOnUse"><stop offset="0" stop-color="#47b42e"/><stop offset="1" stop-color="#76ce43"/></linearGradient><linearGradient id="Sfumatura_senza_nome_8-2" x1="17.73" y1="-189.49" x2="23.45" y2="-175.96" xlink:href="#Sfumatura_senza_nome_8"/></defs><g id="Livello_2" data-name="Livello 2"><g id="Livello_1-2" data-name="Livello 1"><rect class="cls-1" x="25" width="120" height="48" rx="20"/><path class="cls-2" d="M63.67,29.17a8.11,8.11,0,0,1-2.26-.31A5.07,5.07,0,0,1,59.68,28l.77-1.7a5.32,5.32,0,0,0,1.49.74,5.55,5.55,0,0,0,1.74.28,2.82,2.82,0,0,0,1.43-.28.89.89,0,0,0,.46-.77.71.71,0,0,0-.28-.58,2,2,0,0,0-.7-.37A10.34,10.34,0,0,0,63.44,25a18.29,18.29,0,0,1-1.83-.53,3,3,0,0,1-1.23-.86,2.3,2.3,0,0,1-.51-1.57,2.71,2.71,0,0,1,.46-1.54,3.12,3.12,0,0,1,1.39-1.1A5.77,5.77,0,0,1,64,19a7.4,7.4,0,0,1,1.83.23,5.17,5.17,0,0,1,1.57.64l-.7,1.72A5.48,5.48,0,0,0,64,20.85a2.56,2.56,0,0,0-1.42.31.94.94,0,0,0-.45.81.82.82,0,0,0,.52.76,8.54,8.54,0,0,0,1.61.47,16,16,0,0,1,1.84.54,2.82,2.82,0,0,1,1.21.84,2.2,2.2,0,0,1,.52,1.55,2.66,2.66,0,0,1-.47,1.54A3.14,3.14,0,0,1,66,28.76,5.77,5.77,0,0,1,63.67,29.17ZM76.6,25.26s0,.23,0,.59H70.86A1.79,1.79,0,0,0,71.58,27a2.43,2.43,0,0,0,1.43.4,2.8,2.8,0,0,0,1-.17,2.42,2.42,0,0,0,.85-.56l1.17,1.26A3.89,3.89,0,0,1,73,29.11a5,5,0,0,1-2.26-.49,3.74,3.74,0,0,1-1.51-1.38,3.87,3.87,0,0,1-.53-2,3.78,3.78,0,0,1,.52-2,3.63,3.63,0,0,1,1.44-1.39,4.16,4.16,0,0,1,2.06-.5,4.3,4.3,0,0,1,2,.47,3.48,3.48,0,0,1,1.4,1.37A4.07,4.07,0,0,1,76.6,25.26ZM72.69,23a1.86,1.86,0,0,0-1.24.42,1.75,1.75,0,0,0-.62,1.15h3.71A1.81,1.81,0,0,0,72.69,23Zm7.45-.55a2.39,2.39,0,0,1,1-.82,3.92,3.92,0,0,1,1.54-.28v2l-.49,0a2,2,0,0,0-1.47.54,2.05,2.05,0,0,0-.54,1.56V29H78.05V21.47h2.09Zm11.19,2.8s0,.23,0,.59H85.6A1.79,1.79,0,0,0,86.32,27a2.43,2.43,0,0,0,1.43.4,2.8,2.8,0,0,0,1-.17,2.42,2.42,0,0,0,.85-.56l1.16,1.26a3.87,3.87,0,0,1-3.1,1.22,5,5,0,0,1-2.26-.49,3.68,3.68,0,0,1-1.51-1.38,3.87,3.87,0,0,1-.53-2,3.78,3.78,0,0,1,.52-2,3.63,3.63,0,0,1,1.44-1.39,4.16,4.16,0,0,1,2.06-.5,4.3,4.3,0,0,1,2,.47,3.48,3.48,0,0,1,1.4,1.37A4.06,4.06,0,0,1,91.33,25.26ZM87.43,23a1.89,1.89,0,0,0-1.25.42,1.78,1.78,0,0,0-.61,1.15h3.71A1.81,1.81,0,0,0,87.43,23Zm9.94-1.65a3.07,3.07,0,0,1,2.25.84,3.31,3.31,0,0,1,.87,2.49V29H98.3V25a2,2,0,0,0-.39-1.33,1.41,1.41,0,0,0-1.13-.44,1.76,1.76,0,0,0-1.32.51A2.13,2.13,0,0,0,95,25.28V29H92.79V21.47h2.09v.88A2.79,2.79,0,0,1,96,21.62,3.82,3.82,0,0,1,97.37,21.36Zm8.77,7.75a4.6,4.6,0,0,1-2.15-.49,3.92,3.92,0,0,1-1.47-5.39A3.73,3.73,0,0,1,104,21.86a4.49,4.49,0,0,1,2.15-.5,4.34,4.34,0,0,1,2.12.5,3.6,3.6,0,0,1,1.47,1.37,4,4,0,0,1,0,4,3.69,3.69,0,0,1-1.47,1.38A4.45,4.45,0,0,1,106.14,29.11Zm0-1.79a1.82,1.82,0,0,0,1.37-.56,2.13,2.13,0,0,0,.54-1.53,2.1,2.1,0,0,0-.54-1.51,1.8,1.8,0,0,0-1.37-.57,1.84,1.84,0,0,0-1.39.57,2.11,2.11,0,0,0-.55,1.51,2.14,2.14,0,0,0,.55,1.53A1.87,1.87,0,0,0,106.14,27.32Z"/><circle class="cls-3" cx="20" cy="24" r="20"/><circle class="cls-4" cx="20" cy="24" r="16"/><path class="cls-5" d="M20,33.08A9.08,9.08,0,1,0,10.92,24,9.08,9.08,0,0,0,20,33.08Z"/></g></g></svg>