<svg xmlns="http://www.w3.org/2000/svg" viewBox="0 0 460.32 631.04"><defs><style>.cls-1{fill:#5f5e6e;}.cls-2{fill:#fbfefd;}.cls-3{fill:none;stroke:#c1ddc8;stroke-linejoin:bevel;stroke-width:7px;}.cls-4{fill:#ebf7ee;}</style></defs><g id="Livello_2" data-name="Livello 2"><g id="Livello_1-2" data-name="Livello 1"><path class="cls-1" d="M132.67,631a5.68,5.68,0,0,1-2.71-.64,5.15,5.15,0,0,1-1.91-7,4.8,4.8,0,0,1,1.91-1.8,6,6,0,0,1,5-.21,4.54,4.54,0,0,1,1.74,1.28L135.26,624a3.11,3.11,0,0,0-2.46-1.15,3.16,3.16,0,0,0-1.63.41,2.89,2.89,0,0,0-1.12,1.1,3.58,3.58,0,0,0,0,3.25,2.94,2.94,0,0,0,1.12,1.12,3.36,3.36,0,0,0,1.63.39,3.12,3.12,0,0,0,2.46-1.16l1.46,1.34A4.61,4.61,0,0,1,135,630.6,5.91,5.91,0,0,1,132.67,631Zm8.41-7.81a3.91,3.91,0,0,1,2.69.84,3.19,3.19,0,0,1,.93,2.51v4.3h-2v-.94a2.44,2.44,0,0,1-2.3,1,3.57,3.57,0,0,1-1.51-.3,2.14,2.14,0,0,1-1-.81,2.06,2.06,0,0,1-.34-1.17,2,2,0,0,1,.78-1.66,4.09,4.09,0,0,1,2.45-.6h1.74a1.37,1.37,0,0,0-.43-1.09,1.92,1.92,0,0,0-1.31-.39,3.79,3.79,0,0,0-1.19.19,3,3,0,0,0-1,.51l-.78-1.53a4.74,4.74,0,0,1,1.47-.67A6.64,6.64,0,0,1,141.08,623.23Zm-.17,6.29a2,2,0,0,0,1-.25,1.48,1.48,0,0,0,.62-.77v-.77H141c-.89,0-1.34.29-1.34.88a.82.82,0,0,0,.32.67A1.53,1.53,0,0,0,140.91,629.52Zm5.77-9h2.19v10.39h-2.19Zm13.86,2.74a3,3,0,0,1,2.24.84,3.35,3.35,0,0,1,.84,2.49v4.32h-2.19v-4a2,2,0,0,0-.37-1.33,1.29,1.29,0,0,0-1.05-.45,1.53,1.53,0,0,0-1.22.51,2.09,2.09,0,0,0-.45,1.47v3.78h-2.18v-4c0-1.19-.48-1.78-1.43-1.78a1.53,1.53,0,0,0-1.21.51,2.13,2.13,0,0,0-.44,1.47v3.78h-2.19v-7.54H153v.87a2.77,2.77,0,0,1,1-.73,3.67,3.67,0,0,1,1.34-.25,3.25,3.25,0,0,1,1.45.32,2.52,2.52,0,0,1,1,.91,3.24,3.24,0,0,1,1.16-.91A3.85,3.85,0,0,1,160.54,623.23Zm8.7,7.76a4.68,4.68,0,0,1-2.14-.49,3.92,3.92,0,0,1-1.47-5.39,3.54,3.54,0,0,1,1.47-1.37,4.72,4.72,0,0,1,4.27,0,3.66,3.66,0,0,1,1.47,1.37,3.84,3.84,0,0,1-1.47,5.39A4.64,4.64,0,0,1,169.24,631Zm0-1.79a1.81,1.81,0,0,0,1.37-.56,2.13,2.13,0,0,0,.55-1.53,2,2,0,0,0-.55-1.51,1.75,1.75,0,0,0-1.37-.58,1.79,1.79,0,0,0-1.38.58,2,2,0,0,0-.55,1.51,2.13,2.13,0,0,0,.55,1.53A1.85,1.85,0,0,0,169.24,629.2Z"/><path class="cls-2" d="M118.32,590.88a16,16,0,0,0,16,16h310a16,16,0,0,0,16-16v-448a16,16,0,0,0-16-16H217.7a16,16,0,0,0-11,4.4l-83.38,79.34a16,16,0,0,0-5,11.59Z"/><path class="cls-1" d="M385.08,101.08a5.41,5.41,0,0,1,2.25.43,3.24,3.24,0,0,1,2,3.12,3.39,3.39,0,0,1-.52,1.89,3.35,3.35,0,0,1-1.48,1.23,5.58,5.58,0,0,1-2.25.42h-2v2.71h-2.27v-9.8Zm-.13,5.25a2.39,2.39,0,0,0,1.55-.44,1.55,1.55,0,0,0,.54-1.26,1.52,1.52,0,0,0-.54-1.26,2.33,2.33,0,0,0-1.55-.45H383.1v3.41Zm5.85-3H393v7.54H390.8Zm1.09-1a1.36,1.36,0,0,1-1-.35,1.17,1.17,0,0,1,0-1.73,1.36,1.36,0,0,1,1-.35,1.43,1.43,0,0,1,1,.33,1.1,1.1,0,0,1,.38.84,1.21,1.21,0,0,1-.38.91A1.36,1.36,0,0,1,391.89,102.29Zm6.16.94a3.88,3.88,0,0,1,2.68.84,3.16,3.16,0,0,1,.94,2.51v4.3h-2v-.94a2.44,2.44,0,0,1-2.3,1,3.54,3.54,0,0,1-1.51-.3,2.22,2.22,0,0,1-1-.81,2.13,2.13,0,0,1-.33-1.17,2,2,0,0,1,.78-1.66,4.07,4.07,0,0,1,2.45-.6h1.74a1.37,1.37,0,0,0-.44-1.09,1.89,1.89,0,0,0-1.3-.39,3.75,3.75,0,0,0-1.19.19,2.94,2.94,0,0,0-1,.51l-.78-1.53a4.74,4.74,0,0,1,1.47-.67A6.64,6.64,0,0,1,398.05,103.23Zm-.17,6.29a2,2,0,0,0,1-.25,1.48,1.48,0,0,0,.62-.77v-.77H398c-.9,0-1.34.29-1.34.88a.79.79,0,0,0,.32.67A1.51,1.51,0,0,0,397.88,109.52Zm9.49,1.47a4.81,4.81,0,0,1-2.17-.49,3.94,3.94,0,0,1-1.5-1.39,4,4,0,0,1,0-4,3.74,3.74,0,0,1,1.5-1.37,4.57,4.57,0,0,1,2.17-.51,4.07,4.07,0,0,1,2.07.51,2.83,2.83,0,0,1,1.3,1.41l-1.69.91a1.86,1.86,0,0,0-1.69-1,2,2,0,0,0-1.42.56,2.37,2.37,0,0,0,0,3.06,2,2,0,0,0,1.42.56,1.84,1.84,0,0,0,1.69-1l1.69.92a2.94,2.94,0,0,1-1.3,1.4A4.07,4.07,0,0,1,407.37,111Zm11.91-3.85s0,.22,0,.59h-5.7a1.82,1.82,0,0,0,.73,1.1,2.42,2.42,0,0,0,1.43.41,3,3,0,0,0,1-.17,2.67,2.67,0,0,0,.85-.56l1.16,1.26a3.91,3.91,0,0,1-3.11,1.22,5,5,0,0,1-2.25-.49,3.7,3.7,0,0,1-1.51-1.39,3.74,3.74,0,0,1-.53-2,3.9,3.9,0,0,1,.51-2,3.63,3.63,0,0,1,1.45-1.38,4.16,4.16,0,0,1,2.05-.51,4.2,4.2,0,0,1,2,.48,3.42,3.42,0,0,1,1.4,1.37A4,4,0,0,1,419.28,107.14Zm-3.9-2.26a1.89,1.89,0,0,0-1.25.42,1.81,1.81,0,0,0-.61,1.15h3.71a1.79,1.79,0,0,0-.62-1.13A1.84,1.84,0,0,0,415.38,104.88Zm12.7-1.54-3.18,7.54h-2.26l-3.16-7.54h2.25l2.09,5.13,2.16-5.13Zm4.27,7.65a4.65,4.65,0,0,1-2.14-.49,3.9,3.9,0,0,1-1.47-5.39,3.54,3.54,0,0,1,1.47-1.37,4.72,4.72,0,0,1,4.27,0,3.66,3.66,0,0,1,1.47,1.37,3.84,3.84,0,0,1-1.47,5.39A4.64,4.64,0,0,1,432.35,111Zm0-1.79a1.82,1.82,0,0,0,1.37-.56,2.17,2.17,0,0,0,.55-1.53,2.07,2.07,0,0,0-.55-1.51,1.77,1.77,0,0,0-1.37-.58,1.83,1.83,0,0,0-1.39.58,2.07,2.07,0,0,0-.54,1.51,2.17,2.17,0,0,0,.54,1.53A1.88,1.88,0,0,0,432.35,109.2Zm5.59-8.71h2.18v10.39h-2.18Zm11.59,6.65s0,.22,0,.59h-5.69a1.77,1.77,0,0,0,.72,1.1,2.44,2.44,0,0,0,1.43.41,3,3,0,0,0,1-.17,2.56,2.56,0,0,0,.85-.56l1.16,1.26a3.9,3.9,0,0,1-3.1,1.22,5.11,5.11,0,0,1-2.26-.49,3.7,3.7,0,0,1-1.51-1.39,4.05,4.05,0,0,1,0-4,3.54,3.54,0,0,1,1.44-1.38,4.41,4.41,0,0,1,4.06,0,3.36,3.36,0,0,1,1.4,1.37A4,4,0,0,1,449.53,107.14Zm-3.91-2.26a1.91,1.91,0,0,0-1.25.42,1.81,1.81,0,0,0-.61,1.15h3.71a1.83,1.83,0,0,0-1.85-1.57Z"/><path class="cls-3" d="M134.82,129.88l91,91m0,0-20,20v38m20-58,36.5,36.5m59,59h35l21,21v79.5m-56-100.5-59-59m59,59-90,100.5v119.5m31-279h109.5l21-21v-37.5"/><rect class="cls-4" x="24.62" y="24.62" width="134.88" height="134.88" rx="8" transform="translate(-38.13 92.06) rotate(-45)"/></g></g></svg>