<svg xmlns="http://www.w3.org/2000/svg" xmlns:xlink="http://www.w3.org/1999/xlink" viewBox="0 0 145 48"><defs><style>.cls-1{fill:#bff7a1;}.cls-2{fill:#272631;}.cls-3{fill:url(#Sfumatura_senza_nome_2);}.cls-4{fill:#fff;}.cls-5{fill:url(#Sfumatura_senza_nome_2-2);}</style><linearGradient id="Sfumatura_senza_nome_2" x1="14.99" y1="70.05" x2="27.6" y2="99.85" gradientTransform="matrix(1, 0, 0, -1, 0, 105.89)" gradientUnits="userSpaceOnUse"><stop offset="0" stop-color="#47b42e"/><stop offset="1" stop-color="#76ce43"/></linearGradient><linearGradient id="Sfumatura_senza_nome_2-2" x1="17.73" y1="76.51" x2="23.45" y2="90.04" xlink:href="#Sfumatura_senza_nome_2"/></defs><g id="Livello_2" data-name="Livello 2"><g id="Livello_1-2" data-name="Livello 1"><path class="cls-1" d="M25,20A20,20,0,0,1,45,0h80a20,20,0,0,1,20,20v8a20,20,0,0,1-20,20H45A20,20,0,0,1,25,28Z"/><path class="cls-2" d="M49.79,29.17a8,8,0,0,1-2.25-.31A5.42,5.42,0,0,1,45.8,28l.77-1.7a5.77,5.77,0,0,0,3.23,1,2.79,2.79,0,0,0,1.43-.28.89.89,0,0,0,.46-.77.71.71,0,0,0-.28-.58,1.93,1.93,0,0,0-.7-.37A10.7,10.7,0,0,0,49.57,25a18.58,18.58,0,0,1-1.84-.53,3.09,3.09,0,0,1-1.23-.86,2.3,2.3,0,0,1-.5-1.57,2.71,2.71,0,0,1,.46-1.54,3.15,3.15,0,0,1,1.38-1.1A5.79,5.79,0,0,1,50.13,19a7.52,7.52,0,0,1,1.83.23,5.17,5.17,0,0,1,1.57.64l-.7,1.72a5.51,5.51,0,0,0-2.72-.77,2.54,2.54,0,0,0-1.41.31.94.94,0,0,0-.45.81.81.81,0,0,0,.52.76,8.09,8.09,0,0,0,1.61.47,15.73,15.73,0,0,1,1.83.54,2.86,2.86,0,0,1,1.22.84A2.25,2.25,0,0,1,54,26.13a2.67,2.67,0,0,1-.48,1.54,3.08,3.08,0,0,1-1.4,1.09A5.7,5.7,0,0,1,49.79,29.17Zm10-7.81a3.72,3.72,0,0,1,1.91.49,3.4,3.4,0,0,1,1.36,1.35,4.15,4.15,0,0,1,.49,2,4.23,4.23,0,0,1-.49,2.05,3.55,3.55,0,0,1-1.36,1.36,3.92,3.92,0,0,1-1.91.47,2.88,2.88,0,0,1-2.26-.91v3.52H55.34V21.47h2.09v.87A2.87,2.87,0,0,1,59.79,21.36Zm-.37,6a1.82,1.82,0,0,0,1.37-.56,2.13,2.13,0,0,0,.54-1.53,2.1,2.1,0,0,0-.54-1.51,1.8,1.8,0,0,0-1.37-.57,1.84,1.84,0,0,0-1.39.57,2.14,2.14,0,0,0-.53,1.51A2.17,2.17,0,0,0,58,26.76,1.87,1.87,0,0,0,59.42,27.32Zm13-2.06s0,.23,0,.59h-5.7A1.76,1.76,0,0,0,67.38,27a2.38,2.38,0,0,0,1.42.4,2.8,2.8,0,0,0,1-.17,2.42,2.42,0,0,0,.85-.56l1.17,1.26a3.89,3.89,0,0,1-3.11,1.22,5,5,0,0,1-2.26-.49A3.74,3.74,0,0,1,65,27.24a3.87,3.87,0,0,1-.53-2,3.78,3.78,0,0,1,.52-2,3.63,3.63,0,0,1,1.44-1.39,4.19,4.19,0,0,1,2.06-.5,4.3,4.3,0,0,1,2,.47,3.48,3.48,0,0,1,1.4,1.37A4.07,4.07,0,0,1,72.39,25.26ZM68.48,23a1.86,1.86,0,0,0-1.24.42,1.75,1.75,0,0,0-.62,1.15h3.71A1.81,1.81,0,0,0,68.48,23Zm9.94-1.65a3.07,3.07,0,0,1,2.25.84,3.31,3.31,0,0,1,.87,2.49V29H79.36V25a1.91,1.91,0,0,0-.4-1.33,1.4,1.4,0,0,0-1.13-.44,1.76,1.76,0,0,0-1.32.51A2.13,2.13,0,0,0,76,25.28V29H73.84V21.47h2.09v.88A2.87,2.87,0,0,1,77,21.62,3.86,3.86,0,0,1,78.42,21.36Zm7.64,7.75a7.53,7.53,0,0,1-1.84-.22,5.09,5.09,0,0,1-1.43-.59l.73-1.57a4.58,4.58,0,0,0,1.22.53,5.26,5.26,0,0,0,1.4.2c.92,0,1.39-.23,1.39-.69a.49.49,0,0,0-.38-.46A6.32,6.32,0,0,0,86,26.07a10.85,10.85,0,0,1-1.53-.32,2.39,2.39,0,0,1-1-.64A1.86,1.86,0,0,1,83,23.79a2.09,2.09,0,0,1,.41-1.26,2.75,2.75,0,0,1,1.2-.87,5.37,5.37,0,0,1,1.88-.3,7,7,0,0,1,1.58.18,4.51,4.51,0,0,1,1.32.47l-.73,1.56A4.36,4.36,0,0,0,86.46,23a2.21,2.21,0,0,0-1,.19.58.58,0,0,0-.35.51.5.5,0,0,0,.38.49,6.65,6.65,0,0,0,1.2.26,13.11,13.11,0,0,1,1.51.34,2.17,2.17,0,0,1,1,.63,1.81,1.81,0,0,1,.43,1.29A2,2,0,0,1,89.19,28a2.72,2.72,0,0,1-1.23.86A5.67,5.67,0,0,1,86.06,29.11ZM91,21.47h2.18V29H91Zm1.09-1a1.4,1.4,0,0,1-1-.35,1.15,1.15,0,0,1-.38-.87,1.17,1.17,0,0,1,.38-.87,1.56,1.56,0,0,1,2,0,1.07,1.07,0,0,1,.38.84,1.22,1.22,0,0,1-.38.91A1.4,1.4,0,0,1,92.05,20.42Zm10.5,4.84s0,.23,0,.59H96.81A1.76,1.76,0,0,0,97.54,27a2.38,2.38,0,0,0,1.42.4,2.77,2.77,0,0,0,1-.17,2.42,2.42,0,0,0,.85-.56L102,27.89a3.85,3.85,0,0,1-3.1,1.22,5,5,0,0,1-2.26-.49,3.74,3.74,0,0,1-1.51-1.38,3.87,3.87,0,0,1-.53-2,3.78,3.78,0,0,1,.52-2,3.63,3.63,0,0,1,1.44-1.39,4.16,4.16,0,0,1,2.06-.5,4.3,4.3,0,0,1,2,.47A3.48,3.48,0,0,1,102,23.2,4.07,4.07,0,0,1,102.55,25.26ZM98.64,23a1.91,1.91,0,0,0-1.25.42,1.78,1.78,0,0,0-.61,1.15h3.71A1.81,1.81,0,0,0,98.64,23Zm7.45-.55a2.39,2.39,0,0,1,1-.82,3.92,3.92,0,0,1,1.54-.28v2l-.49,0a2,2,0,0,0-1.47.54,2.05,2.05,0,0,0-.54,1.56V29H104V21.47h2.09Zm6.88-1.1a3.89,3.89,0,0,1,2.69.84,3.14,3.14,0,0,1,.94,2.5V29h-2v-.94a2.42,2.42,0,0,1-2.29,1.05,3.7,3.7,0,0,1-1.51-.29,2.36,2.36,0,0,1-1-.81,2.16,2.16,0,0,1-.33-1.18,2,2,0,0,1,.78-1.65,4.07,4.07,0,0,1,2.45-.6h1.73a1.39,1.39,0,0,0-.43-1.1,1.89,1.89,0,0,0-1.3-.39,3.76,3.76,0,0,0-1.19.2,3.12,3.12,0,0,0-1,.5l-.78-1.52a4.54,4.54,0,0,1,1.47-.68A6.56,6.56,0,0,1,113,21.36Zm-.17,6.28a1.93,1.93,0,0,0,1-.25,1.43,1.43,0,0,0,.61-.77v-.77h-1.49c-.9,0-1.35.29-1.35.88a.79.79,0,0,0,.33.67A1.5,1.5,0,0,0,112.8,27.64Zm10.63,1a2.19,2.19,0,0,1-.8.36,3.82,3.82,0,0,1-1,.11,3,3,0,0,1-2.08-.68,2.63,2.63,0,0,1-.73-2V23.32h-1.16V21.64h1.16V19.8H121v1.84h1.88v1.68H121v3.06a1,1,0,0,0,.24.74.94.94,0,0,0,.7.26,1.47,1.47,0,0,0,.89-.28Zm4.58.47a4.56,4.56,0,0,1-2.14-.49,3.69,3.69,0,0,1-1.47-1.38,4.06,4.06,0,0,1,0-4,3.6,3.6,0,0,1,1.47-1.37,4.81,4.81,0,0,1,4.27,0,3.73,3.73,0,0,1,1.47,1.37,3.83,3.83,0,0,1-1.47,5.39A4.52,4.52,0,0,1,128,29.11Zm0-1.79a1.81,1.81,0,0,0,1.37-.56,2.1,2.1,0,0,0,.55-1.53,2.06,2.06,0,0,0-.55-1.51,1.78,1.78,0,0,0-1.37-.57,1.85,1.85,0,0,0-1.39.57,2.1,2.1,0,0,0-.54,1.51,2.13,2.13,0,0,0,.54,1.53A1.88,1.88,0,0,0,128,27.32Z"/><circle class="cls-3" cx="20" cy="24" r="20"/><circle class="cls-4" cx="20" cy="24" r="16"/><path class="cls-5" d="M20,33.08A9.08,9.08,0,1,0,10.92,24,9.08,9.08,0,0,0,20,33.08Z"/></g></g></svg>